<?xml version="1.0" encoding="UTF-8" standalone="no"?>
<!DOCTYPE svg PUBLIC "-//W3C//DTD SVG 1.1//EN"
 "http://www.w3.org/Graphics/SVG/1.1/DTD/svg11.dtd">
<!-- Generated by graphviz version 2.36.0 (20140111.2315)
 -->
<!-- Title: controllers_diagram Pages: 1 -->
<svg width="725pt" height="705pt"
 viewBox="0.00 0.00 725.00 705.00" xmlns="http://www.w3.org/2000/svg" xmlns:xlink="http://www.w3.org/1999/xlink">
<g id="graph0" class="graph" transform="scale(1 1) rotate(0) translate(4 701)">
<title>controllers_diagram</title>
<polygon fill="none" stroke="none" points="-4,4 -4,-701 721,-701 721,4 -4,4"/>
<!-- _diagram_info -->
<g id="node1" class="node"><title>_diagram_info</title>
<text text-anchor="start" x="8" y="-82.6" font-family="Times,serif" font-size="13.00">Controllers diagram</text>
<text text-anchor="start" x="8" y="-68.6" font-family="Times,serif" font-size="13.00">Date: Oct 02 2015 &#45; 15:10</text>
<text text-anchor="start" x="8" y="-54.6" font-family="Times,serif" font-size="13.00">Migration version: 20151001192043</text>
<text text-anchor="start" x="8" y="-40.6" font-family="Times,serif" font-size="13.00">Generated by RailRoady 1.3.1</text>
<text text-anchor="start" x="8" y="-26.6" font-family="Times,serif" font-size="13.00">http://railroady.prestonlee.com</text>
</g>
<!-- ApplicationController -->
<g id="node2" class="node"><title>ApplicationController</title>
<path fill="none" stroke="black" d="M392,-0.5C392,-0.5 538,-0.5 538,-0.5 544,-0.5 550,-6.5 550,-12.5 550,-12.5 550,-126.5 550,-126.5 550,-132.5 544,-138.5 538,-138.5 538,-138.5 392,-138.5 392,-138.5 386,-138.5 380,-132.5 380,-126.5 380,-126.5 380,-12.5 380,-12.5 380,-6.5 386,-0.5 392,-0.5"/>
<text text-anchor="middle" x="465" y="-123.3" font-family="Times,serif" font-size="14.00">ApplicationController</text>
<polyline fill="none" stroke="black" points="380,-115.5 550,-115.5 "/>
<text text-anchor="start" x="388" y="-100.3" font-family="Times,serif" font-size="14.00">check_admin_actions</text>
<text text-anchor="start" x="388" y="-85.3" font-family="Times,serif" font-size="14.00">check_sesai_central_actions</text>
<text text-anchor="start" x="388" y="-70.3" font-family="Times,serif" font-size="14.00">health</text>
<polyline fill="none" stroke="black" points="380,-62.5 550,-62.5 "/>
<polyline fill="none" stroke="black" points="380,-38.5 550,-38.5 "/>
<text text-anchor="start" x="388" y="-23.3" font-family="Times,serif" font-size="14.00">_layout</text>
<text text-anchor="start" x="388" y="-8.3" font-family="Times,serif" font-size="14.00">determine_layout</text>
</g>
<!-- CasaisController -->
<g id="node3" class="node"><title>CasaisController</title>
<path fill="none" stroke="black" d="M50,-513.5C50,-513.5 133,-513.5 133,-513.5 139,-513.5 145,-519.5 145,-525.5 145,-525.5 145,-684.5 145,-684.5 145,-690.5 139,-696.5 133,-696.5 133,-696.5 50,-696.5 50,-696.5 44,-696.5 38,-690.5 38,-684.5 38,-684.5 38,-525.5 38,-525.5 38,-519.5 44,-513.5 50,-513.5"/>
<text text-anchor="middle" x="91.5" y="-681.3" font-family="Times,serif" font-size="14.00">CasaisController</text>
<polyline fill="none" stroke="black" points="38,-673.5 145,-673.5 "/>
<text text-anchor="start" x="46" y="-658.3" font-family="Times,serif" font-size="14.00">create</text>
<text text-anchor="start" x="46" y="-643.3" font-family="Times,serif" font-size="14.00">edit</text>
<text text-anchor="start" x="46" y="-628.3" font-family="Times,serif" font-size="14.00">index</text>
<text text-anchor="start" x="46" y="-613.3" font-family="Times,serif" font-size="14.00">new</text>
<text text-anchor="start" x="46" y="-598.3" font-family="Times,serif" font-size="14.00">update</text>
<polyline fill="none" stroke="black" points="38,-590.5 145,-590.5 "/>
<polyline fill="none" stroke="black" points="38,-566.5 145,-566.5 "/>
<text text-anchor="start" x="46" y="-551.3" font-family="Times,serif" font-size="14.00">_layout</text>
<text text-anchor="start" x="46" y="-536.3" font-family="Times,serif" font-size="14.00">casai_params</text>
<text text-anchor="start" x="46" y="-521.3" font-family="Times,serif" font-size="14.00">set_casai</text>
</g>
<!-- UsersController -->
<g id="node4" class="node"><title>UsersController</title>
<path fill="none" stroke="black" d="M392,-171.5C392,-171.5 511,-171.5 511,-171.5 517,-171.5 523,-177.5 523,-183.5 523,-183.5 523,-402.5 523,-402.5 523,-408.5 517,-414.5 511,-414.5 511,-414.5 392,-414.5 392,-414.5 386,-414.5 380,-408.5 380,-402.5 380,-402.5 380,-183.5 380,-183.5 380,-177.5 386,-171.5 392,-171.5"/>
<text text-anchor="middle" x="451.5" y="-399.3" font-family="Times,serif" font-size="14.00">UsersController</text>
<polyline fill="none" stroke="black" points="380,-391.5 523,-391.5 "/>
<text text-anchor="start" x="388" y="-376.3" font-family="Times,serif" font-size="14.00">create</text>
<text text-anchor="start" x="388" y="-361.3" font-family="Times,serif" font-size="14.00">edit</text>
<text text-anchor="start" x="388" y="-346.3" font-family="Times,serif" font-size="14.00">edit_password</text>
<text text-anchor="start" x="388" y="-331.3" font-family="Times,serif" font-size="14.00">home</text>
<text text-anchor="start" x="388" y="-316.3" font-family="Times,serif" font-size="14.00">index</text>
<text text-anchor="start" x="388" y="-301.3" font-family="Times,serif" font-size="14.00">new</text>
<text text-anchor="start" x="388" y="-286.3" font-family="Times,serif" font-size="14.00">update</text>
<text text-anchor="start" x="388" y="-271.3" font-family="Times,serif" font-size="14.00">update_password</text>
<polyline fill="none" stroke="black" points="380,-263.5 523,-263.5 "/>
<polyline fill="none" stroke="black" points="380,-239.5 523,-239.5 "/>
<text text-anchor="start" x="388" y="-224.3" font-family="Times,serif" font-size="14.00">_layout</text>
<text text-anchor="start" x="388" y="-209.3" font-family="Times,serif" font-size="14.00">set_user</text>
<text text-anchor="start" x="388" y="-194.3" font-family="Times,serif" font-size="14.00">user_params</text>
<text text-anchor="start" x="388" y="-179.3" font-family="Times,serif" font-size="14.00">user_password_params</text>
</g>
<!-- CategoryBudgetsController -->
<g id="node5" class="node"><title>CategoryBudgetsController</title>
<path fill="none" stroke="black" d="M563,-171.5C563,-171.5 705,-171.5 705,-171.5 711,-171.5 717,-177.5 717,-183.5 717,-183.5 717,-252.5 717,-252.5 717,-258.5 711,-264.5 705,-264.5 705,-264.5 563,-264.5 563,-264.5 557,-264.5 551,-258.5 551,-252.5 551,-252.5 551,-183.5 551,-183.5 551,-177.5 557,-171.5 563,-171.5"/>
<text text-anchor="middle" x="634" y="-249.3" font-family="Times,serif" font-size="14.00">CategoryBudgetsController</text>
<polyline fill="none" stroke="black" points="551,-241.5 717,-241.5 "/>
<text text-anchor="start" x="559" y="-226.3" font-family="Times,serif" font-size="14.00">index</text>
<polyline fill="none" stroke="black" points="551,-218.5 717,-218.5 "/>
<polyline fill="none" stroke="black" points="551,-194.5 717,-194.5 "/>
<text text-anchor="start" x="559" y="-179.3" font-family="Times,serif" font-size="14.00">_layout</text>
</g>
<!-- DemographicDatasController -->
<g id="node6" class="node"><title>DemographicDatasController</title>
<path fill="none" stroke="black" d="M449,-456.5C449,-456.5 602,-456.5 602,-456.5 608,-456.5 614,-462.5 614,-468.5 614,-468.5 614,-597.5 614,-597.5 614,-603.5 608,-609.5 602,-609.5 602,-609.5 449,-609.5 449,-609.5 443,-609.5 437,-603.5 437,-597.5 437,-597.5 437,-468.5 437,-468.5 437,-462.5 443,-456.5 449,-456.5"/>
<text text-anchor="middle" x="525.5" y="-594.3" font-family="Times,serif" font-size="14.00">DemographicDatasController</text>
<polyline fill="none" stroke="black" points="437,-586.5 614,-586.5 "/>
<text text-anchor="start" x="445" y="-571.3" font-family="Times,serif" font-size="14.00">edit</text>
<text text-anchor="start" x="445" y="-556.3" font-family="Times,serif" font-size="14.00">index</text>
<text text-anchor="start" x="445" y="-541.3" font-family="Times,serif" font-size="14.00">update</text>
<polyline fill="none" stroke="black" points="437,-533.5 614,-533.5 "/>
<polyline fill="none" stroke="black" points="437,-509.5 614,-509.5 "/>
<text text-anchor="start" x="445" y="-494.3" font-family="Times,serif" font-size="14.00">_layout</text>
<text text-anchor="start" x="445" y="-479.3" font-family="Times,serif" font-size="14.00">demographic_data_params</text>
<text text-anchor="start" x="445" y="-464.3" font-family="Times,serif" font-size="14.00">set_demographic_data</text>
</g>
<!-- TextTemplatesController -->
<g id="node7" class="node"><title>TextTemplatesController</title>
<path fill="none" stroke="black" d="M12,-285.5C12,-285.5 142,-285.5 142,-285.5 148,-285.5 154,-291.5 154,-297.5 154,-297.5 154,-441.5 154,-441.5 154,-447.5 148,-453.5 142,-453.5 142,-453.5 12,-453.5 12,-453.5 6,-453.5 0,-447.5 0,-441.5 0,-441.5 0,-297.5 0,-297.5 0,-291.5 6,-285.5 12,-285.5"/>
<text text-anchor="middle" x="77" y="-438.3" font-family="Times,serif" font-size="14.00">TextTemplatesController</text>
<polyline fill="none" stroke="black" points="0,-430.5 154,-430.5 "/>
<text text-anchor="start" x="8" y="-415.3" font-family="Times,serif" font-size="14.00">edit</text>
<text text-anchor="start" x="8" y="-400.3" font-family="Times,serif" font-size="14.00">index</text>
<text text-anchor="start" x="8" y="-385.3" font-family="Times,serif" font-size="14.00">update</text>
<polyline fill="none" stroke="black" points="0,-377.5 154,-377.5 "/>
<polyline fill="none" stroke="black" points="0,-353.5 154,-353.5 "/>
<text text-anchor="start" x="8" y="-338.3" font-family="Times,serif" font-size="14.00">_layout</text>
<text text-anchor="start" x="8" y="-323.3" font-family="Times,serif" font-size="14.00">set_section</text>
<text text-anchor="start" x="8" y="-308.3" font-family="Times,serif" font-size="14.00">set_text_template</text>
<text text-anchor="start" x="8" y="-293.3" font-family="Times,serif" font-size="14.00">text_template_params</text>
</g>
<!-- CostUsersController -->
<g id="node8" class="node"><title>CostUsersController</title>
<path fill="none" stroke="black" d="M31,-133.5C31,-133.5 135,-133.5 135,-133.5 141,-133.5 147,-139.5 147,-145.5 147,-145.5 147,-244.5 147,-244.5 147,-250.5 141,-256.5 135,-256.5 135,-256.5 31,-256.5 31,-256.5 25,-256.5 19,-250.5 19,-244.5 19,-244.5 19,-145.5 19,-145.5 19,-139.5 25,-133.5 31,-133.5"/>
<text text-anchor="middle" x="83" y="-241.3" font-family="Times,serif" font-size="14.00">CostUsersController</text>
<polyline fill="none" stroke="black" points="19,-233.5 147,-233.5 "/>
<text text-anchor="start" x="27" y="-218.3" font-family="Times,serif" font-size="14.00">edit</text>
<text text-anchor="start" x="27" y="-203.3" font-family="Times,serif" font-size="14.00">index</text>
<text text-anchor="start" x="27" y="-188.3" font-family="Times,serif" font-size="14.00">update</text>
<polyline fill="none" stroke="black" points="19,-180.5 147,-180.5 "/>
<polyline fill="none" stroke="black" points="19,-156.5 147,-156.5 "/>
<text text-anchor="start" x="27" y="-141.3" font-family="Times,serif" font-size="14.00">_layout</text>
</g>
<!-- AbsoluteDataController -->
<g id="node9" class="node"><title>AbsoluteDataController</title>
<path fill="none" stroke="black" d="M202,-437.5C202,-437.5 327,-437.5 327,-437.5 333,-437.5 339,-443.5 339,-449.5 339,-449.5 339,-623.5 339,-623.5 339,-629.5 333,-635.5 327,-635.5 327,-635.5 202,-635.5 202,-635.5 196,-635.5 190,-629.5 190,-623.5 190,-623.5 190,-449.5 190,-449.5 190,-443.5 196,-437.5 202,-437.5"/>
<text text-anchor="middle" x="264.5" y="-620.3" font-family="Times,serif" font-size="14.00">AbsoluteDataController</text>
<polyline fill="none" stroke="black" points="190,-612.5 339,-612.5 "/>
<text text-anchor="start" x="198" y="-597.3" font-family="Times,serif" font-size="14.00">create</text>
<text text-anchor="start" x="198" y="-582.3" font-family="Times,serif" font-size="14.00">destroy</text>
<text text-anchor="start" x="198" y="-567.3" font-family="Times,serif" font-size="14.00">edit</text>
<text text-anchor="start" x="198" y="-552.3" font-family="Times,serif" font-size="14.00">index</text>
<text text-anchor="start" x="198" y="-537.3" font-family="Times,serif" font-size="14.00">new</text>
<text text-anchor="start" x="198" y="-522.3" font-family="Times,serif" font-size="14.00">update</text>
<polyline fill="none" stroke="black" points="190,-514.5 339,-514.5 "/>
<polyline fill="none" stroke="black" points="190,-490.5 339,-490.5 "/>
<text text-anchor="start" x="198" y="-475.3" font-family="Times,serif" font-size="14.00">_layout</text>
<text text-anchor="start" x="198" y="-460.3" font-family="Times,serif" font-size="14.00">absolute_datum_params</text>
<text text-anchor="start" x="198" y="-445.3" font-family="Times,serif" font-size="14.00">set_absolute_datum</text>
</g>
<!-- PdsisController -->
<g id="node10" class="node"><title>PdsisController</title>
<path fill="none" stroke="black" d="M202,-133.5C202,-133.5 322,-133.5 322,-133.5 328,-133.5 334,-139.5 334,-145.5 334,-145.5 334,-394.5 334,-394.5 334,-400.5 328,-406.5 322,-406.5 322,-406.5 202,-406.5 202,-406.5 196,-406.5 190,-400.5 190,-394.5 190,-394.5 190,-145.5 190,-145.5 190,-139.5 196,-133.5 202,-133.5"/>
<text text-anchor="middle" x="262" y="-391.3" font-family="Times,serif" font-size="14.00">PdsisController</text>
<polyline fill="none" stroke="black" points="190,-383.5 334,-383.5 "/>
<text text-anchor="start" x="198" y="-368.3" font-family="Times,serif" font-size="14.00">edit</text>
<text text-anchor="start" x="198" y="-353.3" font-family="Times,serif" font-size="14.00">edit_category_budgets</text>
<text text-anchor="start" x="198" y="-338.3" font-family="Times,serif" font-size="14.00">health_indicators</text>
<text text-anchor="start" x="198" y="-323.3" font-family="Times,serif" font-size="14.00">index</text>
<text text-anchor="start" x="198" y="-308.3" font-family="Times,serif" font-size="14.00">show</text>
<text text-anchor="start" x="198" y="-293.3" font-family="Times,serif" font-size="14.00">update</text>
<polyline fill="none" stroke="black" points="190,-285.5 334,-285.5 "/>
<polyline fill="none" stroke="black" points="190,-261.5 334,-261.5 "/>
<text text-anchor="start" x="198" y="-246.3" font-family="Times,serif" font-size="14.00">_layout</text>
<text text-anchor="start" x="198" y="-231.3" font-family="Times,serif" font-size="14.00">pdsi_params</text>
<text text-anchor="start" x="198" y="-216.3" font-family="Times,serif" font-size="14.00">redirect_after_save</text>
<text text-anchor="start" x="198" y="-201.3" font-family="Times,serif" font-size="14.00">redirect_to_indicadores</text>
<text text-anchor="start" x="198" y="-186.3" font-family="Times,serif" font-size="14.00">set_base_polo</text>
<text text-anchor="start" x="198" y="-171.3" font-family="Times,serif" font-size="14.00">set_pdsi</text>
<text text-anchor="start" x="198" y="-156.3" font-family="Times,serif" font-size="14.00">set_section</text>
<text text-anchor="start" x="198" y="-141.3" font-family="Times,serif" font-size="14.00">set_subsection</text>
</g>
</g>
</svg>
