<?xml version="1.0" encoding="UTF-8" standalone="no"?>
<!DOCTYPE svg PUBLIC "-//W3C//DTD SVG 1.1//EN"
 "http://www.w3.org/Graphics/SVG/1.1/DTD/svg11.dtd">
<!-- Generated by graphviz version 2.36.0 (20140111.2315)
 -->
<!-- Title: controllers_diagram Pages: 1 -->
<svg width="1030pt" height="1047pt"
 viewBox="0.00 0.00 1030.00 1047.00" xmlns="http://www.w3.org/2000/svg" xmlns:xlink="http://www.w3.org/1999/xlink">
<g id="graph0" class="graph" transform="scale(1 1) rotate(0) translate(4 1043)">
<title>controllers_diagram</title>
<polygon fill="none" stroke="none" points="-4,4 -4,-1043 1026,-1043 1026,4 -4,4"/>
<!-- _diagram_info -->
<g id="node1" class="node"><title>_diagram_info</title>
<text text-anchor="start" x="328" y="-203.6" font-family="Times,serif" font-size="13.00">Controllers diagram</text>
<text text-anchor="start" x="328" y="-189.6" font-family="Times,serif" font-size="13.00">Date: Dec 16 2015 &#45; 20:04</text>
<text text-anchor="start" x="328" y="-175.6" font-family="Times,serif" font-size="13.00">Migration version: 20151208133228</text>
<text text-anchor="start" x="328" y="-161.6" font-family="Times,serif" font-size="13.00">Generated by RailRoady 1.3.1</text>
<text text-anchor="start" x="328" y="-147.6" font-family="Times,serif" font-size="13.00">http://railroady.prestonlee.com</text>
</g>
<!-- AbsoluteDataController -->
<g id="node2" class="node"><title>AbsoluteDataController</title>
<path fill="none" stroke="black" d="M212,-460.5C212,-460.5 337,-460.5 337,-460.5 343,-460.5 349,-466.5 349,-472.5 349,-472.5 349,-646.5 349,-646.5 349,-652.5 343,-658.5 337,-658.5 337,-658.5 212,-658.5 212,-658.5 206,-658.5 200,-652.5 200,-646.5 200,-646.5 200,-472.5 200,-472.5 200,-466.5 206,-460.5 212,-460.5"/>
<text text-anchor="middle" x="274.5" y="-643.3" font-family="Times,serif" font-size="14.00">AbsoluteDataController</text>
<polyline fill="none" stroke="black" points="200,-635.5 349,-635.5 "/>
<text text-anchor="start" x="208" y="-620.3" font-family="Times,serif" font-size="14.00">create</text>
<text text-anchor="start" x="208" y="-605.3" font-family="Times,serif" font-size="14.00">destroy</text>
<text text-anchor="start" x="208" y="-590.3" font-family="Times,serif" font-size="14.00">edit</text>
<text text-anchor="start" x="208" y="-575.3" font-family="Times,serif" font-size="14.00">index</text>
<text text-anchor="start" x="208" y="-560.3" font-family="Times,serif" font-size="14.00">new</text>
<text text-anchor="start" x="208" y="-545.3" font-family="Times,serif" font-size="14.00">update</text>
<polyline fill="none" stroke="black" points="200,-537.5 349,-537.5 "/>
<polyline fill="none" stroke="black" points="200,-513.5 349,-513.5 "/>
<text text-anchor="start" x="208" y="-498.3" font-family="Times,serif" font-size="14.00">_layout</text>
<text text-anchor="start" x="208" y="-483.3" font-family="Times,serif" font-size="14.00">absolute_datum_params</text>
<text text-anchor="start" x="208" y="-468.3" font-family="Times,serif" font-size="14.00">set_absolute_datum</text>
</g>
<!-- ApplicationController -->
<g id="node3" class="node"><title>ApplicationController</title>
<path fill="none" stroke="black" d="M412,-700.5C412,-700.5 558,-700.5 558,-700.5 564,-700.5 570,-706.5 570,-712.5 570,-712.5 570,-901.5 570,-901.5 570,-907.5 564,-913.5 558,-913.5 558,-913.5 412,-913.5 412,-913.5 406,-913.5 400,-907.5 400,-901.5 400,-901.5 400,-712.5 400,-712.5 400,-706.5 406,-700.5 412,-700.5"/>
<text text-anchor="middle" x="485" y="-898.3" font-family="Times,serif" font-size="14.00">ApplicationController</text>
<polyline fill="none" stroke="black" points="400,-890.5 570,-890.5 "/>
<text text-anchor="start" x="408" y="-875.3" font-family="Times,serif" font-size="14.00">check_admin_actions</text>
<text text-anchor="start" x="408" y="-860.3" font-family="Times,serif" font-size="14.00">check_sesai_central_actions</text>
<text text-anchor="start" x="408" y="-845.3" font-family="Times,serif" font-size="14.00">current_dsei</text>
<text text-anchor="start" x="408" y="-830.3" font-family="Times,serif" font-size="14.00">current_pdsi</text>
<text text-anchor="start" x="408" y="-815.3" font-family="Times,serif" font-size="14.00">health</text>
<text text-anchor="start" x="408" y="-800.3" font-family="Times,serif" font-size="14.00">image_upload</text>
<text text-anchor="start" x="408" y="-785.3" font-family="Times,serif" font-size="14.00">set_dsei_and_pdsi</text>
<text text-anchor="start" x="408" y="-770.3" font-family="Times,serif" font-size="14.00">set_dsei_and_pdsi_to_sesai</text>
<polyline fill="none" stroke="black" points="400,-762.5 570,-762.5 "/>
<polyline fill="none" stroke="black" points="400,-738.5 570,-738.5 "/>
<text text-anchor="start" x="408" y="-723.3" font-family="Times,serif" font-size="14.00">_layout</text>
<text text-anchor="start" x="408" y="-708.3" font-family="Times,serif" font-size="14.00">determine_layout</text>
</g>
<!-- BudgetCorrectionFactorsController -->
<g id="node4" class="node"><title>BudgetCorrectionFactorsController</title>
<path fill="none" stroke="black" d="M592,-340.5C592,-340.5 777,-340.5 777,-340.5 783,-340.5 789,-346.5 789,-352.5 789,-352.5 789,-541.5 789,-541.5 789,-547.5 783,-553.5 777,-553.5 777,-553.5 592,-553.5 592,-553.5 586,-553.5 580,-547.5 580,-541.5 580,-541.5 580,-352.5 580,-352.5 580,-346.5 586,-340.5 592,-340.5"/>
<text text-anchor="middle" x="684.5" y="-538.3" font-family="Times,serif" font-size="14.00">BudgetCorrectionFactorsController</text>
<polyline fill="none" stroke="black" points="580,-530.5 789,-530.5 "/>
<text text-anchor="start" x="588" y="-515.3" font-family="Times,serif" font-size="14.00">create</text>
<text text-anchor="start" x="588" y="-500.3" font-family="Times,serif" font-size="14.00">destroy</text>
<text text-anchor="start" x="588" y="-485.3" font-family="Times,serif" font-size="14.00">edit</text>
<text text-anchor="start" x="588" y="-470.3" font-family="Times,serif" font-size="14.00">index</text>
<text text-anchor="start" x="588" y="-455.3" font-family="Times,serif" font-size="14.00">new</text>
<text text-anchor="start" x="588" y="-440.3" font-family="Times,serif" font-size="14.00">show</text>
<text text-anchor="start" x="588" y="-425.3" font-family="Times,serif" font-size="14.00">update</text>
<polyline fill="none" stroke="black" points="580,-417.5 789,-417.5 "/>
<polyline fill="none" stroke="black" points="580,-393.5 789,-393.5 "/>
<text text-anchor="start" x="588" y="-378.3" font-family="Times,serif" font-size="14.00">_layout</text>
<text text-anchor="start" x="588" y="-363.3" font-family="Times,serif" font-size="14.00">budget_correction_factor_params</text>
<text text-anchor="start" x="588" y="-348.3" font-family="Times,serif" font-size="14.00">set_budget_correction_factor</text>
</g>
<!-- BudgetForecastsController -->
<g id="node5" class="node"><title>BudgetForecastsController</title>
<path fill="none" stroke="black" d="M872,-860.5C872,-860.5 1010,-860.5 1010,-860.5 1016,-860.5 1022,-866.5 1022,-872.5 1022,-872.5 1022,-986.5 1022,-986.5 1022,-992.5 1016,-998.5 1010,-998.5 1010,-998.5 872,-998.5 872,-998.5 866,-998.5 860,-992.5 860,-986.5 860,-986.5 860,-872.5 860,-872.5 860,-866.5 866,-860.5 872,-860.5"/>
<text text-anchor="middle" x="941" y="-983.3" font-family="Times,serif" font-size="14.00">BudgetForecastsController</text>
<polyline fill="none" stroke="black" points="860,-975.5 1022,-975.5 "/>
<text text-anchor="start" x="868" y="-960.3" font-family="Times,serif" font-size="14.00">edit</text>
<text text-anchor="start" x="868" y="-945.3" font-family="Times,serif" font-size="14.00">index</text>
<text text-anchor="start" x="868" y="-930.3" font-family="Times,serif" font-size="14.00">show</text>
<text text-anchor="start" x="868" y="-915.3" font-family="Times,serif" font-size="14.00">update</text>
<polyline fill="none" stroke="black" points="860,-907.5 1022,-907.5 "/>
<polyline fill="none" stroke="black" points="860,-883.5 1022,-883.5 "/>
<text text-anchor="start" x="868" y="-868.3" font-family="Times,serif" font-size="14.00">_layout</text>
</g>
<!-- CasaisController -->
<g id="node6" class="node"><title>CasaisController</title>
<path fill="none" stroke="black" d="M72,-460.5C72,-460.5 155,-460.5 155,-460.5 161,-460.5 167,-466.5 167,-472.5 167,-472.5 167,-631.5 167,-631.5 167,-637.5 161,-643.5 155,-643.5 155,-643.5 72,-643.5 72,-643.5 66,-643.5 60,-637.5 60,-631.5 60,-631.5 60,-472.5 60,-472.5 60,-466.5 66,-460.5 72,-460.5"/>
<text text-anchor="middle" x="113.5" y="-628.3" font-family="Times,serif" font-size="14.00">CasaisController</text>
<polyline fill="none" stroke="black" points="60,-620.5 167,-620.5 "/>
<text text-anchor="start" x="68" y="-605.3" font-family="Times,serif" font-size="14.00">create</text>
<text text-anchor="start" x="68" y="-590.3" font-family="Times,serif" font-size="14.00">edit</text>
<text text-anchor="start" x="68" y="-575.3" font-family="Times,serif" font-size="14.00">index</text>
<text text-anchor="start" x="68" y="-560.3" font-family="Times,serif" font-size="14.00">new</text>
<text text-anchor="start" x="68" y="-545.3" font-family="Times,serif" font-size="14.00">update</text>
<polyline fill="none" stroke="black" points="60,-537.5 167,-537.5 "/>
<polyline fill="none" stroke="black" points="60,-513.5 167,-513.5 "/>
<text text-anchor="start" x="68" y="-498.3" font-family="Times,serif" font-size="14.00">_layout</text>
<text text-anchor="start" x="68" y="-483.3" font-family="Times,serif" font-size="14.00">casai_params</text>
<text text-anchor="start" x="68" y="-468.3" font-family="Times,serif" font-size="14.00">set_casai</text>
</g>
<!-- CategoryBudgetsController -->
<g id="node7" class="node"><title>CategoryBudgetsController</title>
<path fill="none" stroke="black" d="M32,-700.5C32,-700.5 174,-700.5 174,-700.5 180,-700.5 186,-706.5 186,-712.5 186,-712.5 186,-781.5 186,-781.5 186,-787.5 180,-793.5 174,-793.5 174,-793.5 32,-793.5 32,-793.5 26,-793.5 20,-787.5 20,-781.5 20,-781.5 20,-712.5 20,-712.5 20,-706.5 26,-700.5 32,-700.5"/>
<text text-anchor="middle" x="103" y="-778.3" font-family="Times,serif" font-size="14.00">CategoryBudgetsController</text>
<polyline fill="none" stroke="black" points="20,-770.5 186,-770.5 "/>
<text text-anchor="start" x="28" y="-755.3" font-family="Times,serif" font-size="14.00">index</text>
<polyline fill="none" stroke="black" points="20,-747.5 186,-747.5 "/>
<polyline fill="none" stroke="black" points="20,-723.5 186,-723.5 "/>
<text text-anchor="start" x="28" y="-708.3" font-family="Times,serif" font-size="14.00">_layout</text>
</g>
<!-- CostsController -->
<g id="node8" class="node"><title>CostsController</title>
<path fill="none" stroke="black" d="M832,-320.5C832,-320.5 910,-320.5 910,-320.5 916,-320.5 922,-326.5 922,-332.5 922,-332.5 922,-521.5 922,-521.5 922,-527.5 916,-533.5 910,-533.5 910,-533.5 832,-533.5 832,-533.5 826,-533.5 820,-527.5 820,-521.5 820,-521.5 820,-332.5 820,-332.5 820,-326.5 826,-320.5 832,-320.5"/>
<text text-anchor="middle" x="871" y="-518.3" font-family="Times,serif" font-size="14.00">CostsController</text>
<polyline fill="none" stroke="black" points="820,-510.5 922,-510.5 "/>
<text text-anchor="start" x="828" y="-495.3" font-family="Times,serif" font-size="14.00">create</text>
<text text-anchor="start" x="828" y="-480.3" font-family="Times,serif" font-size="14.00">destroy</text>
<text text-anchor="start" x="828" y="-465.3" font-family="Times,serif" font-size="14.00">edit</text>
<text text-anchor="start" x="828" y="-450.3" font-family="Times,serif" font-size="14.00">index</text>
<text text-anchor="start" x="828" y="-435.3" font-family="Times,serif" font-size="14.00">new</text>
<text text-anchor="start" x="828" y="-420.3" font-family="Times,serif" font-size="14.00">show</text>
<text text-anchor="start" x="828" y="-405.3" font-family="Times,serif" font-size="14.00">update</text>
<polyline fill="none" stroke="black" points="820,-397.5 922,-397.5 "/>
<polyline fill="none" stroke="black" points="820,-373.5 922,-373.5 "/>
<text text-anchor="start" x="828" y="-358.3" font-family="Times,serif" font-size="14.00">_layout</text>
<text text-anchor="start" x="828" y="-343.3" font-family="Times,serif" font-size="14.00">cost_params</text>
<text text-anchor="start" x="828" y="-328.3" font-family="Times,serif" font-size="14.00">set_cost</text>
</g>
<!-- CostUsersController -->
<g id="node9" class="node"><title>CostUsersController</title>
<path fill="none" stroke="black" d="M32,-300.5C32,-300.5 136,-300.5 136,-300.5 142,-300.5 148,-306.5 148,-312.5 148,-312.5 148,-411.5 148,-411.5 148,-417.5 142,-423.5 136,-423.5 136,-423.5 32,-423.5 32,-423.5 26,-423.5 20,-417.5 20,-411.5 20,-411.5 20,-312.5 20,-312.5 20,-306.5 26,-300.5 32,-300.5"/>
<text text-anchor="middle" x="84" y="-408.3" font-family="Times,serif" font-size="14.00">CostUsersController</text>
<polyline fill="none" stroke="black" points="20,-400.5 148,-400.5 "/>
<text text-anchor="start" x="28" y="-385.3" font-family="Times,serif" font-size="14.00">edit</text>
<text text-anchor="start" x="28" y="-370.3" font-family="Times,serif" font-size="14.00">index</text>
<text text-anchor="start" x="28" y="-355.3" font-family="Times,serif" font-size="14.00">update</text>
<polyline fill="none" stroke="black" points="20,-347.5 148,-347.5 "/>
<polyline fill="none" stroke="black" points="20,-323.5 148,-323.5 "/>
<text text-anchor="start" x="28" y="-308.3" font-family="Times,serif" font-size="14.00">_layout</text>
</g>
<!-- DemographicDatasController -->
<g id="node10" class="node"><title>DemographicDatasController</title>
<path fill="none" stroke="black" d="M592,-140.5C592,-140.5 745,-140.5 745,-140.5 751,-140.5 757,-146.5 757,-152.5 757,-152.5 757,-281.5 757,-281.5 757,-287.5 751,-293.5 745,-293.5 745,-293.5 592,-293.5 592,-293.5 586,-293.5 580,-287.5 580,-281.5 580,-281.5 580,-152.5 580,-152.5 580,-146.5 586,-140.5 592,-140.5"/>
<text text-anchor="middle" x="668.5" y="-278.3" font-family="Times,serif" font-size="14.00">DemographicDatasController</text>
<polyline fill="none" stroke="black" points="580,-270.5 757,-270.5 "/>
<text text-anchor="start" x="588" y="-255.3" font-family="Times,serif" font-size="14.00">edit</text>
<text text-anchor="start" x="588" y="-240.3" font-family="Times,serif" font-size="14.00">index</text>
<text text-anchor="start" x="588" y="-225.3" font-family="Times,serif" font-size="14.00">update</text>
<polyline fill="none" stroke="black" points="580,-217.5 757,-217.5 "/>
<polyline fill="none" stroke="black" points="580,-193.5 757,-193.5 "/>
<text text-anchor="start" x="588" y="-178.3" font-family="Times,serif" font-size="14.00">_layout</text>
<text text-anchor="start" x="588" y="-163.3" font-family="Times,serif" font-size="14.00">demographic_data_params</text>
<text text-anchor="start" x="588" y="-148.3" font-family="Times,serif" font-size="14.00">set_demographic_data</text>
</g>
<!-- PdsisController -->
<g id="node11" class="node"><title>PdsisController</title>
<path fill="none" stroke="black" d="M612,-600.5C612,-600.5 732,-600.5 732,-600.5 738,-600.5 744,-606.5 744,-612.5 744,-612.5 744,-891.5 744,-891.5 744,-897.5 738,-903.5 732,-903.5 732,-903.5 612,-903.5 612,-903.5 606,-903.5 600,-897.5 600,-891.5 600,-891.5 600,-612.5 600,-612.5 600,-606.5 606,-600.5 612,-600.5"/>
<text text-anchor="middle" x="672" y="-888.3" font-family="Times,serif" font-size="14.00">PdsisController</text>
<polyline fill="none" stroke="black" points="600,-880.5 744,-880.5 "/>
<text text-anchor="start" x="608" y="-865.3" font-family="Times,serif" font-size="14.00">costs_json</text>
<text text-anchor="start" x="608" y="-850.3" font-family="Times,serif" font-size="14.00">delete_map</text>
<text text-anchor="start" x="608" y="-835.3" font-family="Times,serif" font-size="14.00">edit</text>
<text text-anchor="start" x="608" y="-820.3" font-family="Times,serif" font-size="14.00">edit_category_budgets</text>
<text text-anchor="start" x="608" y="-805.3" font-family="Times,serif" font-size="14.00">health_indicators</text>
<text text-anchor="start" x="608" y="-790.3" font-family="Times,serif" font-size="14.00">index</text>
<text text-anchor="start" x="608" y="-775.3" font-family="Times,serif" font-size="14.00">show</text>
<text text-anchor="start" x="608" y="-760.3" font-family="Times,serif" font-size="14.00">update</text>
<polyline fill="none" stroke="black" points="600,-752.5 744,-752.5 "/>
<polyline fill="none" stroke="black" points="600,-728.5 744,-728.5 "/>
<text text-anchor="start" x="608" y="-713.3" font-family="Times,serif" font-size="14.00">_layout</text>
<text text-anchor="start" x="608" y="-698.3" font-family="Times,serif" font-size="14.00">pdsi_params</text>
<text text-anchor="start" x="608" y="-683.3" font-family="Times,serif" font-size="14.00">redirect_after_save</text>
<text text-anchor="start" x="608" y="-668.3" font-family="Times,serif" font-size="14.00">redirect_to_indicadores</text>
<text text-anchor="start" x="608" y="-653.3" font-family="Times,serif" font-size="14.00">set_base_polo</text>
<text text-anchor="start" x="608" y="-638.3" font-family="Times,serif" font-size="14.00">set_pdsi</text>
<text text-anchor="start" x="608" y="-623.3" font-family="Times,serif" font-size="14.00">set_section</text>
<text text-anchor="start" x="608" y="-608.3" font-family="Times,serif" font-size="14.00">set_subsection</text>
</g>
<!-- PeopleController -->
<g id="node12" class="node"><title>PeopleController</title>
<path fill="none" stroke="black" d="M192,-180.5C192,-180.5 277,-180.5 277,-180.5 283,-180.5 289,-186.5 289,-192.5 289,-192.5 289,-411.5 289,-411.5 289,-417.5 283,-423.5 277,-423.5 277,-423.5 192,-423.5 192,-423.5 186,-423.5 180,-417.5 180,-411.5 180,-411.5 180,-192.5 180,-192.5 180,-186.5 186,-180.5 192,-180.5"/>
<text text-anchor="middle" x="234.5" y="-408.3" font-family="Times,serif" font-size="14.00">PeopleController</text>
<polyline fill="none" stroke="black" points="180,-400.5 289,-400.5 "/>
<text text-anchor="start" x="188" y="-385.3" font-family="Times,serif" font-size="14.00">create</text>
<text text-anchor="start" x="188" y="-370.3" font-family="Times,serif" font-size="14.00">destroy</text>
<text text-anchor="start" x="188" y="-355.3" font-family="Times,serif" font-size="14.00">edit</text>
<text text-anchor="start" x="188" y="-340.3" font-family="Times,serif" font-size="14.00">index</text>
<text text-anchor="start" x="188" y="-325.3" font-family="Times,serif" font-size="14.00">new</text>
<text text-anchor="start" x="188" y="-310.3" font-family="Times,serif" font-size="14.00">search</text>
<text text-anchor="start" x="188" y="-295.3" font-family="Times,serif" font-size="14.00">update</text>
<polyline fill="none" stroke="black" points="180,-287.5 289,-287.5 "/>
<polyline fill="none" stroke="black" points="180,-263.5 289,-263.5 "/>
<text text-anchor="start" x="188" y="-248.3" font-family="Times,serif" font-size="14.00">_layout</text>
<text text-anchor="start" x="188" y="-233.3" font-family="Times,serif" font-size="14.00">person_params</text>
<text text-anchor="start" x="188" y="-218.3" font-family="Times,serif" font-size="14.00">set_dsei</text>
<text text-anchor="start" x="188" y="-203.3" font-family="Times,serif" font-size="14.00">set_person</text>
<text text-anchor="start" x="188" y="-188.3" font-family="Times,serif" font-size="14.00">validate_person</text>
</g>
<!-- ResultsController -->
<g id="node13" class="node"><title>ResultsController</title>
<path fill="none" stroke="black" d="M92,-840.5C92,-840.5 180,-840.5 180,-840.5 186,-840.5 192,-846.5 192,-852.5 192,-852.5 192,-1026.5 192,-1026.5 192,-1032.5 186,-1038.5 180,-1038.5 180,-1038.5 92,-1038.5 92,-1038.5 86,-1038.5 80,-1032.5 80,-1026.5 80,-1026.5 80,-852.5 80,-852.5 80,-846.5 86,-840.5 92,-840.5"/>
<text text-anchor="middle" x="136" y="-1023.3" font-family="Times,serif" font-size="14.00">ResultsController</text>
<polyline fill="none" stroke="black" points="80,-1015.5 192,-1015.5 "/>
<text text-anchor="start" x="88" y="-1000.3" font-family="Times,serif" font-size="14.00">create</text>
<text text-anchor="start" x="88" y="-985.3" font-family="Times,serif" font-size="14.00">edit</text>
<text text-anchor="start" x="88" y="-970.3" font-family="Times,serif" font-size="14.00">index</text>
<text text-anchor="start" x="88" y="-955.3" font-family="Times,serif" font-size="14.00">new</text>
<text text-anchor="start" x="88" y="-940.3" font-family="Times,serif" font-size="14.00">show</text>
<text text-anchor="start" x="88" y="-925.3" font-family="Times,serif" font-size="14.00">update</text>
<polyline fill="none" stroke="black" points="80,-917.5 192,-917.5 "/>
<polyline fill="none" stroke="black" points="80,-893.5 192,-893.5 "/>
<text text-anchor="start" x="88" y="-878.3" font-family="Times,serif" font-size="14.00">_layout</text>
<text text-anchor="start" x="88" y="-863.3" font-family="Times,serif" font-size="14.00">result_params</text>
<text text-anchor="start" x="88" y="-848.3" font-family="Times,serif" font-size="14.00">set_result</text>
</g>
<!-- ResultsSpecialController -->
<g id="node14" class="node"><title>ResultsSpecialController</title>
<path fill="none" stroke="black" d="M392,-260.5C392,-260.5 520,-260.5 520,-260.5 526,-260.5 532,-266.5 532,-272.5 532,-272.5 532,-641.5 532,-641.5 532,-647.5 526,-653.5 520,-653.5 520,-653.5 392,-653.5 392,-653.5 386,-653.5 380,-647.5 380,-641.5 380,-641.5 380,-272.5 380,-272.5 380,-266.5 386,-260.5 392,-260.5"/>
<text text-anchor="middle" x="456" y="-638.3" font-family="Times,serif" font-size="14.00">ResultsSpecialController</text>
<polyline fill="none" stroke="black" points="380,-630.5 532,-630.5 "/>
<text text-anchor="start" x="388" y="-615.3" font-family="Times,serif" font-size="14.00">delete</text>
<text text-anchor="start" x="388" y="-600.3" font-family="Times,serif" font-size="14.00">false_result</text>
<text text-anchor="start" x="388" y="-585.3" font-family="Times,serif" font-size="14.00">index</text>
<text text-anchor="start" x="388" y="-570.3" font-family="Times,serif" font-size="14.00">link_product</text>
<text text-anchor="start" x="388" y="-555.3" font-family="Times,serif" font-size="14.00">link_product_dsei</text>
<text text-anchor="start" x="388" y="-540.3" font-family="Times,serif" font-size="14.00">loop</text>
<text text-anchor="start" x="388" y="-525.3" font-family="Times,serif" font-size="14.00">new_comment</text>
<text text-anchor="start" x="388" y="-510.3" font-family="Times,serif" font-size="14.00">products_order</text>
<text text-anchor="start" x="388" y="-495.3" font-family="Times,serif" font-size="14.00">responsability</text>
<text text-anchor="start" x="388" y="-480.3" font-family="Times,serif" font-size="14.00">see_comment</text>
<text text-anchor="start" x="388" y="-465.3" font-family="Times,serif" font-size="14.00">specific_result</text>
<text text-anchor="start" x="388" y="-450.3" font-family="Times,serif" font-size="14.00">specific_update</text>
<text text-anchor="start" x="388" y="-435.3" font-family="Times,serif" font-size="14.00">update</text>
<polyline fill="none" stroke="black" points="380,-427.5 532,-427.5 "/>
<polyline fill="none" stroke="black" points="380,-403.5 532,-403.5 "/>
<text text-anchor="start" x="388" y="-388.3" font-family="Times,serif" font-size="14.00">_layout</text>
<text text-anchor="start" x="388" y="-373.3" font-family="Times,serif" font-size="14.00">delete_params</text>
<text text-anchor="start" x="388" y="-358.3" font-family="Times,serif" font-size="14.00">false_result_params</text>
<text text-anchor="start" x="388" y="-343.3" font-family="Times,serif" font-size="14.00">link_product_params</text>
<text text-anchor="start" x="388" y="-328.3" font-family="Times,serif" font-size="14.00">loop_params</text>
<text text-anchor="start" x="388" y="-313.3" font-family="Times,serif" font-size="14.00">new_comment_params</text>
<text text-anchor="start" x="388" y="-298.3" font-family="Times,serif" font-size="14.00">pdsi_params</text>
<text text-anchor="start" x="388" y="-283.3" font-family="Times,serif" font-size="14.00">set_pdsi</text>
<text text-anchor="start" x="388" y="-268.3" font-family="Times,serif" font-size="14.00">specific_result_params</text>
</g>
<!-- SesaiPeopleController -->
<g id="node15" class="node"><title>SesaiPeopleController</title>
<path fill="none" stroke="black" d="M792,-600.5C792,-600.5 905,-600.5 905,-600.5 911,-600.5 917,-606.5 917,-612.5 917,-612.5 917,-801.5 917,-801.5 917,-807.5 911,-813.5 905,-813.5 905,-813.5 792,-813.5 792,-813.5 786,-813.5 780,-807.5 780,-801.5 780,-801.5 780,-612.5 780,-612.5 780,-606.5 786,-600.5 792,-600.5"/>
<text text-anchor="middle" x="848.5" y="-798.3" font-family="Times,serif" font-size="14.00">SesaiPeopleController</text>
<polyline fill="none" stroke="black" points="780,-790.5 917,-790.5 "/>
<text text-anchor="start" x="788" y="-775.3" font-family="Times,serif" font-size="14.00">create</text>
<text text-anchor="start" x="788" y="-760.3" font-family="Times,serif" font-size="14.00">destroy</text>
<text text-anchor="start" x="788" y="-745.3" font-family="Times,serif" font-size="14.00">edit</text>
<text text-anchor="start" x="788" y="-730.3" font-family="Times,serif" font-size="14.00">index</text>
<text text-anchor="start" x="788" y="-715.3" font-family="Times,serif" font-size="14.00">new</text>
<text text-anchor="start" x="788" y="-700.3" font-family="Times,serif" font-size="14.00">update</text>
<polyline fill="none" stroke="black" points="780,-692.5 917,-692.5 "/>
<polyline fill="none" stroke="black" points="780,-668.5 917,-668.5 "/>
<text text-anchor="start" x="788" y="-653.3" font-family="Times,serif" font-size="14.00">_layout</text>
<text text-anchor="start" x="788" y="-638.3" font-family="Times,serif" font-size="14.00">person_params</text>
<text text-anchor="start" x="788" y="-623.3" font-family="Times,serif" font-size="14.00">set_person</text>
<text text-anchor="start" x="788" y="-608.3" font-family="Times,serif" font-size="14.00">validate_person</text>
</g>
<!-- SpecificResultsController -->
<g id="node16" class="node"><title>SpecificResultsController</title>
<path fill="none" stroke="black" d="M12,-0.5C12,-0.5 144,-0.5 144,-0.5 150,-0.5 156,-6.5 156,-12.5 156,-12.5 156,-126.5 156,-126.5 156,-132.5 150,-138.5 144,-138.5 144,-138.5 12,-138.5 12,-138.5 6,-138.5 0,-132.5 0,-126.5 0,-126.5 0,-12.5 0,-12.5 0,-6.5 6,-0.5 12,-0.5"/>
<text text-anchor="middle" x="78" y="-123.3" font-family="Times,serif" font-size="14.00">SpecificResultsController</text>
<polyline fill="none" stroke="black" points="0,-115.5 156,-115.5 "/>
<text text-anchor="start" x="8" y="-100.3" font-family="Times,serif" font-size="14.00">edit</text>
<text text-anchor="start" x="8" y="-85.3" font-family="Times,serif" font-size="14.00">update</text>
<polyline fill="none" stroke="black" points="0,-77.5 156,-77.5 "/>
<polyline fill="none" stroke="black" points="0,-53.5 156,-53.5 "/>
<text text-anchor="start" x="8" y="-38.3" font-family="Times,serif" font-size="14.00">_layout</text>
<text text-anchor="start" x="8" y="-23.3" font-family="Times,serif" font-size="14.00">dsei_params</text>
<text text-anchor="start" x="8" y="-8.3" font-family="Times,serif" font-size="14.00">set_pdsi</text>
</g>
<!-- TextTemplatesController -->
<g id="node17" class="node"><title>TextTemplatesController</title>
<path fill="none" stroke="black" d="M812,-120.5C812,-120.5 942,-120.5 942,-120.5 948,-120.5 954,-126.5 954,-132.5 954,-132.5 954,-276.5 954,-276.5 954,-282.5 948,-288.5 942,-288.5 942,-288.5 812,-288.5 812,-288.5 806,-288.5 800,-282.5 800,-276.5 800,-276.5 800,-132.5 800,-132.5 800,-126.5 806,-120.5 812,-120.5"/>
<text text-anchor="middle" x="877" y="-273.3" font-family="Times,serif" font-size="14.00">TextTemplatesController</text>
<polyline fill="none" stroke="black" points="800,-265.5 954,-265.5 "/>
<text text-anchor="start" x="808" y="-250.3" font-family="Times,serif" font-size="14.00">edit</text>
<text text-anchor="start" x="808" y="-235.3" font-family="Times,serif" font-size="14.00">index</text>
<text text-anchor="start" x="808" y="-220.3" font-family="Times,serif" font-size="14.00">update</text>
<polyline fill="none" stroke="black" points="800,-212.5 954,-212.5 "/>
<polyline fill="none" stroke="black" points="800,-188.5 954,-188.5 "/>
<text text-anchor="start" x="808" y="-173.3" font-family="Times,serif" font-size="14.00">_layout</text>
<text text-anchor="start" x="808" y="-158.3" font-family="Times,serif" font-size="14.00">set_section</text>
<text text-anchor="start" x="808" y="-143.3" font-family="Times,serif" font-size="14.00">set_text_template</text>
<text text-anchor="start" x="808" y="-128.3" font-family="Times,serif" font-size="14.00">text_template_params</text>
</g>
<!-- UsersController -->
<g id="node18" class="node"><title>UsersController</title>
<path fill="none" stroke="black" d="M232,-700.5C232,-700.5 351,-700.5 351,-700.5 357,-700.5 363,-706.5 363,-712.5 363,-712.5 363,-931.5 363,-931.5 363,-937.5 357,-943.5 351,-943.5 351,-943.5 232,-943.5 232,-943.5 226,-943.5 220,-937.5 220,-931.5 220,-931.5 220,-712.5 220,-712.5 220,-706.5 226,-700.5 232,-700.5"/>
<text text-anchor="middle" x="291.5" y="-928.3" font-family="Times,serif" font-size="14.00">UsersController</text>
<polyline fill="none" stroke="black" points="220,-920.5 363,-920.5 "/>
<text text-anchor="start" x="228" y="-905.3" font-family="Times,serif" font-size="14.00">create</text>
<text text-anchor="start" x="228" y="-890.3" font-family="Times,serif" font-size="14.00">edit</text>
<text text-anchor="start" x="228" y="-875.3" font-family="Times,serif" font-size="14.00">edit_password</text>
<text text-anchor="start" x="228" y="-860.3" font-family="Times,serif" font-size="14.00">home</text>
<text text-anchor="start" x="228" y="-845.3" font-family="Times,serif" font-size="14.00">index</text>
<text text-anchor="start" x="228" y="-830.3" font-family="Times,serif" font-size="14.00">new</text>
<text text-anchor="start" x="228" y="-815.3" font-family="Times,serif" font-size="14.00">update</text>
<text text-anchor="start" x="228" y="-800.3" font-family="Times,serif" font-size="14.00">update_password</text>
<polyline fill="none" stroke="black" points="220,-792.5 363,-792.5 "/>
<polyline fill="none" stroke="black" points="220,-768.5 363,-768.5 "/>
<text text-anchor="start" x="228" y="-753.3" font-family="Times,serif" font-size="14.00">_layout</text>
<text text-anchor="start" x="228" y="-738.3" font-family="Times,serif" font-size="14.00">set_user</text>
<text text-anchor="start" x="228" y="-723.3" font-family="Times,serif" font-size="14.00">user_params</text>
<text text-anchor="start" x="228" y="-708.3" font-family="Times,serif" font-size="14.00">user_password_params</text>
</g>
</g>
</svg>
