<?xml version="1.0" encoding="UTF-8" standalone="no"?>
<!DOCTYPE svg PUBLIC "-//W3C//DTD SVG 1.1//EN"
 "http://www.w3.org/Graphics/SVG/1.1/DTD/svg11.dtd">
<!-- Generated by graphviz version 2.36.0 (20140111.2315)
 -->
<!-- Title: controllers_diagram Pages: 1 -->
<svg width="1096pt" height="1102pt"
 viewBox="0.00 0.00 1096.00 1102.00" xmlns="http://www.w3.org/2000/svg" xmlns:xlink="http://www.w3.org/1999/xlink">
<g id="graph0" class="graph" transform="scale(1 1) rotate(0) translate(4 1098)">
<title>controllers_diagram</title>
<polygon fill="none" stroke="none" points="-4,4 -4,-1098 1092,-1098 1092,4 -4,4"/>
<!-- _diagram_info -->
<g id="node1" class="node"><title>_diagram_info</title>
<text text-anchor="start" x="828" y="-663.6" font-family="Times,serif" font-size="13.00">Controllers diagram</text>
<text text-anchor="start" x="828" y="-649.6" font-family="Times,serif" font-size="13.00">Date: Apr 01 2016 &#45; 18:52</text>
<text text-anchor="start" x="828" y="-635.6" font-family="Times,serif" font-size="13.00">Migration version: 20160401191933</text>
<text text-anchor="start" x="828" y="-621.6" font-family="Times,serif" font-size="13.00">Generated by RailRoady 1.3.1</text>
<text text-anchor="start" x="828" y="-607.6" font-family="Times,serif" font-size="13.00">http://railroady.prestonlee.com</text>
</g>
<!-- AbsoluteDataController -->
<g id="node2" class="node"><title>AbsoluteDataController</title>
<path fill="none" stroke="black" d="M612,-780.5C612,-780.5 737,-780.5 737,-780.5 743,-780.5 749,-786.5 749,-792.5 749,-792.5 749,-966.5 749,-966.5 749,-972.5 743,-978.5 737,-978.5 737,-978.5 612,-978.5 612,-978.5 606,-978.5 600,-972.5 600,-966.5 600,-966.5 600,-792.5 600,-792.5 600,-786.5 606,-780.5 612,-780.5"/>
<text text-anchor="middle" x="674.5" y="-963.3" font-family="Times,serif" font-size="14.00">AbsoluteDataController</text>
<polyline fill="none" stroke="black" points="600,-955.5 749,-955.5 "/>
<text text-anchor="start" x="608" y="-940.3" font-family="Times,serif" font-size="14.00">create</text>
<text text-anchor="start" x="608" y="-925.3" font-family="Times,serif" font-size="14.00">destroy</text>
<text text-anchor="start" x="608" y="-910.3" font-family="Times,serif" font-size="14.00">edit</text>
<text text-anchor="start" x="608" y="-895.3" font-family="Times,serif" font-size="14.00">index</text>
<text text-anchor="start" x="608" y="-880.3" font-family="Times,serif" font-size="14.00">new</text>
<text text-anchor="start" x="608" y="-865.3" font-family="Times,serif" font-size="14.00">update</text>
<polyline fill="none" stroke="black" points="600,-857.5 749,-857.5 "/>
<polyline fill="none" stroke="black" points="600,-833.5 749,-833.5 "/>
<text text-anchor="start" x="608" y="-818.3" font-family="Times,serif" font-size="14.00">_layout</text>
<text text-anchor="start" x="608" y="-803.3" font-family="Times,serif" font-size="14.00">absolute_datum_params</text>
<text text-anchor="start" x="608" y="-788.3" font-family="Times,serif" font-size="14.00">set_absolute_datum</text>
</g>
<!-- ApplicationController -->
<g id="node3" class="node"><title>ApplicationController</title>
<path fill="none" stroke="black" d="M192,-480.5C192,-480.5 347,-480.5 347,-480.5 353,-480.5 359,-486.5 359,-492.5 359,-492.5 359,-696.5 359,-696.5 359,-702.5 353,-708.5 347,-708.5 347,-708.5 192,-708.5 192,-708.5 186,-708.5 180,-702.5 180,-696.5 180,-696.5 180,-492.5 180,-492.5 180,-486.5 186,-480.5 192,-480.5"/>
<text text-anchor="middle" x="269.5" y="-693.3" font-family="Times,serif" font-size="14.00">ApplicationController</text>
<polyline fill="none" stroke="black" points="180,-685.5 359,-685.5 "/>
<text text-anchor="start" x="188" y="-670.3" font-family="Times,serif" font-size="14.00">check_admin_actions</text>
<text text-anchor="start" x="188" y="-655.3" font-family="Times,serif" font-size="14.00">check_sesai_central_actions</text>
<text text-anchor="start" x="188" y="-640.3" font-family="Times,serif" font-size="14.00">current_dsei</text>
<text text-anchor="start" x="188" y="-625.3" font-family="Times,serif" font-size="14.00">current_pdsi</text>
<text text-anchor="start" x="188" y="-610.3" font-family="Times,serif" font-size="14.00">health</text>
<text text-anchor="start" x="188" y="-595.3" font-family="Times,serif" font-size="14.00">image_upload</text>
<text text-anchor="start" x="188" y="-580.3" font-family="Times,serif" font-size="14.00">set_dsei_and_pdsi</text>
<text text-anchor="start" x="188" y="-565.3" font-family="Times,serif" font-size="14.00">set_dsei_and_pdsi_to_sesai</text>
<text text-anchor="start" x="188" y="-550.3" font-family="Times,serif" font-size="14.00">unset_dsei_and_pdsi_to_sesai</text>
<polyline fill="none" stroke="black" points="180,-542.5 359,-542.5 "/>
<polyline fill="none" stroke="black" points="180,-518.5 359,-518.5 "/>
<text text-anchor="start" x="188" y="-503.3" font-family="Times,serif" font-size="14.00">_layout</text>
<text text-anchor="start" x="188" y="-488.3" font-family="Times,serif" font-size="14.00">determine_layout</text>
</g>
<!-- BudgetCorrectionFactorsController -->
<g id="node4" class="node"><title>BudgetCorrectionFactorsController</title>
<path fill="none" stroke="black" d="M372,-740.5C372,-740.5 557,-740.5 557,-740.5 563,-740.5 569,-746.5 569,-752.5 569,-752.5 569,-941.5 569,-941.5 569,-947.5 563,-953.5 557,-953.5 557,-953.5 372,-953.5 372,-953.5 366,-953.5 360,-947.5 360,-941.5 360,-941.5 360,-752.5 360,-752.5 360,-746.5 366,-740.5 372,-740.5"/>
<text text-anchor="middle" x="464.5" y="-938.3" font-family="Times,serif" font-size="14.00">BudgetCorrectionFactorsController</text>
<polyline fill="none" stroke="black" points="360,-930.5 569,-930.5 "/>
<text text-anchor="start" x="368" y="-915.3" font-family="Times,serif" font-size="14.00">create</text>
<text text-anchor="start" x="368" y="-900.3" font-family="Times,serif" font-size="14.00">destroy</text>
<text text-anchor="start" x="368" y="-885.3" font-family="Times,serif" font-size="14.00">edit</text>
<text text-anchor="start" x="368" y="-870.3" font-family="Times,serif" font-size="14.00">index</text>
<text text-anchor="start" x="368" y="-855.3" font-family="Times,serif" font-size="14.00">new</text>
<text text-anchor="start" x="368" y="-840.3" font-family="Times,serif" font-size="14.00">show</text>
<text text-anchor="start" x="368" y="-825.3" font-family="Times,serif" font-size="14.00">update</text>
<polyline fill="none" stroke="black" points="360,-817.5 569,-817.5 "/>
<polyline fill="none" stroke="black" points="360,-793.5 569,-793.5 "/>
<text text-anchor="start" x="368" y="-778.3" font-family="Times,serif" font-size="14.00">_layout</text>
<text text-anchor="start" x="368" y="-763.3" font-family="Times,serif" font-size="14.00">budget_correction_factor_params</text>
<text text-anchor="start" x="368" y="-748.3" font-family="Times,serif" font-size="14.00">set_budget_correction_factor</text>
</g>
<!-- BudgetForecastsController -->
<g id="node5" class="node"><title>BudgetForecastsController</title>
<path fill="none" stroke="black" d="M412,-40.5C412,-40.5 550,-40.5 550,-40.5 556,-40.5 562,-46.5 562,-52.5 562,-52.5 562,-181.5 562,-181.5 562,-187.5 556,-193.5 550,-193.5 550,-193.5 412,-193.5 412,-193.5 406,-193.5 400,-187.5 400,-181.5 400,-181.5 400,-52.5 400,-52.5 400,-46.5 406,-40.5 412,-40.5"/>
<text text-anchor="middle" x="481" y="-178.3" font-family="Times,serif" font-size="14.00">BudgetForecastsController</text>
<polyline fill="none" stroke="black" points="400,-170.5 562,-170.5 "/>
<text text-anchor="start" x="408" y="-155.3" font-family="Times,serif" font-size="14.00">delete_comment</text>
<text text-anchor="start" x="408" y="-140.3" font-family="Times,serif" font-size="14.00">new_comment</text>
<text text-anchor="start" x="408" y="-125.3" font-family="Times,serif" font-size="14.00">see_comment</text>
<polyline fill="none" stroke="black" points="400,-117.5 562,-117.5 "/>
<polyline fill="none" stroke="black" points="400,-93.5 562,-93.5 "/>
<text text-anchor="start" x="408" y="-78.3" font-family="Times,serif" font-size="14.00">_layout</text>
<text text-anchor="start" x="408" y="-63.3" font-family="Times,serif" font-size="14.00">delete_comment_params</text>
<text text-anchor="start" x="408" y="-48.3" font-family="Times,serif" font-size="14.00">new_comment_params</text>
</g>
<!-- BudgetInvestmentsController -->
<g id="node6" class="node"><title>BudgetInvestmentsController</title>
<path fill="none" stroke="black" d="M612,-160.5C612,-160.5 765,-160.5 765,-160.5 771,-160.5 777,-166.5 777,-172.5 777,-172.5 777,-301.5 777,-301.5 777,-307.5 771,-313.5 765,-313.5 765,-313.5 612,-313.5 612,-313.5 606,-313.5 600,-307.5 600,-301.5 600,-301.5 600,-172.5 600,-172.5 600,-166.5 606,-160.5 612,-160.5"/>
<text text-anchor="middle" x="688.5" y="-298.3" font-family="Times,serif" font-size="14.00">BudgetInvestmentsController</text>
<polyline fill="none" stroke="black" points="600,-290.5 777,-290.5 "/>
<text text-anchor="start" x="608" y="-275.3" font-family="Times,serif" font-size="14.00">delete_comment</text>
<text text-anchor="start" x="608" y="-260.3" font-family="Times,serif" font-size="14.00">new_comment</text>
<text text-anchor="start" x="608" y="-245.3" font-family="Times,serif" font-size="14.00">see_comment</text>
<polyline fill="none" stroke="black" points="600,-237.5 777,-237.5 "/>
<polyline fill="none" stroke="black" points="600,-213.5 777,-213.5 "/>
<text text-anchor="start" x="608" y="-198.3" font-family="Times,serif" font-size="14.00">_layout</text>
<text text-anchor="start" x="608" y="-183.3" font-family="Times,serif" font-size="14.00">delete_comment_params</text>
<text text-anchor="start" x="608" y="-168.3" font-family="Times,serif" font-size="14.00">new_comment_params</text>
</g>
<!-- BudgetJustifiersController -->
<g id="node7" class="node"><title>BudgetJustifiersController</title>
<path fill="none" stroke="black" d="M612,-20.5C612,-20.5 748,-20.5 748,-20.5 754,-20.5 760,-26.5 760,-32.5 760,-32.5 760,-116.5 760,-116.5 760,-122.5 754,-128.5 748,-128.5 748,-128.5 612,-128.5 612,-128.5 606,-128.5 600,-122.5 600,-116.5 600,-116.5 600,-32.5 600,-32.5 600,-26.5 606,-20.5 612,-20.5"/>
<text text-anchor="middle" x="680" y="-113.3" font-family="Times,serif" font-size="14.00">BudgetJustifiersController</text>
<polyline fill="none" stroke="black" points="600,-105.5 760,-105.5 "/>
<text text-anchor="start" x="608" y="-90.3" font-family="Times,serif" font-size="14.00">edit_justifier</text>
<polyline fill="none" stroke="black" points="600,-82.5 760,-82.5 "/>
<polyline fill="none" stroke="black" points="600,-58.5 760,-58.5 "/>
<text text-anchor="start" x="608" y="-43.3" font-family="Times,serif" font-size="14.00">_layout</text>
<text text-anchor="start" x="608" y="-28.3" font-family="Times,serif" font-size="14.00">edit_justifier_params</text>
</g>
<!-- CasaisController -->
<g id="node8" class="node"><title>CasaisController</title>
<path fill="none" stroke="black" d="M32,-20.5C32,-20.5 115,-20.5 115,-20.5 121,-20.5 127,-26.5 127,-32.5 127,-32.5 127,-191.5 127,-191.5 127,-197.5 121,-203.5 115,-203.5 115,-203.5 32,-203.5 32,-203.5 26,-203.5 20,-197.5 20,-191.5 20,-191.5 20,-32.5 20,-32.5 20,-26.5 26,-20.5 32,-20.5"/>
<text text-anchor="middle" x="73.5" y="-188.3" font-family="Times,serif" font-size="14.00">CasaisController</text>
<polyline fill="none" stroke="black" points="20,-180.5 127,-180.5 "/>
<text text-anchor="start" x="28" y="-165.3" font-family="Times,serif" font-size="14.00">create</text>
<text text-anchor="start" x="28" y="-150.3" font-family="Times,serif" font-size="14.00">edit</text>
<text text-anchor="start" x="28" y="-135.3" font-family="Times,serif" font-size="14.00">index</text>
<text text-anchor="start" x="28" y="-120.3" font-family="Times,serif" font-size="14.00">new</text>
<text text-anchor="start" x="28" y="-105.3" font-family="Times,serif" font-size="14.00">update</text>
<polyline fill="none" stroke="black" points="20,-97.5 127,-97.5 "/>
<polyline fill="none" stroke="black" points="20,-73.5 127,-73.5 "/>
<text text-anchor="start" x="28" y="-58.3" font-family="Times,serif" font-size="14.00">_layout</text>
<text text-anchor="start" x="28" y="-43.3" font-family="Times,serif" font-size="14.00">casai_params</text>
<text text-anchor="start" x="28" y="-28.3" font-family="Times,serif" font-size="14.00">set_casai</text>
</g>
<!-- CategoryBudgetsController -->
<g id="node9" class="node"><title>CategoryBudgetsController</title>
<path fill="none" stroke="black" d="M32,-740.5C32,-740.5 174,-740.5 174,-740.5 180,-740.5 186,-746.5 186,-752.5 186,-752.5 186,-821.5 186,-821.5 186,-827.5 180,-833.5 174,-833.5 174,-833.5 32,-833.5 32,-833.5 26,-833.5 20,-827.5 20,-821.5 20,-821.5 20,-752.5 20,-752.5 20,-746.5 26,-740.5 32,-740.5"/>
<text text-anchor="middle" x="103" y="-818.3" font-family="Times,serif" font-size="14.00">CategoryBudgetsController</text>
<polyline fill="none" stroke="black" points="20,-810.5 186,-810.5 "/>
<text text-anchor="start" x="28" y="-795.3" font-family="Times,serif" font-size="14.00">index</text>
<polyline fill="none" stroke="black" points="20,-787.5 186,-787.5 "/>
<polyline fill="none" stroke="black" points="20,-763.5 186,-763.5 "/>
<text text-anchor="start" x="28" y="-748.3" font-family="Times,serif" font-size="14.00">_layout</text>
</g>
<!-- CostsController -->
<g id="node10" class="node"><title>CostsController</title>
<path fill="none" stroke="black" d="M92,-880.5C92,-880.5 170,-880.5 170,-880.5 176,-880.5 182,-886.5 182,-892.5 182,-892.5 182,-1081.5 182,-1081.5 182,-1087.5 176,-1093.5 170,-1093.5 170,-1093.5 92,-1093.5 92,-1093.5 86,-1093.5 80,-1087.5 80,-1081.5 80,-1081.5 80,-892.5 80,-892.5 80,-886.5 86,-880.5 92,-880.5"/>
<text text-anchor="middle" x="131" y="-1078.3" font-family="Times,serif" font-size="14.00">CostsController</text>
<polyline fill="none" stroke="black" points="80,-1070.5 182,-1070.5 "/>
<text text-anchor="start" x="88" y="-1055.3" font-family="Times,serif" font-size="14.00">create</text>
<text text-anchor="start" x="88" y="-1040.3" font-family="Times,serif" font-size="14.00">destroy</text>
<text text-anchor="start" x="88" y="-1025.3" font-family="Times,serif" font-size="14.00">edit</text>
<text text-anchor="start" x="88" y="-1010.3" font-family="Times,serif" font-size="14.00">index</text>
<text text-anchor="start" x="88" y="-995.3" font-family="Times,serif" font-size="14.00">new</text>
<text text-anchor="start" x="88" y="-980.3" font-family="Times,serif" font-size="14.00">show</text>
<text text-anchor="start" x="88" y="-965.3" font-family="Times,serif" font-size="14.00">update</text>
<polyline fill="none" stroke="black" points="80,-957.5 182,-957.5 "/>
<polyline fill="none" stroke="black" points="80,-933.5 182,-933.5 "/>
<text text-anchor="start" x="88" y="-918.3" font-family="Times,serif" font-size="14.00">_layout</text>
<text text-anchor="start" x="88" y="-903.3" font-family="Times,serif" font-size="14.00">cost_params</text>
<text text-anchor="start" x="88" y="-888.3" font-family="Times,serif" font-size="14.00">set_cost</text>
</g>
<!-- CostUsersController -->
<g id="node11" class="node"><title>CostUsersController</title>
<path fill="none" stroke="black" d="M972,-720.5C972,-720.5 1076,-720.5 1076,-720.5 1082,-720.5 1088,-726.5 1088,-732.5 1088,-732.5 1088,-831.5 1088,-831.5 1088,-837.5 1082,-843.5 1076,-843.5 1076,-843.5 972,-843.5 972,-843.5 966,-843.5 960,-837.5 960,-831.5 960,-831.5 960,-732.5 960,-732.5 960,-726.5 966,-720.5 972,-720.5"/>
<text text-anchor="middle" x="1024" y="-828.3" font-family="Times,serif" font-size="14.00">CostUsersController</text>
<polyline fill="none" stroke="black" points="960,-820.5 1088,-820.5 "/>
<text text-anchor="start" x="968" y="-805.3" font-family="Times,serif" font-size="14.00">edit</text>
<text text-anchor="start" x="968" y="-790.3" font-family="Times,serif" font-size="14.00">index</text>
<text text-anchor="start" x="968" y="-775.3" font-family="Times,serif" font-size="14.00">update</text>
<polyline fill="none" stroke="black" points="960,-767.5 1088,-767.5 "/>
<polyline fill="none" stroke="black" points="960,-743.5 1088,-743.5 "/>
<text text-anchor="start" x="968" y="-728.3" font-family="Times,serif" font-size="14.00">_layout</text>
</g>
<!-- DemographicDatasController -->
<g id="node12" class="node"><title>DemographicDatasController</title>
<path fill="none" stroke="black" d="M832,-400.5C832,-400.5 985,-400.5 985,-400.5 991,-400.5 997,-406.5 997,-412.5 997,-412.5 997,-541.5 997,-541.5 997,-547.5 991,-553.5 985,-553.5 985,-553.5 832,-553.5 832,-553.5 826,-553.5 820,-547.5 820,-541.5 820,-541.5 820,-412.5 820,-412.5 820,-406.5 826,-400.5 832,-400.5"/>
<text text-anchor="middle" x="908.5" y="-538.3" font-family="Times,serif" font-size="14.00">DemographicDatasController</text>
<polyline fill="none" stroke="black" points="820,-530.5 997,-530.5 "/>
<text text-anchor="start" x="828" y="-515.3" font-family="Times,serif" font-size="14.00">edit</text>
<text text-anchor="start" x="828" y="-500.3" font-family="Times,serif" font-size="14.00">index</text>
<text text-anchor="start" x="828" y="-485.3" font-family="Times,serif" font-size="14.00">update</text>
<polyline fill="none" stroke="black" points="820,-477.5 997,-477.5 "/>
<polyline fill="none" stroke="black" points="820,-453.5 997,-453.5 "/>
<text text-anchor="start" x="828" y="-438.3" font-family="Times,serif" font-size="14.00">_layout</text>
<text text-anchor="start" x="828" y="-423.3" font-family="Times,serif" font-size="14.00">demographic_data_params</text>
<text text-anchor="start" x="828" y="-408.3" font-family="Times,serif" font-size="14.00">set_demographic_data</text>
</g>
<!-- InvestmentsController -->
<g id="node13" class="node"><title>InvestmentsController</title>
<path fill="none" stroke="black" d="M12,-480.5C12,-480.5 126,-480.5 126,-480.5 132,-480.5 138,-486.5 138,-492.5 138,-492.5 138,-651.5 138,-651.5 138,-657.5 132,-663.5 126,-663.5 126,-663.5 12,-663.5 12,-663.5 6,-663.5 0,-657.5 0,-651.5 0,-651.5 0,-492.5 0,-492.5 0,-486.5 6,-480.5 12,-480.5"/>
<text text-anchor="middle" x="69" y="-648.3" font-family="Times,serif" font-size="14.00">InvestmentsController</text>
<polyline fill="none" stroke="black" points="0,-640.5 138,-640.5 "/>
<text text-anchor="start" x="8" y="-625.3" font-family="Times,serif" font-size="14.00">edit</text>
<text text-anchor="start" x="8" y="-610.3" font-family="Times,serif" font-size="14.00">index</text>
<text text-anchor="start" x="8" y="-595.3" font-family="Times,serif" font-size="14.00">show</text>
<text text-anchor="start" x="8" y="-580.3" font-family="Times,serif" font-size="14.00">update</text>
<polyline fill="none" stroke="black" points="0,-572.5 138,-572.5 "/>
<polyline fill="none" stroke="black" points="0,-548.5 138,-548.5 "/>
<text text-anchor="start" x="8" y="-533.3" font-family="Times,serif" font-size="14.00">_layout</text>
<text text-anchor="start" x="8" y="-518.3" font-family="Times,serif" font-size="14.00">investment_params</text>
<text text-anchor="start" x="8" y="-503.3" font-family="Times,serif" font-size="14.00">set_investment</text>
<text text-anchor="start" x="8" y="-488.3" font-family="Times,serif" font-size="14.00">set_investments</text>
</g>
<!-- LocationsController -->
<g id="node14" class="node"><title>LocationsController</title>
<path fill="none" stroke="black" d="M812,-0.5C812,-0.5 913,-0.5 913,-0.5 919,-0.5 925,-6.5 925,-12.5 925,-12.5 925,-96.5 925,-96.5 925,-102.5 919,-108.5 913,-108.5 913,-108.5 812,-108.5 812,-108.5 806,-108.5 800,-102.5 800,-96.5 800,-96.5 800,-12.5 800,-12.5 800,-6.5 806,-0.5 812,-0.5"/>
<text text-anchor="middle" x="862.5" y="-93.3" font-family="Times,serif" font-size="14.00">LocationsController</text>
<polyline fill="none" stroke="black" points="800,-85.5 925,-85.5 "/>
<text text-anchor="start" x="808" y="-70.3" font-family="Times,serif" font-size="14.00">cities</text>
<text text-anchor="start" x="808" y="-55.3" font-family="Times,serif" font-size="14.00">villages</text>
<polyline fill="none" stroke="black" points="800,-47.5 925,-47.5 "/>
<polyline fill="none" stroke="black" points="800,-23.5 925,-23.5 "/>
<text text-anchor="start" x="808" y="-8.3" font-family="Times,serif" font-size="14.00">_layout</text>
</g>
<!-- PdsisController -->
<g id="node15" class="node"><title>PdsisController</title>
<path fill="none" stroke="black" d="M612,-360.5C612,-360.5 769,-360.5 769,-360.5 775,-360.5 781,-366.5 781,-372.5 781,-372.5 781,-726.5 781,-726.5 781,-732.5 775,-738.5 769,-738.5 769,-738.5 612,-738.5 612,-738.5 606,-738.5 600,-732.5 600,-726.5 600,-726.5 600,-372.5 600,-372.5 600,-366.5 606,-360.5 612,-360.5"/>
<text text-anchor="middle" x="690.5" y="-723.3" font-family="Times,serif" font-size="14.00">PdsisController</text>
<polyline fill="none" stroke="black" points="600,-715.5 781,-715.5 "/>
<text text-anchor="start" x="608" y="-700.3" font-family="Times,serif" font-size="14.00">delete_map</text>
<text text-anchor="start" x="608" y="-685.3" font-family="Times,serif" font-size="14.00">edit</text>
<text text-anchor="start" x="608" y="-670.3" font-family="Times,serif" font-size="14.00">edit_category_budgets</text>
<text text-anchor="start" x="608" y="-655.3" font-family="Times,serif" font-size="14.00">health_indicators</text>
<text text-anchor="start" x="608" y="-640.3" font-family="Times,serif" font-size="14.00">index</text>
<text text-anchor="start" x="608" y="-625.3" font-family="Times,serif" font-size="14.00">new_budget_forecast_by_cost</text>
<text text-anchor="start" x="608" y="-610.3" font-family="Times,serif" font-size="14.00">pdf_errors</text>
<text text-anchor="start" x="608" y="-595.3" font-family="Times,serif" font-size="14.00">render_pdf</text>
<text text-anchor="start" x="608" y="-580.3" font-family="Times,serif" font-size="14.00">show</text>
<text text-anchor="start" x="608" y="-565.3" font-family="Times,serif" font-size="14.00">update</text>
<text text-anchor="start" x="608" y="-550.3" font-family="Times,serif" font-size="14.00">update_cost_name</text>
<polyline fill="none" stroke="black" points="600,-542.5 781,-542.5 "/>
<polyline fill="none" stroke="black" points="600,-518.5 781,-518.5 "/>
<text text-anchor="start" x="608" y="-503.3" font-family="Times,serif" font-size="14.00">_layout</text>
<text text-anchor="start" x="608" y="-488.3" font-family="Times,serif" font-size="14.00">pdf_screen</text>
<text text-anchor="start" x="608" y="-473.3" font-family="Times,serif" font-size="14.00">pdsi_params</text>
<text text-anchor="start" x="608" y="-458.3" font-family="Times,serif" font-size="14.00">pdsi_valid?</text>
<text text-anchor="start" x="608" y="-443.3" font-family="Times,serif" font-size="14.00">redirect_after_save</text>
<text text-anchor="start" x="608" y="-428.3" font-family="Times,serif" font-size="14.00">redirect_to_indicadores</text>
<text text-anchor="start" x="608" y="-413.3" font-family="Times,serif" font-size="14.00">set_base_polo</text>
<text text-anchor="start" x="608" y="-398.3" font-family="Times,serif" font-size="14.00">set_pdsi</text>
<text text-anchor="start" x="608" y="-383.3" font-family="Times,serif" font-size="14.00">set_section</text>
<text text-anchor="start" x="608" y="-368.3" font-family="Times,serif" font-size="14.00">set_subsection</text>
</g>
<!-- PeopleController -->
<g id="node16" class="node"><title>PeopleController</title>
<path fill="none" stroke="black" d="M232,-740.5C232,-740.5 318,-740.5 318,-740.5 324,-740.5 330,-746.5 330,-752.5 330,-752.5 330,-986.5 330,-986.5 330,-992.5 324,-998.5 318,-998.5 318,-998.5 232,-998.5 232,-998.5 226,-998.5 220,-992.5 220,-986.5 220,-986.5 220,-752.5 220,-752.5 220,-746.5 226,-740.5 232,-740.5"/>
<text text-anchor="middle" x="275" y="-983.3" font-family="Times,serif" font-size="14.00">PeopleController</text>
<polyline fill="none" stroke="black" points="220,-975.5 330,-975.5 "/>
<text text-anchor="start" x="228" y="-960.3" font-family="Times,serif" font-size="14.00">create</text>
<text text-anchor="start" x="228" y="-945.3" font-family="Times,serif" font-size="14.00">destroy</text>
<text text-anchor="start" x="228" y="-930.3" font-family="Times,serif" font-size="14.00">edit</text>
<text text-anchor="start" x="228" y="-915.3" font-family="Times,serif" font-size="14.00">index</text>
<text text-anchor="start" x="228" y="-900.3" font-family="Times,serif" font-size="14.00">new</text>
<text text-anchor="start" x="228" y="-885.3" font-family="Times,serif" font-size="14.00">search</text>
<text text-anchor="start" x="228" y="-870.3" font-family="Times,serif" font-size="14.00">search_with_dsei</text>
<text text-anchor="start" x="228" y="-855.3" font-family="Times,serif" font-size="14.00">update</text>
<polyline fill="none" stroke="black" points="220,-847.5 330,-847.5 "/>
<polyline fill="none" stroke="black" points="220,-823.5 330,-823.5 "/>
<text text-anchor="start" x="228" y="-808.3" font-family="Times,serif" font-size="14.00">_layout</text>
<text text-anchor="start" x="228" y="-793.3" font-family="Times,serif" font-size="14.00">person_params</text>
<text text-anchor="start" x="228" y="-778.3" font-family="Times,serif" font-size="14.00">set_dsei</text>
<text text-anchor="start" x="228" y="-763.3" font-family="Times,serif" font-size="14.00">set_person</text>
<text text-anchor="start" x="228" y="-748.3" font-family="Times,serif" font-size="14.00">validate_person</text>
</g>
<!-- ResultsController -->
<g id="node17" class="node"><title>ResultsController</title>
<path fill="none" stroke="black" d="M52,-240.5C52,-240.5 140,-240.5 140,-240.5 146,-240.5 152,-246.5 152,-252.5 152,-252.5 152,-426.5 152,-426.5 152,-432.5 146,-438.5 140,-438.5 140,-438.5 52,-438.5 52,-438.5 46,-438.5 40,-432.5 40,-426.5 40,-426.5 40,-252.5 40,-252.5 40,-246.5 46,-240.5 52,-240.5"/>
<text text-anchor="middle" x="96" y="-423.3" font-family="Times,serif" font-size="14.00">ResultsController</text>
<polyline fill="none" stroke="black" points="40,-415.5 152,-415.5 "/>
<text text-anchor="start" x="48" y="-400.3" font-family="Times,serif" font-size="14.00">create</text>
<text text-anchor="start" x="48" y="-385.3" font-family="Times,serif" font-size="14.00">edit</text>
<text text-anchor="start" x="48" y="-370.3" font-family="Times,serif" font-size="14.00">index</text>
<text text-anchor="start" x="48" y="-355.3" font-family="Times,serif" font-size="14.00">new</text>
<text text-anchor="start" x="48" y="-340.3" font-family="Times,serif" font-size="14.00">show</text>
<text text-anchor="start" x="48" y="-325.3" font-family="Times,serif" font-size="14.00">update</text>
<polyline fill="none" stroke="black" points="40,-317.5 152,-317.5 "/>
<polyline fill="none" stroke="black" points="40,-293.5 152,-293.5 "/>
<text text-anchor="start" x="48" y="-278.3" font-family="Times,serif" font-size="14.00">_layout</text>
<text text-anchor="start" x="48" y="-263.3" font-family="Times,serif" font-size="14.00">result_params</text>
<text text-anchor="start" x="48" y="-248.3" font-family="Times,serif" font-size="14.00">set_result</text>
</g>
<!-- ResultsSpecialController -->
<g id="node18" class="node"><title>ResultsSpecialController</title>
<path fill="none" stroke="black" d="M412,-240.5C412,-240.5 542,-240.5 542,-240.5 548,-240.5 554,-246.5 554,-252.5 554,-252.5 554,-696.5 554,-696.5 554,-702.5 548,-708.5 542,-708.5 542,-708.5 412,-708.5 412,-708.5 406,-708.5 400,-702.5 400,-696.5 400,-696.5 400,-252.5 400,-252.5 400,-246.5 406,-240.5 412,-240.5"/>
<text text-anchor="middle" x="477" y="-693.3" font-family="Times,serif" font-size="14.00">ResultsSpecialController</text>
<polyline fill="none" stroke="black" points="400,-685.5 554,-685.5 "/>
<text text-anchor="start" x="408" y="-670.3" font-family="Times,serif" font-size="14.00">delete</text>
<text text-anchor="start" x="408" y="-655.3" font-family="Times,serif" font-size="14.00">delete_comment</text>
<text text-anchor="start" x="408" y="-640.3" font-family="Times,serif" font-size="14.00">delete_specific_result</text>
<text text-anchor="start" x="408" y="-625.3" font-family="Times,serif" font-size="14.00">false_result</text>
<text text-anchor="start" x="408" y="-610.3" font-family="Times,serif" font-size="14.00">get_all_related_links</text>
<text text-anchor="start" x="408" y="-595.3" font-family="Times,serif" font-size="14.00">index</text>
<text text-anchor="start" x="408" y="-580.3" font-family="Times,serif" font-size="14.00">link_product</text>
<text text-anchor="start" x="408" y="-565.3" font-family="Times,serif" font-size="14.00">loop</text>
<text text-anchor="start" x="408" y="-550.3" font-family="Times,serif" font-size="14.00">new_comment</text>
<text text-anchor="start" x="408" y="-535.3" font-family="Times,serif" font-size="14.00">products_order</text>
<text text-anchor="start" x="408" y="-520.3" font-family="Times,serif" font-size="14.00">remove_link</text>
<text text-anchor="start" x="408" y="-505.3" font-family="Times,serif" font-size="14.00">responsability</text>
<text text-anchor="start" x="408" y="-490.3" font-family="Times,serif" font-size="14.00">see_comment</text>
<text text-anchor="start" x="408" y="-475.3" font-family="Times,serif" font-size="14.00">specific_result</text>
<text text-anchor="start" x="408" y="-460.3" font-family="Times,serif" font-size="14.00">specific_update</text>
<text text-anchor="start" x="408" y="-445.3" font-family="Times,serif" font-size="14.00">update</text>
<polyline fill="none" stroke="black" points="400,-437.5 554,-437.5 "/>
<polyline fill="none" stroke="black" points="400,-413.5 554,-413.5 "/>
<text text-anchor="start" x="408" y="-398.3" font-family="Times,serif" font-size="14.00">_layout</text>
<text text-anchor="start" x="408" y="-383.3" font-family="Times,serif" font-size="14.00">delete_comment_params</text>
<text text-anchor="start" x="408" y="-368.3" font-family="Times,serif" font-size="14.00">delete_params</text>
<text text-anchor="start" x="408" y="-353.3" font-family="Times,serif" font-size="14.00">false_result_params</text>
<text text-anchor="start" x="408" y="-338.3" font-family="Times,serif" font-size="14.00">link_product_params</text>
<text text-anchor="start" x="408" y="-323.3" font-family="Times,serif" font-size="14.00">loop_params</text>
<text text-anchor="start" x="408" y="-308.3" font-family="Times,serif" font-size="14.00">new_comment_params</text>
<text text-anchor="start" x="408" y="-293.3" font-family="Times,serif" font-size="14.00">pdsi_params</text>
<text text-anchor="start" x="408" y="-278.3" font-family="Times,serif" font-size="14.00">remove_link_params</text>
<text text-anchor="start" x="408" y="-263.3" font-family="Times,serif" font-size="14.00">set_pdsi</text>
<text text-anchor="start" x="408" y="-248.3" font-family="Times,serif" font-size="14.00">specific_result_params</text>
</g>
<!-- SesaiPeopleController -->
<g id="node19" class="node"><title>SesaiPeopleController</title>
<path fill="none" stroke="black" d="M832,-140.5C832,-140.5 945,-140.5 945,-140.5 951,-140.5 957,-146.5 957,-152.5 957,-152.5 957,-341.5 957,-341.5 957,-347.5 951,-353.5 945,-353.5 945,-353.5 832,-353.5 832,-353.5 826,-353.5 820,-347.5 820,-341.5 820,-341.5 820,-152.5 820,-152.5 820,-146.5 826,-140.5 832,-140.5"/>
<text text-anchor="middle" x="888.5" y="-338.3" font-family="Times,serif" font-size="14.00">SesaiPeopleController</text>
<polyline fill="none" stroke="black" points="820,-330.5 957,-330.5 "/>
<text text-anchor="start" x="828" y="-315.3" font-family="Times,serif" font-size="14.00">create</text>
<text text-anchor="start" x="828" y="-300.3" font-family="Times,serif" font-size="14.00">destroy</text>
<text text-anchor="start" x="828" y="-285.3" font-family="Times,serif" font-size="14.00">edit</text>
<text text-anchor="start" x="828" y="-270.3" font-family="Times,serif" font-size="14.00">index</text>
<text text-anchor="start" x="828" y="-255.3" font-family="Times,serif" font-size="14.00">new</text>
<text text-anchor="start" x="828" y="-240.3" font-family="Times,serif" font-size="14.00">update</text>
<polyline fill="none" stroke="black" points="820,-232.5 957,-232.5 "/>
<polyline fill="none" stroke="black" points="820,-208.5 957,-208.5 "/>
<text text-anchor="start" x="828" y="-193.3" font-family="Times,serif" font-size="14.00">_layout</text>
<text text-anchor="start" x="828" y="-178.3" font-family="Times,serif" font-size="14.00">person_params</text>
<text text-anchor="start" x="828" y="-163.3" font-family="Times,serif" font-size="14.00">set_person</text>
<text text-anchor="start" x="828" y="-148.3" font-family="Times,serif" font-size="14.00">validate_person</text>
</g>
<!-- SpecificResultsController -->
<g id="node20" class="node"><title>SpecificResultsController</title>
<path fill="none" stroke="black" d="M172,-40.5C172,-40.5 304,-40.5 304,-40.5 310,-40.5 316,-46.5 316,-52.5 316,-52.5 316,-166.5 316,-166.5 316,-172.5 310,-178.5 304,-178.5 304,-178.5 172,-178.5 172,-178.5 166,-178.5 160,-172.5 160,-166.5 160,-166.5 160,-52.5 160,-52.5 160,-46.5 166,-40.5 172,-40.5"/>
<text text-anchor="middle" x="238" y="-163.3" font-family="Times,serif" font-size="14.00">SpecificResultsController</text>
<polyline fill="none" stroke="black" points="160,-155.5 316,-155.5 "/>
<text text-anchor="start" x="168" y="-140.3" font-family="Times,serif" font-size="14.00">edit</text>
<text text-anchor="start" x="168" y="-125.3" font-family="Times,serif" font-size="14.00">update</text>
<polyline fill="none" stroke="black" points="160,-117.5 316,-117.5 "/>
<polyline fill="none" stroke="black" points="160,-93.5 316,-93.5 "/>
<text text-anchor="start" x="168" y="-78.3" font-family="Times,serif" font-size="14.00">_layout</text>
<text text-anchor="start" x="168" y="-63.3" font-family="Times,serif" font-size="14.00">dsei_params</text>
<text text-anchor="start" x="168" y="-48.3" font-family="Times,serif" font-size="14.00">set_pdsi</text>
</g>
<!-- TextTemplatesController -->
<g id="node21" class="node"><title>TextTemplatesController</title>
<path fill="none" stroke="black" d="M192,-220.5C192,-220.5 350,-220.5 350,-220.5 356,-220.5 362,-226.5 362,-232.5 362,-232.5 362,-421.5 362,-421.5 362,-427.5 356,-433.5 350,-433.5 350,-433.5 192,-433.5 192,-433.5 186,-433.5 180,-427.5 180,-421.5 180,-421.5 180,-232.5 180,-232.5 180,-226.5 186,-220.5 192,-220.5"/>
<text text-anchor="middle" x="271" y="-418.3" font-family="Times,serif" font-size="14.00">TextTemplatesController</text>
<polyline fill="none" stroke="black" points="180,-410.5 362,-410.5 "/>
<text text-anchor="start" x="188" y="-395.3" font-family="Times,serif" font-size="14.00">analise_situacional_sesai</text>
<text text-anchor="start" x="188" y="-380.3" font-family="Times,serif" font-size="14.00">edit</text>
<text text-anchor="start" x="188" y="-365.3" font-family="Times,serif" font-size="14.00">index</text>
<text text-anchor="start" x="188" y="-350.3" font-family="Times,serif" font-size="14.00">introducao_sesai</text>
<text text-anchor="start" x="188" y="-335.3" font-family="Times,serif" font-size="14.00">processo_de_construcao_sesai</text>
<text text-anchor="start" x="188" y="-320.3" font-family="Times,serif" font-size="14.00">update</text>
<polyline fill="none" stroke="black" points="180,-312.5 362,-312.5 "/>
<polyline fill="none" stroke="black" points="180,-288.5 362,-288.5 "/>
<text text-anchor="start" x="188" y="-273.3" font-family="Times,serif" font-size="14.00">_layout</text>
<text text-anchor="start" x="188" y="-258.3" font-family="Times,serif" font-size="14.00">set_section</text>
<text text-anchor="start" x="188" y="-243.3" font-family="Times,serif" font-size="14.00">set_text_template</text>
<text text-anchor="start" x="188" y="-228.3" font-family="Times,serif" font-size="14.00">text_template_params</text>
</g>
<!-- UsersController -->
<g id="node22" class="node"><title>UsersController</title>
<path fill="none" stroke="black" d="M792,-780.5C792,-780.5 911,-780.5 911,-780.5 917,-780.5 923,-786.5 923,-792.5 923,-792.5 923,-1011.5 923,-1011.5 923,-1017.5 917,-1023.5 911,-1023.5 911,-1023.5 792,-1023.5 792,-1023.5 786,-1023.5 780,-1017.5 780,-1011.5 780,-1011.5 780,-792.5 780,-792.5 780,-786.5 786,-780.5 792,-780.5"/>
<text text-anchor="middle" x="851.5" y="-1008.3" font-family="Times,serif" font-size="14.00">UsersController</text>
<polyline fill="none" stroke="black" points="780,-1000.5 923,-1000.5 "/>
<text text-anchor="start" x="788" y="-985.3" font-family="Times,serif" font-size="14.00">create</text>
<text text-anchor="start" x="788" y="-970.3" font-family="Times,serif" font-size="14.00">edit</text>
<text text-anchor="start" x="788" y="-955.3" font-family="Times,serif" font-size="14.00">edit_password</text>
<text text-anchor="start" x="788" y="-940.3" font-family="Times,serif" font-size="14.00">home</text>
<text text-anchor="start" x="788" y="-925.3" font-family="Times,serif" font-size="14.00">index</text>
<text text-anchor="start" x="788" y="-910.3" font-family="Times,serif" font-size="14.00">new</text>
<text text-anchor="start" x="788" y="-895.3" font-family="Times,serif" font-size="14.00">update</text>
<text text-anchor="start" x="788" y="-880.3" font-family="Times,serif" font-size="14.00">update_password</text>
<polyline fill="none" stroke="black" points="780,-872.5 923,-872.5 "/>
<polyline fill="none" stroke="black" points="780,-848.5 923,-848.5 "/>
<text text-anchor="start" x="788" y="-833.3" font-family="Times,serif" font-size="14.00">_layout</text>
<text text-anchor="start" x="788" y="-818.3" font-family="Times,serif" font-size="14.00">set_user</text>
<text text-anchor="start" x="788" y="-803.3" font-family="Times,serif" font-size="14.00">user_params</text>
<text text-anchor="start" x="788" y="-788.3" font-family="Times,serif" font-size="14.00">user_password_params</text>
</g>
</g>
</svg>
