<?xml version="1.0" encoding="UTF-8" standalone="no"?>
<!DOCTYPE svg PUBLIC "-//W3C//DTD SVG 1.1//EN"
 "http://www.w3.org/Graphics/SVG/1.1/DTD/svg11.dtd">
<!-- Generated by graphviz version 2.36.0 (20140111.2315)
 -->
<!-- Title: controllers_diagram Pages: 1 -->
<svg width="820pt" height="835pt"
 viewBox="0.00 0.00 820.00 835.00" xmlns="http://www.w3.org/2000/svg" xmlns:xlink="http://www.w3.org/1999/xlink">
<g id="graph0" class="graph" transform="scale(1 1) rotate(0) translate(4 831)">
<title>controllers_diagram</title>
<polygon fill="none" stroke="none" points="-4,4 -4,-831 816,-831 816,4 -4,4"/>
<!-- _diagram_info -->
<g id="node1" class="node"><title>_diagram_info</title>
<text text-anchor="start" x="27" y="-120.6" font-family="Times,serif" font-size="13.00">Controllers diagram</text>
<text text-anchor="start" x="27" y="-106.6" font-family="Times,serif" font-size="13.00">Date: Nov 11 2015 &#45; 11:51</text>
<text text-anchor="start" x="27" y="-92.6" font-family="Times,serif" font-size="13.00">Migration version: 20151111114145</text>
<text text-anchor="start" x="27" y="-78.6" font-family="Times,serif" font-size="13.00">Generated by RailRoady 1.3.1</text>
<text text-anchor="start" x="27" y="-64.6" font-family="Times,serif" font-size="13.00">http://railroady.prestonlee.com</text>
</g>
<!-- ApplicationController -->
<g id="node2" class="node"><title>ApplicationController</title>
<path fill="none" stroke="black" d="M430,-456.5C430,-456.5 576,-456.5 576,-456.5 582,-456.5 588,-462.5 588,-468.5 588,-468.5 588,-657.5 588,-657.5 588,-663.5 582,-669.5 576,-669.5 576,-669.5 430,-669.5 430,-669.5 424,-669.5 418,-663.5 418,-657.5 418,-657.5 418,-468.5 418,-468.5 418,-462.5 424,-456.5 430,-456.5"/>
<text text-anchor="middle" x="503" y="-654.3" font-family="Times,serif" font-size="14.00">ApplicationController</text>
<polyline fill="none" stroke="black" points="418,-646.5 588,-646.5 "/>
<text text-anchor="start" x="426" y="-631.3" font-family="Times,serif" font-size="14.00">check_admin_actions</text>
<text text-anchor="start" x="426" y="-616.3" font-family="Times,serif" font-size="14.00">check_sesai_central_actions</text>
<text text-anchor="start" x="426" y="-601.3" font-family="Times,serif" font-size="14.00">current_dsei</text>
<text text-anchor="start" x="426" y="-586.3" font-family="Times,serif" font-size="14.00">current_pdsi</text>
<text text-anchor="start" x="426" y="-571.3" font-family="Times,serif" font-size="14.00">health</text>
<text text-anchor="start" x="426" y="-556.3" font-family="Times,serif" font-size="14.00">image_upload</text>
<text text-anchor="start" x="426" y="-541.3" font-family="Times,serif" font-size="14.00">set_dsei_and_pdsi</text>
<text text-anchor="start" x="426" y="-526.3" font-family="Times,serif" font-size="14.00">set_dsei_and_pdsi_to_sesai</text>
<polyline fill="none" stroke="black" points="418,-518.5 588,-518.5 "/>
<polyline fill="none" stroke="black" points="418,-494.5 588,-494.5 "/>
<text text-anchor="start" x="426" y="-479.3" font-family="Times,serif" font-size="14.00">_layout</text>
<text text-anchor="start" x="426" y="-464.3" font-family="Times,serif" font-size="14.00">determine_layout</text>
</g>
<!-- BudgetForecastsController -->
<g id="node3" class="node"><title>BudgetForecastsController</title>
<path fill="none" stroke="black" d="M31,-190.5C31,-190.5 169,-190.5 169,-190.5 175,-190.5 181,-196.5 181,-202.5 181,-202.5 181,-316.5 181,-316.5 181,-322.5 175,-328.5 169,-328.5 169,-328.5 31,-328.5 31,-328.5 25,-328.5 19,-322.5 19,-316.5 19,-316.5 19,-202.5 19,-202.5 19,-196.5 25,-190.5 31,-190.5"/>
<text text-anchor="middle" x="100" y="-313.3" font-family="Times,serif" font-size="14.00">BudgetForecastsController</text>
<polyline fill="none" stroke="black" points="19,-305.5 181,-305.5 "/>
<text text-anchor="start" x="27" y="-290.3" font-family="Times,serif" font-size="14.00">edit</text>
<text text-anchor="start" x="27" y="-275.3" font-family="Times,serif" font-size="14.00">index</text>
<text text-anchor="start" x="27" y="-260.3" font-family="Times,serif" font-size="14.00">show</text>
<text text-anchor="start" x="27" y="-245.3" font-family="Times,serif" font-size="14.00">update</text>
<polyline fill="none" stroke="black" points="19,-237.5 181,-237.5 "/>
<polyline fill="none" stroke="black" points="19,-213.5 181,-213.5 "/>
<text text-anchor="start" x="27" y="-198.3" font-family="Times,serif" font-size="14.00">_layout</text>
</g>
<!-- CasaisController -->
<g id="node4" class="node"><title>CasaisController</title>
<path fill="none" stroke="black" d="M639,-456.5C639,-456.5 722,-456.5 722,-456.5 728,-456.5 734,-462.5 734,-468.5 734,-468.5 734,-627.5 734,-627.5 734,-633.5 728,-639.5 722,-639.5 722,-639.5 639,-639.5 639,-639.5 633,-639.5 627,-633.5 627,-627.5 627,-627.5 627,-468.5 627,-468.5 627,-462.5 633,-456.5 639,-456.5"/>
<text text-anchor="middle" x="680.5" y="-624.3" font-family="Times,serif" font-size="14.00">CasaisController</text>
<polyline fill="none" stroke="black" points="627,-616.5 734,-616.5 "/>
<text text-anchor="start" x="635" y="-601.3" font-family="Times,serif" font-size="14.00">create</text>
<text text-anchor="start" x="635" y="-586.3" font-family="Times,serif" font-size="14.00">edit</text>
<text text-anchor="start" x="635" y="-571.3" font-family="Times,serif" font-size="14.00">index</text>
<text text-anchor="start" x="635" y="-556.3" font-family="Times,serif" font-size="14.00">new</text>
<text text-anchor="start" x="635" y="-541.3" font-family="Times,serif" font-size="14.00">update</text>
<polyline fill="none" stroke="black" points="627,-533.5 734,-533.5 "/>
<polyline fill="none" stroke="black" points="627,-509.5 734,-509.5 "/>
<text text-anchor="start" x="635" y="-494.3" font-family="Times,serif" font-size="14.00">_layout</text>
<text text-anchor="start" x="635" y="-479.3" font-family="Times,serif" font-size="14.00">casai_params</text>
<text text-anchor="start" x="635" y="-464.3" font-family="Times,serif" font-size="14.00">set_casai</text>
</g>
<!-- UsersController -->
<g id="node5" class="node"><title>UsersController</title>
<path fill="none" stroke="black" d="M259,-475.5C259,-475.5 378,-475.5 378,-475.5 384,-475.5 390,-481.5 390,-487.5 390,-487.5 390,-706.5 390,-706.5 390,-712.5 384,-718.5 378,-718.5 378,-718.5 259,-718.5 259,-718.5 253,-718.5 247,-712.5 247,-706.5 247,-706.5 247,-487.5 247,-487.5 247,-481.5 253,-475.5 259,-475.5"/>
<text text-anchor="middle" x="318.5" y="-703.3" font-family="Times,serif" font-size="14.00">UsersController</text>
<polyline fill="none" stroke="black" points="247,-695.5 390,-695.5 "/>
<text text-anchor="start" x="255" y="-680.3" font-family="Times,serif" font-size="14.00">create</text>
<text text-anchor="start" x="255" y="-665.3" font-family="Times,serif" font-size="14.00">edit</text>
<text text-anchor="start" x="255" y="-650.3" font-family="Times,serif" font-size="14.00">edit_password</text>
<text text-anchor="start" x="255" y="-635.3" font-family="Times,serif" font-size="14.00">home</text>
<text text-anchor="start" x="255" y="-620.3" font-family="Times,serif" font-size="14.00">index</text>
<text text-anchor="start" x="255" y="-605.3" font-family="Times,serif" font-size="14.00">new</text>
<text text-anchor="start" x="255" y="-590.3" font-family="Times,serif" font-size="14.00">update</text>
<text text-anchor="start" x="255" y="-575.3" font-family="Times,serif" font-size="14.00">update_password</text>
<polyline fill="none" stroke="black" points="247,-567.5 390,-567.5 "/>
<polyline fill="none" stroke="black" points="247,-543.5 390,-543.5 "/>
<text text-anchor="start" x="255" y="-528.3" font-family="Times,serif" font-size="14.00">_layout</text>
<text text-anchor="start" x="255" y="-513.3" font-family="Times,serif" font-size="14.00">set_user</text>
<text text-anchor="start" x="255" y="-498.3" font-family="Times,serif" font-size="14.00">user_params</text>
<text text-anchor="start" x="255" y="-483.3" font-family="Times,serif" font-size="14.00">user_password_params</text>
</g>
<!-- SpecificResultsController -->
<g id="node6" class="node"><title>SpecificResultsController</title>
<path fill="none" stroke="black" d="M411,-38.5C411,-38.5 543,-38.5 543,-38.5 549,-38.5 555,-44.5 555,-50.5 555,-50.5 555,-164.5 555,-164.5 555,-170.5 549,-176.5 543,-176.5 543,-176.5 411,-176.5 411,-176.5 405,-176.5 399,-170.5 399,-164.5 399,-164.5 399,-50.5 399,-50.5 399,-44.5 405,-38.5 411,-38.5"/>
<text text-anchor="middle" x="477" y="-161.3" font-family="Times,serif" font-size="14.00">SpecificResultsController</text>
<polyline fill="none" stroke="black" points="399,-153.5 555,-153.5 "/>
<text text-anchor="start" x="407" y="-138.3" font-family="Times,serif" font-size="14.00">edit</text>
<text text-anchor="start" x="407" y="-123.3" font-family="Times,serif" font-size="14.00">update</text>
<polyline fill="none" stroke="black" points="399,-115.5 555,-115.5 "/>
<polyline fill="none" stroke="black" points="399,-91.5 555,-91.5 "/>
<text text-anchor="start" x="407" y="-76.3" font-family="Times,serif" font-size="14.00">_layout</text>
<text text-anchor="start" x="407" y="-61.3" font-family="Times,serif" font-size="14.00">dsei_params</text>
<text text-anchor="start" x="407" y="-46.3" font-family="Times,serif" font-size="14.00">set_pdsi</text>
</g>
<!-- CategoryBudgetsController -->
<g id="node7" class="node"><title>CategoryBudgetsController</title>
<path fill="none" stroke="black" d="M658,-684.5C658,-684.5 800,-684.5 800,-684.5 806,-684.5 812,-690.5 812,-696.5 812,-696.5 812,-765.5 812,-765.5 812,-771.5 806,-777.5 800,-777.5 800,-777.5 658,-777.5 658,-777.5 652,-777.5 646,-771.5 646,-765.5 646,-765.5 646,-696.5 646,-696.5 646,-690.5 652,-684.5 658,-684.5"/>
<text text-anchor="middle" x="729" y="-762.3" font-family="Times,serif" font-size="14.00">CategoryBudgetsController</text>
<polyline fill="none" stroke="black" points="646,-754.5 812,-754.5 "/>
<text text-anchor="start" x="654" y="-739.3" font-family="Times,serif" font-size="14.00">index</text>
<polyline fill="none" stroke="black" points="646,-731.5 812,-731.5 "/>
<polyline fill="none" stroke="black" points="646,-707.5 812,-707.5 "/>
<text text-anchor="start" x="654" y="-692.3" font-family="Times,serif" font-size="14.00">_layout</text>
</g>
<!-- DemographicDatasController -->
<g id="node8" class="node"><title>DemographicDatasController</title>
<path fill="none" stroke="black" d="M12,-361.5C12,-361.5 165,-361.5 165,-361.5 171,-361.5 177,-367.5 177,-373.5 177,-373.5 177,-502.5 177,-502.5 177,-508.5 171,-514.5 165,-514.5 165,-514.5 12,-514.5 12,-514.5 6,-514.5 -2.84217e-14,-508.5 -2.84217e-14,-502.5 -2.84217e-14,-502.5 -2.84217e-14,-373.5 -2.84217e-14,-373.5 -2.84217e-14,-367.5 6,-361.5 12,-361.5"/>
<text text-anchor="middle" x="88.5" y="-499.3" font-family="Times,serif" font-size="14.00">DemographicDatasController</text>
<polyline fill="none" stroke="black" points="-2.84217e-14,-491.5 177,-491.5 "/>
<text text-anchor="start" x="8" y="-476.3" font-family="Times,serif" font-size="14.00">edit</text>
<text text-anchor="start" x="8" y="-461.3" font-family="Times,serif" font-size="14.00">index</text>
<text text-anchor="start" x="8" y="-446.3" font-family="Times,serif" font-size="14.00">update</text>
<polyline fill="none" stroke="black" points="-2.84217e-14,-438.5 177,-438.5 "/>
<polyline fill="none" stroke="black" points="-2.84217e-14,-414.5 177,-414.5 "/>
<text text-anchor="start" x="8" y="-399.3" font-family="Times,serif" font-size="14.00">_layout</text>
<text text-anchor="start" x="8" y="-384.3" font-family="Times,serif" font-size="14.00">demographic_data_params</text>
<text text-anchor="start" x="8" y="-369.3" font-family="Times,serif" font-size="14.00">set_demographic_data</text>
</g>
<!-- TextTemplatesController -->
<g id="node9" class="node"><title>TextTemplatesController</title>
<path fill="none" stroke="black" d="M601,-0.5C601,-0.5 731,-0.5 731,-0.5 737,-0.5 743,-6.5 743,-12.5 743,-12.5 743,-156.5 743,-156.5 743,-162.5 737,-168.5 731,-168.5 731,-168.5 601,-168.5 601,-168.5 595,-168.5 589,-162.5 589,-156.5 589,-156.5 589,-12.5 589,-12.5 589,-6.5 595,-0.5 601,-0.5"/>
<text text-anchor="middle" x="666" y="-153.3" font-family="Times,serif" font-size="14.00">TextTemplatesController</text>
<polyline fill="none" stroke="black" points="589,-145.5 743,-145.5 "/>
<text text-anchor="start" x="597" y="-130.3" font-family="Times,serif" font-size="14.00">edit</text>
<text text-anchor="start" x="597" y="-115.3" font-family="Times,serif" font-size="14.00">index</text>
<text text-anchor="start" x="597" y="-100.3" font-family="Times,serif" font-size="14.00">update</text>
<polyline fill="none" stroke="black" points="589,-92.5 743,-92.5 "/>
<polyline fill="none" stroke="black" points="589,-68.5 743,-68.5 "/>
<text text-anchor="start" x="597" y="-53.3" font-family="Times,serif" font-size="14.00">_layout</text>
<text text-anchor="start" x="597" y="-38.3" font-family="Times,serif" font-size="14.00">set_section</text>
<text text-anchor="start" x="597" y="-23.3" font-family="Times,serif" font-size="14.00">set_text_template</text>
<text text-anchor="start" x="597" y="-8.3" font-family="Times,serif" font-size="14.00">text_template_params</text>
</g>
<!-- CostUsersController -->
<g id="node10" class="node"><title>CostUsersController</title>
<path fill="none" stroke="black" d="M487,-703.5C487,-703.5 591,-703.5 591,-703.5 597,-703.5 603,-709.5 603,-715.5 603,-715.5 603,-814.5 603,-814.5 603,-820.5 597,-826.5 591,-826.5 591,-826.5 487,-826.5 487,-826.5 481,-826.5 475,-820.5 475,-814.5 475,-814.5 475,-715.5 475,-715.5 475,-709.5 481,-703.5 487,-703.5"/>
<text text-anchor="middle" x="539" y="-811.3" font-family="Times,serif" font-size="14.00">CostUsersController</text>
<polyline fill="none" stroke="black" points="475,-803.5 603,-803.5 "/>
<text text-anchor="start" x="483" y="-788.3" font-family="Times,serif" font-size="14.00">edit</text>
<text text-anchor="start" x="483" y="-773.3" font-family="Times,serif" font-size="14.00">index</text>
<text text-anchor="start" x="483" y="-758.3" font-family="Times,serif" font-size="14.00">update</text>
<polyline fill="none" stroke="black" points="475,-750.5 603,-750.5 "/>
<polyline fill="none" stroke="black" points="475,-726.5 603,-726.5 "/>
<text text-anchor="start" x="483" y="-711.3" font-family="Times,serif" font-size="14.00">_layout</text>
</g>
<!-- AbsoluteDataController -->
<g id="node11" class="node"><title>AbsoluteDataController</title>
<path fill="none" stroke="black" d="M69,-551.5C69,-551.5 194,-551.5 194,-551.5 200,-551.5 206,-557.5 206,-563.5 206,-563.5 206,-737.5 206,-737.5 206,-743.5 200,-749.5 194,-749.5 194,-749.5 69,-749.5 69,-749.5 63,-749.5 57,-743.5 57,-737.5 57,-737.5 57,-563.5 57,-563.5 57,-557.5 63,-551.5 69,-551.5"/>
<text text-anchor="middle" x="131.5" y="-734.3" font-family="Times,serif" font-size="14.00">AbsoluteDataController</text>
<polyline fill="none" stroke="black" points="57,-726.5 206,-726.5 "/>
<text text-anchor="start" x="65" y="-711.3" font-family="Times,serif" font-size="14.00">create</text>
<text text-anchor="start" x="65" y="-696.3" font-family="Times,serif" font-size="14.00">destroy</text>
<text text-anchor="start" x="65" y="-681.3" font-family="Times,serif" font-size="14.00">edit</text>
<text text-anchor="start" x="65" y="-666.3" font-family="Times,serif" font-size="14.00">index</text>
<text text-anchor="start" x="65" y="-651.3" font-family="Times,serif" font-size="14.00">new</text>
<text text-anchor="start" x="65" y="-636.3" font-family="Times,serif" font-size="14.00">update</text>
<polyline fill="none" stroke="black" points="57,-628.5 206,-628.5 "/>
<polyline fill="none" stroke="black" points="57,-604.5 206,-604.5 "/>
<text text-anchor="start" x="65" y="-589.3" font-family="Times,serif" font-size="14.00">_layout</text>
<text text-anchor="start" x="65" y="-574.3" font-family="Times,serif" font-size="14.00">absolute_datum_params</text>
<text text-anchor="start" x="65" y="-559.3" font-family="Times,serif" font-size="14.00">set_absolute_datum</text>
</g>
<!-- PeopleController -->
<g id="node12" class="node"><title>PeopleController</title>
<path fill="none" stroke="black" d="M658,-209.5C658,-209.5 743,-209.5 743,-209.5 749,-209.5 755,-215.5 755,-221.5 755,-221.5 755,-365.5 755,-365.5 755,-371.5 749,-377.5 743,-377.5 743,-377.5 658,-377.5 658,-377.5 652,-377.5 646,-371.5 646,-365.5 646,-365.5 646,-221.5 646,-221.5 646,-215.5 652,-209.5 658,-209.5"/>
<text text-anchor="middle" x="700.5" y="-362.3" font-family="Times,serif" font-size="14.00">PeopleController</text>
<polyline fill="none" stroke="black" points="646,-354.5 755,-354.5 "/>
<text text-anchor="start" x="654" y="-339.3" font-family="Times,serif" font-size="14.00">create</text>
<text text-anchor="start" x="654" y="-324.3" font-family="Times,serif" font-size="14.00">dsei</text>
<text text-anchor="start" x="654" y="-309.3" font-family="Times,serif" font-size="14.00">dsei=</text>
<text text-anchor="start" x="654" y="-294.3" font-family="Times,serif" font-size="14.00">person</text>
<text text-anchor="start" x="654" y="-279.3" font-family="Times,serif" font-size="14.00">person=</text>
<polyline fill="none" stroke="black" points="646,-271.5 755,-271.5 "/>
<polyline fill="none" stroke="black" points="646,-247.5 755,-247.5 "/>
<text text-anchor="start" x="654" y="-232.3" font-family="Times,serif" font-size="14.00">_layout</text>
<text text-anchor="start" x="654" y="-217.3" font-family="Times,serif" font-size="14.00">validate_person</text>
</g>
<!-- PdsisController -->
<g id="node13" class="node"><title>PdsisController</title>
<path fill="none" stroke="black" d="M221,-171.5C221,-171.5 341,-171.5 341,-171.5 347,-171.5 353,-177.5 353,-183.5 353,-183.5 353,-432.5 353,-432.5 353,-438.5 347,-444.5 341,-444.5 341,-444.5 221,-444.5 221,-444.5 215,-444.5 209,-438.5 209,-432.5 209,-432.5 209,-183.5 209,-183.5 209,-177.5 215,-171.5 221,-171.5"/>
<text text-anchor="middle" x="281" y="-429.3" font-family="Times,serif" font-size="14.00">PdsisController</text>
<polyline fill="none" stroke="black" points="209,-421.5 353,-421.5 "/>
<text text-anchor="start" x="217" y="-406.3" font-family="Times,serif" font-size="14.00">edit</text>
<text text-anchor="start" x="217" y="-391.3" font-family="Times,serif" font-size="14.00">edit_category_budgets</text>
<text text-anchor="start" x="217" y="-376.3" font-family="Times,serif" font-size="14.00">health_indicators</text>
<text text-anchor="start" x="217" y="-361.3" font-family="Times,serif" font-size="14.00">index</text>
<text text-anchor="start" x="217" y="-346.3" font-family="Times,serif" font-size="14.00">show</text>
<text text-anchor="start" x="217" y="-331.3" font-family="Times,serif" font-size="14.00">update</text>
<polyline fill="none" stroke="black" points="209,-323.5 353,-323.5 "/>
<polyline fill="none" stroke="black" points="209,-299.5 353,-299.5 "/>
<text text-anchor="start" x="217" y="-284.3" font-family="Times,serif" font-size="14.00">_layout</text>
<text text-anchor="start" x="217" y="-269.3" font-family="Times,serif" font-size="14.00">pdsi_params</text>
<text text-anchor="start" x="217" y="-254.3" font-family="Times,serif" font-size="14.00">redirect_after_save</text>
<text text-anchor="start" x="217" y="-239.3" font-family="Times,serif" font-size="14.00">redirect_to_indicadores</text>
<text text-anchor="start" x="217" y="-224.3" font-family="Times,serif" font-size="14.00">set_base_polo</text>
<text text-anchor="start" x="217" y="-209.3" font-family="Times,serif" font-size="14.00">set_pdsi</text>
<text text-anchor="start" x="217" y="-194.3" font-family="Times,serif" font-size="14.00">set_section</text>
<text text-anchor="start" x="217" y="-179.3" font-family="Times,serif" font-size="14.00">set_subsection</text>
</g>
<!-- BudgetCorrectionFactorsController -->
<g id="node14" class="node"><title>BudgetCorrectionFactorsController</title>
<path fill="none" stroke="black" d="M411,-209.5C411,-209.5 596,-209.5 596,-209.5 602,-209.5 608,-215.5 608,-221.5 608,-221.5 608,-410.5 608,-410.5 608,-416.5 602,-422.5 596,-422.5 596,-422.5 411,-422.5 411,-422.5 405,-422.5 399,-416.5 399,-410.5 399,-410.5 399,-221.5 399,-221.5 399,-215.5 405,-209.5 411,-209.5"/>
<text text-anchor="middle" x="503.5" y="-407.3" font-family="Times,serif" font-size="14.00">BudgetCorrectionFactorsController</text>
<polyline fill="none" stroke="black" points="399,-399.5 608,-399.5 "/>
<text text-anchor="start" x="407" y="-384.3" font-family="Times,serif" font-size="14.00">create</text>
<text text-anchor="start" x="407" y="-369.3" font-family="Times,serif" font-size="14.00">destroy</text>
<text text-anchor="start" x="407" y="-354.3" font-family="Times,serif" font-size="14.00">edit</text>
<text text-anchor="start" x="407" y="-339.3" font-family="Times,serif" font-size="14.00">index</text>
<text text-anchor="start" x="407" y="-324.3" font-family="Times,serif" font-size="14.00">new</text>
<text text-anchor="start" x="407" y="-309.3" font-family="Times,serif" font-size="14.00">show</text>
<text text-anchor="start" x="407" y="-294.3" font-family="Times,serif" font-size="14.00">update</text>
<polyline fill="none" stroke="black" points="399,-286.5 608,-286.5 "/>
<polyline fill="none" stroke="black" points="399,-262.5 608,-262.5 "/>
<text text-anchor="start" x="407" y="-247.3" font-family="Times,serif" font-size="14.00">_layout</text>
<text text-anchor="start" x="407" y="-232.3" font-family="Times,serif" font-size="14.00">budget_correction_factor_params</text>
<text text-anchor="start" x="407" y="-217.3" font-family="Times,serif" font-size="14.00">set_budget_correction_factor</text>
</g>
</g>
</svg>
