<?xml version="1.0" encoding="UTF-8" standalone="no"?>
<!DOCTYPE svg PUBLIC "-//W3C//DTD SVG 1.1//EN"
 "http://www.w3.org/Graphics/SVG/1.1/DTD/svg11.dtd">
<!-- Generated by graphviz version 2.36.0 (20140111.2315)
 -->
<!-- Title: controllers_diagram Pages: 1 -->
<svg width="564pt" height="543pt"
 viewBox="0.00 0.00 564.00 543.00" xmlns="http://www.w3.org/2000/svg" xmlns:xlink="http://www.w3.org/1999/xlink">
<g id="graph0" class="graph" transform="scale(1 1) rotate(0) translate(4 539)">
<title>controllers_diagram</title>
<polygon fill="none" stroke="none" points="-4,4 -4,-539 560,-539 560,4 -4,4"/>
<!-- _diagram_info -->
<g id="node1" class="node"><title>_diagram_info</title>
<text text-anchor="start" x="350" y="-81.6" font-family="Times,serif" font-size="13.00">Controllers diagram</text>
<text text-anchor="start" x="350" y="-67.6" font-family="Times,serif" font-size="13.00">Date: Sep 21 2015 &#45; 15:12</text>
<text text-anchor="start" x="350" y="-53.6" font-family="Times,serif" font-size="13.00">Migration version: 20150921132335</text>
<text text-anchor="start" x="350" y="-39.6" font-family="Times,serif" font-size="13.00">Generated by RailRoady 1.3.1</text>
<text text-anchor="start" x="350" y="-25.6" font-family="Times,serif" font-size="13.00">http://railroady.prestonlee.com</text>
</g>
<!-- ApplicationController -->
<g id="node2" class="node"><title>ApplicationController</title>
<path fill="none" stroke="black" d="M156,-396.5C156,-396.5 302,-396.5 302,-396.5 308,-396.5 314,-402.5 314,-408.5 314,-408.5 314,-522.5 314,-522.5 314,-528.5 308,-534.5 302,-534.5 302,-534.5 156,-534.5 156,-534.5 150,-534.5 144,-528.5 144,-522.5 144,-522.5 144,-408.5 144,-408.5 144,-402.5 150,-396.5 156,-396.5"/>
<text text-anchor="middle" x="229" y="-519.3" font-family="Times,serif" font-size="14.00">ApplicationController</text>
<polyline fill="none" stroke="black" points="144,-511.5 314,-511.5 "/>
<text text-anchor="start" x="152" y="-496.3" font-family="Times,serif" font-size="14.00">check_admin_actions</text>
<text text-anchor="start" x="152" y="-481.3" font-family="Times,serif" font-size="14.00">check_sesai_central_actions</text>
<text text-anchor="start" x="152" y="-466.3" font-family="Times,serif" font-size="14.00">health</text>
<polyline fill="none" stroke="black" points="144,-458.5 314,-458.5 "/>
<polyline fill="none" stroke="black" points="144,-434.5 314,-434.5 "/>
<text text-anchor="start" x="152" y="-419.3" font-family="Times,serif" font-size="14.00">_layout</text>
<text text-anchor="start" x="152" y="-404.3" font-family="Times,serif" font-size="14.00">determine_layout</text>
</g>
<!-- UsersController -->
<g id="node3" class="node"><title>UsersController</title>
<path fill="none" stroke="black" d="M174,-108.5C174,-108.5 293,-108.5 293,-108.5 299,-108.5 305,-114.5 305,-120.5 305,-120.5 305,-339.5 305,-339.5 305,-345.5 299,-351.5 293,-351.5 293,-351.5 174,-351.5 174,-351.5 168,-351.5 162,-345.5 162,-339.5 162,-339.5 162,-120.5 162,-120.5 162,-114.5 168,-108.5 174,-108.5"/>
<text text-anchor="middle" x="233.5" y="-336.3" font-family="Times,serif" font-size="14.00">UsersController</text>
<polyline fill="none" stroke="black" points="162,-328.5 305,-328.5 "/>
<text text-anchor="start" x="170" y="-313.3" font-family="Times,serif" font-size="14.00">create</text>
<text text-anchor="start" x="170" y="-298.3" font-family="Times,serif" font-size="14.00">edit</text>
<text text-anchor="start" x="170" y="-283.3" font-family="Times,serif" font-size="14.00">edit_password</text>
<text text-anchor="start" x="170" y="-268.3" font-family="Times,serif" font-size="14.00">home</text>
<text text-anchor="start" x="170" y="-253.3" font-family="Times,serif" font-size="14.00">index</text>
<text text-anchor="start" x="170" y="-238.3" font-family="Times,serif" font-size="14.00">new</text>
<text text-anchor="start" x="170" y="-223.3" font-family="Times,serif" font-size="14.00">update</text>
<text text-anchor="start" x="170" y="-208.3" font-family="Times,serif" font-size="14.00">update_password</text>
<polyline fill="none" stroke="black" points="162,-200.5 305,-200.5 "/>
<polyline fill="none" stroke="black" points="162,-176.5 305,-176.5 "/>
<text text-anchor="start" x="170" y="-161.3" font-family="Times,serif" font-size="14.00">_layout</text>
<text text-anchor="start" x="170" y="-146.3" font-family="Times,serif" font-size="14.00">set_user</text>
<text text-anchor="start" x="170" y="-131.3" font-family="Times,serif" font-size="14.00">user_params</text>
<text text-anchor="start" x="170" y="-116.3" font-family="Times,serif" font-size="14.00">user_password_params</text>
</g>
<!-- DemographicDatasController -->
<g id="node4" class="node"><title>DemographicDatasController</title>
<path fill="none" stroke="black" d="M354,-126.5C354,-126.5 507,-126.5 507,-126.5 513,-126.5 519,-132.5 519,-138.5 519,-138.5 519,-267.5 519,-267.5 519,-273.5 513,-279.5 507,-279.5 507,-279.5 354,-279.5 354,-279.5 348,-279.5 342,-273.5 342,-267.5 342,-267.5 342,-138.5 342,-138.5 342,-132.5 348,-126.5 354,-126.5"/>
<text text-anchor="middle" x="430.5" y="-264.3" font-family="Times,serif" font-size="14.00">DemographicDatasController</text>
<polyline fill="none" stroke="black" points="342,-256.5 519,-256.5 "/>
<text text-anchor="start" x="350" y="-241.3" font-family="Times,serif" font-size="14.00">edit</text>
<text text-anchor="start" x="350" y="-226.3" font-family="Times,serif" font-size="14.00">index</text>
<text text-anchor="start" x="350" y="-211.3" font-family="Times,serif" font-size="14.00">update</text>
<polyline fill="none" stroke="black" points="342,-203.5 519,-203.5 "/>
<polyline fill="none" stroke="black" points="342,-179.5 519,-179.5 "/>
<text text-anchor="start" x="350" y="-164.3" font-family="Times,serif" font-size="14.00">_layout</text>
<text text-anchor="start" x="350" y="-149.3" font-family="Times,serif" font-size="14.00">demographic_data_params</text>
<text text-anchor="start" x="350" y="-134.3" font-family="Times,serif" font-size="14.00">set_demographic_data</text>
</g>
<!-- TextTemplatesController -->
<g id="node5" class="node"><title>TextTemplatesController</title>
<path fill="none" stroke="black" d="M354,-324.5C354,-324.5 484,-324.5 484,-324.5 490,-324.5 496,-330.5 496,-336.5 496,-336.5 496,-480.5 496,-480.5 496,-486.5 490,-492.5 484,-492.5 484,-492.5 354,-492.5 354,-492.5 348,-492.5 342,-486.5 342,-480.5 342,-480.5 342,-336.5 342,-336.5 342,-330.5 348,-324.5 354,-324.5"/>
<text text-anchor="middle" x="419" y="-477.3" font-family="Times,serif" font-size="14.00">TextTemplatesController</text>
<polyline fill="none" stroke="black" points="342,-469.5 496,-469.5 "/>
<text text-anchor="start" x="350" y="-454.3" font-family="Times,serif" font-size="14.00">edit</text>
<text text-anchor="start" x="350" y="-439.3" font-family="Times,serif" font-size="14.00">index</text>
<text text-anchor="start" x="350" y="-424.3" font-family="Times,serif" font-size="14.00">update</text>
<polyline fill="none" stroke="black" points="342,-416.5 496,-416.5 "/>
<polyline fill="none" stroke="black" points="342,-392.5 496,-392.5 "/>
<text text-anchor="start" x="350" y="-377.3" font-family="Times,serif" font-size="14.00">_layout</text>
<text text-anchor="start" x="350" y="-362.3" font-family="Times,serif" font-size="14.00">set_section</text>
<text text-anchor="start" x="350" y="-347.3" font-family="Times,serif" font-size="14.00">set_text_template</text>
<text text-anchor="start" x="350" y="-332.3" font-family="Times,serif" font-size="14.00">text_template_params</text>
</g>
<!-- CostUsersController -->
<g id="node6" class="node"><title>CostUsersController</title>
<path fill="none" stroke="black" d="M12,-0.5C12,-0.5 116,-0.5 116,-0.5 122,-0.5 128,-6.5 128,-12.5 128,-12.5 128,-111.5 128,-111.5 128,-117.5 122,-123.5 116,-123.5 116,-123.5 12,-123.5 12,-123.5 6,-123.5 0,-117.5 0,-111.5 0,-111.5 0,-12.5 0,-12.5 0,-6.5 6,-0.5 12,-0.5"/>
<text text-anchor="middle" x="64" y="-108.3" font-family="Times,serif" font-size="14.00">CostUsersController</text>
<polyline fill="none" stroke="black" points="0,-100.5 128,-100.5 "/>
<text text-anchor="start" x="8" y="-85.3" font-family="Times,serif" font-size="14.00">edit</text>
<text text-anchor="start" x="8" y="-70.3" font-family="Times,serif" font-size="14.00">index</text>
<text text-anchor="start" x="8" y="-55.3" font-family="Times,serif" font-size="14.00">update</text>
<polyline fill="none" stroke="black" points="0,-47.5 128,-47.5 "/>
<polyline fill="none" stroke="black" points="0,-23.5 128,-23.5 "/>
<text text-anchor="start" x="8" y="-8.3" font-family="Times,serif" font-size="14.00">_layout</text>
</g>
<!-- PdsisController -->
<g id="node7" class="node"><title>PdsisController</title>
<path fill="none" stroke="black" d="M30,-162.5C30,-162.5 107,-162.5 107,-162.5 113,-162.5 119,-168.5 119,-174.5 119,-174.5 119,-348.5 119,-348.5 119,-354.5 113,-360.5 107,-360.5 107,-360.5 30,-360.5 30,-360.5 24,-360.5 18,-354.5 18,-348.5 18,-348.5 18,-174.5 18,-174.5 18,-168.5 24,-162.5 30,-162.5"/>
<text text-anchor="middle" x="68.5" y="-345.3" font-family="Times,serif" font-size="14.00">PdsisController</text>
<polyline fill="none" stroke="black" points="18,-337.5 119,-337.5 "/>
<text text-anchor="start" x="26" y="-322.3" font-family="Times,serif" font-size="14.00">edit</text>
<text text-anchor="start" x="26" y="-307.3" font-family="Times,serif" font-size="14.00">index</text>
<text text-anchor="start" x="26" y="-292.3" font-family="Times,serif" font-size="14.00">show</text>
<text text-anchor="start" x="26" y="-277.3" font-family="Times,serif" font-size="14.00">update</text>
<polyline fill="none" stroke="black" points="18,-269.5 119,-269.5 "/>
<polyline fill="none" stroke="black" points="18,-245.5 119,-245.5 "/>
<text text-anchor="start" x="26" y="-230.3" font-family="Times,serif" font-size="14.00">_layout</text>
<text text-anchor="start" x="26" y="-215.3" font-family="Times,serif" font-size="14.00">pdsi_params</text>
<text text-anchor="start" x="26" y="-200.3" font-family="Times,serif" font-size="14.00">set_base_polo</text>
<text text-anchor="start" x="26" y="-185.3" font-family="Times,serif" font-size="14.00">set_pdsi</text>
<text text-anchor="start" x="26" y="-170.3" font-family="Times,serif" font-size="14.00">set_section</text>
</g>
</g>
</svg>
