<?xml version="1.0" encoding="UTF-8" standalone="no"?>
<!DOCTYPE svg PUBLIC "-//W3C//DTD SVG 1.1//EN"
 "http://www.w3.org/Graphics/SVG/1.1/DTD/svg11.dtd">
<!-- Generated by graphviz version 2.36.0 (20140111.2315)
 -->
<!-- Title: controllers_diagram Pages: 1 -->
<svg width="1064pt" height="1072pt"
 viewBox="0.00 0.00 1064.00 1072.00" xmlns="http://www.w3.org/2000/svg" xmlns:xlink="http://www.w3.org/1999/xlink">
<g id="graph0" class="graph" transform="scale(1 1) rotate(0) translate(4 1068)">
<title>controllers_diagram</title>
<polygon fill="none" stroke="none" points="-4,4 -4,-1068 1060,-1068 1060,4 -4,4"/>
<!-- _diagram_info -->
<g id="node1" class="node"><title>_diagram_info</title>
<text text-anchor="start" x="48" y="-123.6" font-family="Times,serif" font-size="13.00">Controllers diagram</text>
<text text-anchor="start" x="48" y="-109.6" font-family="Times,serif" font-size="13.00">Date: Jan 26 2016 &#45; 17:40</text>
<text text-anchor="start" x="48" y="-95.6" font-family="Times,serif" font-size="13.00">Migration version: 20160124213146</text>
<text text-anchor="start" x="48" y="-81.6" font-family="Times,serif" font-size="13.00">Generated by RailRoady 1.3.1</text>
<text text-anchor="start" x="48" y="-67.6" font-family="Times,serif" font-size="13.00">http://railroady.prestonlee.com</text>
</g>
<!-- AbsoluteDataController -->
<g id="node2" class="node"><title>AbsoluteDataController</title>
<path fill="none" stroke="black" d="M192,-200.5C192,-200.5 317,-200.5 317,-200.5 323,-200.5 329,-206.5 329,-212.5 329,-212.5 329,-386.5 329,-386.5 329,-392.5 323,-398.5 317,-398.5 317,-398.5 192,-398.5 192,-398.5 186,-398.5 180,-392.5 180,-386.5 180,-386.5 180,-212.5 180,-212.5 180,-206.5 186,-200.5 192,-200.5"/>
<text text-anchor="middle" x="254.5" y="-383.3" font-family="Times,serif" font-size="14.00">AbsoluteDataController</text>
<polyline fill="none" stroke="black" points="180,-375.5 329,-375.5 "/>
<text text-anchor="start" x="188" y="-360.3" font-family="Times,serif" font-size="14.00">create</text>
<text text-anchor="start" x="188" y="-345.3" font-family="Times,serif" font-size="14.00">destroy</text>
<text text-anchor="start" x="188" y="-330.3" font-family="Times,serif" font-size="14.00">edit</text>
<text text-anchor="start" x="188" y="-315.3" font-family="Times,serif" font-size="14.00">index</text>
<text text-anchor="start" x="188" y="-300.3" font-family="Times,serif" font-size="14.00">new</text>
<text text-anchor="start" x="188" y="-285.3" font-family="Times,serif" font-size="14.00">update</text>
<polyline fill="none" stroke="black" points="180,-277.5 329,-277.5 "/>
<polyline fill="none" stroke="black" points="180,-253.5 329,-253.5 "/>
<text text-anchor="start" x="188" y="-238.3" font-family="Times,serif" font-size="14.00">_layout</text>
<text text-anchor="start" x="188" y="-223.3" font-family="Times,serif" font-size="14.00">absolute_datum_params</text>
<text text-anchor="start" x="188" y="-208.3" font-family="Times,serif" font-size="14.00">set_absolute_datum</text>
</g>
<!-- ApplicationController -->
<g id="node3" class="node"><title>ApplicationController</title>
<path fill="none" stroke="black" d="M712,-720.5C712,-720.5 858,-720.5 858,-720.5 864,-720.5 870,-726.5 870,-732.5 870,-732.5 870,-921.5 870,-921.5 870,-927.5 864,-933.5 858,-933.5 858,-933.5 712,-933.5 712,-933.5 706,-933.5 700,-927.5 700,-921.5 700,-921.5 700,-732.5 700,-732.5 700,-726.5 706,-720.5 712,-720.5"/>
<text text-anchor="middle" x="785" y="-918.3" font-family="Times,serif" font-size="14.00">ApplicationController</text>
<polyline fill="none" stroke="black" points="700,-910.5 870,-910.5 "/>
<text text-anchor="start" x="708" y="-895.3" font-family="Times,serif" font-size="14.00">check_admin_actions</text>
<text text-anchor="start" x="708" y="-880.3" font-family="Times,serif" font-size="14.00">check_sesai_central_actions</text>
<text text-anchor="start" x="708" y="-865.3" font-family="Times,serif" font-size="14.00">current_dsei</text>
<text text-anchor="start" x="708" y="-850.3" font-family="Times,serif" font-size="14.00">current_pdsi</text>
<text text-anchor="start" x="708" y="-835.3" font-family="Times,serif" font-size="14.00">health</text>
<text text-anchor="start" x="708" y="-820.3" font-family="Times,serif" font-size="14.00">image_upload</text>
<text text-anchor="start" x="708" y="-805.3" font-family="Times,serif" font-size="14.00">set_dsei_and_pdsi</text>
<text text-anchor="start" x="708" y="-790.3" font-family="Times,serif" font-size="14.00">set_dsei_and_pdsi_to_sesai</text>
<polyline fill="none" stroke="black" points="700,-782.5 870,-782.5 "/>
<polyline fill="none" stroke="black" points="700,-758.5 870,-758.5 "/>
<text text-anchor="start" x="708" y="-743.3" font-family="Times,serif" font-size="14.00">_layout</text>
<text text-anchor="start" x="708" y="-728.3" font-family="Times,serif" font-size="14.00">determine_layout</text>
</g>
<!-- BudgetCorrectionFactorsController -->
<g id="node4" class="node"><title>BudgetCorrectionFactorsController</title>
<path fill="none" stroke="black" d="M352,-700.5C352,-700.5 537,-700.5 537,-700.5 543,-700.5 549,-706.5 549,-712.5 549,-712.5 549,-901.5 549,-901.5 549,-907.5 543,-913.5 537,-913.5 537,-913.5 352,-913.5 352,-913.5 346,-913.5 340,-907.5 340,-901.5 340,-901.5 340,-712.5 340,-712.5 340,-706.5 346,-700.5 352,-700.5"/>
<text text-anchor="middle" x="444.5" y="-898.3" font-family="Times,serif" font-size="14.00">BudgetCorrectionFactorsController</text>
<polyline fill="none" stroke="black" points="340,-890.5 549,-890.5 "/>
<text text-anchor="start" x="348" y="-875.3" font-family="Times,serif" font-size="14.00">create</text>
<text text-anchor="start" x="348" y="-860.3" font-family="Times,serif" font-size="14.00">destroy</text>
<text text-anchor="start" x="348" y="-845.3" font-family="Times,serif" font-size="14.00">edit</text>
<text text-anchor="start" x="348" y="-830.3" font-family="Times,serif" font-size="14.00">index</text>
<text text-anchor="start" x="348" y="-815.3" font-family="Times,serif" font-size="14.00">new</text>
<text text-anchor="start" x="348" y="-800.3" font-family="Times,serif" font-size="14.00">show</text>
<text text-anchor="start" x="348" y="-785.3" font-family="Times,serif" font-size="14.00">update</text>
<polyline fill="none" stroke="black" points="340,-777.5 549,-777.5 "/>
<polyline fill="none" stroke="black" points="340,-753.5 549,-753.5 "/>
<text text-anchor="start" x="348" y="-738.3" font-family="Times,serif" font-size="14.00">_layout</text>
<text text-anchor="start" x="348" y="-723.3" font-family="Times,serif" font-size="14.00">budget_correction_factor_params</text>
<text text-anchor="start" x="348" y="-708.3" font-family="Times,serif" font-size="14.00">set_budget_correction_factor</text>
</g>
<!-- BudgetForecastsController -->
<g id="node5" class="node"><title>BudgetForecastsController</title>
<path fill="none" stroke="black" d="M592,-140.5C592,-140.5 730,-140.5 730,-140.5 736,-140.5 742,-146.5 742,-152.5 742,-152.5 742,-311.5 742,-311.5 742,-317.5 736,-323.5 730,-323.5 730,-323.5 592,-323.5 592,-323.5 586,-323.5 580,-317.5 580,-311.5 580,-311.5 580,-152.5 580,-152.5 580,-146.5 586,-140.5 592,-140.5"/>
<text text-anchor="middle" x="661" y="-308.3" font-family="Times,serif" font-size="14.00">BudgetForecastsController</text>
<polyline fill="none" stroke="black" points="580,-300.5 742,-300.5 "/>
<text text-anchor="start" x="588" y="-285.3" font-family="Times,serif" font-size="14.00">edit</text>
<text text-anchor="start" x="588" y="-270.3" font-family="Times,serif" font-size="14.00">index</text>
<text text-anchor="start" x="588" y="-255.3" font-family="Times,serif" font-size="14.00">new_comment</text>
<text text-anchor="start" x="588" y="-240.3" font-family="Times,serif" font-size="14.00">see_comment</text>
<text text-anchor="start" x="588" y="-225.3" font-family="Times,serif" font-size="14.00">show</text>
<text text-anchor="start" x="588" y="-210.3" font-family="Times,serif" font-size="14.00">update</text>
<polyline fill="none" stroke="black" points="580,-202.5 742,-202.5 "/>
<polyline fill="none" stroke="black" points="580,-178.5 742,-178.5 "/>
<text text-anchor="start" x="588" y="-163.3" font-family="Times,serif" font-size="14.00">_layout</text>
<text text-anchor="start" x="588" y="-148.3" font-family="Times,serif" font-size="14.00">new_comment_params</text>
</g>
<!-- CasaisController -->
<g id="node6" class="node"><title>CasaisController</title>
<path fill="none" stroke="black" d="M912,-680.5C912,-680.5 995,-680.5 995,-680.5 1001,-680.5 1007,-686.5 1007,-692.5 1007,-692.5 1007,-851.5 1007,-851.5 1007,-857.5 1001,-863.5 995,-863.5 995,-863.5 912,-863.5 912,-863.5 906,-863.5 900,-857.5 900,-851.5 900,-851.5 900,-692.5 900,-692.5 900,-686.5 906,-680.5 912,-680.5"/>
<text text-anchor="middle" x="953.5" y="-848.3" font-family="Times,serif" font-size="14.00">CasaisController</text>
<polyline fill="none" stroke="black" points="900,-840.5 1007,-840.5 "/>
<text text-anchor="start" x="908" y="-825.3" font-family="Times,serif" font-size="14.00">create</text>
<text text-anchor="start" x="908" y="-810.3" font-family="Times,serif" font-size="14.00">edit</text>
<text text-anchor="start" x="908" y="-795.3" font-family="Times,serif" font-size="14.00">index</text>
<text text-anchor="start" x="908" y="-780.3" font-family="Times,serif" font-size="14.00">new</text>
<text text-anchor="start" x="908" y="-765.3" font-family="Times,serif" font-size="14.00">update</text>
<polyline fill="none" stroke="black" points="900,-757.5 1007,-757.5 "/>
<polyline fill="none" stroke="black" points="900,-733.5 1007,-733.5 "/>
<text text-anchor="start" x="908" y="-718.3" font-family="Times,serif" font-size="14.00">_layout</text>
<text text-anchor="start" x="908" y="-703.3" font-family="Times,serif" font-size="14.00">casai_params</text>
<text text-anchor="start" x="908" y="-688.3" font-family="Times,serif" font-size="14.00">set_casai</text>
</g>
<!-- CategoryBudgetsController -->
<g id="node7" class="node"><title>CategoryBudgetsController</title>
<path fill="none" stroke="black" d="M592,-0.5C592,-0.5 734,-0.5 734,-0.5 740,-0.5 746,-6.5 746,-12.5 746,-12.5 746,-81.5 746,-81.5 746,-87.5 740,-93.5 734,-93.5 734,-93.5 592,-93.5 592,-93.5 586,-93.5 580,-87.5 580,-81.5 580,-81.5 580,-12.5 580,-12.5 580,-6.5 586,-0.5 592,-0.5"/>
<text text-anchor="middle" x="663" y="-78.3" font-family="Times,serif" font-size="14.00">CategoryBudgetsController</text>
<polyline fill="none" stroke="black" points="580,-70.5 746,-70.5 "/>
<text text-anchor="start" x="588" y="-55.3" font-family="Times,serif" font-size="14.00">index</text>
<polyline fill="none" stroke="black" points="580,-47.5 746,-47.5 "/>
<polyline fill="none" stroke="black" points="580,-23.5 746,-23.5 "/>
<text text-anchor="start" x="588" y="-8.3" font-family="Times,serif" font-size="14.00">_layout</text>
</g>
<!-- CostsController -->
<g id="node8" class="node"><title>CostsController</title>
<path fill="none" stroke="black" d="M52,-180.5C52,-180.5 130,-180.5 130,-180.5 136,-180.5 142,-186.5 142,-192.5 142,-192.5 142,-381.5 142,-381.5 142,-387.5 136,-393.5 130,-393.5 130,-393.5 52,-393.5 52,-393.5 46,-393.5 40,-387.5 40,-381.5 40,-381.5 40,-192.5 40,-192.5 40,-186.5 46,-180.5 52,-180.5"/>
<text text-anchor="middle" x="91" y="-378.3" font-family="Times,serif" font-size="14.00">CostsController</text>
<polyline fill="none" stroke="black" points="40,-370.5 142,-370.5 "/>
<text text-anchor="start" x="48" y="-355.3" font-family="Times,serif" font-size="14.00">create</text>
<text text-anchor="start" x="48" y="-340.3" font-family="Times,serif" font-size="14.00">destroy</text>
<text text-anchor="start" x="48" y="-325.3" font-family="Times,serif" font-size="14.00">edit</text>
<text text-anchor="start" x="48" y="-310.3" font-family="Times,serif" font-size="14.00">index</text>
<text text-anchor="start" x="48" y="-295.3" font-family="Times,serif" font-size="14.00">new</text>
<text text-anchor="start" x="48" y="-280.3" font-family="Times,serif" font-size="14.00">show</text>
<text text-anchor="start" x="48" y="-265.3" font-family="Times,serif" font-size="14.00">update</text>
<polyline fill="none" stroke="black" points="40,-257.5 142,-257.5 "/>
<polyline fill="none" stroke="black" points="40,-233.5 142,-233.5 "/>
<text text-anchor="start" x="48" y="-218.3" font-family="Times,serif" font-size="14.00">_layout</text>
<text text-anchor="start" x="48" y="-203.3" font-family="Times,serif" font-size="14.00">cost_params</text>
<text text-anchor="start" x="48" y="-188.3" font-family="Times,serif" font-size="14.00">set_cost</text>
</g>
<!-- CostUsersController -->
<g id="node9" class="node"><title>CostUsersController</title>
<path fill="none" stroke="black" d="M12,-940.5C12,-940.5 116,-940.5 116,-940.5 122,-940.5 128,-946.5 128,-952.5 128,-952.5 128,-1051.5 128,-1051.5 128,-1057.5 122,-1063.5 116,-1063.5 116,-1063.5 12,-1063.5 12,-1063.5 6,-1063.5 0,-1057.5 0,-1051.5 0,-1051.5 0,-952.5 0,-952.5 0,-946.5 6,-940.5 12,-940.5"/>
<text text-anchor="middle" x="64" y="-1048.3" font-family="Times,serif" font-size="14.00">CostUsersController</text>
<polyline fill="none" stroke="black" points="0,-1040.5 128,-1040.5 "/>
<text text-anchor="start" x="8" y="-1025.3" font-family="Times,serif" font-size="14.00">edit</text>
<text text-anchor="start" x="8" y="-1010.3" font-family="Times,serif" font-size="14.00">index</text>
<text text-anchor="start" x="8" y="-995.3" font-family="Times,serif" font-size="14.00">update</text>
<polyline fill="none" stroke="black" points="0,-987.5 128,-987.5 "/>
<polyline fill="none" stroke="black" points="0,-963.5 128,-963.5 "/>
<text text-anchor="start" x="8" y="-948.3" font-family="Times,serif" font-size="14.00">_layout</text>
</g>
<!-- DemographicDatasController -->
<g id="node10" class="node"><title>DemographicDatasController</title>
<path fill="none" stroke="black" d="M372,-60.5C372,-60.5 525,-60.5 525,-60.5 531,-60.5 537,-66.5 537,-72.5 537,-72.5 537,-201.5 537,-201.5 537,-207.5 531,-213.5 525,-213.5 525,-213.5 372,-213.5 372,-213.5 366,-213.5 360,-207.5 360,-201.5 360,-201.5 360,-72.5 360,-72.5 360,-66.5 366,-60.5 372,-60.5"/>
<text text-anchor="middle" x="448.5" y="-198.3" font-family="Times,serif" font-size="14.00">DemographicDatasController</text>
<polyline fill="none" stroke="black" points="360,-190.5 537,-190.5 "/>
<text text-anchor="start" x="368" y="-175.3" font-family="Times,serif" font-size="14.00">edit</text>
<text text-anchor="start" x="368" y="-160.3" font-family="Times,serif" font-size="14.00">index</text>
<text text-anchor="start" x="368" y="-145.3" font-family="Times,serif" font-size="14.00">update</text>
<polyline fill="none" stroke="black" points="360,-137.5 537,-137.5 "/>
<polyline fill="none" stroke="black" points="360,-113.5 537,-113.5 "/>
<text text-anchor="start" x="368" y="-98.3" font-family="Times,serif" font-size="14.00">_layout</text>
<text text-anchor="start" x="368" y="-83.3" font-family="Times,serif" font-size="14.00">demographic_data_params</text>
<text text-anchor="start" x="368" y="-68.3" font-family="Times,serif" font-size="14.00">set_demographic_data</text>
</g>
<!-- LocationsController -->
<g id="node11" class="node"><title>LocationsController</title>
<path fill="none" stroke="black" d="M12,-800.5C12,-800.5 113,-800.5 113,-800.5 119,-800.5 125,-806.5 125,-812.5 125,-812.5 125,-896.5 125,-896.5 125,-902.5 119,-908.5 113,-908.5 113,-908.5 12,-908.5 12,-908.5 6,-908.5 0,-902.5 0,-896.5 0,-896.5 0,-812.5 0,-812.5 0,-806.5 6,-800.5 12,-800.5"/>
<text text-anchor="middle" x="62.5" y="-893.3" font-family="Times,serif" font-size="14.00">LocationsController</text>
<polyline fill="none" stroke="black" points="0,-885.5 125,-885.5 "/>
<text text-anchor="start" x="8" y="-870.3" font-family="Times,serif" font-size="14.00">cities</text>
<text text-anchor="start" x="8" y="-855.3" font-family="Times,serif" font-size="14.00">villages</text>
<polyline fill="none" stroke="black" points="0,-847.5 125,-847.5 "/>
<polyline fill="none" stroke="black" points="0,-823.5 125,-823.5 "/>
<text text-anchor="start" x="8" y="-808.3" font-family="Times,serif" font-size="14.00">_layout</text>
</g>
<!-- PdsisController -->
<g id="node12" class="node"><title>PdsisController</title>
<path fill="none" stroke="black" d="M592,-360.5C592,-360.5 749,-360.5 749,-360.5 755,-360.5 761,-366.5 761,-372.5 761,-372.5 761,-666.5 761,-666.5 761,-672.5 755,-678.5 749,-678.5 749,-678.5 592,-678.5 592,-678.5 586,-678.5 580,-672.5 580,-666.5 580,-666.5 580,-372.5 580,-372.5 580,-366.5 586,-360.5 592,-360.5"/>
<text text-anchor="middle" x="670.5" y="-663.3" font-family="Times,serif" font-size="14.00">PdsisController</text>
<polyline fill="none" stroke="black" points="580,-655.5 761,-655.5 "/>
<text text-anchor="start" x="588" y="-640.3" font-family="Times,serif" font-size="14.00">delete_map</text>
<text text-anchor="start" x="588" y="-625.3" font-family="Times,serif" font-size="14.00">edit</text>
<text text-anchor="start" x="588" y="-610.3" font-family="Times,serif" font-size="14.00">edit_category_budgets</text>
<text text-anchor="start" x="588" y="-595.3" font-family="Times,serif" font-size="14.00">health_indicators</text>
<text text-anchor="start" x="588" y="-580.3" font-family="Times,serif" font-size="14.00">index</text>
<text text-anchor="start" x="588" y="-565.3" font-family="Times,serif" font-size="14.00">new_budget_forecast_by_cost</text>
<text text-anchor="start" x="588" y="-550.3" font-family="Times,serif" font-size="14.00">show</text>
<text text-anchor="start" x="588" y="-535.3" font-family="Times,serif" font-size="14.00">update</text>
<text text-anchor="start" x="588" y="-520.3" font-family="Times,serif" font-size="14.00">update_cost_name</text>
<polyline fill="none" stroke="black" points="580,-512.5 761,-512.5 "/>
<polyline fill="none" stroke="black" points="580,-488.5 761,-488.5 "/>
<text text-anchor="start" x="588" y="-473.3" font-family="Times,serif" font-size="14.00">_layout</text>
<text text-anchor="start" x="588" y="-458.3" font-family="Times,serif" font-size="14.00">pdsi_params</text>
<text text-anchor="start" x="588" y="-443.3" font-family="Times,serif" font-size="14.00">redirect_after_save</text>
<text text-anchor="start" x="588" y="-428.3" font-family="Times,serif" font-size="14.00">redirect_to_indicadores</text>
<text text-anchor="start" x="588" y="-413.3" font-family="Times,serif" font-size="14.00">set_base_polo</text>
<text text-anchor="start" x="588" y="-398.3" font-family="Times,serif" font-size="14.00">set_pdsi</text>
<text text-anchor="start" x="588" y="-383.3" font-family="Times,serif" font-size="14.00">set_section</text>
<text text-anchor="start" x="588" y="-368.3" font-family="Times,serif" font-size="14.00">set_subsection</text>
</g>
<!-- PeopleController -->
<g id="node13" class="node"><title>PeopleController</title>
<path fill="none" stroke="black" d="M812,-140.5C812,-140.5 897,-140.5 897,-140.5 903,-140.5 909,-146.5 909,-152.5 909,-152.5 909,-371.5 909,-371.5 909,-377.5 903,-383.5 897,-383.5 897,-383.5 812,-383.5 812,-383.5 806,-383.5 800,-377.5 800,-371.5 800,-371.5 800,-152.5 800,-152.5 800,-146.5 806,-140.5 812,-140.5"/>
<text text-anchor="middle" x="854.5" y="-368.3" font-family="Times,serif" font-size="14.00">PeopleController</text>
<polyline fill="none" stroke="black" points="800,-360.5 909,-360.5 "/>
<text text-anchor="start" x="808" y="-345.3" font-family="Times,serif" font-size="14.00">create</text>
<text text-anchor="start" x="808" y="-330.3" font-family="Times,serif" font-size="14.00">destroy</text>
<text text-anchor="start" x="808" y="-315.3" font-family="Times,serif" font-size="14.00">edit</text>
<text text-anchor="start" x="808" y="-300.3" font-family="Times,serif" font-size="14.00">index</text>
<text text-anchor="start" x="808" y="-285.3" font-family="Times,serif" font-size="14.00">new</text>
<text text-anchor="start" x="808" y="-270.3" font-family="Times,serif" font-size="14.00">search</text>
<text text-anchor="start" x="808" y="-255.3" font-family="Times,serif" font-size="14.00">update</text>
<polyline fill="none" stroke="black" points="800,-247.5 909,-247.5 "/>
<polyline fill="none" stroke="black" points="800,-223.5 909,-223.5 "/>
<text text-anchor="start" x="808" y="-208.3" font-family="Times,serif" font-size="14.00">_layout</text>
<text text-anchor="start" x="808" y="-193.3" font-family="Times,serif" font-size="14.00">person_params</text>
<text text-anchor="start" x="808" y="-178.3" font-family="Times,serif" font-size="14.00">set_dsei</text>
<text text-anchor="start" x="808" y="-163.3" font-family="Times,serif" font-size="14.00">set_person</text>
<text text-anchor="start" x="808" y="-148.3" font-family="Times,serif" font-size="14.00">validate_person</text>
</g>
<!-- ResultsController -->
<g id="node14" class="node"><title>ResultsController</title>
<path fill="none" stroke="black" d="M32,-480.5C32,-480.5 120,-480.5 120,-480.5 126,-480.5 132,-486.5 132,-492.5 132,-492.5 132,-666.5 132,-666.5 132,-672.5 126,-678.5 120,-678.5 120,-678.5 32,-678.5 32,-678.5 26,-678.5 20,-672.5 20,-666.5 20,-666.5 20,-492.5 20,-492.5 20,-486.5 26,-480.5 32,-480.5"/>
<text text-anchor="middle" x="76" y="-663.3" font-family="Times,serif" font-size="14.00">ResultsController</text>
<polyline fill="none" stroke="black" points="20,-655.5 132,-655.5 "/>
<text text-anchor="start" x="28" y="-640.3" font-family="Times,serif" font-size="14.00">create</text>
<text text-anchor="start" x="28" y="-625.3" font-family="Times,serif" font-size="14.00">edit</text>
<text text-anchor="start" x="28" y="-610.3" font-family="Times,serif" font-size="14.00">index</text>
<text text-anchor="start" x="28" y="-595.3" font-family="Times,serif" font-size="14.00">new</text>
<text text-anchor="start" x="28" y="-580.3" font-family="Times,serif" font-size="14.00">show</text>
<text text-anchor="start" x="28" y="-565.3" font-family="Times,serif" font-size="14.00">update</text>
<polyline fill="none" stroke="black" points="20,-557.5 132,-557.5 "/>
<polyline fill="none" stroke="black" points="20,-533.5 132,-533.5 "/>
<text text-anchor="start" x="28" y="-518.3" font-family="Times,serif" font-size="14.00">_layout</text>
<text text-anchor="start" x="28" y="-503.3" font-family="Times,serif" font-size="14.00">result_params</text>
<text text-anchor="start" x="28" y="-488.3" font-family="Times,serif" font-size="14.00">set_result</text>
</g>
<!-- ResultsSpecialController -->
<g id="node15" class="node"><title>ResultsSpecialController</title>
<path fill="none" stroke="black" d="M392,-260.5C392,-260.5 520,-260.5 520,-260.5 526,-260.5 532,-266.5 532,-272.5 532,-272.5 532,-656.5 532,-656.5 532,-662.5 526,-668.5 520,-668.5 520,-668.5 392,-668.5 392,-668.5 386,-668.5 380,-662.5 380,-656.5 380,-656.5 380,-272.5 380,-272.5 380,-266.5 386,-260.5 392,-260.5"/>
<text text-anchor="middle" x="456" y="-653.3" font-family="Times,serif" font-size="14.00">ResultsSpecialController</text>
<polyline fill="none" stroke="black" points="380,-645.5 532,-645.5 "/>
<text text-anchor="start" x="388" y="-630.3" font-family="Times,serif" font-size="14.00">delete</text>
<text text-anchor="start" x="388" y="-615.3" font-family="Times,serif" font-size="14.00">delete_specific_result</text>
<text text-anchor="start" x="388" y="-600.3" font-family="Times,serif" font-size="14.00">false_result</text>
<text text-anchor="start" x="388" y="-585.3" font-family="Times,serif" font-size="14.00">index</text>
<text text-anchor="start" x="388" y="-570.3" font-family="Times,serif" font-size="14.00">link_product</text>
<text text-anchor="start" x="388" y="-555.3" font-family="Times,serif" font-size="14.00">link_product_dsei</text>
<text text-anchor="start" x="388" y="-540.3" font-family="Times,serif" font-size="14.00">loop</text>
<text text-anchor="start" x="388" y="-525.3" font-family="Times,serif" font-size="14.00">new_comment</text>
<text text-anchor="start" x="388" y="-510.3" font-family="Times,serif" font-size="14.00">products_order</text>
<text text-anchor="start" x="388" y="-495.3" font-family="Times,serif" font-size="14.00">responsability</text>
<text text-anchor="start" x="388" y="-480.3" font-family="Times,serif" font-size="14.00">see_comment</text>
<text text-anchor="start" x="388" y="-465.3" font-family="Times,serif" font-size="14.00">specific_result</text>
<text text-anchor="start" x="388" y="-450.3" font-family="Times,serif" font-size="14.00">specific_update</text>
<text text-anchor="start" x="388" y="-435.3" font-family="Times,serif" font-size="14.00">update</text>
<polyline fill="none" stroke="black" points="380,-427.5 532,-427.5 "/>
<polyline fill="none" stroke="black" points="380,-403.5 532,-403.5 "/>
<text text-anchor="start" x="388" y="-388.3" font-family="Times,serif" font-size="14.00">_layout</text>
<text text-anchor="start" x="388" y="-373.3" font-family="Times,serif" font-size="14.00">delete_params</text>
<text text-anchor="start" x="388" y="-358.3" font-family="Times,serif" font-size="14.00">false_result_params</text>
<text text-anchor="start" x="388" y="-343.3" font-family="Times,serif" font-size="14.00">link_product_params</text>
<text text-anchor="start" x="388" y="-328.3" font-family="Times,serif" font-size="14.00">loop_params</text>
<text text-anchor="start" x="388" y="-313.3" font-family="Times,serif" font-size="14.00">new_comment_params</text>
<text text-anchor="start" x="388" y="-298.3" font-family="Times,serif" font-size="14.00">pdsi_params</text>
<text text-anchor="start" x="388" y="-283.3" font-family="Times,serif" font-size="14.00">set_pdsi</text>
<text text-anchor="start" x="388" y="-268.3" font-family="Times,serif" font-size="14.00">specific_result_params</text>
</g>
<!-- SesaiPeopleController -->
<g id="node16" class="node"><title>SesaiPeopleController</title>
<path fill="none" stroke="black" d="M812,-420.5C812,-420.5 925,-420.5 925,-420.5 931,-420.5 937,-426.5 937,-432.5 937,-432.5 937,-621.5 937,-621.5 937,-627.5 931,-633.5 925,-633.5 925,-633.5 812,-633.5 812,-633.5 806,-633.5 800,-627.5 800,-621.5 800,-621.5 800,-432.5 800,-432.5 800,-426.5 806,-420.5 812,-420.5"/>
<text text-anchor="middle" x="868.5" y="-618.3" font-family="Times,serif" font-size="14.00">SesaiPeopleController</text>
<polyline fill="none" stroke="black" points="800,-610.5 937,-610.5 "/>
<text text-anchor="start" x="808" y="-595.3" font-family="Times,serif" font-size="14.00">create</text>
<text text-anchor="start" x="808" y="-580.3" font-family="Times,serif" font-size="14.00">destroy</text>
<text text-anchor="start" x="808" y="-565.3" font-family="Times,serif" font-size="14.00">edit</text>
<text text-anchor="start" x="808" y="-550.3" font-family="Times,serif" font-size="14.00">index</text>
<text text-anchor="start" x="808" y="-535.3" font-family="Times,serif" font-size="14.00">new</text>
<text text-anchor="start" x="808" y="-520.3" font-family="Times,serif" font-size="14.00">update</text>
<polyline fill="none" stroke="black" points="800,-512.5 937,-512.5 "/>
<polyline fill="none" stroke="black" points="800,-488.5 937,-488.5 "/>
<text text-anchor="start" x="808" y="-473.3" font-family="Times,serif" font-size="14.00">_layout</text>
<text text-anchor="start" x="808" y="-458.3" font-family="Times,serif" font-size="14.00">person_params</text>
<text text-anchor="start" x="808" y="-443.3" font-family="Times,serif" font-size="14.00">set_person</text>
<text text-anchor="start" x="808" y="-428.3" font-family="Times,serif" font-size="14.00">validate_person</text>
</g>
<!-- SpecificResultsController -->
<g id="node17" class="node"><title>SpecificResultsController</title>
<path fill="none" stroke="black" d="M912,-900.5C912,-900.5 1044,-900.5 1044,-900.5 1050,-900.5 1056,-906.5 1056,-912.5 1056,-912.5 1056,-1026.5 1056,-1026.5 1056,-1032.5 1050,-1038.5 1044,-1038.5 1044,-1038.5 912,-1038.5 912,-1038.5 906,-1038.5 900,-1032.5 900,-1026.5 900,-1026.5 900,-912.5 900,-912.5 900,-906.5 906,-900.5 912,-900.5"/>
<text text-anchor="middle" x="978" y="-1023.3" font-family="Times,serif" font-size="14.00">SpecificResultsController</text>
<polyline fill="none" stroke="black" points="900,-1015.5 1056,-1015.5 "/>
<text text-anchor="start" x="908" y="-1000.3" font-family="Times,serif" font-size="14.00">edit</text>
<text text-anchor="start" x="908" y="-985.3" font-family="Times,serif" font-size="14.00">update</text>
<polyline fill="none" stroke="black" points="900,-977.5 1056,-977.5 "/>
<polyline fill="none" stroke="black" points="900,-953.5 1056,-953.5 "/>
<text text-anchor="start" x="908" y="-938.3" font-family="Times,serif" font-size="14.00">_layout</text>
<text text-anchor="start" x="908" y="-923.3" font-family="Times,serif" font-size="14.00">dsei_params</text>
<text text-anchor="start" x="908" y="-908.3" font-family="Times,serif" font-size="14.00">set_pdsi</text>
</g>
<!-- TextTemplatesController -->
<g id="node18" class="node"><title>TextTemplatesController</title>
<path fill="none" stroke="black" d="M172,-440.5C172,-440.5 330,-440.5 330,-440.5 336,-440.5 342,-446.5 342,-452.5 342,-452.5 342,-641.5 342,-641.5 342,-647.5 336,-653.5 330,-653.5 330,-653.5 172,-653.5 172,-653.5 166,-653.5 160,-647.5 160,-641.5 160,-641.5 160,-452.5 160,-452.5 160,-446.5 166,-440.5 172,-440.5"/>
<text text-anchor="middle" x="251" y="-638.3" font-family="Times,serif" font-size="14.00">TextTemplatesController</text>
<polyline fill="none" stroke="black" points="160,-630.5 342,-630.5 "/>
<text text-anchor="start" x="168" y="-615.3" font-family="Times,serif" font-size="14.00">analise_situacional_sesai</text>
<text text-anchor="start" x="168" y="-600.3" font-family="Times,serif" font-size="14.00">edit</text>
<text text-anchor="start" x="168" y="-585.3" font-family="Times,serif" font-size="14.00">index</text>
<text text-anchor="start" x="168" y="-570.3" font-family="Times,serif" font-size="14.00">introducao_sesai</text>
<text text-anchor="start" x="168" y="-555.3" font-family="Times,serif" font-size="14.00">processo_de_construcao_sesai</text>
<text text-anchor="start" x="168" y="-540.3" font-family="Times,serif" font-size="14.00">update</text>
<polyline fill="none" stroke="black" points="160,-532.5 342,-532.5 "/>
<polyline fill="none" stroke="black" points="160,-508.5 342,-508.5 "/>
<text text-anchor="start" x="168" y="-493.3" font-family="Times,serif" font-size="14.00">_layout</text>
<text text-anchor="start" x="168" y="-478.3" font-family="Times,serif" font-size="14.00">set_section</text>
<text text-anchor="start" x="168" y="-463.3" font-family="Times,serif" font-size="14.00">set_text_template</text>
<text text-anchor="start" x="168" y="-448.3" font-family="Times,serif" font-size="14.00">text_template_params</text>
</g>
<!-- UsersController -->
<g id="node19" class="node"><title>UsersController</title>
<path fill="none" stroke="black" d="M172,-780.5C172,-780.5 291,-780.5 291,-780.5 297,-780.5 303,-786.5 303,-792.5 303,-792.5 303,-1011.5 303,-1011.5 303,-1017.5 297,-1023.5 291,-1023.5 291,-1023.5 172,-1023.5 172,-1023.5 166,-1023.5 160,-1017.5 160,-1011.5 160,-1011.5 160,-792.5 160,-792.5 160,-786.5 166,-780.5 172,-780.5"/>
<text text-anchor="middle" x="231.5" y="-1008.3" font-family="Times,serif" font-size="14.00">UsersController</text>
<polyline fill="none" stroke="black" points="160,-1000.5 303,-1000.5 "/>
<text text-anchor="start" x="168" y="-985.3" font-family="Times,serif" font-size="14.00">create</text>
<text text-anchor="start" x="168" y="-970.3" font-family="Times,serif" font-size="14.00">edit</text>
<text text-anchor="start" x="168" y="-955.3" font-family="Times,serif" font-size="14.00">edit_password</text>
<text text-anchor="start" x="168" y="-940.3" font-family="Times,serif" font-size="14.00">home</text>
<text text-anchor="start" x="168" y="-925.3" font-family="Times,serif" font-size="14.00">index</text>
<text text-anchor="start" x="168" y="-910.3" font-family="Times,serif" font-size="14.00">new</text>
<text text-anchor="start" x="168" y="-895.3" font-family="Times,serif" font-size="14.00">update</text>
<text text-anchor="start" x="168" y="-880.3" font-family="Times,serif" font-size="14.00">update_password</text>
<polyline fill="none" stroke="black" points="160,-872.5 303,-872.5 "/>
<polyline fill="none" stroke="black" points="160,-848.5 303,-848.5 "/>
<text text-anchor="start" x="168" y="-833.3" font-family="Times,serif" font-size="14.00">_layout</text>
<text text-anchor="start" x="168" y="-818.3" font-family="Times,serif" font-size="14.00">set_user</text>
<text text-anchor="start" x="168" y="-803.3" font-family="Times,serif" font-size="14.00">user_params</text>
<text text-anchor="start" x="168" y="-788.3" font-family="Times,serif" font-size="14.00">user_password_params</text>
</g>
</g>
</svg>
