<?xml version="1.0" encoding="UTF-8" standalone="no"?>
<!DOCTYPE svg PUBLIC "-//W3C//DTD SVG 1.1//EN"
 "http://www.w3.org/Graphics/SVG/1.1/DTD/svg11.dtd">
<!-- Generated by graphviz version 2.36.0 (20140111.2315)
 -->
<!-- Title: controllers_diagram Pages: 1 -->
<svg width="990pt" height="1027pt"
 viewBox="0.00 0.00 990.00 1027.00" xmlns="http://www.w3.org/2000/svg" xmlns:xlink="http://www.w3.org/1999/xlink">
<g id="graph0" class="graph" transform="scale(1 1) rotate(0) translate(4 1023)">
<title>controllers_diagram</title>
<polygon fill="none" stroke="none" points="-4,4 -4,-1023 986,-1023 986,4 -4,4"/>
<!-- _diagram_info -->
<g id="node1" class="node"><title>_diagram_info</title>
<text text-anchor="start" x="288" y="-163.6" font-family="Times,serif" font-size="13.00">Controllers diagram</text>
<text text-anchor="start" x="288" y="-149.6" font-family="Times,serif" font-size="13.00">Date: Dec 10 2015 &#45; 19:49</text>
<text text-anchor="start" x="288" y="-135.6" font-family="Times,serif" font-size="13.00">Migration version: 20151207191327</text>
<text text-anchor="start" x="288" y="-121.6" font-family="Times,serif" font-size="13.00">Generated by RailRoady 1.3.1</text>
<text text-anchor="start" x="288" y="-107.6" font-family="Times,serif" font-size="13.00">http://railroady.prestonlee.com</text>
</g>
<!-- AbsoluteDataController -->
<g id="node2" class="node"><title>AbsoluteDataController</title>
<path fill="none" stroke="black" d="M172,-420.5C172,-420.5 297,-420.5 297,-420.5 303,-420.5 309,-426.5 309,-432.5 309,-432.5 309,-606.5 309,-606.5 309,-612.5 303,-618.5 297,-618.5 297,-618.5 172,-618.5 172,-618.5 166,-618.5 160,-612.5 160,-606.5 160,-606.5 160,-432.5 160,-432.5 160,-426.5 166,-420.5 172,-420.5"/>
<text text-anchor="middle" x="234.5" y="-603.3" font-family="Times,serif" font-size="14.00">AbsoluteDataController</text>
<polyline fill="none" stroke="black" points="160,-595.5 309,-595.5 "/>
<text text-anchor="start" x="168" y="-580.3" font-family="Times,serif" font-size="14.00">create</text>
<text text-anchor="start" x="168" y="-565.3" font-family="Times,serif" font-size="14.00">destroy</text>
<text text-anchor="start" x="168" y="-550.3" font-family="Times,serif" font-size="14.00">edit</text>
<text text-anchor="start" x="168" y="-535.3" font-family="Times,serif" font-size="14.00">index</text>
<text text-anchor="start" x="168" y="-520.3" font-family="Times,serif" font-size="14.00">new</text>
<text text-anchor="start" x="168" y="-505.3" font-family="Times,serif" font-size="14.00">update</text>
<polyline fill="none" stroke="black" points="160,-497.5 309,-497.5 "/>
<polyline fill="none" stroke="black" points="160,-473.5 309,-473.5 "/>
<text text-anchor="start" x="168" y="-458.3" font-family="Times,serif" font-size="14.00">_layout</text>
<text text-anchor="start" x="168" y="-443.3" font-family="Times,serif" font-size="14.00">absolute_datum_params</text>
<text text-anchor="start" x="168" y="-428.3" font-family="Times,serif" font-size="14.00">set_absolute_datum</text>
</g>
<!-- ApplicationController -->
<g id="node3" class="node"><title>ApplicationController</title>
<path fill="none" stroke="black" d="M372,-660.5C372,-660.5 518,-660.5 518,-660.5 524,-660.5 530,-666.5 530,-672.5 530,-672.5 530,-861.5 530,-861.5 530,-867.5 524,-873.5 518,-873.5 518,-873.5 372,-873.5 372,-873.5 366,-873.5 360,-867.5 360,-861.5 360,-861.5 360,-672.5 360,-672.5 360,-666.5 366,-660.5 372,-660.5"/>
<text text-anchor="middle" x="445" y="-858.3" font-family="Times,serif" font-size="14.00">ApplicationController</text>
<polyline fill="none" stroke="black" points="360,-850.5 530,-850.5 "/>
<text text-anchor="start" x="368" y="-835.3" font-family="Times,serif" font-size="14.00">check_admin_actions</text>
<text text-anchor="start" x="368" y="-820.3" font-family="Times,serif" font-size="14.00">check_sesai_central_actions</text>
<text text-anchor="start" x="368" y="-805.3" font-family="Times,serif" font-size="14.00">current_dsei</text>
<text text-anchor="start" x="368" y="-790.3" font-family="Times,serif" font-size="14.00">current_pdsi</text>
<text text-anchor="start" x="368" y="-775.3" font-family="Times,serif" font-size="14.00">health</text>
<text text-anchor="start" x="368" y="-760.3" font-family="Times,serif" font-size="14.00">image_upload</text>
<text text-anchor="start" x="368" y="-745.3" font-family="Times,serif" font-size="14.00">set_dsei_and_pdsi</text>
<text text-anchor="start" x="368" y="-730.3" font-family="Times,serif" font-size="14.00">set_dsei_and_pdsi_to_sesai</text>
<polyline fill="none" stroke="black" points="360,-722.5 530,-722.5 "/>
<polyline fill="none" stroke="black" points="360,-698.5 530,-698.5 "/>
<text text-anchor="start" x="368" y="-683.3" font-family="Times,serif" font-size="14.00">_layout</text>
<text text-anchor="start" x="368" y="-668.3" font-family="Times,serif" font-size="14.00">determine_layout</text>
</g>
<!-- BudgetCorrectionFactorsController -->
<g id="node4" class="node"><title>BudgetCorrectionFactorsController</title>
<path fill="none" stroke="black" d="M552,-300.5C552,-300.5 737,-300.5 737,-300.5 743,-300.5 749,-306.5 749,-312.5 749,-312.5 749,-501.5 749,-501.5 749,-507.5 743,-513.5 737,-513.5 737,-513.5 552,-513.5 552,-513.5 546,-513.5 540,-507.5 540,-501.5 540,-501.5 540,-312.5 540,-312.5 540,-306.5 546,-300.5 552,-300.5"/>
<text text-anchor="middle" x="644.5" y="-498.3" font-family="Times,serif" font-size="14.00">BudgetCorrectionFactorsController</text>
<polyline fill="none" stroke="black" points="540,-490.5 749,-490.5 "/>
<text text-anchor="start" x="548" y="-475.3" font-family="Times,serif" font-size="14.00">create</text>
<text text-anchor="start" x="548" y="-460.3" font-family="Times,serif" font-size="14.00">destroy</text>
<text text-anchor="start" x="548" y="-445.3" font-family="Times,serif" font-size="14.00">edit</text>
<text text-anchor="start" x="548" y="-430.3" font-family="Times,serif" font-size="14.00">index</text>
<text text-anchor="start" x="548" y="-415.3" font-family="Times,serif" font-size="14.00">new</text>
<text text-anchor="start" x="548" y="-400.3" font-family="Times,serif" font-size="14.00">show</text>
<text text-anchor="start" x="548" y="-385.3" font-family="Times,serif" font-size="14.00">update</text>
<polyline fill="none" stroke="black" points="540,-377.5 749,-377.5 "/>
<polyline fill="none" stroke="black" points="540,-353.5 749,-353.5 "/>
<text text-anchor="start" x="548" y="-338.3" font-family="Times,serif" font-size="14.00">_layout</text>
<text text-anchor="start" x="548" y="-323.3" font-family="Times,serif" font-size="14.00">budget_correction_factor_params</text>
<text text-anchor="start" x="548" y="-308.3" font-family="Times,serif" font-size="14.00">set_budget_correction_factor</text>
</g>
<!-- BudgetForecastsController -->
<g id="node5" class="node"><title>BudgetForecastsController</title>
<path fill="none" stroke="black" d="M832,-820.5C832,-820.5 970,-820.5 970,-820.5 976,-820.5 982,-826.5 982,-832.5 982,-832.5 982,-946.5 982,-946.5 982,-952.5 976,-958.5 970,-958.5 970,-958.5 832,-958.5 832,-958.5 826,-958.5 820,-952.5 820,-946.5 820,-946.5 820,-832.5 820,-832.5 820,-826.5 826,-820.5 832,-820.5"/>
<text text-anchor="middle" x="901" y="-943.3" font-family="Times,serif" font-size="14.00">BudgetForecastsController</text>
<polyline fill="none" stroke="black" points="820,-935.5 982,-935.5 "/>
<text text-anchor="start" x="828" y="-920.3" font-family="Times,serif" font-size="14.00">edit</text>
<text text-anchor="start" x="828" y="-905.3" font-family="Times,serif" font-size="14.00">index</text>
<text text-anchor="start" x="828" y="-890.3" font-family="Times,serif" font-size="14.00">show</text>
<text text-anchor="start" x="828" y="-875.3" font-family="Times,serif" font-size="14.00">update</text>
<polyline fill="none" stroke="black" points="820,-867.5 982,-867.5 "/>
<polyline fill="none" stroke="black" points="820,-843.5 982,-843.5 "/>
<text text-anchor="start" x="828" y="-828.3" font-family="Times,serif" font-size="14.00">_layout</text>
</g>
<!-- CasaisController -->
<g id="node6" class="node"><title>CasaisController</title>
<path fill="none" stroke="black" d="M52,-800.5C52,-800.5 135,-800.5 135,-800.5 141,-800.5 147,-806.5 147,-812.5 147,-812.5 147,-971.5 147,-971.5 147,-977.5 141,-983.5 135,-983.5 135,-983.5 52,-983.5 52,-983.5 46,-983.5 40,-977.5 40,-971.5 40,-971.5 40,-812.5 40,-812.5 40,-806.5 46,-800.5 52,-800.5"/>
<text text-anchor="middle" x="93.5" y="-968.3" font-family="Times,serif" font-size="14.00">CasaisController</text>
<polyline fill="none" stroke="black" points="40,-960.5 147,-960.5 "/>
<text text-anchor="start" x="48" y="-945.3" font-family="Times,serif" font-size="14.00">create</text>
<text text-anchor="start" x="48" y="-930.3" font-family="Times,serif" font-size="14.00">edit</text>
<text text-anchor="start" x="48" y="-915.3" font-family="Times,serif" font-size="14.00">index</text>
<text text-anchor="start" x="48" y="-900.3" font-family="Times,serif" font-size="14.00">new</text>
<text text-anchor="start" x="48" y="-885.3" font-family="Times,serif" font-size="14.00">update</text>
<polyline fill="none" stroke="black" points="40,-877.5 147,-877.5 "/>
<polyline fill="none" stroke="black" points="40,-853.5 147,-853.5 "/>
<text text-anchor="start" x="48" y="-838.3" font-family="Times,serif" font-size="14.00">_layout</text>
<text text-anchor="start" x="48" y="-823.3" font-family="Times,serif" font-size="14.00">casai_params</text>
<text text-anchor="start" x="48" y="-808.3" font-family="Times,serif" font-size="14.00">set_casai</text>
</g>
<!-- CategoryBudgetsController -->
<g id="node7" class="node"><title>CategoryBudgetsController</title>
<path fill="none" stroke="black" d="M12,-0.5C12,-0.5 154,-0.5 154,-0.5 160,-0.5 166,-6.5 166,-12.5 166,-12.5 166,-81.5 166,-81.5 166,-87.5 160,-93.5 154,-93.5 154,-93.5 12,-93.5 12,-93.5 6,-93.5 0,-87.5 0,-81.5 0,-81.5 0,-12.5 0,-12.5 0,-6.5 6,-0.5 12,-0.5"/>
<text text-anchor="middle" x="83" y="-78.3" font-family="Times,serif" font-size="14.00">CategoryBudgetsController</text>
<polyline fill="none" stroke="black" points="0,-70.5 166,-70.5 "/>
<text text-anchor="start" x="8" y="-55.3" font-family="Times,serif" font-size="14.00">index</text>
<polyline fill="none" stroke="black" points="0,-47.5 166,-47.5 "/>
<polyline fill="none" stroke="black" points="0,-23.5 166,-23.5 "/>
<text text-anchor="start" x="8" y="-8.3" font-family="Times,serif" font-size="14.00">_layout</text>
</g>
<!-- CostUsersController -->
<g id="node8" class="node"><title>CostUsersController</title>
<path fill="none" stroke="black" d="M12,-640.5C12,-640.5 116,-640.5 116,-640.5 122,-640.5 128,-646.5 128,-652.5 128,-652.5 128,-751.5 128,-751.5 128,-757.5 122,-763.5 116,-763.5 116,-763.5 12,-763.5 12,-763.5 6,-763.5 0,-757.5 0,-751.5 0,-751.5 0,-652.5 0,-652.5 0,-646.5 6,-640.5 12,-640.5"/>
<text text-anchor="middle" x="64" y="-748.3" font-family="Times,serif" font-size="14.00">CostUsersController</text>
<polyline fill="none" stroke="black" points="0,-740.5 128,-740.5 "/>
<text text-anchor="start" x="8" y="-725.3" font-family="Times,serif" font-size="14.00">edit</text>
<text text-anchor="start" x="8" y="-710.3" font-family="Times,serif" font-size="14.00">index</text>
<text text-anchor="start" x="8" y="-695.3" font-family="Times,serif" font-size="14.00">update</text>
<polyline fill="none" stroke="black" points="0,-687.5 128,-687.5 "/>
<polyline fill="none" stroke="black" points="0,-663.5 128,-663.5 "/>
<text text-anchor="start" x="8" y="-648.3" font-family="Times,serif" font-size="14.00">_layout</text>
</g>
<!-- DemographicDatasController -->
<g id="node9" class="node"><title>DemographicDatasController</title>
<path fill="none" stroke="black" d="M552,-100.5C552,-100.5 705,-100.5 705,-100.5 711,-100.5 717,-106.5 717,-112.5 717,-112.5 717,-241.5 717,-241.5 717,-247.5 711,-253.5 705,-253.5 705,-253.5 552,-253.5 552,-253.5 546,-253.5 540,-247.5 540,-241.5 540,-241.5 540,-112.5 540,-112.5 540,-106.5 546,-100.5 552,-100.5"/>
<text text-anchor="middle" x="628.5" y="-238.3" font-family="Times,serif" font-size="14.00">DemographicDatasController</text>
<polyline fill="none" stroke="black" points="540,-230.5 717,-230.5 "/>
<text text-anchor="start" x="548" y="-215.3" font-family="Times,serif" font-size="14.00">edit</text>
<text text-anchor="start" x="548" y="-200.3" font-family="Times,serif" font-size="14.00">index</text>
<text text-anchor="start" x="548" y="-185.3" font-family="Times,serif" font-size="14.00">update</text>
<polyline fill="none" stroke="black" points="540,-177.5 717,-177.5 "/>
<polyline fill="none" stroke="black" points="540,-153.5 717,-153.5 "/>
<text text-anchor="start" x="548" y="-138.3" font-family="Times,serif" font-size="14.00">_layout</text>
<text text-anchor="start" x="548" y="-123.3" font-family="Times,serif" font-size="14.00">demographic_data_params</text>
<text text-anchor="start" x="548" y="-108.3" font-family="Times,serif" font-size="14.00">set_demographic_data</text>
</g>
<!-- PdsisController -->
<g id="node10" class="node"><title>PdsisController</title>
<path fill="none" stroke="black" d="M572,-560.5C572,-560.5 692,-560.5 692,-560.5 698,-560.5 704,-566.5 704,-572.5 704,-572.5 704,-836.5 704,-836.5 704,-842.5 698,-848.5 692,-848.5 692,-848.5 572,-848.5 572,-848.5 566,-848.5 560,-842.5 560,-836.5 560,-836.5 560,-572.5 560,-572.5 560,-566.5 566,-560.5 572,-560.5"/>
<text text-anchor="middle" x="632" y="-833.3" font-family="Times,serif" font-size="14.00">PdsisController</text>
<polyline fill="none" stroke="black" points="560,-825.5 704,-825.5 "/>
<text text-anchor="start" x="568" y="-810.3" font-family="Times,serif" font-size="14.00">delete_map</text>
<text text-anchor="start" x="568" y="-795.3" font-family="Times,serif" font-size="14.00">edit</text>
<text text-anchor="start" x="568" y="-780.3" font-family="Times,serif" font-size="14.00">edit_category_budgets</text>
<text text-anchor="start" x="568" y="-765.3" font-family="Times,serif" font-size="14.00">health_indicators</text>
<text text-anchor="start" x="568" y="-750.3" font-family="Times,serif" font-size="14.00">index</text>
<text text-anchor="start" x="568" y="-735.3" font-family="Times,serif" font-size="14.00">show</text>
<text text-anchor="start" x="568" y="-720.3" font-family="Times,serif" font-size="14.00">update</text>
<polyline fill="none" stroke="black" points="560,-712.5 704,-712.5 "/>
<polyline fill="none" stroke="black" points="560,-688.5 704,-688.5 "/>
<text text-anchor="start" x="568" y="-673.3" font-family="Times,serif" font-size="14.00">_layout</text>
<text text-anchor="start" x="568" y="-658.3" font-family="Times,serif" font-size="14.00">pdsi_params</text>
<text text-anchor="start" x="568" y="-643.3" font-family="Times,serif" font-size="14.00">redirect_after_save</text>
<text text-anchor="start" x="568" y="-628.3" font-family="Times,serif" font-size="14.00">redirect_to_indicadores</text>
<text text-anchor="start" x="568" y="-613.3" font-family="Times,serif" font-size="14.00">set_base_polo</text>
<text text-anchor="start" x="568" y="-598.3" font-family="Times,serif" font-size="14.00">set_pdsi</text>
<text text-anchor="start" x="568" y="-583.3" font-family="Times,serif" font-size="14.00">set_section</text>
<text text-anchor="start" x="568" y="-568.3" font-family="Times,serif" font-size="14.00">set_subsection</text>
</g>
<!-- PeopleController -->
<g id="node11" class="node"><title>PeopleController</title>
<path fill="none" stroke="black" d="M152,-140.5C152,-140.5 237,-140.5 237,-140.5 243,-140.5 249,-146.5 249,-152.5 249,-152.5 249,-371.5 249,-371.5 249,-377.5 243,-383.5 237,-383.5 237,-383.5 152,-383.5 152,-383.5 146,-383.5 140,-377.5 140,-371.5 140,-371.5 140,-152.5 140,-152.5 140,-146.5 146,-140.5 152,-140.5"/>
<text text-anchor="middle" x="194.5" y="-368.3" font-family="Times,serif" font-size="14.00">PeopleController</text>
<polyline fill="none" stroke="black" points="140,-360.5 249,-360.5 "/>
<text text-anchor="start" x="148" y="-345.3" font-family="Times,serif" font-size="14.00">create</text>
<text text-anchor="start" x="148" y="-330.3" font-family="Times,serif" font-size="14.00">destroy</text>
<text text-anchor="start" x="148" y="-315.3" font-family="Times,serif" font-size="14.00">edit</text>
<text text-anchor="start" x="148" y="-300.3" font-family="Times,serif" font-size="14.00">index</text>
<text text-anchor="start" x="148" y="-285.3" font-family="Times,serif" font-size="14.00">new</text>
<text text-anchor="start" x="148" y="-270.3" font-family="Times,serif" font-size="14.00">search</text>
<text text-anchor="start" x="148" y="-255.3" font-family="Times,serif" font-size="14.00">update</text>
<polyline fill="none" stroke="black" points="140,-247.5 249,-247.5 "/>
<polyline fill="none" stroke="black" points="140,-223.5 249,-223.5 "/>
<text text-anchor="start" x="148" y="-208.3" font-family="Times,serif" font-size="14.00">_layout</text>
<text text-anchor="start" x="148" y="-193.3" font-family="Times,serif" font-size="14.00">person_params</text>
<text text-anchor="start" x="148" y="-178.3" font-family="Times,serif" font-size="14.00">set_dsei</text>
<text text-anchor="start" x="148" y="-163.3" font-family="Times,serif" font-size="14.00">set_person</text>
<text text-anchor="start" x="148" y="-148.3" font-family="Times,serif" font-size="14.00">validate_person</text>
</g>
<!-- ResultsController -->
<g id="node12" class="node"><title>ResultsController</title>
<path fill="none" stroke="black" d="M792,-280.5C792,-280.5 880,-280.5 880,-280.5 886,-280.5 892,-286.5 892,-292.5 892,-292.5 892,-466.5 892,-466.5 892,-472.5 886,-478.5 880,-478.5 880,-478.5 792,-478.5 792,-478.5 786,-478.5 780,-472.5 780,-466.5 780,-466.5 780,-292.5 780,-292.5 780,-286.5 786,-280.5 792,-280.5"/>
<text text-anchor="middle" x="836" y="-463.3" font-family="Times,serif" font-size="14.00">ResultsController</text>
<polyline fill="none" stroke="black" points="780,-455.5 892,-455.5 "/>
<text text-anchor="start" x="788" y="-440.3" font-family="Times,serif" font-size="14.00">create</text>
<text text-anchor="start" x="788" y="-425.3" font-family="Times,serif" font-size="14.00">edit</text>
<text text-anchor="start" x="788" y="-410.3" font-family="Times,serif" font-size="14.00">index</text>
<text text-anchor="start" x="788" y="-395.3" font-family="Times,serif" font-size="14.00">new</text>
<text text-anchor="start" x="788" y="-380.3" font-family="Times,serif" font-size="14.00">show</text>
<text text-anchor="start" x="788" y="-365.3" font-family="Times,serif" font-size="14.00">update</text>
<polyline fill="none" stroke="black" points="780,-357.5 892,-357.5 "/>
<polyline fill="none" stroke="black" points="780,-333.5 892,-333.5 "/>
<text text-anchor="start" x="788" y="-318.3" font-family="Times,serif" font-size="14.00">_layout</text>
<text text-anchor="start" x="788" y="-303.3" font-family="Times,serif" font-size="14.00">result_params</text>
<text text-anchor="start" x="788" y="-288.3" font-family="Times,serif" font-size="14.00">set_result</text>
</g>
<!-- ResultsSpecialController -->
<g id="node13" class="node"><title>ResultsSpecialController</title>
<path fill="none" stroke="black" d="M352,-220.5C352,-220.5 480,-220.5 480,-220.5 486,-220.5 492,-226.5 492,-232.5 492,-232.5 492,-601.5 492,-601.5 492,-607.5 486,-613.5 480,-613.5 480,-613.5 352,-613.5 352,-613.5 346,-613.5 340,-607.5 340,-601.5 340,-601.5 340,-232.5 340,-232.5 340,-226.5 346,-220.5 352,-220.5"/>
<text text-anchor="middle" x="416" y="-598.3" font-family="Times,serif" font-size="14.00">ResultsSpecialController</text>
<polyline fill="none" stroke="black" points="340,-590.5 492,-590.5 "/>
<text text-anchor="start" x="348" y="-575.3" font-family="Times,serif" font-size="14.00">delete</text>
<text text-anchor="start" x="348" y="-560.3" font-family="Times,serif" font-size="14.00">false_result</text>
<text text-anchor="start" x="348" y="-545.3" font-family="Times,serif" font-size="14.00">index</text>
<text text-anchor="start" x="348" y="-530.3" font-family="Times,serif" font-size="14.00">link_product</text>
<text text-anchor="start" x="348" y="-515.3" font-family="Times,serif" font-size="14.00">link_product_dsei</text>
<text text-anchor="start" x="348" y="-500.3" font-family="Times,serif" font-size="14.00">loop</text>
<text text-anchor="start" x="348" y="-485.3" font-family="Times,serif" font-size="14.00">new_comment</text>
<text text-anchor="start" x="348" y="-470.3" font-family="Times,serif" font-size="14.00">products_order</text>
<text text-anchor="start" x="348" y="-455.3" font-family="Times,serif" font-size="14.00">responsability</text>
<text text-anchor="start" x="348" y="-440.3" font-family="Times,serif" font-size="14.00">see_comment</text>
<text text-anchor="start" x="348" y="-425.3" font-family="Times,serif" font-size="14.00">specific_result</text>
<text text-anchor="start" x="348" y="-410.3" font-family="Times,serif" font-size="14.00">specific_update</text>
<text text-anchor="start" x="348" y="-395.3" font-family="Times,serif" font-size="14.00">update</text>
<polyline fill="none" stroke="black" points="340,-387.5 492,-387.5 "/>
<polyline fill="none" stroke="black" points="340,-363.5 492,-363.5 "/>
<text text-anchor="start" x="348" y="-348.3" font-family="Times,serif" font-size="14.00">_layout</text>
<text text-anchor="start" x="348" y="-333.3" font-family="Times,serif" font-size="14.00">delete_params</text>
<text text-anchor="start" x="348" y="-318.3" font-family="Times,serif" font-size="14.00">false_result_params</text>
<text text-anchor="start" x="348" y="-303.3" font-family="Times,serif" font-size="14.00">link_product_params</text>
<text text-anchor="start" x="348" y="-288.3" font-family="Times,serif" font-size="14.00">loop_params</text>
<text text-anchor="start" x="348" y="-273.3" font-family="Times,serif" font-size="14.00">new_comment_params</text>
<text text-anchor="start" x="348" y="-258.3" font-family="Times,serif" font-size="14.00">pdsi_params</text>
<text text-anchor="start" x="348" y="-243.3" font-family="Times,serif" font-size="14.00">set_pdsi</text>
<text text-anchor="start" x="348" y="-228.3" font-family="Times,serif" font-size="14.00">specific_result_params</text>
</g>
<!-- SesaiPeopleController -->
<g id="node14" class="node"><title>SesaiPeopleController</title>
<path fill="none" stroke="black" d="M752,-560.5C752,-560.5 865,-560.5 865,-560.5 871,-560.5 877,-566.5 877,-572.5 877,-572.5 877,-761.5 877,-761.5 877,-767.5 871,-773.5 865,-773.5 865,-773.5 752,-773.5 752,-773.5 746,-773.5 740,-767.5 740,-761.5 740,-761.5 740,-572.5 740,-572.5 740,-566.5 746,-560.5 752,-560.5"/>
<text text-anchor="middle" x="808.5" y="-758.3" font-family="Times,serif" font-size="14.00">SesaiPeopleController</text>
<polyline fill="none" stroke="black" points="740,-750.5 877,-750.5 "/>
<text text-anchor="start" x="748" y="-735.3" font-family="Times,serif" font-size="14.00">create</text>
<text text-anchor="start" x="748" y="-720.3" font-family="Times,serif" font-size="14.00">destroy</text>
<text text-anchor="start" x="748" y="-705.3" font-family="Times,serif" font-size="14.00">edit</text>
<text text-anchor="start" x="748" y="-690.3" font-family="Times,serif" font-size="14.00">index</text>
<text text-anchor="start" x="748" y="-675.3" font-family="Times,serif" font-size="14.00">new</text>
<text text-anchor="start" x="748" y="-660.3" font-family="Times,serif" font-size="14.00">update</text>
<polyline fill="none" stroke="black" points="740,-652.5 877,-652.5 "/>
<polyline fill="none" stroke="black" points="740,-628.5 877,-628.5 "/>
<text text-anchor="start" x="748" y="-613.3" font-family="Times,serif" font-size="14.00">_layout</text>
<text text-anchor="start" x="748" y="-598.3" font-family="Times,serif" font-size="14.00">person_params</text>
<text text-anchor="start" x="748" y="-583.3" font-family="Times,serif" font-size="14.00">set_person</text>
<text text-anchor="start" x="748" y="-568.3" font-family="Times,serif" font-size="14.00">validate_person</text>
</g>
<!-- SpecificResultsController -->
<g id="node15" class="node"><title>SpecificResultsController</title>
<path fill="none" stroke="black" d="M632,-880.5C632,-880.5 764,-880.5 764,-880.5 770,-880.5 776,-886.5 776,-892.5 776,-892.5 776,-1006.5 776,-1006.5 776,-1012.5 770,-1018.5 764,-1018.5 764,-1018.5 632,-1018.5 632,-1018.5 626,-1018.5 620,-1012.5 620,-1006.5 620,-1006.5 620,-892.5 620,-892.5 620,-886.5 626,-880.5 632,-880.5"/>
<text text-anchor="middle" x="698" y="-1003.3" font-family="Times,serif" font-size="14.00">SpecificResultsController</text>
<polyline fill="none" stroke="black" points="620,-995.5 776,-995.5 "/>
<text text-anchor="start" x="628" y="-980.3" font-family="Times,serif" font-size="14.00">edit</text>
<text text-anchor="start" x="628" y="-965.3" font-family="Times,serif" font-size="14.00">update</text>
<polyline fill="none" stroke="black" points="620,-957.5 776,-957.5 "/>
<polyline fill="none" stroke="black" points="620,-933.5 776,-933.5 "/>
<text text-anchor="start" x="628" y="-918.3" font-family="Times,serif" font-size="14.00">_layout</text>
<text text-anchor="start" x="628" y="-903.3" font-family="Times,serif" font-size="14.00">dsei_params</text>
<text text-anchor="start" x="628" y="-888.3" font-family="Times,serif" font-size="14.00">set_pdsi</text>
</g>
<!-- TextTemplatesController -->
<g id="node16" class="node"><title>TextTemplatesController</title>
<path fill="none" stroke="black" d="M772,-80.5C772,-80.5 902,-80.5 902,-80.5 908,-80.5 914,-86.5 914,-92.5 914,-92.5 914,-236.5 914,-236.5 914,-242.5 908,-248.5 902,-248.5 902,-248.5 772,-248.5 772,-248.5 766,-248.5 760,-242.5 760,-236.5 760,-236.5 760,-92.5 760,-92.5 760,-86.5 766,-80.5 772,-80.5"/>
<text text-anchor="middle" x="837" y="-233.3" font-family="Times,serif" font-size="14.00">TextTemplatesController</text>
<polyline fill="none" stroke="black" points="760,-225.5 914,-225.5 "/>
<text text-anchor="start" x="768" y="-210.3" font-family="Times,serif" font-size="14.00">edit</text>
<text text-anchor="start" x="768" y="-195.3" font-family="Times,serif" font-size="14.00">index</text>
<text text-anchor="start" x="768" y="-180.3" font-family="Times,serif" font-size="14.00">update</text>
<polyline fill="none" stroke="black" points="760,-172.5 914,-172.5 "/>
<polyline fill="none" stroke="black" points="760,-148.5 914,-148.5 "/>
<text text-anchor="start" x="768" y="-133.3" font-family="Times,serif" font-size="14.00">_layout</text>
<text text-anchor="start" x="768" y="-118.3" font-family="Times,serif" font-size="14.00">set_section</text>
<text text-anchor="start" x="768" y="-103.3" font-family="Times,serif" font-size="14.00">set_text_template</text>
<text text-anchor="start" x="768" y="-88.3" font-family="Times,serif" font-size="14.00">text_template_params</text>
</g>
<!-- UsersController -->
<g id="node17" class="node"><title>UsersController</title>
<path fill="none" stroke="black" d="M192,-660.5C192,-660.5 311,-660.5 311,-660.5 317,-660.5 323,-666.5 323,-672.5 323,-672.5 323,-891.5 323,-891.5 323,-897.5 317,-903.5 311,-903.5 311,-903.5 192,-903.5 192,-903.5 186,-903.5 180,-897.5 180,-891.5 180,-891.5 180,-672.5 180,-672.5 180,-666.5 186,-660.5 192,-660.5"/>
<text text-anchor="middle" x="251.5" y="-888.3" font-family="Times,serif" font-size="14.00">UsersController</text>
<polyline fill="none" stroke="black" points="180,-880.5 323,-880.5 "/>
<text text-anchor="start" x="188" y="-865.3" font-family="Times,serif" font-size="14.00">create</text>
<text text-anchor="start" x="188" y="-850.3" font-family="Times,serif" font-size="14.00">edit</text>
<text text-anchor="start" x="188" y="-835.3" font-family="Times,serif" font-size="14.00">edit_password</text>
<text text-anchor="start" x="188" y="-820.3" font-family="Times,serif" font-size="14.00">home</text>
<text text-anchor="start" x="188" y="-805.3" font-family="Times,serif" font-size="14.00">index</text>
<text text-anchor="start" x="188" y="-790.3" font-family="Times,serif" font-size="14.00">new</text>
<text text-anchor="start" x="188" y="-775.3" font-family="Times,serif" font-size="14.00">update</text>
<text text-anchor="start" x="188" y="-760.3" font-family="Times,serif" font-size="14.00">update_password</text>
<polyline fill="none" stroke="black" points="180,-752.5 323,-752.5 "/>
<polyline fill="none" stroke="black" points="180,-728.5 323,-728.5 "/>
<text text-anchor="start" x="188" y="-713.3" font-family="Times,serif" font-size="14.00">_layout</text>
<text text-anchor="start" x="188" y="-698.3" font-family="Times,serif" font-size="14.00">set_user</text>
<text text-anchor="start" x="188" y="-683.3" font-family="Times,serif" font-size="14.00">user_params</text>
<text text-anchor="start" x="188" y="-668.3" font-family="Times,serif" font-size="14.00">user_password_params</text>
</g>
</g>
</svg>
