<?xml version="1.0" encoding="UTF-8" standalone="no"?>
<!DOCTYPE svg PUBLIC "-//W3C//DTD SVG 1.1//EN"
 "http://www.w3.org/Graphics/SVG/1.1/DTD/svg11.dtd">
<!-- Generated by graphviz version 2.36.0 (20140111.2315)
 -->
<!-- Title: controllers_diagram Pages: 1 -->
<svg width="564pt" height="540pt"
 viewBox="0.00 0.00 564.00 540.00" xmlns="http://www.w3.org/2000/svg" xmlns:xlink="http://www.w3.org/1999/xlink">
<g id="graph0" class="graph" transform="scale(1 1) rotate(0) translate(4 536)">
<title>controllers_diagram</title>
<polygon fill="none" stroke="none" points="-4,4 -4,-536 560,-536 560,4 -4,4"/>
<!-- _diagram_info -->
<g id="node1" class="node"><title>_diagram_info</title>
<text text-anchor="start" x="350" y="-63.6" font-family="Times,serif" font-size="13.00">Controllers diagram</text>
<text text-anchor="start" x="350" y="-49.6" font-family="Times,serif" font-size="13.00">Date: Sep 15 2015 &#45; 13:39</text>
<text text-anchor="start" x="350" y="-35.6" font-family="Times,serif" font-size="13.00">Migration version: 20150914190850</text>
<text text-anchor="start" x="350" y="-21.6" font-family="Times,serif" font-size="13.00">Generated by RailRoady 1.3.1</text>
<text text-anchor="start" x="350" y="-7.6" font-family="Times,serif" font-size="13.00">http://railroady.prestonlee.com</text>
</g>
<!-- ApplicationController -->
<g id="node2" class="node"><title>ApplicationController</title>
<path fill="none" stroke="black" d="M354,-306.5C354,-306.5 500,-306.5 500,-306.5 506,-306.5 512,-312.5 512,-318.5 512,-318.5 512,-432.5 512,-432.5 512,-438.5 506,-444.5 500,-444.5 500,-444.5 354,-444.5 354,-444.5 348,-444.5 342,-438.5 342,-432.5 342,-432.5 342,-318.5 342,-318.5 342,-312.5 348,-306.5 354,-306.5"/>
<text text-anchor="middle" x="427" y="-429.3" font-family="Times,serif" font-size="14.00">ApplicationController</text>
<polyline fill="none" stroke="black" points="342,-421.5 512,-421.5 "/>
<text text-anchor="start" x="350" y="-406.3" font-family="Times,serif" font-size="14.00">check_admin_actions</text>
<text text-anchor="start" x="350" y="-391.3" font-family="Times,serif" font-size="14.00">check_sesai_central_actions</text>
<text text-anchor="start" x="350" y="-376.3" font-family="Times,serif" font-size="14.00">health</text>
<polyline fill="none" stroke="black" points="342,-368.5 512,-368.5 "/>
<polyline fill="none" stroke="black" points="342,-344.5 512,-344.5 "/>
<text text-anchor="start" x="350" y="-329.3" font-family="Times,serif" font-size="14.00">_layout</text>
<text text-anchor="start" x="350" y="-314.3" font-family="Times,serif" font-size="14.00">determine_layout</text>
</g>
<!-- UsersController -->
<g id="node3" class="node"><title>UsersController</title>
<path fill="none" stroke="black" d="M174,-90.5C174,-90.5 293,-90.5 293,-90.5 299,-90.5 305,-96.5 305,-102.5 305,-102.5 305,-321.5 305,-321.5 305,-327.5 299,-333.5 293,-333.5 293,-333.5 174,-333.5 174,-333.5 168,-333.5 162,-327.5 162,-321.5 162,-321.5 162,-102.5 162,-102.5 162,-96.5 168,-90.5 174,-90.5"/>
<text text-anchor="middle" x="233.5" y="-318.3" font-family="Times,serif" font-size="14.00">UsersController</text>
<polyline fill="none" stroke="black" points="162,-310.5 305,-310.5 "/>
<text text-anchor="start" x="170" y="-295.3" font-family="Times,serif" font-size="14.00">create</text>
<text text-anchor="start" x="170" y="-280.3" font-family="Times,serif" font-size="14.00">edit</text>
<text text-anchor="start" x="170" y="-265.3" font-family="Times,serif" font-size="14.00">edit_password</text>
<text text-anchor="start" x="170" y="-250.3" font-family="Times,serif" font-size="14.00">home</text>
<text text-anchor="start" x="170" y="-235.3" font-family="Times,serif" font-size="14.00">index</text>
<text text-anchor="start" x="170" y="-220.3" font-family="Times,serif" font-size="14.00">new</text>
<text text-anchor="start" x="170" y="-205.3" font-family="Times,serif" font-size="14.00">update</text>
<text text-anchor="start" x="170" y="-190.3" font-family="Times,serif" font-size="14.00">update_password</text>
<polyline fill="none" stroke="black" points="162,-182.5 305,-182.5 "/>
<polyline fill="none" stroke="black" points="162,-158.5 305,-158.5 "/>
<text text-anchor="start" x="170" y="-143.3" font-family="Times,serif" font-size="14.00">_layout</text>
<text text-anchor="start" x="170" y="-128.3" font-family="Times,serif" font-size="14.00">set_user</text>
<text text-anchor="start" x="170" y="-113.3" font-family="Times,serif" font-size="14.00">user_params</text>
<text text-anchor="start" x="170" y="-98.3" font-family="Times,serif" font-size="14.00">user_password_params</text>
</g>
<!-- DemographicDatasController -->
<g id="node4" class="node"><title>DemographicDatasController</title>
<path fill="none" stroke="black" d="M354,-108.5C354,-108.5 507,-108.5 507,-108.5 513,-108.5 519,-114.5 519,-120.5 519,-120.5 519,-249.5 519,-249.5 519,-255.5 513,-261.5 507,-261.5 507,-261.5 354,-261.5 354,-261.5 348,-261.5 342,-255.5 342,-249.5 342,-249.5 342,-120.5 342,-120.5 342,-114.5 348,-108.5 354,-108.5"/>
<text text-anchor="middle" x="430.5" y="-246.3" font-family="Times,serif" font-size="14.00">DemographicDatasController</text>
<polyline fill="none" stroke="black" points="342,-238.5 519,-238.5 "/>
<text text-anchor="start" x="350" y="-223.3" font-family="Times,serif" font-size="14.00">edit</text>
<text text-anchor="start" x="350" y="-208.3" font-family="Times,serif" font-size="14.00">index</text>
<text text-anchor="start" x="350" y="-193.3" font-family="Times,serif" font-size="14.00">update</text>
<polyline fill="none" stroke="black" points="342,-185.5 519,-185.5 "/>
<polyline fill="none" stroke="black" points="342,-161.5 519,-161.5 "/>
<text text-anchor="start" x="350" y="-146.3" font-family="Times,serif" font-size="14.00">_layout</text>
<text text-anchor="start" x="350" y="-131.3" font-family="Times,serif" font-size="14.00">demographic_data_params</text>
<text text-anchor="start" x="350" y="-116.3" font-family="Times,serif" font-size="14.00">set_demographic_data</text>
</g>
<!-- TextTemplatesController -->
<g id="node5" class="node"><title>TextTemplatesController</title>
<path fill="none" stroke="black" d="M156,-378.5C156,-378.5 286,-378.5 286,-378.5 292,-378.5 298,-384.5 298,-390.5 298,-390.5 298,-519.5 298,-519.5 298,-525.5 292,-531.5 286,-531.5 286,-531.5 156,-531.5 156,-531.5 150,-531.5 144,-525.5 144,-519.5 144,-519.5 144,-390.5 144,-390.5 144,-384.5 150,-378.5 156,-378.5"/>
<text text-anchor="middle" x="221" y="-516.3" font-family="Times,serif" font-size="14.00">TextTemplatesController</text>
<polyline fill="none" stroke="black" points="144,-508.5 298,-508.5 "/>
<text text-anchor="start" x="152" y="-493.3" font-family="Times,serif" font-size="14.00">edit</text>
<text text-anchor="start" x="152" y="-478.3" font-family="Times,serif" font-size="14.00">index</text>
<text text-anchor="start" x="152" y="-463.3" font-family="Times,serif" font-size="14.00">update</text>
<polyline fill="none" stroke="black" points="144,-455.5 298,-455.5 "/>
<polyline fill="none" stroke="black" points="144,-431.5 298,-431.5 "/>
<text text-anchor="start" x="152" y="-416.3" font-family="Times,serif" font-size="14.00">_layout</text>
<text text-anchor="start" x="152" y="-401.3" font-family="Times,serif" font-size="14.00">set_text_template</text>
<text text-anchor="start" x="152" y="-386.3" font-family="Times,serif" font-size="14.00">text_template_params</text>
</g>
<!-- CostUsersController -->
<g id="node6" class="node"><title>CostUsersController</title>
<path fill="none" stroke="black" d="M12,-18.5C12,-18.5 116,-18.5 116,-18.5 122,-18.5 128,-24.5 128,-30.5 128,-30.5 128,-129.5 128,-129.5 128,-135.5 122,-141.5 116,-141.5 116,-141.5 12,-141.5 12,-141.5 6,-141.5 0,-135.5 0,-129.5 0,-129.5 0,-30.5 0,-30.5 0,-24.5 6,-18.5 12,-18.5"/>
<text text-anchor="middle" x="64" y="-126.3" font-family="Times,serif" font-size="14.00">CostUsersController</text>
<polyline fill="none" stroke="black" points="0,-118.5 128,-118.5 "/>
<text text-anchor="start" x="8" y="-103.3" font-family="Times,serif" font-size="14.00">edit</text>
<text text-anchor="start" x="8" y="-88.3" font-family="Times,serif" font-size="14.00">index</text>
<text text-anchor="start" x="8" y="-73.3" font-family="Times,serif" font-size="14.00">update</text>
<polyline fill="none" stroke="black" points="0,-65.5 128,-65.5 "/>
<polyline fill="none" stroke="black" points="0,-41.5 128,-41.5 "/>
<text text-anchor="start" x="8" y="-26.3" font-family="Times,serif" font-size="14.00">_layout</text>
</g>
<!-- PdsisController -->
<g id="node7" class="node"><title>PdsisController</title>
<path fill="none" stroke="black" d="M30,-180.5C30,-180.5 107,-180.5 107,-180.5 113,-180.5 119,-186.5 119,-192.5 119,-192.5 119,-336.5 119,-336.5 119,-342.5 113,-348.5 107,-348.5 107,-348.5 30,-348.5 30,-348.5 24,-348.5 18,-342.5 18,-336.5 18,-336.5 18,-192.5 18,-192.5 18,-186.5 24,-180.5 30,-180.5"/>
<text text-anchor="middle" x="68.5" y="-333.3" font-family="Times,serif" font-size="14.00">PdsisController</text>
<polyline fill="none" stroke="black" points="18,-325.5 119,-325.5 "/>
<text text-anchor="start" x="26" y="-310.3" font-family="Times,serif" font-size="14.00">edit</text>
<text text-anchor="start" x="26" y="-295.3" font-family="Times,serif" font-size="14.00">index</text>
<text text-anchor="start" x="26" y="-280.3" font-family="Times,serif" font-size="14.00">show</text>
<text text-anchor="start" x="26" y="-265.3" font-family="Times,serif" font-size="14.00">update</text>
<polyline fill="none" stroke="black" points="18,-257.5 119,-257.5 "/>
<polyline fill="none" stroke="black" points="18,-233.5 119,-233.5 "/>
<text text-anchor="start" x="26" y="-218.3" font-family="Times,serif" font-size="14.00">_layout</text>
<text text-anchor="start" x="26" y="-203.3" font-family="Times,serif" font-size="14.00">pdsi_params</text>
<text text-anchor="start" x="26" y="-188.3" font-family="Times,serif" font-size="14.00">set_pdsi</text>
</g>
</g>
</svg>
