<?xml version="1.0" encoding="UTF-8" standalone="no"?>
<!DOCTYPE svg PUBLIC "-//W3C//DTD SVG 1.1//EN"
 "http://www.w3.org/Graphics/SVG/1.1/DTD/svg11.dtd">
<!-- Generated by graphviz version 2.36.0 (20140111.2315)
 -->
<!-- Title: models_diagram Pages: 1 -->
<svg width="774pt" height="374pt"
 viewBox="0.00 0.00 774.00 374.00" xmlns="http://www.w3.org/2000/svg" xmlns:xlink="http://www.w3.org/1999/xlink">
<g id="graph0" class="graph" transform="scale(1 1) rotate(0) translate(4 370)">
<title>models_diagram</title>
<polygon fill="none" stroke="none" points="-4,4 -4,-370 770,-370 770,4 -4,4"/>
<!-- _diagram_info -->
<g id="node1" class="node"><title>_diagram_info</title>
<text text-anchor="start" x="175" y="-351.6" font-family="Times,serif" font-size="13.00">Models diagram</text>
<text text-anchor="start" x="175" y="-337.6" font-family="Times,serif" font-size="13.00">Date: Sep 15 2015 &#45; 13:39</text>
<text text-anchor="start" x="175" y="-323.6" font-family="Times,serif" font-size="13.00">Migration version: 20150914190850</text>
<text text-anchor="start" x="175" y="-309.6" font-family="Times,serif" font-size="13.00">Generated by RailRoady 1.3.1</text>
<text text-anchor="start" x="175" y="-295.6" font-family="Times,serif" font-size="13.00">http://railroady.prestonlee.com</text>
</g>
<!-- Village -->
<g id="node2" class="node"><title>Village</title>
<ellipse fill="none" stroke="black" cx="180" cy="-162" rx="36.096" ry="18"/>
<text text-anchor="middle" x="180" y="-158.3" font-family="Times,serif" font-size="14.00">Village</text>
</g>
<!-- PhysiographicData -->
<g id="node3" class="node"><title>PhysiographicData</title>
<ellipse fill="none" stroke="black" cx="180" cy="-90" rx="77.0154" ry="18"/>
<text text-anchor="middle" x="180" y="-86.3" font-family="Times,serif" font-size="14.00">PhysiographicData</text>
</g>
<!-- Village&#45;&gt;PhysiographicData -->
<g id="edge2" class="edge"><title>Village&#45;&gt;PhysiographicData</title>
<path fill="none" stroke="#d19440" d="M180,-135.64C180,-129.348 180,-122.605 180,-116.316"/>
<ellipse fill="none" stroke="#d19440" cx="180" cy="-139.697" rx="4" ry="4"/>
<ellipse fill="#d19440" stroke="#d19440" cx="180" cy="-112.104" rx="4" ry="4"/>
</g>
<!-- Ethnicity -->
<g id="node7" class="node"><title>Ethnicity</title>
<ellipse fill="none" stroke="black" cx="42" cy="-90" rx="42.3456" ry="18"/>
<text text-anchor="middle" x="42" y="-86.3" font-family="Times,serif" font-size="14.00">Ethnicity</text>
</g>
<!-- Village&#45;&gt;Ethnicity -->
<g id="edge1" class="edge"><title>Village&#45;&gt;Ethnicity</title>
<path fill="none" stroke="#f5f371" d="M146.551,-144.033C125.654,-133.433 98.7726,-119.798 77.5001,-109.007"/>
<polygon fill="#f5f371" stroke="#f5f371" points="146.728,-144.123 153.61,-152.66 151.187,-146.385 155.646,-148.647 155.646,-148.647 155.646,-148.647 151.187,-146.385 157.682,-144.633 146.728,-144.123 146.728,-144.123"/>
<polygon fill="#f5f371" stroke="#f5f371" points="77.3806,-108.947 70.4981,-100.41 72.9215,-106.685 68.4623,-104.423 68.4623,-104.423 68.4623,-104.423 72.9215,-106.685 66.4266,-108.436 77.3806,-108.947 77.3806,-108.947"/>
</g>
<!-- PhysiographicDataLanguage -->
<g id="node18" class="node"><title>PhysiographicDataLanguage</title>
<ellipse fill="none" stroke="black" cx="180" cy="-18" rx="112.16" ry="18"/>
<text text-anchor="middle" x="180" y="-14.3" font-family="Times,serif" font-size="14.00">PhysiographicDataLanguage</text>
</g>
<!-- PhysiographicData&#45;&gt;PhysiographicDataLanguage -->
<g id="edge3" class="edge"><title>PhysiographicData&#45;&gt;PhysiographicDataLanguage</title>
<path fill="none" stroke="#0c9ba8" d="M180,-63.6398C180,-58.0629 180,-52.1319 180,-46.4761"/>
<ellipse fill="none" stroke="#0c9ba8" cx="180" cy="-67.6966" rx="4" ry="4"/>
<polygon fill="#0c9ba8" stroke="#0c9ba8" points="180,-46.1043 184.5,-36.1043 180,-41.1043 180,-36.1043 180,-36.1043 180,-36.1043 180,-41.1043 175.5,-36.1044 180,-46.1043 180,-46.1043"/>
</g>
<!-- Etnia -->
<g id="node4" class="node"><title>Etnia</title>
<ellipse fill="none" stroke="black" cx="591" cy="-18" rx="29.3722" ry="18"/>
<text text-anchor="middle" x="591" y="-14.3" font-family="Times,serif" font-size="14.00">Etnia</text>
</g>
<!-- PdsiBasePoloDatum -->
<g id="node5" class="node"><title>PdsiBasePoloDatum</title>
<ellipse fill="none" stroke="black" cx="359" cy="-90" rx="83.2892" ry="18"/>
<text text-anchor="middle" x="359" y="-86.3" font-family="Times,serif" font-size="14.00">PdsiBasePoloDatum</text>
</g>
<!-- Profile -->
<g id="node6" class="node"><title>Profile</title>
<ellipse fill="none" stroke="black" cx="699" cy="-162" rx="34.1708" ry="18"/>
<text text-anchor="middle" x="699" y="-158.3" font-family="Times,serif" font-size="14.00">Profile</text>
</g>
<!-- UserType -->
<g id="node8" class="node"><title>UserType</title>
<ellipse fill="none" stroke="black" cx="582" cy="-327" rx="45.244" ry="18"/>
<text text-anchor="middle" x="582" y="-323.3" font-family="Times,serif" font-size="14.00">UserType</text>
</g>
<!-- User -->
<g id="node10" class="node"><title>User</title>
<ellipse fill="none" stroke="black" cx="582" cy="-234" rx="26.949" ry="18"/>
<text text-anchor="middle" x="582" y="-230.3" font-family="Times,serif" font-size="14.00">User</text>
</g>
<!-- UserType&#45;&gt;User -->
<g id="edge4" class="edge"><title>UserType&#45;&gt;User</title>
<path fill="none" stroke="#3b1990" d="M582,-300.729C582,-288.725 582,-274.362 582,-262.129"/>
<ellipse fill="none" stroke="#3b1990" cx="582" cy="-304.884" rx="4" ry="4"/>
<polygon fill="#3b1990" stroke="#3b1990" points="582,-262.04 586.5,-252.04 582,-257.04 582,-252.04 582,-252.04 582,-252.04 582,-257.04 577.5,-252.04 582,-262.04 582,-262.04"/>
</g>
<!-- BasePolo -->
<g id="node9" class="node"><title>BasePolo</title>
<ellipse fill="none" stroke="black" cx="359" cy="-234" rx="44.2946" ry="18"/>
<text text-anchor="middle" x="359" y="-230.3" font-family="Times,serif" font-size="14.00">BasePolo</text>
</g>
<!-- BasePolo&#45;&gt;Village -->
<g id="edge5" class="edge"><title>BasePolo&#45;&gt;Village</title>
<path fill="none" stroke="#98db96" d="M320.369,-217.893C289.758,-205.922 247.264,-189.304 217.068,-177.496"/>
<ellipse fill="none" stroke="#98db96" cx="324.504" cy="-219.51" rx="4.00001" ry="4.00001"/>
<polygon fill="#98db96" stroke="#98db96" points="217.04,-177.485 209.366,-169.652 212.384,-175.664 207.727,-173.843 207.727,-173.843 207.727,-173.843 212.384,-175.664 206.088,-178.034 217.04,-177.485 217.04,-177.485"/>
</g>
<!-- BasePolo&#45;&gt;PdsiBasePoloDatum -->
<g id="edge6" class="edge"><title>BasePolo&#45;&gt;PdsiBasePoloDatum</title>
<path fill="none" stroke="#a874c9" d="M359,-207.558C359,-181.771 359,-142.104 359,-116.35"/>
<ellipse fill="none" stroke="#a874c9" cx="359" cy="-211.871" rx="4" ry="4"/>
<ellipse fill="#a874c9" stroke="#a874c9" cx="359" cy="-112.189" rx="4" ry="4"/>
</g>
<!-- User&#45;&gt;Profile -->
<g id="edge7" class="edge"><title>User&#45;&gt;Profile</title>
<path fill="none" stroke="#16e660" d="M608.544,-217.119C626.784,-206.206 651.004,-191.716 669.791,-180.475"/>
<ellipse fill="none" stroke="#16e660" cx="605.016" cy="-219.23" rx="4.00002" ry="4.00002"/>
<ellipse fill="#16e660" stroke="#16e660" cx="673.526" cy="-178.241" rx="4.00002" ry="4.00002"/>
</g>
<!-- Pdsi -->
<g id="node12" class="node"><title>Pdsi</title>
<ellipse fill="none" stroke="black" cx="475" cy="-162" rx="27" ry="18"/>
<text text-anchor="middle" x="475" y="-158.3" font-family="Times,serif" font-size="14.00">Pdsi</text>
</g>
<!-- User&#45;&gt;Pdsi -->
<g id="edge10" class="edge"><title>User&#45;&gt;Pdsi</title>
<path fill="none" stroke="#5b6bc4" d="M556.592,-216.378C539.715,-205.337 517.632,-190.89 500.696,-179.811"/>
<ellipse fill="none" stroke="#5b6bc4" cx="560.015" cy="-218.617" rx="4.00002" ry="4.00002"/>
<ellipse fill="#5b6bc4" stroke="#5b6bc4" cx="497.131" cy="-177.478" rx="4.00002" ry="4.00002"/>
</g>
<!-- Cost -->
<g id="node14" class="node"><title>Cost</title>
<ellipse fill="none" stroke="black" cx="582" cy="-162" rx="27" ry="18"/>
<text text-anchor="middle" x="582" y="-158.3" font-family="Times,serif" font-size="14.00">Cost</text>
</g>
<!-- User&#45;&gt;Cost -->
<g id="edge8" class="edge"><title>User&#45;&gt;Cost</title>
<path fill="none" stroke="#7d80df" d="M582,-205.665C582,-200.687 582,-195.491 582,-190.507"/>
<polygon fill="#7d80df" stroke="#7d80df" points="582,-205.697 577.5,-215.697 582,-210.697 582,-215.697 582,-215.697 582,-215.697 582,-210.697 586.5,-215.697 582,-205.697 582,-205.697"/>
<polygon fill="#7d80df" stroke="#7d80df" points="582,-190.104 586.5,-180.104 582,-185.104 582,-180.104 582,-180.104 582,-180.104 582,-185.104 577.5,-180.104 582,-190.104 582,-190.104"/>
</g>
<!-- CostUser -->
<g id="node16" class="node"><title>CostUser</title>
<ellipse fill="none" stroke="black" cx="673" cy="-90" rx="43.319" ry="18"/>
<text text-anchor="middle" x="673" y="-86.3" font-family="Times,serif" font-size="14.00">CostUser</text>
</g>
<!-- User&#45;&gt;CostUser -->
<g id="edge9" class="edge"><title>User&#45;&gt;CostUser</title>
<path fill="none" stroke="#af8066" d="M597.566,-210.545C603.986,-201.165 611.443,-190.116 618,-180 631.797,-158.714 646.909,-134.165 657.795,-116.249"/>
<ellipse fill="none" stroke="#af8066" cx="595.156" cy="-214.052" rx="4.00002" ry="4.00002"/>
<polygon fill="#af8066" stroke="#af8066" points="657.892,-116.089 666.922,-109.868 660.483,-111.813 663.073,-107.537 663.073,-107.537 663.073,-107.537 660.483,-111.813 659.225,-105.205 657.892,-116.089 657.892,-116.089"/>
</g>
<!-- Transportation -->
<g id="node11" class="node"><title>Transportation</title>
<ellipse fill="none" stroke="black" cx="481" cy="-18" rx="62.0922" ry="18"/>
<text text-anchor="middle" x="481" y="-14.3" font-family="Times,serif" font-size="14.00">Transportation</text>
</g>
<!-- Pdsi&#45;&gt;PhysiographicData -->
<g id="edge12" class="edge"><title>Pdsi&#45;&gt;PhysiographicData</title>
<path fill="none" stroke="#8dd633" d="M441.776,-153.116C393.426,-141.644 302.816,-120.143 241.935,-105.696"/>
<ellipse fill="none" stroke="#8dd633" cx="445.957" cy="-154.108" rx="4.00001" ry="4.00001"/>
<polygon fill="#8dd633" stroke="#8dd633" points="241.786,-105.661 233.095,-98.9738 236.921,-104.507 232.056,-103.352 232.056,-103.352 232.056,-103.352 236.921,-104.507 231.017,-107.731 241.786,-105.661 241.786,-105.661"/>
</g>
<!-- Pdsi&#45;&gt;PdsiBasePoloDatum -->
<g id="edge13" class="edge"><title>Pdsi&#45;&gt;PdsiBasePoloDatum</title>
<path fill="none" stroke="#0b807e" d="M448.481,-144.997C432.518,-135.365 411.991,-122.977 394.625,-112.498"/>
<ellipse fill="none" stroke="#0b807e" cx="452.159" cy="-147.217" rx="4.00002" ry="4.00002"/>
<polygon fill="#0b807e" stroke="#0b807e" points="394.434,-112.383 388.197,-103.363 390.153,-109.799 385.872,-107.216 385.872,-107.216 385.872,-107.216 390.153,-109.799 383.547,-111.069 394.434,-112.383 394.434,-112.383"/>
</g>
<!-- DemographicData -->
<g id="node15" class="node"><title>DemographicData</title>
<ellipse fill="none" stroke="black" cx="536" cy="-90" rx="75.0904" ry="18"/>
<text text-anchor="middle" x="536" y="-86.3" font-family="Times,serif" font-size="14.00">DemographicData</text>
</g>
<!-- Pdsi&#45;&gt;DemographicData -->
<g id="edge11" class="edge"><title>Pdsi&#45;&gt;DemographicData</title>
<path fill="none" stroke="#802f89" d="M493.275,-140.028C500.433,-131.814 508.668,-122.365 515.985,-113.968"/>
<ellipse fill="none" stroke="#802f89" cx="490.564" cy="-143.139" rx="4.00002" ry="4.00002"/>
<ellipse fill="#802f89" stroke="#802f89" cx="518.742" cy="-110.805" rx="4.00002" ry="4.00002"/>
</g>
<!-- Dsei -->
<g id="node13" class="node"><title>Dsei</title>
<ellipse fill="none" stroke="black" cx="426" cy="-327" rx="27" ry="18"/>
<text text-anchor="middle" x="426" y="-323.3" font-family="Times,serif" font-size="14.00">Dsei</text>
</g>
<!-- Dsei&#45;&gt;BasePolo -->
<g id="edge14" class="edge"><title>Dsei&#45;&gt;BasePolo</title>
<path fill="none" stroke="#3a95e7" d="M409.798,-303.995C399.925,-290.585 387.29,-273.423 377.091,-259.571"/>
<ellipse fill="none" stroke="#3a95e7" cx="412.263" cy="-307.342" rx="4.00002" ry="4.00002"/>
<polygon fill="#3a95e7" stroke="#3a95e7" points="377.031,-259.489 374.725,-248.769 374.066,-255.463 371.102,-251.437 371.102,-251.437 371.102,-251.437 374.066,-255.463 367.478,-254.105 377.031,-259.489 377.031,-259.489"/>
</g>
<!-- Dsei&#45;&gt;User -->
<g id="edge15" class="edge"><title>Dsei&#45;&gt;User</title>
<path fill="none" stroke="#7c7295" d="M452.818,-310.356C480.783,-294.044 524.463,-268.563 553.159,-251.824"/>
<ellipse fill="none" stroke="#7c7295" cx="449.213" cy="-312.459" rx="4.00002" ry="4.00002"/>
<polygon fill="#7c7295" stroke="#7c7295" points="553.272,-251.758 564.178,-250.606 557.591,-249.238 561.91,-246.719 561.91,-246.719 561.91,-246.719 557.591,-249.238 559.643,-242.832 553.272,-251.758 553.272,-251.758"/>
</g>
<!-- Cost&#45;&gt;CostUser -->
<g id="edge16" class="edge"><title>Cost&#45;&gt;CostUser</title>
<path fill="none" stroke="#32c001" d="M605.577,-142.864C617.676,-133.557 632.493,-122.16 645.152,-112.422"/>
<ellipse fill="none" stroke="#32c001" cx="602.287" cy="-145.395" rx="4.00002" ry="4.00002"/>
<polygon fill="#32c001" stroke="#32c001" points="645.182,-112.398 655.852,-109.868 649.146,-109.35 653.109,-106.301 653.109,-106.301 653.109,-106.301 649.146,-109.35 650.365,-102.734 645.182,-112.398 645.182,-112.398"/>
</g>
<!-- DemographicData&#45;&gt;Etnia -->
<g id="edge17" class="edge"><title>DemographicData&#45;&gt;Etnia</title>
<path fill="none" stroke="#a60cd9" d="M554.344,-65.6527C560.064,-58.3733 566.38,-50.3348 572.134,-43.0107"/>
<ellipse fill="none" stroke="#a60cd9" cx="551.785" cy="-68.9097" rx="4.00002" ry="4.00002"/>
<polygon fill="#a60cd9" stroke="#a60cd9" points="572.384,-42.6926 582.101,-37.6096 575.473,-38.761 578.563,-34.8294 578.563,-34.8294 578.563,-34.8294 575.473,-38.761 575.024,-32.0492 572.384,-42.6926 572.384,-42.6926"/>
</g>
<!-- DemographicData&#45;&gt;Transportation -->
<g id="edge18" class="edge"><title>DemographicData&#45;&gt;Transportation</title>
<path fill="none" stroke="#3ee560" d="M517.584,-65.5617C512.076,-58.5516 506.021,-50.8443 500.448,-43.7526"/>
<ellipse fill="none" stroke="#3ee560" cx="520.215" cy="-68.9097" rx="4.00002" ry="4.00002"/>
<polygon fill="#3ee560" stroke="#3ee560" points="500.37,-43.6522 497.73,-33.0088 497.28,-39.7206 494.191,-35.789 494.191,-35.789 494.191,-35.789 497.28,-39.7206 490.653,-38.5692 500.37,-43.6522 500.37,-43.6522"/>
</g>
<!-- TextTemplate -->
<g id="node17" class="node"><title>TextTemplate</title>
<ellipse fill="none" stroke="black" cx="706" cy="-327" rx="60.1672" ry="18"/>
<text text-anchor="middle" x="706" y="-323.3" font-family="Times,serif" font-size="14.00">TextTemplate</text>
</g>
</g>
</svg>
