<?xml version="1.0" encoding="UTF-8" standalone="no"?>
<!DOCTYPE svg PUBLIC "-//W3C//DTD SVG 1.1//EN"
 "http://www.w3.org/Graphics/SVG/1.1/DTD/svg11.dtd">
<!-- Generated by graphviz version 2.36.0 (20140111.2315)
 -->
<!-- Title: models_diagram Pages: 1 -->
<svg width="4452pt" height="612pt"
 viewBox="0.00 0.00 4452.00 612.00" xmlns="http://www.w3.org/2000/svg" xmlns:xlink="http://www.w3.org/1999/xlink">
<g id="graph0" class="graph" transform="scale(1 1) rotate(0) translate(4 608)">
<title>models_diagram</title>
<polygon fill="none" stroke="none" points="-4,4 -4,-608 4448,-608 4448,4 -4,4"/>
<!-- _diagram_info -->
<g id="node1" class="node"><title>_diagram_info</title>
<text text-anchor="start" x="212" y="-589.6" font-family="Times,serif" font-size="13.00">Models diagram</text>
<text text-anchor="start" x="212" y="-575.6" font-family="Times,serif" font-size="13.00">Date: Oct 06 2015 &#45; 13:50</text>
<text text-anchor="start" x="212" y="-561.6" font-family="Times,serif" font-size="13.00">Migration version: 20151002201957</text>
<text text-anchor="start" x="212" y="-547.6" font-family="Times,serif" font-size="13.00">Generated by RailRoady 1.3.1</text>
<text text-anchor="start" x="212" y="-533.6" font-family="Times,serif" font-size="13.00">http://railroady.prestonlee.com</text>
</g>
<!-- Village -->
<g id="node2" class="node"><title>Village</title>
<ellipse fill="none" stroke="black" cx="3429" cy="-396" rx="36.096" ry="18"/>
<text text-anchor="middle" x="3429" y="-392.3" font-family="Times,serif" font-size="14.00">Village</text>
</g>
<!-- PhysiographicData -->
<g id="node3" class="node"><title>PhysiographicData</title>
<ellipse fill="none" stroke="black" cx="3324" cy="-288" rx="77.0154" ry="18"/>
<text text-anchor="middle" x="3324" y="-284.3" font-family="Times,serif" font-size="14.00">PhysiographicData</text>
</g>
<!-- Village&#45;&gt;PhysiographicData -->
<g id="edge3" class="edge"><title>Village&#45;&gt;PhysiographicData</title>
<path fill="none" stroke="#54e827" d="M3407.68,-373.473C3389.87,-355.496 3364.56,-329.943 3346.44,-311.657"/>
<ellipse fill="none" stroke="#54e827" cx="3410.69" cy="-376.518" rx="4.00002" ry="4.00002"/>
<ellipse fill="#54e827" stroke="#54e827" cx="3343.41" cy="-308.598" rx="4.00002" ry="4.00002"/>
</g>
<!-- InfrastructureSanitation -->
<g id="node11" class="node"><title>InfrastructureSanitation</title>
<ellipse fill="none" stroke="black" cx="2901" cy="-288" rx="94.3628" ry="18"/>
<text text-anchor="middle" x="2901" y="-284.3" font-family="Times,serif" font-size="14.00">InfrastructureSanitation</text>
</g>
<!-- Village&#45;&gt;InfrastructureSanitation -->
<g id="edge5" class="edge"><title>Village&#45;&gt;InfrastructureSanitation</title>
<path fill="none" stroke="#196c03" d="M3387.22,-387.458C3370.12,-384.428 3350.13,-380.959 3332,-378 3279.21,-369.382 3265.56,-369.941 3213,-360 3126.86,-343.707 3028.36,-320.522 2965.48,-305.133"/>
<ellipse fill="none" stroke="#196c03" cx="3391.43" cy="-388.206" rx="4.00001" ry="4.00001"/>
<polygon fill="#196c03" stroke="#196c03" points="2965.41,-305.116 2956.77,-298.362 2960.55,-303.924 2955.69,-302.732 2955.69,-302.732 2955.69,-302.732 2960.55,-303.924 2954.62,-307.102 2965.41,-305.116 2965.41,-305.116"/>
</g>
<!-- CapaiVillage -->
<g id="node12" class="node"><title>CapaiVillage</title>
<ellipse fill="none" stroke="black" cx="3114" cy="-180" rx="57.2927" ry="18"/>
<text text-anchor="middle" x="3114" y="-176.3" font-family="Times,serif" font-size="14.00">CapaiVillage</text>
</g>
<!-- Village&#45;&gt;CapaiVillage -->
<g id="edge6" class="edge"><title>Village&#45;&gt;CapaiVillage</title>
<path fill="none" stroke="#74617e" d="M3432.47,-369.64C3434.78,-341.825 3433.86,-297.493 3410,-270 3401.79,-260.544 3248.18,-217.56 3165.57,-194.969"/>
<ellipse fill="none" stroke="#74617e" cx="3432.06" cy="-373.724" rx="4" ry="4"/>
<polygon fill="#74617e" stroke="#74617e" points="3165.51,-194.953 3157.05,-187.978 3160.69,-193.636 3155.87,-192.319 3155.87,-192.319 3155.87,-192.319 3160.69,-193.636 3154.68,-196.66 3165.51,-194.953 3165.51,-194.953"/>
</g>
<!-- Ethnicity -->
<g id="node14" class="node"><title>Ethnicity</title>
<ellipse fill="none" stroke="black" cx="4276" cy="-234" rx="42.3456" ry="18"/>
<text text-anchor="middle" x="4276" y="-230.3" font-family="Times,serif" font-size="14.00">Ethnicity</text>
</g>
<!-- Village&#45;&gt;Ethnicity -->
<g id="edge2" class="edge"><title>Village&#45;&gt;Ethnicity</title>
<path fill="none" stroke="#8340eb" d="M3475.53,-394.572C3563.26,-393.129 3758.84,-386.883 3921,-360 4013.95,-344.59 4037.49,-338.292 4126,-306 4166.91,-291.075 4211.8,-269.025 4241.71,-253.465"/>
<polygon fill="#8340eb" stroke="#8340eb" points="3475.38,-394.574 3465.31,-390.226 3470.38,-394.65 3465.38,-394.725 3465.38,-394.725 3465.38,-394.725 3470.38,-394.65 3465.45,-399.225 3475.38,-394.574 3475.38,-394.574"/>
<polygon fill="#8340eb" stroke="#8340eb" points="4242.01,-253.305 4252.96,-252.644 4246.44,-250.982 4250.87,-248.659 4250.87,-248.659 4250.87,-248.659 4246.44,-250.982 4248.78,-244.674 4242.01,-253.305 4242.01,-253.305"/>
</g>
<!-- InfrastructureBuilding -->
<g id="node29" class="node"><title>InfrastructureBuilding</title>
<ellipse fill="none" stroke="black" cx="3102" cy="-288" rx="89.0632" ry="18"/>
<text text-anchor="middle" x="3102" y="-284.3" font-family="Times,serif" font-size="14.00">InfrastructureBuilding</text>
</g>
<!-- Village&#45;&gt;InfrastructureBuilding -->
<g id="edge4" class="edge"><title>Village&#45;&gt;InfrastructureBuilding</title>
<path fill="none" stroke="#7fbc3b" d="M3391.62,-382.884C3334.09,-364.235 3223.53,-328.396 3156.9,-306.797"/>
<ellipse fill="none" stroke="#7fbc3b" cx="3395.6" cy="-384.173" rx="4.00001" ry="4.00001"/>
<polygon fill="#7fbc3b" stroke="#7fbc3b" points="3156.51,-306.671 3148.39,-299.306 3151.76,-305.129 3147,-303.587 3147,-303.587 3147,-303.587 3151.76,-305.129 3145.61,-307.868 3156.51,-306.671 3156.51,-306.671"/>
</g>
<!-- Espinita::Audit -->
<g id="node51" class="node"><title>Espinita::Audit</title>
<ellipse fill="none" stroke="black" cx="2203" cy="-92" rx="64.0172" ry="18"/>
<text text-anchor="middle" x="2203" y="-88.3" font-family="Times,serif" font-size="14.00">Espinita::Audit</text>
</g>
<!-- Village&#45;&gt;Espinita::Audit -->
<g id="edge1" class="edge"><title>Village&#45;&gt;Espinita::Audit</title>
<path fill="none" stroke="#4704a3" d="M3471.43,-388.873C3556.63,-376.569 3754.64,-347.982 3921,-324 3976.55,-315.992 3993.26,-325.207 4046,-306 4117.27,-280.045 4120.38,-243.664 4191,-216 4230.2,-200.645 4257.21,-230.475 4284,-198 4294.18,-185.658 4294.31,-174.238 4284,-162 4226.76,-94.0407 4175.45,-136.405 4087,-128 3726.54,-93.7478 2580.81,-92.5616 2277.35,-92.8677"/>
<ellipse fill="none" stroke="#4704a3" cx="3467.26" cy="-389.475" rx="4.00001" ry="4.00001"/>
<polygon fill="#4704a3" stroke="#4704a3" points="2277.34,-92.8676 2267.33,-88.3786 2272.34,-92.8731 2267.34,-92.8786 2267.34,-92.8786 2267.34,-92.8786 2272.34,-92.8731 2267.34,-97.3786 2277.34,-92.8676 2277.34,-92.8676"/>
<text text-anchor="middle" x="4207.5" y="-230.3" font-family="Times,serif" font-size="14.00">audits</text>
</g>
<!-- PhysiographicDataLanguage -->
<g id="node47" class="node"><title>PhysiographicDataLanguage</title>
<ellipse fill="none" stroke="black" cx="3302" cy="-180" rx="112.16" ry="18"/>
<text text-anchor="middle" x="3302" y="-176.3" font-family="Times,serif" font-size="14.00">PhysiographicDataLanguage</text>
</g>
<!-- PhysiographicData&#45;&gt;PhysiographicDataLanguage -->
<g id="edge8" class="edge"><title>PhysiographicData&#45;&gt;PhysiographicDataLanguage</title>
<path fill="none" stroke="#88495c" d="M3318.82,-262.058C3315.49,-245.978 3311.14,-225.058 3307.71,-208.498"/>
<ellipse fill="none" stroke="#88495c" cx="3319.65" cy="-266.053" rx="4.00001" ry="4.00001"/>
<polygon fill="#88495c" stroke="#88495c" points="3307.63,-208.132 3310.01,-197.426 3306.62,-203.236 3305.6,-198.341 3305.6,-198.341 3305.6,-198.341 3306.62,-203.236 3301.19,-199.255 3307.63,-208.132 3307.63,-208.132"/>
</g>
<!-- PhysiographicData&#45;&gt;Espinita::Audit -->
<g id="edge7" class="edge"><title>PhysiographicData&#45;&gt;Espinita::Audit</title>
<path fill="none" stroke="#64d0fe" d="M3258.73,-274.153C3179.85,-257.627 3052.98,-227.519 3015,-198 2986.53,-175.874 3004.87,-146.635 2974,-128 2915.39,-92.6144 2458.92,-91.4218 2277.24,-92.3793"/>
<ellipse fill="none" stroke="#64d0fe" cx="3262.76" cy="-274.993" rx="4.00001" ry="4.00001"/>
<polygon fill="#64d0fe" stroke="#64d0fe" points="2277.23,-92.3792 2267.21,-87.9357 2272.23,-92.4074 2267.23,-92.4357 2267.23,-92.4357 2267.23,-92.4357 2272.23,-92.4074 2267.26,-96.9356 2277.23,-92.3792 2277.23,-92.3792"/>
<text text-anchor="middle" x="3031.5" y="-176.3" font-family="Times,serif" font-size="14.00">audits</text>
</g>
<!-- ResultStrategy -->
<g id="node4" class="node"><title>ResultStrategy</title>
<ellipse fill="none" stroke="black" cx="178" cy="-396" rx="62.0922" ry="18"/>
<text text-anchor="middle" x="178" y="-392.3" font-family="Times,serif" font-size="14.00">ResultStrategy</text>
</g>
<!-- ResultStrategy&#45;&gt;ResultStrategy -->
<g id="edge10" class="edge"><title>ResultStrategy&#45;&gt;ResultStrategy</title>
<path fill="none" stroke="#495d77" d="M244.469,-401.846C252.64,-400.802 258,-398.853 258,-396 258,-393.38 253.479,-391.522 246.412,-390.428"/>
<ellipse fill="none" stroke="#495d77" cx="240.233" cy="-402.209" rx="4" ry="4"/>
<polygon fill="#495d77" stroke="#495d77" points="246.202,-390.408 236.679,-384.97 241.225,-389.929 236.248,-389.449 236.248,-389.449 236.248,-389.449 241.225,-389.929 235.816,-393.929 246.202,-390.408 246.202,-390.408"/>
<text text-anchor="middle" x="280.5" y="-392.3" font-family="Times,serif" font-size="14.00">children</text>
</g>
<!-- Result -->
<g id="node24" class="node"><title>Result</title>
<ellipse fill="none" stroke="black" cx="601" cy="-288" rx="33.2209" ry="18"/>
<text text-anchor="middle" x="601" y="-284.3" font-family="Times,serif" font-size="14.00">Result</text>
</g>
<!-- ResultStrategy&#45;&gt;Result -->
<g id="edge11" class="edge"><title>ResultStrategy&#45;&gt;Result</title>
<path fill="none" stroke="#e39a31" d="M231.176,-381.674C317.235,-360.109 485.079,-318.049 561.455,-298.91"/>
<ellipse fill="none" stroke="#e39a31" cx="227.148" cy="-382.684" rx="4.00001" ry="4.00001"/>
<polygon fill="#e39a31" stroke="#e39a31" points="561.907,-298.796 572.701,-300.731 566.757,-297.581 571.607,-296.366 571.607,-296.366 571.607,-296.366 566.757,-297.581 570.513,-292.001 561.907,-298.796 561.907,-298.796"/>
</g>
<!-- ResultStrategy&#45;&gt;Espinita::Audit -->
<g id="edge9" class="edge"><title>ResultStrategy&#45;&gt;Espinita::Audit</title>
<path fill="none" stroke="#4226f1" d="M184.653,-369.819C202.268,-309.495 256.6,-159.389 368,-128 453.942,-103.785 1796.52,-95.1404 2128.97,-93.3655"/>
<ellipse fill="none" stroke="#4226f1" cx="183.502" cy="-373.866" rx="4.00001" ry="4.00001"/>
<polygon fill="#4226f1" stroke="#4226f1" points="2128.97,-93.3656 2139,-97.8125 2133.97,-93.339 2138.97,-93.3125 2138.97,-93.3125 2138.97,-93.3125 2133.97,-93.339 2138.95,-88.8126 2128.97,-93.3656 2128.97,-93.3656"/>
<text text-anchor="middle" x="272.5" y="-230.3" font-family="Times,serif" font-size="14.00">audits</text>
</g>
<!-- Etnia -->
<g id="node5" class="node"><title>Etnia</title>
<ellipse fill="none" stroke="black" cx="2399" cy="-180" rx="29.3722" ry="18"/>
<text text-anchor="middle" x="2399" y="-176.3" font-family="Times,serif" font-size="14.00">Etnia</text>
</g>
<!-- Etnia&#45;&gt;Espinita::Audit -->
<g id="edge12" class="edge"><title>Etnia&#45;&gt;Espinita::Audit</title>
<path fill="none" stroke="#50c6c2" d="M2369.59,-164.499C2348,-154.007 2317.88,-139.678 2291,-128 2277.53,-122.148 2262.75,-116.119 2249.21,-110.748"/>
<ellipse fill="none" stroke="#50c6c2" cx="2373.25" cy="-166.287" rx="4.00002" ry="4.00002"/>
<polygon fill="#50c6c2" stroke="#50c6c2" points="2248.91,-110.631 2241.25,-102.779 2244.26,-108.799 2239.6,-106.966 2239.6,-106.966 2239.6,-106.966 2244.26,-108.799 2237.95,-111.153 2248.91,-110.631 2248.91,-110.631"/>
<text text-anchor="middle" x="2339.5" y="-132.3" font-family="Times,serif" font-size="14.00">audits</text>
</g>
<!-- PdsiBasePoloDatum -->
<g id="node6" class="node"><title>PdsiBasePoloDatum</title>
<ellipse fill="none" stroke="black" cx="3540" cy="-288" rx="83.2892" ry="18"/>
<text text-anchor="middle" x="3540" y="-284.3" font-family="Times,serif" font-size="14.00">PdsiBasePoloDatum</text>
</g>
<!-- PdsiBasePoloDatum&#45;&gt;Espinita::Audit -->
<g id="edge13" class="edge"><title>PdsiBasePoloDatum&#45;&gt;Espinita::Audit</title>
<path fill="none" stroke="#0f5ed2" d="M3554.64,-262.533C3569.04,-234.932 3585.71,-190.223 3562,-162 3505.7,-94.9724 3455.08,-136.893 3368,-128 3155.23,-106.272 2499.46,-96.5626 2277.4,-93.8385"/>
<ellipse fill="none" stroke="#0f5ed2" cx="3552.58" cy="-266.321" rx="4.00002" ry="4.00002"/>
<polygon fill="#0f5ed2" stroke="#0f5ed2" points="2277.16,-93.8357 2267.21,-89.2144 2272.16,-93.7749 2267.16,-93.7141 2267.16,-93.7141 2267.16,-93.7141 2272.16,-93.7749 2267.1,-98.2138 2277.16,-93.8357 2277.16,-93.8357"/>
<text text-anchor="middle" x="3589.5" y="-176.3" font-family="Times,serif" font-size="14.00">audits</text>
</g>
<!-- Capai -->
<g id="node7" class="node"><title>Capai</title>
<ellipse fill="none" stroke="black" cx="2758" cy="-288" rx="31.2965" ry="18"/>
<text text-anchor="middle" x="2758" y="-284.3" font-family="Times,serif" font-size="14.00">Capai</text>
</g>
<!-- Capai&#45;&gt;CapaiVillage -->
<g id="edge15" class="edge"><title>Capai&#45;&gt;CapaiVillage</title>
<path fill="none" stroke="#fbfe08" d="M2790.27,-273.174C2792.88,-272.09 2795.48,-271.02 2798,-270 2859.81,-244.954 2873.71,-233.721 2938,-216 2983.65,-203.419 2996.62,-207.518 3043,-198 3048.73,-196.825 3054.7,-195.521 3060.63,-194.174"/>
<ellipse fill="none" stroke="#fbfe08" cx="2786.17" cy="-274.893" rx="4.00001" ry="4.00001"/>
<polygon fill="#fbfe08" stroke="#fbfe08" points="3060.8,-194.134 3071.56,-196.263 3065.67,-193.007 3070.54,-191.879 3070.54,-191.879 3070.54,-191.879 3065.67,-193.007 3069.53,-187.495 3060.8,-194.134 3060.8,-194.134"/>
</g>
<!-- Capai&#45;&gt;Espinita::Audit -->
<g id="edge14" class="edge"><title>Capai&#45;&gt;Espinita::Audit</title>
<path fill="none" stroke="#75b9ea" d="M2761.84,-261.933C2765.72,-226.283 2766.61,-161.548 2729,-128 2696.08,-98.6343 2414.4,-93.6488 2277.33,-92.9769"/>
<ellipse fill="none" stroke="#75b9ea" cx="2761.35" cy="-265.945" rx="4.00001" ry="4.00001"/>
<polygon fill="#75b9ea" stroke="#75b9ea" points="2277.31,-92.977 2267.33,-88.4343 2272.31,-92.9556 2267.31,-92.9343 2267.31,-92.9343 2267.31,-92.9343 2272.31,-92.9556 2267.29,-97.4342 2277.31,-92.977 2277.31,-92.977"/>
<text text-anchor="middle" x="2777.5" y="-176.3" font-family="Times,serif" font-size="14.00">audits</text>
</g>
<!-- ProjectionBudgetYear -->
<g id="node8" class="node"><title>ProjectionBudgetYear</title>
<ellipse fill="none" stroke="black" cx="4026" cy="-92" rx="89.0632" ry="18"/>
<text text-anchor="middle" x="4026" y="-88.3" font-family="Times,serif" font-size="14.00">ProjectionBudgetYear</text>
</g>
<!-- ProjectionBudgetStructure -->
<g id="node18" class="node"><title>ProjectionBudgetStructure</title>
<ellipse fill="none" stroke="black" cx="4026" cy="-18" rx="104.461" ry="18"/>
<text text-anchor="middle" x="4026" y="-14.3" font-family="Times,serif" font-size="14.00">ProjectionBudgetStructure</text>
</g>
<!-- ProjectionBudgetYear&#45;&gt;ProjectionBudgetStructure -->
<g id="edge16" class="edge"><title>ProjectionBudgetYear&#45;&gt;ProjectionBudgetStructure</title>
<path fill="none" stroke="#91f5f9" d="M4026,-65.7923C4026,-59.5805 4026,-52.8963 4026,-46.5786"/>
<ellipse fill="none" stroke="#91f5f9" cx="4026" cy="-69.937" rx="4" ry="4"/>
<polygon fill="#91f5f9" stroke="#91f5f9" points="4026,-46.4407 4030.5,-36.4406 4026,-41.4407 4026,-36.4407 4026,-36.4407 4026,-36.4407 4026,-41.4407 4021.5,-36.4407 4026,-46.4407 4026,-46.4407"/>
</g>
<!-- ResultAxis -->
<g id="node9" class="node"><title>ResultAxis</title>
<ellipse fill="none" stroke="black" cx="50" cy="-470" rx="50.0684" ry="18"/>
<text text-anchor="middle" x="50" y="-466.3" font-family="Times,serif" font-size="14.00">ResultAxis</text>
</g>
<!-- ResultAxis&#45;&gt;ResultStrategy -->
<g id="edge18" class="edge"><title>ResultAxis&#45;&gt;ResultStrategy</title>
<path fill="none" stroke="#0fef37" d="M83.0779,-450.394C101.157,-440.224 123.569,-427.617 142.075,-417.208"/>
<ellipse fill="none" stroke="#0fef37" cx="79.389" cy="-452.469" rx="4.00002" ry="4.00002"/>
<polygon fill="#0fef37" stroke="#0fef37" points="142.095,-417.197 153.017,-416.216 146.453,-414.745 150.81,-412.294 150.81,-412.294 150.81,-412.294 146.453,-414.745 148.604,-408.372 142.095,-417.197 142.095,-417.197"/>
</g>
<!-- ResultAxis&#45;&gt;Espinita::Audit -->
<g id="edge17" class="edge"><title>ResultAxis&#45;&gt;Espinita::Audit</title>
<path fill="none" stroke="#0c62e8" d="M43.7342,-443.919C40.8254,-430.159 38,-412.742 38,-397 38,-397 38,-397 38,-179 38,-116.935 107.118,-140.058 168,-128 362.844,-89.4096 1785.33,-91.6081 2128.6,-92.7144"/>
<ellipse fill="none" stroke="#0c62e8" cx="44.6597" cy="-448.063" rx="4.00001" ry="4.00001"/>
<polygon fill="#0c62e8" stroke="#0c62e8" points="2128.68,-92.7146 2138.67,-97.2476 2133.68,-92.7311 2138.68,-92.7476 2138.68,-92.7476 2138.68,-92.7476 2133.68,-92.7311 2138.7,-88.2477 2128.68,-92.7146 2128.68,-92.7146"/>
<text text-anchor="middle" x="54.5" y="-284.3" font-family="Times,serif" font-size="14.00">audits</text>
</g>
<!-- Profile -->
<g id="node10" class="node"><title>Profile</title>
<ellipse fill="none" stroke="black" cx="99" cy="-342" rx="34.1708" ry="18"/>
<text text-anchor="middle" x="99" y="-338.3" font-family="Times,serif" font-size="14.00">Profile</text>
</g>
<!-- Profile&#45;&gt;Espinita::Audit -->
<g id="edge19" class="edge"><title>Profile&#45;&gt;Espinita::Audit</title>
<path fill="none" stroke="#b8845a" d="M101.21,-315.653C106.812,-268.926 126.127,-170.141 191,-128 232.408,-101.102 1770.65,-94.4138 2128.95,-93.2196"/>
<ellipse fill="none" stroke="#b8845a" cx="100.755" cy="-319.77" rx="4.00001" ry="4.00001"/>
<polygon fill="#b8845a" stroke="#b8845a" points="2128.95,-93.2197 2138.97,-97.6866 2133.95,-93.2032 2138.95,-93.1867 2138.95,-93.1867 2138.95,-93.1867 2133.95,-93.2032 2138.94,-88.6867 2128.95,-93.2197 2128.95,-93.2197"/>
<text text-anchor="middle" x="142.5" y="-230.3" font-family="Times,serif" font-size="14.00">audits</text>
</g>
<!-- InfrastructureSanitation&#45;&gt;Espinita::Audit -->
<g id="edge20" class="edge"><title>InfrastructureSanitation&#45;&gt;Espinita::Audit</title>
<path fill="none" stroke="#c366d6" d="M2888.03,-262.847C2865.72,-224.422 2815.94,-151.326 2749,-128 2664.07,-98.4047 2406.02,-93.4425 2277.45,-92.8642"/>
<ellipse fill="none" stroke="#c366d6" cx="2890.15" cy="-266.568" rx="4.00002" ry="4.00002"/>
<polygon fill="#c366d6" stroke="#c366d6" points="2277.29,-92.8637 2267.31,-88.3265 2272.29,-92.8451 2267.29,-92.8265 2267.29,-92.8265 2267.29,-92.8265 2272.29,-92.8451 2267.27,-97.3264 2277.29,-92.8637 2277.29,-92.8637"/>
<text text-anchor="middle" x="2858.5" y="-176.3" font-family="Times,serif" font-size="14.00">audits</text>
</g>
<!-- CapaiVillage&#45;&gt;Espinita::Audit -->
<g id="edge21" class="edge"><title>CapaiVillage&#45;&gt;Espinita::Audit</title>
<path fill="none" stroke="#702458" d="M3085.28,-158.947C3067.38,-147.62 3043.38,-134.47 3020,-128 2949.63,-108.528 2464.79,-97.7497 2277.04,-94.2668"/>
<ellipse fill="none" stroke="#702458" cx="3088.71" cy="-161.167" rx="4.00002" ry="4.00002"/>
<polygon fill="#702458" stroke="#702458" points="2276.98,-94.2658 2267.06,-89.5827 2271.98,-94.1739 2266.98,-94.082 2266.98,-94.082 2266.98,-94.082 2271.98,-94.1739 2266.9,-98.5812 2276.98,-94.2658 2276.98,-94.2658"/>
<text text-anchor="middle" x="3073.5" y="-132.3" font-family="Times,serif" font-size="14.00">audits</text>
</g>
<!-- ServiceNetwork -->
<g id="node13" class="node"><title>ServiceNetwork</title>
<ellipse fill="none" stroke="black" cx="3970" cy="-288" rx="67.3907" ry="18"/>
<text text-anchor="middle" x="3970" y="-284.3" font-family="Times,serif" font-size="14.00">ServiceNetwork</text>
</g>
<!-- HealthEstablishment -->
<g id="node19" class="node"><title>HealthEstablishment</title>
<ellipse fill="none" stroke="black" cx="4024" cy="-180" rx="84.2388" ry="18"/>
<text text-anchor="middle" x="4024" y="-176.3" font-family="Times,serif" font-size="14.00">HealthEstablishment</text>
</g>
<!-- ServiceNetwork&#45;&gt;HealthEstablishment -->
<g id="edge23" class="edge"><title>ServiceNetwork&#45;&gt;HealthEstablishment</title>
<path fill="none" stroke="#8913fc" d="M3982.33,-262.796C3990.76,-246.25 4001.93,-224.325 4010.58,-207.34"/>
<ellipse fill="none" stroke="#8913fc" cx="3980.49" cy="-266.405" rx="4.00002" ry="4.00002"/>
<polygon fill="#8913fc" stroke="#8913fc" points="4010.81,-206.899 4019.36,-200.031 4013.08,-202.444 4015.35,-197.988 4015.35,-197.988 4015.35,-197.988 4013.08,-202.444 4011.34,-195.946 4010.81,-206.899 4010.81,-206.899"/>
</g>
<!-- HealthSpecialized -->
<g id="node36" class="node"><title>HealthSpecialized</title>
<ellipse fill="none" stroke="black" cx="4201" cy="-180" rx="74.6146" ry="18"/>
<text text-anchor="middle" x="4201" y="-176.3" font-family="Times,serif" font-size="14.00">HealthSpecialized</text>
</g>
<!-- ServiceNetwork&#45;&gt;HealthSpecialized -->
<g id="edge24" class="edge"><title>ServiceNetwork&#45;&gt;HealthSpecialized</title>
<path fill="none" stroke="#0c774b" d="M4010.08,-268.609C4051.6,-249.554 4116.24,-219.894 4158.6,-200.456"/>
<ellipse fill="none" stroke="#0c774b" cx="4006.24" cy="-270.369" rx="4.00002" ry="4.00002"/>
<polygon fill="#0c774b" stroke="#0c774b" points="4158.72,-200.4 4169.69,-200.319 4163.27,-198.315 4167.81,-196.23 4167.81,-196.23 4167.81,-196.23 4163.27,-198.315 4165.93,-192.14 4158.72,-200.4 4158.72,-200.4"/>
</g>
<!-- ServiceNetwork&#45;&gt;Espinita::Audit -->
<g id="edge22" class="edge"><title>ServiceNetwork&#45;&gt;Espinita::Audit</title>
<path fill="none" stroke="#2660b6" d="M3950.82,-263.424C3922.83,-229.224 3872.91,-169.135 3862,-162 3819.17,-134 3802.51,-136.212 3752,-128 3605.95,-104.253 2566.66,-95.4713 2277.5,-93.4723"/>
<ellipse fill="none" stroke="#2660b6" cx="3953.58" cy="-266.798" rx="4.00002" ry="4.00002"/>
<polygon fill="#2660b6" stroke="#2660b6" points="2277.12,-93.4698 2267.15,-88.9014 2272.12,-93.4356 2267.12,-93.4013 2267.12,-93.4013 2267.12,-93.4013 2272.12,-93.4356 2267.09,-97.9012 2277.12,-93.4698 2277.12,-93.4698"/>
<text text-anchor="middle" x="3911.5" y="-176.3" font-family="Times,serif" font-size="14.00">audits</text>
</g>
<!-- Ethnicity&#45;&gt;Espinita::Audit -->
<g id="edge25" class="edge"><title>Ethnicity&#45;&gt;Espinita::Audit</title>
<path fill="none" stroke="#901219" d="M4306.36,-213.454C4311.08,-208.978 4315.28,-203.802 4318,-198 4331.2,-169.826 4339.82,-150.18 4318,-128 4299.73,-109.422 2650.01,-96.2656 2277.27,-93.5284"/>
<ellipse fill="none" stroke="#901219" cx="4303.22" cy="-216.142" rx="4.00002" ry="4.00002"/>
<polygon fill="#901219" stroke="#901219" points="2277.14,-93.5276 2267.17,-88.9544 2272.14,-93.4909 2267.14,-93.4543 2267.14,-93.4543 2267.14,-93.4543 2272.14,-93.4909 2267.1,-97.9542 2277.14,-93.5276 2277.14,-93.5276"/>
<text text-anchor="middle" x="4346.5" y="-176.3" font-family="Times,serif" font-size="14.00">audits</text>
</g>
<!-- PdsiHumanResource -->
<g id="node15" class="node"><title>PdsiHumanResource</title>
<ellipse fill="none" stroke="black" cx="1635" cy="-180" rx="85.2138" ry="18"/>
<text text-anchor="middle" x="1635" y="-176.3" font-family="Times,serif" font-size="14.00">PdsiHumanResource</text>
</g>
<!-- PdsiHumanResource&#45;&gt;Espinita::Audit -->
<g id="edge26" class="edge"><title>PdsiHumanResource&#45;&gt;Espinita::Audit</title>
<path fill="none" stroke="#2d3146" d="M1659.54,-157.118C1673.13,-146.347 1690.9,-134.342 1709,-128 1784.29,-101.612 2010.05,-95.0899 2128.54,-93.4981"/>
<ellipse fill="none" stroke="#2d3146" cx="1656.32" cy="-159.746" rx="4.00002" ry="4.00002"/>
<polygon fill="#2d3146" stroke="#2d3146" points="2128.62,-93.4972 2138.67,-97.8708 2133.62,-93.4342 2138.62,-93.3711 2138.62,-93.3711 2138.62,-93.3711 2133.62,-93.4342 2138.56,-88.8715 2128.62,-93.4972 2128.62,-93.4972"/>
<text text-anchor="middle" x="1725.5" y="-132.3" font-family="Times,serif" font-size="14.00">audits</text>
</g>
<!-- ProjectionBudgetCategory -->
<g id="node16" class="node"><title>ProjectionBudgetCategory</title>
<ellipse fill="none" stroke="black" cx="3219" cy="-396" rx="104.461" ry="18"/>
<text text-anchor="middle" x="3219" y="-392.3" font-family="Times,serif" font-size="14.00">ProjectionBudgetCategory</text>
</g>
<!-- CategoryBudget -->
<g id="node30" class="node"><title>CategoryBudget</title>
<ellipse fill="none" stroke="black" cx="2369" cy="-288" rx="68.3664" ry="18"/>
<text text-anchor="middle" x="2369" y="-284.3" font-family="Times,serif" font-size="14.00">CategoryBudget</text>
</g>
<!-- ProjectionBudgetCategory&#45;&gt;CategoryBudget -->
<g id="edge29" class="edge"><title>ProjectionBudgetCategory&#45;&gt;CategoryBudget</title>
<path fill="none" stroke="#eb72c7" d="M3118.71,-386.767C2970.85,-373.881 2685.94,-346.191 2446,-306 2440.2,-305.029 2434.19,-303.906 2428.19,-302.709"/>
<ellipse fill="none" stroke="#eb72c7" cx="3122.96" cy="-387.136" rx="4" ry="4"/>
<polygon fill="#eb72c7" stroke="#eb72c7" points="2427.94,-302.658 2419.05,-296.231 2423.04,-301.648 2418.15,-300.638 2418.15,-300.638 2418.15,-300.638 2423.04,-301.648 2417.24,-305.046 2427.94,-302.658 2427.94,-302.658"/>
</g>
<!-- ProjectionBudgetItem -->
<g id="node48" class="node"><title>ProjectionBudgetItem</title>
<ellipse fill="none" stroke="black" cx="3730" cy="-288" rx="89.0632" ry="18"/>
<text text-anchor="middle" x="3730" y="-284.3" font-family="Times,serif" font-size="14.00">ProjectionBudgetItem</text>
</g>
<!-- ProjectionBudgetCategory&#45;&gt;ProjectionBudgetItem -->
<g id="edge28" class="edge"><title>ProjectionBudgetCategory&#45;&gt;ProjectionBudgetItem</title>
<path fill="none" stroke="#ebba39" d="M3291.01,-380.062C3389.09,-359.717 3563.54,-323.531 3660.37,-303.445"/>
<ellipse fill="none" stroke="#ebba39" cx="3286.86" cy="-380.923" rx="4.00001" ry="4.00001"/>
<polygon fill="#ebba39" stroke="#ebba39" points="3660.56,-303.405 3671.26,-305.78 3665.45,-302.39 3670.35,-301.374 3670.35,-301.374 3670.35,-301.374 3665.45,-302.39 3669.43,-296.968 3660.56,-303.405 3660.56,-303.405"/>
</g>
<!-- ProjectionBudgetCategory&#45;&gt;Espinita::Audit -->
<g id="edge27" class="edge"><title>ProjectionBudgetCategory&#45;&gt;Espinita::Audit</title>
<path fill="none" stroke="#505546" d="M3223.32,-369.654C3226.6,-341.074 3226.73,-295.299 3200,-270 3169.68,-241.301 3049.78,-271.745 3013,-252 2967.62,-227.641 2982.77,-190.689 2940,-162 2896.44,-132.786 2878.65,-137.087 2827,-128 2723.33,-109.762 2418.38,-99.0647 2276.79,-94.9541"/>
<ellipse fill="none" stroke="#505546" cx="3222.75" cy="-373.965" rx="4.00001" ry="4.00001"/>
<polygon fill="#505546" stroke="#505546" points="2276.47,-94.945 2266.6,-90.1598 2271.47,-94.8015 2266.47,-94.6579 2266.47,-94.6579 2266.47,-94.6579 2271.47,-94.8015 2266.34,-99.1561 2276.47,-94.945 2276.47,-94.945"/>
<text text-anchor="middle" x="3029.5" y="-230.3" font-family="Times,serif" font-size="14.00">audits</text>
</g>
<!-- UserType -->
<g id="node17" class="node"><title>UserType</title>
<ellipse fill="none" stroke="black" cx="481" cy="-565" rx="45.244" ry="18"/>
<text text-anchor="middle" x="481" y="-561.3" font-family="Times,serif" font-size="14.00">UserType</text>
</g>
<!-- User -->
<g id="node25" class="node"><title>User</title>
<ellipse fill="none" stroke="black" cx="441" cy="-470" rx="26.949" ry="18"/>
<text text-anchor="middle" x="441" y="-466.3" font-family="Times,serif" font-size="14.00">User</text>
</g>
<!-- UserType&#45;&gt;User -->
<g id="edge31" class="edge"><title>UserType&#45;&gt;User</title>
<path fill="none" stroke="#b4960d" d="M470.396,-539.346C464.797,-526.329 457.927,-510.355 452.237,-497.125"/>
<ellipse fill="none" stroke="#b4960d" cx="472.083" cy="-543.268" rx="4.00002" ry="4.00002"/>
<polygon fill="#b4960d" stroke="#b4960d" points="452.107,-496.823 452.289,-485.859 450.131,-492.23 448.156,-487.637 448.156,-487.637 448.156,-487.637 450.131,-492.23 444.022,-489.415 452.107,-496.823 452.107,-496.823"/>
</g>
<!-- UserType&#45;&gt;Espinita::Audit -->
<g id="edge30" class="edge"><title>UserType&#45;&gt;Espinita::Audit</title>
<path fill="none" stroke="#cf6c0f" d="M489.68,-539.417C495.46,-520.863 502,-494.647 502,-471 502,-471 502,-471 502,-179 502,-137.581 540.435,-140.253 580,-128 654.702,-104.866 1820.14,-95.5357 2128.58,-93.4644"/>
<ellipse fill="none" stroke="#cf6c0f" cx="488.419" cy="-543.312" rx="4.00001" ry="4.00001"/>
<polygon fill="#cf6c0f" stroke="#cf6c0f" points="2128.76,-93.4633 2138.79,-97.8965 2133.76,-93.43 2138.76,-93.3966 2138.76,-93.3966 2138.76,-93.3966 2133.76,-93.43 2138.73,-88.8967 2128.76,-93.4633 2128.76,-93.4633"/>
<text text-anchor="middle" x="518.5" y="-338.3" font-family="Times,serif" font-size="14.00">audits</text>
</g>
<!-- HealthEstablishment&#45;&gt;Espinita::Audit -->
<g id="edge32" class="edge"><title>HealthEstablishment&#45;&gt;Espinita::Audit</title>
<path fill="none" stroke="#b961b8" d="M3967.91,-162.617C3952.97,-157.438 3937.08,-151.167 3923,-144 3911.9,-138.353 3911.84,-131.849 3900,-128 3821.98,-102.644 2595.25,-94.916 2277.62,-93.3352"/>
<ellipse fill="none" stroke="#b961b8" cx="3971.83" cy="-163.943" rx="4.00001" ry="4.00001"/>
<polygon fill="#b961b8" stroke="#b961b8" points="2277.16,-93.333 2267.18,-88.7837 2272.16,-93.3083 2267.16,-93.2837 2267.16,-93.2837 2267.16,-93.2837 2272.16,-93.3083 2267.13,-97.7836 2277.16,-93.333 2277.16,-93.333"/>
<text text-anchor="middle" x="3939.5" y="-132.3" font-family="Times,serif" font-size="14.00">audits</text>
</g>
<!-- BasePolo -->
<g id="node20" class="node"><title>BasePolo</title>
<ellipse fill="none" stroke="black" cx="3681" cy="-470" rx="44.2946" ry="18"/>
<text text-anchor="middle" x="3681" y="-466.3" font-family="Times,serif" font-size="14.00">BasePolo</text>
</g>
<!-- BasePolo&#45;&gt;Village -->
<g id="edge34" class="edge"><title>BasePolo&#45;&gt;Village</title>
<path fill="none" stroke="#6177b7" d="M3638.12,-456.749C3590.93,-443.267 3515.67,-421.763 3469.47,-408.562"/>
<ellipse fill="none" stroke="#6177b7" cx="3642.11" cy="-457.89" rx="4.00001" ry="4.00001"/>
<polygon fill="#6177b7" stroke="#6177b7" points="3469.41,-408.544 3461.03,-401.47 3464.6,-407.171 3459.79,-405.797 3459.79,-405.797 3459.79,-405.797 3464.6,-407.171 3458.55,-410.124 3469.41,-408.544 3469.41,-408.544"/>
</g>
<!-- BasePolo&#45;&gt;PdsiBasePoloDatum -->
<g id="edge35" class="edge"><title>BasePolo&#45;&gt;PdsiBasePoloDatum</title>
<path fill="none" stroke="#576b26" d="M3663.21,-446.292C3636.32,-411.967 3585.59,-347.194 3558.36,-312.441"/>
<ellipse fill="none" stroke="#576b26" cx="3665.77" cy="-449.56" rx="4.00002" ry="4.00002"/>
<ellipse fill="#576b26" stroke="#576b26" cx="3555.71" cy="-309.057" rx="4.00002" ry="4.00002"/>
</g>
<!-- BasePolo&#45;&gt;ServiceNetwork -->
<g id="edge37" class="edge"><title>BasePolo&#45;&gt;ServiceNetwork</title>
<path fill="none" stroke="#9ebbdc" d="M3711.12,-450.239C3765.37,-416.452 3879.13,-345.597 3936.05,-310.146"/>
<ellipse fill="none" stroke="#9ebbdc" cx="3707.56" cy="-452.459" rx="4.00002" ry="4.00002"/>
<polygon fill="#9ebbdc" stroke="#9ebbdc" points="3936.19,-310.058 3947.06,-308.591 3940.43,-307.415 3944.68,-304.771 3944.68,-304.771 3944.68,-304.771 3940.43,-307.415 3942.3,-300.951 3936.19,-310.058 3936.19,-310.058"/>
</g>
<!-- Emsi -->
<g id="node38" class="node"><title>Emsi</title>
<ellipse fill="none" stroke="black" cx="2642" cy="-288" rx="29.3722" ry="18"/>
<text text-anchor="middle" x="2642" y="-284.3" font-family="Times,serif" font-size="14.00">Emsi</text>
</g>
<!-- BasePolo&#45;&gt;Emsi -->
<g id="edge36" class="edge"><title>BasePolo&#45;&gt;Emsi</title>
<path fill="none" stroke="#a3f540" d="M3628.63,-468.9C3461.21,-468.096 2940.56,-461.724 2780,-414 2733.45,-400.162 2719.81,-393.863 2685,-360 2671.7,-347.059 2660.9,-329.17 2653.45,-314.586"/>
<ellipse fill="none" stroke="#a3f540" cx="3632.81" cy="-468.918" rx="4" ry="4"/>
<polygon fill="#a3f540" stroke="#a3f540" points="2653.43,-314.551 2653.09,-303.59 2651.24,-310.058 2649.04,-305.564 2649.04,-305.564 2649.04,-305.564 2651.24,-310.058 2645,-307.538 2653.43,-314.551 2653.43,-314.551"/>
</g>
<!-- BasePolo&#45;&gt;Espinita::Audit -->
<g id="edge33" class="edge"><title>BasePolo&#45;&gt;Espinita::Audit</title>
<path fill="none" stroke="#34515f" d="M3733.47,-469.324C3900.82,-469.67 4411,-465.137 4411,-397 4411,-397 4411,-397 4411,-179 4411,-139.057 4375.04,-140.182 4337,-128 4286.93,-111.967 2647.77,-96.8482 2277.03,-93.6285"/>
<ellipse fill="none" stroke="#34515f" cx="3729.29" cy="-469.313" rx="4" ry="4"/>
<polygon fill="#34515f" stroke="#34515f" points="2276.95,-93.6279 2266.99,-89.0413 2271.95,-93.5845 2266.95,-93.5412 2266.95,-93.5412 2266.95,-93.5412 2271.95,-93.5845 2266.91,-98.041 2276.95,-93.6279 2276.95,-93.6279"/>
<text text-anchor="middle" x="4427.5" y="-284.3" font-family="Times,serif" font-size="14.00">audits</text>
</g>
<!-- AbsoluteDataCasai -->
<g id="node21" class="node"><title>AbsoluteDataCasai</title>
<ellipse fill="none" stroke="black" cx="975" cy="-180" rx="78.4642" ry="18"/>
<text text-anchor="middle" x="975" y="-176.3" font-family="Times,serif" font-size="14.00">AbsoluteDataCasai</text>
</g>
<!-- AbsoluteDataCasai&#45;&gt;Espinita::Audit -->
<g id="edge38" class="edge"><title>AbsoluteDataCasai&#45;&gt;Espinita::Audit</title>
<path fill="none" stroke="#fa629e" d="M997.233,-156.765C1009.6,-145.933 1025.92,-133.981 1043,-128 1144.88,-92.3254 1889.04,-91.8514 2128.79,-92.6437"/>
<ellipse fill="none" stroke="#fa629e" cx="994.105" cy="-159.602" rx="4.00002" ry="4.00002"/>
<polygon fill="#fa629e" stroke="#fa629e" points="2128.81,-92.6436 2138.79,-97.1785 2133.81,-92.6611 2138.81,-92.6785 2138.81,-92.6785 2138.81,-92.6785 2133.81,-92.6611 2138.82,-88.1785 2128.81,-92.6436 2128.81,-92.6436"/>
<text text-anchor="middle" x="1059.5" y="-132.3" font-family="Times,serif" font-size="14.00">audits</text>
</g>
<!-- AbsoluteDatumLevel -->
<g id="node22" class="node"><title>AbsoluteDatumLevel</title>
<ellipse fill="none" stroke="black" cx="998" cy="-396" rx="87.1385" ry="18"/>
<text text-anchor="middle" x="998" y="-392.3" font-family="Times,serif" font-size="14.00">AbsoluteDatumLevel</text>
</g>
<!-- AbsoluteDatum -->
<g id="node27" class="node"><title>AbsoluteDatum</title>
<ellipse fill="none" stroke="black" cx="1151" cy="-288" rx="66.4165" ry="18"/>
<text text-anchor="middle" x="1151" y="-284.3" font-family="Times,serif" font-size="14.00">AbsoluteDatum</text>
</g>
<!-- AbsoluteDatumLevel&#45;&gt;AbsoluteDatum -->
<g id="edge40" class="edge"><title>AbsoluteDatumLevel&#45;&gt;AbsoluteDatum</title>
<path fill="none" stroke="#55e7c8" d="M1028.3,-374.008C1054.65,-355.754 1092.68,-329.402 1119.4,-310.89"/>
<ellipse fill="none" stroke="#55e7c8" cx="1024.86" cy="-376.392" rx="4.00002" ry="4.00002"/>
<polygon fill="#55e7c8" stroke="#55e7c8" points="1119.43,-310.87 1130.22,-308.874 1123.54,-308.022 1127.65,-305.175 1127.65,-305.175 1127.65,-305.175 1123.54,-308.022 1125.09,-301.476 1119.43,-310.87 1119.43,-310.87"/>
</g>
<!-- AbsoluteDatumLevel&#45;&gt;Espinita::Audit -->
<g id="edge39" class="edge"><title>AbsoluteDatumLevel&#45;&gt;Espinita::Audit</title>
<path fill="none" stroke="#68863e" d="M909.717,-388.192C796.289,-377.63 608.129,-353.381 559,-306 499.852,-248.957 534.476,-162.62 609,-128 678.579,-95.6774 1823.44,-93.0896 2128.7,-92.976"/>
<ellipse fill="none" stroke="#68863e" cx="913.768" cy="-388.564" rx="4" ry="4"/>
<polygon fill="#68863e" stroke="#68863e" points="2128.77,-92.9761 2138.77,-97.4731 2133.77,-92.9746 2138.77,-92.9731 2138.77,-92.9731 2138.77,-92.9731 2133.77,-92.9746 2138.77,-88.4731 2128.77,-92.9761 2128.77,-92.9761"/>
<text text-anchor="middle" x="548.5" y="-230.3" font-family="Times,serif" font-size="14.00">audits</text>
</g>
<!-- PdsiResult -->
<g id="node23" class="node"><title>PdsiResult</title>
<ellipse fill="none" stroke="black" cx="685" cy="-180" rx="48.1437" ry="18"/>
<text text-anchor="middle" x="685" y="-176.3" font-family="Times,serif" font-size="14.00">PdsiResult</text>
</g>
<!-- PdsiResult&#45;&gt;Espinita::Audit -->
<g id="edge41" class="edge"><title>PdsiResult&#45;&gt;Espinita::Audit</title>
<path fill="none" stroke="#58e59c" d="M692.77,-154.606C697.293,-144.562 704.106,-133.912 714,-128 775.182,-91.4391 1835.73,-91.8946 2128.61,-92.7235"/>
<ellipse fill="none" stroke="#58e59c" cx="691.245" cy="-158.373" rx="4.00001" ry="4.00001"/>
<polygon fill="#58e59c" stroke="#58e59c" points="2128.7,-92.7237 2138.69,-97.2531 2133.7,-92.7384 2138.7,-92.7531 2138.7,-92.7531 2138.7,-92.7531 2133.7,-92.7384 2138.72,-88.2531 2128.7,-92.7237 2128.7,-92.7237"/>
<text text-anchor="middle" x="730.5" y="-132.3" font-family="Times,serif" font-size="14.00">audits</text>
</g>
<!-- Result&#45;&gt;PdsiResult -->
<g id="edge45" class="edge"><title>Result&#45;&gt;PdsiResult</title>
<path fill="none" stroke="#0fee4b" d="M618.853,-264.472C632.497,-247.253 651.292,-223.536 665.361,-205.783"/>
<ellipse fill="none" stroke="#0fee4b" cx="616.242" cy="-267.766" rx="4.00002" ry="4.00002"/>
<polygon fill="#0fee4b" stroke="#0fee4b" points="665.634,-205.438 675.372,-200.396 668.739,-201.519 671.845,-197.601 671.845,-197.601 671.845,-197.601 668.739,-201.519 668.318,-194.806 665.634,-205.438 665.634,-205.438"/>
</g>
<!-- Result&#45;&gt;Result -->
<g id="edge43" class="edge"><title>Result&#45;&gt;Result</title>
<path fill="none" stroke="#1b21d6" d="M636.894,-297.954C645.565,-297.191 652,-293.873 652,-288 652,-282.601 646.563,-279.362 638.95,-278.281"/>
<ellipse fill="none" stroke="#1b21d6" cx="632.803" cy="-297.961" rx="4" ry="4"/>
<polygon fill="#1b21d6" stroke="#1b21d6" points="638.8,-278.277 628.913,-273.535 633.802,-278.155 628.803,-278.033 628.803,-278.033 628.803,-278.033 633.802,-278.155 628.694,-282.532 638.8,-278.277 638.8,-278.277"/>
<text text-anchor="middle" x="674.5" y="-284.3" font-family="Times,serif" font-size="14.00">children</text>
</g>
<!-- SpecificResult -->
<g id="node50" class="node"><title>SpecificResult</title>
<ellipse fill="none" stroke="black" cx="1869" cy="-180" rx="61.6163" ry="18"/>
<text text-anchor="middle" x="1869" y="-176.3" font-family="Times,serif" font-size="14.00">SpecificResult</text>
</g>
<!-- Result&#45;&gt;SpecificResult -->
<g id="edge44" class="edge"><title>Result&#45;&gt;SpecificResult</title>
<path fill="none" stroke="#ebb019" d="M640.962,-282.431C677.597,-278.437 733.374,-272.844 782,-270 825.049,-267.482 1519.48,-271.394 1558,-252 1576.1,-242.884 1568.19,-225.687 1586,-216 1626.56,-193.934 1747.37,-205.055 1793,-198 1799.64,-196.973 1806.57,-195.703 1813.43,-194.325"/>
<ellipse fill="none" stroke="#ebb019" cx="636.966" cy="-282.871" rx="4.00001" ry="4.00001"/>
<polygon fill="#ebb019" stroke="#ebb019" points="1813.58,-194.292 1824.29,-196.646 1818.48,-193.267 1823.37,-192.242 1823.37,-192.242 1823.37,-192.242 1818.48,-193.267 1822.45,-187.837 1813.58,-194.292 1813.58,-194.292"/>
</g>
<!-- Result&#45;&gt;Espinita::Audit -->
<g id="edge42" class="edge"><title>Result&#45;&gt;Espinita::Audit</title>
<path fill="none" stroke="#af8cc8" d="M591.485,-262.309C582.741,-235.093 574.019,-191.293 595,-162 622.334,-123.836 648.778,-136.195 695,-128 836.522,-102.909 1844.33,-95.1127 2128.55,-93.4008"/>
<ellipse fill="none" stroke="#af8cc8" cx="592.878" cy="-266.402" rx="4.00001" ry="4.00001"/>
<polygon fill="#af8cc8" stroke="#af8cc8" points="2128.75,-93.3997 2138.78,-97.84 2133.75,-93.3699 2138.75,-93.3401 2138.75,-93.3401 2138.75,-93.3401 2133.75,-93.3699 2138.72,-88.8402 2128.75,-93.3997 2128.75,-93.3997"/>
<text text-anchor="middle" x="611.5" y="-176.3" font-family="Times,serif" font-size="14.00">audits</text>
</g>
<!-- User&#45;&gt;Profile -->
<g id="edge47" class="edge"><title>User&#45;&gt;Profile</title>
<path fill="none" stroke="#24f94c" d="M405.814,-468.37C328.503,-466.204 147.474,-456.593 107,-414 95.6088,-402.012 93.9121,-383.256 94.9022,-368.031"/>
<ellipse fill="none" stroke="#24f94c" cx="409.842" cy="-468.475" rx="4" ry="4"/>
<ellipse fill="#24f94c" stroke="#24f94c" cx="95.2964" cy="-363.983" rx="4" ry="4"/>
</g>
<!-- Pdsi -->
<g id="node32" class="node"><title>Pdsi</title>
<ellipse fill="none" stroke="black" cx="2273" cy="-396" rx="27" ry="18"/>
<text text-anchor="middle" x="2273" y="-392.3" font-family="Times,serif" font-size="14.00">Pdsi</text>
</g>
<!-- User&#45;&gt;Pdsi -->
<g id="edge50" class="edge"><title>User&#45;&gt;Pdsi</title>
<path fill="none" stroke="#765740" d="M476.526,-467.604C708.63,-458.482 2006.61,-407.469 2237.78,-398.384"/>
<ellipse fill="none" stroke="#765740" cx="472.316" cy="-467.769" rx="4" ry="4"/>
<ellipse fill="#765740" stroke="#765740" cx="2241.86" cy="-398.224" rx="4" ry="4"/>
</g>
<!-- Cost -->
<g id="node34" class="node"><title>Cost</title>
<ellipse fill="none" stroke="black" cx="386" cy="-396" rx="27" ry="18"/>
<text text-anchor="middle" x="386" y="-392.3" font-family="Times,serif" font-size="14.00">Cost</text>
</g>
<!-- User&#45;&gt;Cost -->
<g id="edge48" class="edge"><title>User&#45;&gt;Cost</title>
<path fill="none" stroke="#cae5c3" d="M423.253,-445.768C417.026,-437.616 410.033,-428.461 403.801,-420.303"/>
<polygon fill="#cae5c3" stroke="#cae5c3" points="423.265,-445.784 425.76,-456.462 426.301,-449.757 429.336,-453.731 429.336,-453.731 429.336,-453.731 426.301,-449.757 432.912,-450.999 423.265,-445.784 423.265,-445.784"/>
<polygon fill="#cae5c3" stroke="#cae5c3" points="403.718,-420.194 401.223,-409.516 400.682,-416.221 397.647,-412.247 397.647,-412.247 397.647,-412.247 400.682,-416.221 394.071,-414.979 403.718,-420.194 403.718,-420.194"/>
</g>
<!-- CostUser -->
<g id="node41" class="node"><title>CostUser</title>
<ellipse fill="none" stroke="black" cx="361" cy="-288" rx="43.319" ry="18"/>
<text text-anchor="middle" x="361" y="-284.3" font-family="Times,serif" font-size="14.00">CostUser</text>
</g>
<!-- User&#45;&gt;CostUser -->
<g id="edge49" class="edge"><title>User&#45;&gt;CostUser</title>
<path fill="none" stroke="#eb0f79" d="M408.947,-458.919C388.103,-450.505 362.545,-436.241 350,-414 332.822,-383.546 341.507,-342.146 350.377,-315.495"/>
<ellipse fill="none" stroke="#eb0f79" cx="412.93" cy="-460.437" rx="4.00001" ry="4.00001"/>
<polygon fill="#eb0f79" stroke="#eb0f79" points="350.383,-315.479 357.973,-307.564 352.058,-310.768 353.733,-306.057 353.733,-306.057 353.733,-306.057 352.058,-310.768 349.492,-304.549 350.383,-315.479 350.383,-315.479"/>
</g>
<!-- User&#45;&gt;Espinita::Audit -->
<g id="edge46" class="edge"><title>User&#45;&gt;Espinita::Audit</title>
<path fill="none" stroke="#2b8c30" d="M441,-443.749C441,-429.938 441,-412.527 441,-397 441,-397 441,-397 441,-179 441,-148.176 459.896,-140.662 488,-128 563.692,-93.8983 1809.04,-92.6504 2128.69,-92.895"/>
<ellipse fill="none" stroke="#2b8c30" cx="441" cy="-447.834" rx="4" ry="4"/>
<polygon fill="#2b8c30" stroke="#2b8c30" points="2128.78,-92.895 2138.77,-97.4035 2133.78,-92.8992 2138.78,-92.9035 2138.78,-92.9035 2138.78,-92.9035 2133.78,-92.8992 2138.78,-88.4035 2128.78,-92.895 2128.78,-92.895"/>
<text text-anchor="middle" x="457.5" y="-284.3" font-family="Times,serif" font-size="14.00">audits</text>
</g>
<!-- ResultLevel -->
<g id="node26" class="node"><title>ResultLevel</title>
<ellipse fill="none" stroke="black" cx="681" cy="-396" rx="52.9443" ry="18"/>
<text text-anchor="middle" x="681" y="-392.3" font-family="Times,serif" font-size="14.00">ResultLevel</text>
</g>
<!-- ResultLevel&#45;&gt;Result -->
<g id="edge52" class="edge"><title>ResultLevel&#45;&gt;Result</title>
<path fill="none" stroke="#a9bfb1" d="M663.601,-371.946C650.499,-354.587 632.582,-330.846 619.273,-313.211"/>
<ellipse fill="none" stroke="#a9bfb1" cx="666.09" cy="-375.245" rx="4.00002" ry="4.00002"/>
<polygon fill="#a9bfb1" stroke="#a9bfb1" points="619.174,-313.081 616.742,-302.388 616.162,-309.09 613.15,-305.099 613.15,-305.099 613.15,-305.099 616.162,-309.09 609.558,-307.81 619.174,-313.081 619.174,-313.081"/>
</g>
<!-- ResultLevel&#45;&gt;Espinita::Audit -->
<g id="edge51" class="edge"><title>ResultLevel&#45;&gt;Espinita::Audit</title>
<path fill="none" stroke="#61695f" d="M690.585,-370.525C714.9,-309.85 780.356,-155.409 827,-128 883.384,-94.8683 1849.72,-92.8073 2128.36,-92.905"/>
<ellipse fill="none" stroke="#61695f" cx="689.044" cy="-374.394" rx="4.00001" ry="4.00001"/>
<polygon fill="#61695f" stroke="#61695f" points="2128.77,-92.9051 2138.77,-97.4098 2133.77,-92.9075 2138.77,-92.9098 2138.77,-92.9098 2138.77,-92.9098 2133.77,-92.9075 2138.77,-88.4098 2128.77,-92.9051 2128.77,-92.9051"/>
<text text-anchor="middle" x="777.5" y="-230.3" font-family="Times,serif" font-size="14.00">audits</text>
</g>
<!-- AbsoluteDatum&#45;&gt;AbsoluteDataCasai -->
<g id="edge56" class="edge"><title>AbsoluteDatum&#45;&gt;AbsoluteDataCasai</title>
<path fill="none" stroke="#177163" d="M1106.61,-269.406C1096.18,-264.436 1085.38,-258.567 1076,-252 1057.47,-239.019 1058.15,-229.507 1040,-216 1032.9,-210.719 1024.91,-205.742 1017.01,-201.288"/>
<ellipse fill="none" stroke="#177163" cx="1110.49" cy="-271.19" rx="4.00002" ry="4.00002"/>
<polygon fill="#177163" stroke="#177163" points="1016.98,-201.271 1010.35,-192.54 1012.59,-198.882 1008.2,-196.493 1008.2,-196.493 1008.2,-196.493 1012.59,-198.882 1006.05,-200.447 1016.98,-201.271 1016.98,-201.271"/>
</g>
<!-- AbsoluteDataDsei -->
<g id="node37" class="node"><title>AbsoluteDataDsei</title>
<ellipse fill="none" stroke="black" cx="1419" cy="-180" rx="75.0904" ry="18"/>
<text text-anchor="middle" x="1419" y="-176.3" font-family="Times,serif" font-size="14.00">AbsoluteDataDsei</text>
</g>
<!-- AbsoluteDatum&#45;&gt;AbsoluteDataDsei -->
<g id="edge54" class="edge"><title>AbsoluteDatum&#45;&gt;AbsoluteDataDsei</title>
<path fill="none" stroke="#45b74a" d="M1194.59,-269.759C1243.42,-250.445 1322.27,-219.26 1372.32,-199.463"/>
<ellipse fill="none" stroke="#45b74a" cx="1190.59" cy="-271.343" rx="4.00001" ry="4.00001"/>
<polygon fill="#45b74a" stroke="#45b74a" points="1372.32,-199.461 1383.28,-199.968 1376.97,-197.622 1381.62,-195.783 1381.62,-195.783 1381.62,-195.783 1376.97,-197.622 1379.97,-191.599 1372.32,-199.461 1372.32,-199.461"/>
</g>
<!-- AbsoluteDataBasePolo -->
<g id="node40" class="node"><title>AbsoluteDataBasePolo</title>
<ellipse fill="none" stroke="black" cx="1233" cy="-180" rx="91.9385" ry="18"/>
<text text-anchor="middle" x="1233" y="-176.3" font-family="Times,serif" font-size="14.00">AbsoluteDataBasePolo</text>
</g>
<!-- AbsoluteDatum&#45;&gt;AbsoluteDataBasePolo -->
<g id="edge55" class="edge"><title>AbsoluteDatum&#45;&gt;AbsoluteDataBasePolo</title>
<path fill="none" stroke="#86b17f" d="M1169.12,-263.577C1182.31,-246.521 1200.16,-223.454 1213.63,-206.035"/>
<ellipse fill="none" stroke="#86b17f" cx="1166.62" cy="-266.805" rx="4.00002" ry="4.00002"/>
<polygon fill="#86b17f" stroke="#86b17f" points="1213.74,-205.898 1223.42,-200.742 1216.8,-201.943 1219.86,-197.988 1219.86,-197.988 1219.86,-197.988 1216.8,-201.943 1216.3,-195.235 1213.74,-205.898 1213.74,-205.898"/>
</g>
<!-- SpecificAbsoluteDatum -->
<g id="node49" class="node"><title>SpecificAbsoluteDatum</title>
<ellipse fill="none" stroke="black" cx="2044" cy="-180" rx="95.3122" ry="18"/>
<text text-anchor="middle" x="2044" y="-176.3" font-family="Times,serif" font-size="14.00">SpecificAbsoluteDatum</text>
</g>
<!-- AbsoluteDatum&#45;&gt;SpecificAbsoluteDatum -->
<g id="edge57" class="edge"><title>AbsoluteDatum&#45;&gt;SpecificAbsoluteDatum</title>
<path fill="none" stroke="#4bd977" d="M1223.43,-282.762C1309.9,-277.335 1458.78,-266.829 1586,-252 1743.65,-233.624 1782.22,-222.683 1939,-198 1947.26,-196.7 1955.88,-195.327 1964.48,-193.949"/>
<ellipse fill="none" stroke="#4bd977" cx="1219.26" cy="-283.022" rx="4" ry="4"/>
<polygon fill="#4bd977" stroke="#4bd977" points="1964.67,-193.919 1975.26,-196.776 1969.61,-193.126 1974.54,-192.333 1974.54,-192.333 1974.54,-192.333 1969.61,-193.126 1973.83,-187.89 1964.67,-193.919 1964.67,-193.919"/>
</g>
<!-- AbsoluteDatum&#45;&gt;Espinita::Audit -->
<g id="edge53" class="edge"><title>AbsoluteDatum&#45;&gt;Espinita::Audit</title>
<path fill="none" stroke="#a94d04" d="M1128.22,-264.092C1104.11,-237.079 1072.88,-192.06 1099,-162 1132.82,-123.078 1887.06,-100.896 2129.01,-94.7626"/>
<ellipse fill="none" stroke="#a94d04" cx="1131.14" cy="-267.278" rx="4.00002" ry="4.00002"/>
<polygon fill="#a94d04" stroke="#a94d04" points="2129.12,-94.76 2139.23,-99.0068 2134.12,-94.6341 2139.12,-94.5083 2139.12,-94.5083 2139.12,-94.5083 2134.12,-94.6341 2139.01,-90.0097 2129.12,-94.76 2129.12,-94.76"/>
<text text-anchor="middle" x="1115.5" y="-176.3" font-family="Times,serif" font-size="14.00">audits</text>
</g>
<!-- Transportation -->
<g id="node28" class="node"><title>Transportation</title>
<ellipse fill="none" stroke="black" cx="2289" cy="-180" rx="62.0922" ry="18"/>
<text text-anchor="middle" x="2289" y="-176.3" font-family="Times,serif" font-size="14.00">Transportation</text>
</g>
<!-- Transportation&#45;&gt;Espinita::Audit -->
<g id="edge58" class="edge"><title>Transportation&#45;&gt;Espinita::Audit</title>
<path fill="none" stroke="#16dc5c" d="M2266.4,-156.397C2254.22,-144.219 2239.2,-129.199 2226.84,-116.836"/>
<ellipse fill="none" stroke="#16dc5c" cx="2269.59" cy="-159.59" rx="4.00002" ry="4.00002"/>
<polygon fill="#16dc5c" stroke="#16dc5c" points="2226.6,-116.602 2222.71,-106.349 2223.07,-113.066 2219.53,-109.531 2219.53,-109.531 2219.53,-109.531 2223.07,-113.066 2216.35,-112.713 2226.6,-116.602 2226.6,-116.602"/>
<text text-anchor="middle" x="2270.5" y="-132.3" font-family="Times,serif" font-size="14.00">audits</text>
</g>
<!-- InfrastructureBuilding&#45;&gt;Espinita::Audit -->
<g id="edge59" class="edge"><title>InfrastructureBuilding&#45;&gt;Espinita::Audit</title>
<path fill="none" stroke="#57810b" d="M3029.19,-274.049C2989.14,-266.466 2945.95,-257.355 2938,-252 2897.92,-225.007 2915.34,-191.418 2877,-162 2840.43,-133.933 2824.21,-137.038 2779,-128 2685.05,-109.217 2409.96,-98.9637 2276.84,-94.9791"/>
<ellipse fill="none" stroke="#57810b" cx="3033.22" cy="-274.805" rx="4.00001" ry="4.00001"/>
<polygon fill="#57810b" stroke="#57810b" points="2276.73,-94.9758 2266.86,-90.1823 2271.73,-94.8281 2266.73,-94.6804 2266.73,-94.6804 2266.73,-94.6804 2271.73,-94.8281 2266.6,-99.1784 2276.73,-94.9758 2276.73,-94.9758"/>
<text text-anchor="middle" x="2919.5" y="-176.3" font-family="Times,serif" font-size="14.00">audits</text>
</g>
<!-- Destination -->
<g id="node31" class="node"><title>Destination</title>
<ellipse fill="none" stroke="black" cx="2498" cy="-180" rx="51.0191" ry="18"/>
<text text-anchor="middle" x="2498" y="-176.3" font-family="Times,serif" font-size="14.00">Destination</text>
</g>
<!-- Destination&#45;&gt;Espinita::Audit -->
<g id="edge60" class="edge"><title>Destination&#45;&gt;Espinita::Audit</title>
<path fill="none" stroke="#147152" d="M2458.63,-162.84C2431.28,-152.013 2393.82,-137.968 2360,-128 2328.97,-118.853 2293.88,-110.817 2264.75,-104.76"/>
<ellipse fill="none" stroke="#147152" cx="2462.35" cy="-164.322" rx="4.00001" ry="4.00001"/>
<polygon fill="#147152" stroke="#147152" points="2264.51,-104.711 2255.61,-98.2935 2259.61,-103.706 2254.71,-102.702 2254.71,-102.702 2254.71,-102.702 2259.61,-103.706 2253.81,-107.11 2264.51,-104.711 2264.51,-104.711"/>
<text text-anchor="middle" x="2422.5" y="-132.3" font-family="Times,serif" font-size="14.00">audits</text>
</g>
<!-- Pdsi&#45;&gt;PhysiographicData -->
<g id="edge63" class="edge"><title>Pdsi&#45;&gt;PhysiographicData</title>
<path fill="none" stroke="#ba7235" d="M2308.01,-392.976C2386.85,-388.298 2584.27,-375.909 2749,-360 2949.94,-340.593 2999.77,-331.711 3200,-306 3216.06,-303.937 3233.28,-301.635 3249.63,-299.407"/>
<ellipse fill="none" stroke="#ba7235" cx="2303.87" cy="-393.221" rx="4" ry="4"/>
<polygon fill="#ba7235" stroke="#ba7235" points="3249.76,-299.388 3260.28,-302.491 3254.72,-298.71 3259.67,-298.032 3259.67,-298.032 3259.67,-298.032 3254.72,-298.71 3259.06,-293.574 3249.76,-299.388 3249.76,-299.388"/>
</g>
<!-- Pdsi&#45;&gt;PdsiBasePoloDatum -->
<g id="edge64" class="edge"><title>Pdsi&#45;&gt;PdsiBasePoloDatum</title>
<path fill="none" stroke="#99ac75" d="M2308.09,-393.776C2405.18,-390.243 2685.59,-379.046 2918,-360 3137.24,-342.034 3191.59,-332.263 3410,-306 3426.56,-304.008 3444.3,-301.764 3461.17,-299.574"/>
<ellipse fill="none" stroke="#99ac75" cx="2304.07" cy="-393.921" rx="4" ry="4"/>
<polygon fill="#99ac75" stroke="#99ac75" points="3461.64,-299.514 3472.14,-302.683 3466.6,-298.867 3471.55,-298.221 3471.55,-298.221 3471.55,-298.221 3466.6,-298.867 3470.97,-293.759 3461.64,-299.514 3461.64,-299.514"/>
</g>
<!-- Pdsi&#45;&gt;Capai -->
<g id="edge69" class="edge"><title>Pdsi&#45;&gt;Capai</title>
<path fill="none" stroke="#62bdc8" d="M2307.71,-390.416C2346.11,-384.927 2409.61,-374.609 2463,-360 2507.76,-347.753 2516.05,-335.529 2561,-324 2612.81,-310.71 2627.4,-315.7 2680,-306 2692.88,-303.624 2706.89,-300.685 2719.43,-297.922"/>
<ellipse fill="none" stroke="#62bdc8" cx="2303.4" cy="-391.021" rx="4.00001" ry="4.00001"/>
<polygon fill="#62bdc8" stroke="#62bdc8" points="2719.8,-297.839 2730.54,-300.051 2724.68,-296.749 2729.56,-295.659 2729.56,-295.659 2729.56,-295.659 2724.68,-296.749 2728.58,-291.268 2719.8,-297.839 2719.8,-297.839"/>
</g>
<!-- Pdsi&#45;&gt;InfrastructureSanitation -->
<g id="edge68" class="edge"><title>Pdsi&#45;&gt;InfrastructureSanitation</title>
<path fill="none" stroke="#6dddd7" d="M2308.04,-392.47C2357.28,-388.394 2449.48,-378.848 2526,-360 2571.87,-348.702 2579.95,-334.535 2626,-324 2700.93,-306.858 2721.83,-316.263 2798,-306 2806.33,-304.878 2815.02,-303.605 2823.66,-302.272"/>
<ellipse fill="none" stroke="#6dddd7" cx="2303.92" cy="-392.802" rx="4" ry="4"/>
<polygon fill="#6dddd7" stroke="#6dddd7" points="2823.89,-302.237 2834.47,-305.132 2828.83,-301.461 2833.77,-300.686 2833.77,-300.686 2833.77,-300.686 2828.83,-301.461 2833.07,-296.24 2823.89,-302.237 2823.89,-302.237"/>
</g>
<!-- Pdsi&#45;&gt;ServiceNetwork -->
<g id="edge66" class="edge"><title>Pdsi&#45;&gt;ServiceNetwork</title>
<path fill="none" stroke="#0a6ea7" d="M2307.94,-393.795C2390.21,-390.966 2602.56,-383.705 2780,-378 3039.99,-369.641 3105.51,-378.09 3365,-360 3586.21,-344.578 3641.17,-335.093 3861,-306 3874.98,-304.15 3889.93,-301.958 3904.15,-299.773"/>
<ellipse fill="none" stroke="#0a6ea7" cx="2303.93" cy="-393.933" rx="4" ry="4"/>
<polygon fill="#0a6ea7" stroke="#0a6ea7" points="3904.46,-299.725 3915.03,-302.636 3909.4,-298.957 3914.34,-298.189 3914.34,-298.189 3914.34,-298.189 3909.4,-298.957 3913.65,-293.742 3904.46,-299.725 3904.46,-299.725"/>
</g>
<!-- Pdsi&#45;&gt;PdsiHumanResource -->
<g id="edge74" class="edge"><title>Pdsi&#45;&gt;PdsiHumanResource</title>
<path fill="none" stroke="#89f649" d="M2237.72,-393.096C2103.69,-385.51 1631.42,-355.425 1588,-306 1562.62,-277.113 1589.85,-233.194 1612.18,-205.842"/>
<ellipse fill="none" stroke="#89f649" cx="2242.06" cy="-393.339" rx="4" ry="4"/>
<polygon fill="#89f649" stroke="#89f649" points="1612.42,-205.552 1622.32,-200.828 1615.65,-201.736 1618.88,-197.92 1618.88,-197.92 1618.88,-197.92 1615.65,-201.736 1615.45,-195.012 1612.42,-205.552 1612.42,-205.552"/>
</g>
<!-- Pdsi&#45;&gt;AbsoluteDataCasai -->
<g id="edge73" class="edge"><title>Pdsi&#45;&gt;AbsoluteDataCasai</title>
<path fill="none" stroke="#4ef5a9" d="M2237.48,-395.05C2119.76,-394.897 1731.77,-391.839 1413,-360 1261.63,-344.881 1206.47,-382.543 1075,-306 1034.69,-282.531 1004.25,-236.107 988.069,-206.915"/>
<ellipse fill="none" stroke="#4ef5a9" cx="2241.81" cy="-395.053" rx="4" ry="4"/>
<polygon fill="#4ef5a9" stroke="#4ef5a9" points="988.061,-206.899 987.284,-195.96 985.691,-202.496 983.321,-198.093 983.321,-198.093 983.321,-198.093 985.691,-202.496 979.359,-200.226 988.061,-206.899 988.061,-206.899"/>
</g>
<!-- Pdsi&#45;&gt;PdsiResult -->
<g id="edge75" class="edge"><title>Pdsi&#45;&gt;PdsiResult</title>
<path fill="none" stroke="#18dcdd" d="M2237.45,-394.667C2067.4,-392.96 1335.84,-384.313 1109,-360 1021.81,-350.655 1001.59,-337.885 915,-324 856.102,-314.556 833.871,-335.453 782,-306 741.868,-283.213 712.634,-236.497 697.278,-207.075"/>
<ellipse fill="none" stroke="#18dcdd" cx="2241.58" cy="-394.708" rx="4" ry="4"/>
<polygon fill="#18dcdd" stroke="#18dcdd" points="697.112,-206.747 696.624,-195.792 694.859,-202.283 692.607,-197.82 692.607,-197.82 692.607,-197.82 694.859,-202.283 688.589,-199.847 697.112,-206.747 697.112,-206.747"/>
</g>
<!-- Pdsi&#45;&gt;InfrastructureBuilding -->
<g id="edge67" class="edge"><title>Pdsi&#45;&gt;InfrastructureBuilding</title>
<path fill="none" stroke="#9305c8" d="M2307.68,-391.514C2412.79,-380.792 2736.95,-346.56 3004,-306 3011.68,-304.833 3019.69,-303.551 3027.68,-302.231"/>
<ellipse fill="none" stroke="#9305c8" cx="2303.61" cy="-391.928" rx="4" ry="4"/>
<polygon fill="#9305c8" stroke="#9305c8" points="3027.89,-302.195 3038.49,-304.981 3032.82,-301.369 3037.75,-300.543 3037.75,-300.543 3037.75,-300.543 3032.82,-301.369 3037.01,-296.105 3027.89,-302.195 3027.89,-302.195"/>
</g>
<!-- Pdsi&#45;&gt;CategoryBudget -->
<g id="edge77" class="edge"><title>Pdsi&#45;&gt;CategoryBudget</title>
<path fill="none" stroke="#7c9844" d="M2291.9,-374.129C2307.78,-356.597 2330.48,-331.534 2347.14,-313.141"/>
<ellipse fill="none" stroke="#7c9844" cx="2289.03" cy="-377.296" rx="4.00002" ry="4.00002"/>
<polygon fill="#7c9844" stroke="#7c9844" points="2347.16,-313.12 2357.2,-308.729 2350.51,-309.414 2353.87,-305.708 2353.87,-305.708 2353.87,-305.708 2350.51,-309.414 2350.53,-302.688 2347.16,-313.12 2347.16,-313.12"/>
</g>
<!-- Pdsi&#45;&gt;Destination -->
<g id="edge70" class="edge"><title>Pdsi&#45;&gt;Destination</title>
<path fill="none" stroke="#fbbd25" d="M2270.09,-369.331C2268.4,-341.909 2269.99,-298.546 2292,-270 2312.21,-243.788 2396.35,-213.162 2450.65,-195.529"/>
<ellipse fill="none" stroke="#fbbd25" cx="2270.42" cy="-373.646" rx="4" ry="4"/>
<polygon fill="#fbbd25" stroke="#fbbd25" points="2450.9,-195.45 2461.79,-196.677 2455.66,-193.921 2460.42,-192.392 2460.42,-192.392 2460.42,-192.392 2455.66,-193.921 2459.04,-188.108 2450.9,-195.45 2450.9,-195.45"/>
</g>
<!-- ProjectionBudget -->
<g id="node35" class="node"><title>ProjectionBudget</title>
<ellipse fill="none" stroke="black" cx="3781" cy="-180" rx="72.2155" ry="18"/>
<text text-anchor="middle" x="3781" y="-176.3" font-family="Times,serif" font-size="14.00">ProjectionBudget</text>
</g>
<!-- Pdsi&#45;&gt;ProjectionBudget -->
<g id="edge76" class="edge"><title>Pdsi&#45;&gt;ProjectionBudget</title>
<path fill="none" stroke="#a866bf" d="M2308.36,-393.939C2445.63,-389.751 2943.42,-373.924 3101,-360 3220.28,-349.46 3248.71,-334.353 3368,-324 3393.48,-321.789 3810.27,-324.434 3828,-306 3854.91,-278.013 3826.5,-233.15 3803.63,-205.467"/>
<ellipse fill="none" stroke="#a866bf" cx="2304.21" cy="-394.065" rx="4" ry="4"/>
<polygon fill="#a866bf" stroke="#a866bf" points="3803.58,-205.405 3800.5,-194.88 3800.33,-201.605 3797.08,-197.804 3797.08,-197.804 3797.08,-197.804 3800.33,-201.605 3793.66,-200.729 3803.58,-205.405 3803.58,-205.405"/>
</g>
<!-- Pdsi&#45;&gt;AbsoluteDataDsei -->
<g id="edge71" class="edge"><title>Pdsi&#45;&gt;AbsoluteDataDsei</title>
<path fill="none" stroke="#806e5c" d="M2237.42,-395.25C2097.72,-395.971 1591.34,-396.054 1530,-360 1500.12,-342.435 1453.62,-252.712 1431.5,-207.343"/>
<ellipse fill="none" stroke="#806e5c" cx="2241.71" cy="-395.226" rx="4" ry="4"/>
<polygon fill="#806e5c" stroke="#806e5c" points="1431.39,-207.122 1431.09,-196.16 1429.22,-202.62 1427.04,-198.118 1427.04,-198.118 1427.04,-198.118 1429.22,-202.62 1422.99,-200.076 1431.39,-207.122 1431.39,-207.122"/>
</g>
<!-- Pdsi&#45;&gt;Emsi -->
<g id="edge65" class="edge"><title>Pdsi&#45;&gt;Emsi</title>
<path fill="none" stroke="#9f763f" d="M2304.62,-384.576C2350.13,-369.812 2436.88,-342.545 2512,-324 2552.03,-314.119 2563.65,-318.309 2603,-306 2605.41,-305.248 2607.86,-304.394 2610.32,-303.479"/>
<ellipse fill="none" stroke="#9f763f" cx="2300.69" cy="-385.858" rx="4.00001" ry="4.00001"/>
<polygon fill="#9f763f" stroke="#9f763f" points="2610.35,-303.464 2621.31,-303.908 2614.99,-301.598 2619.63,-299.732 2619.63,-299.732 2619.63,-299.732 2614.99,-301.598 2617.95,-295.557 2610.35,-303.464 2610.35,-303.464"/>
</g>
<!-- DemographicData -->
<g id="node39" class="node"><title>DemographicData</title>
<ellipse fill="none" stroke="black" cx="2170" cy="-288" rx="75.0904" ry="18"/>
<text text-anchor="middle" x="2170" y="-284.3" font-family="Times,serif" font-size="14.00">DemographicData</text>
</g>
<!-- Pdsi&#45;&gt;DemographicData -->
<g id="edge62" class="edge"><title>Pdsi&#45;&gt;DemographicData</title>
<path fill="none" stroke="#09a1f5" d="M2252.97,-374.388C2235.48,-356.387 2210.13,-330.3 2192.06,-311.705"/>
<ellipse fill="none" stroke="#09a1f5" cx="2255.89" cy="-377.392" rx="4.00002" ry="4.00002"/>
<ellipse fill="#09a1f5" stroke="#09a1f5" cx="2189.02" cy="-308.577" rx="4.00002" ry="4.00002"/>
</g>
<!-- Pdsi&#45;&gt;AbsoluteDataBasePolo -->
<g id="edge72" class="edge"><title>Pdsi&#45;&gt;AbsoluteDataBasePolo</title>
<path fill="none" stroke="#a10a3f" d="M2237.98,-394.552C2095.81,-392.579 1565.97,-383.688 1495,-360 1396.62,-327.16 1301.23,-245.801 1257.65,-205.056"/>
<ellipse fill="none" stroke="#a10a3f" cx="2242.01" cy="-394.607" rx="4" ry="4"/>
<polygon fill="#a10a3f" stroke="#a10a3f" points="1257.39,-204.812 1253.22,-194.672 1253.76,-201.377 1250.12,-197.941 1250.12,-197.941 1250.12,-197.941 1253.76,-201.377 1247.03,-201.211 1257.39,-204.812 1257.39,-204.812"/>
</g>
<!-- Pdsi&#45;&gt;Espinita::Audit -->
<g id="edge61" class="edge"><title>Pdsi&#45;&gt;Espinita::Audit</title>
<path fill="none" stroke="#43b071" d="M2237.39,-394.702C2109.28,-393.411 1676.45,-387.069 1621,-360 1548.84,-324.775 1545.44,-278.178 1541,-198 1540.12,-182.024 1531.18,-174.629 1541,-162 1578.73,-113.504 1614.32,-137.628 1675,-128 1835.31,-102.567 2025.84,-95.5684 2128.52,-93.6732"/>
<ellipse fill="none" stroke="#43b071" cx="2241.73" cy="-394.745" rx="4" ry="4"/>
<polygon fill="#43b071" stroke="#43b071" points="2128.78,-93.6687 2138.86,-97.9947 2133.78,-93.582 2138.78,-93.4954 2138.78,-93.4954 2138.78,-93.4954 2133.78,-93.582 2138.7,-88.9961 2128.78,-93.6687 2128.78,-93.6687"/>
<text text-anchor="middle" x="1562.5" y="-230.3" font-family="Times,serif" font-size="14.00">audits</text>
</g>
<!-- Dsei -->
<g id="node33" class="node"><title>Dsei</title>
<ellipse fill="none" stroke="black" cx="1444" cy="-565" rx="27" ry="18"/>
<text text-anchor="middle" x="1444" y="-561.3" font-family="Times,serif" font-size="14.00">Dsei</text>
</g>
<!-- Dsei&#45;&gt;BasePolo -->
<g id="edge79" class="edge"><title>Dsei&#45;&gt;BasePolo</title>
<path fill="none" stroke="#73b98b" d="M1479.41,-562.528C1736.38,-551.845 3314.06,-486.255 3627.06,-473.243"/>
<ellipse fill="none" stroke="#73b98b" cx="1475.07" cy="-562.708" rx="4" ry="4"/>
<polygon fill="#73b98b" stroke="#73b98b" points="3627.24,-473.235 3637.41,-477.316 3632.23,-473.027 3637.23,-472.82 3637.23,-472.82 3637.23,-472.82 3632.23,-473.027 3637.04,-468.324 3627.24,-473.235 3627.24,-473.235"/>
</g>
<!-- Dsei&#45;&gt;User -->
<g id="edge81" class="edge"><title>Dsei&#45;&gt;User</title>
<path fill="none" stroke="#4242a9" d="M1408.97,-561.411C1309.47,-553.983 1016.7,-531.622 774,-508 666.185,-497.507 539.012,-482.7 477.699,-475.409"/>
<ellipse fill="none" stroke="#4242a9" cx="1413.18" cy="-561.724" rx="4" ry="4"/>
<polygon fill="#4242a9" stroke="#4242a9" points="477.666,-475.405 468.269,-469.753 472.701,-474.813 467.736,-474.221 467.736,-474.221 467.736,-474.221 472.701,-474.813 467.203,-478.69 477.666,-475.405 477.666,-475.405"/>
</g>
<!-- Dsei&#45;&gt;Pdsi -->
<g id="edge85" class="edge"><title>Dsei&#45;&gt;Pdsi</title>
<path fill="none" stroke="#83839f" d="M1477.83,-557.186C1612.06,-530.144 2106.38,-430.566 2239.69,-403.711"/>
<ellipse fill="none" stroke="#83839f" cx="1473.64" cy="-558.029" rx="4.00001" ry="4.00001"/>
<ellipse fill="#83839f" stroke="#83839f" cx="2243.66" cy="-402.911" rx="4.00001" ry="4.00001"/>
</g>
<!-- Dsei&#45;&gt;AbsoluteDataDsei -->
<g id="edge82" class="edge"><title>Dsei&#45;&gt;AbsoluteDataDsei</title>
<path fill="none" stroke="#565ccf" d="M1433.79,-539.894C1426.88,-521.393 1419,-495.03 1419,-471 1419,-471 1419,-471 1419,-287 1419,-260.237 1419,-229.673 1419,-208.263"/>
<ellipse fill="none" stroke="#565ccf" cx="1435.32" cy="-543.829" rx="4.00001" ry="4.00001"/>
<polygon fill="#565ccf" stroke="#565ccf" points="1419,-208.258 1423.5,-198.258 1419,-203.258 1419,-198.258 1419,-198.258 1419,-198.258 1419,-203.258 1414.5,-198.258 1419,-208.258 1419,-208.258"/>
</g>
<!-- Casai -->
<g id="node46" class="node"><title>Casai</title>
<ellipse fill="none" stroke="black" cx="822" cy="-288" rx="30.3206" ry="18"/>
<text text-anchor="middle" x="822" y="-284.3" font-family="Times,serif" font-size="14.00">Casai</text>
</g>
<!-- Dsei&#45;&gt;Casai -->
<g id="edge80" class="edge"><title>Dsei&#45;&gt;Casai</title>
<path fill="none" stroke="#60085b" d="M1408.8,-562.978C1289.77,-559.199 907.376,-544.312 867,-508 812.513,-458.998 813.917,-363.164 818.41,-316.223"/>
<ellipse fill="none" stroke="#60085b" cx="1412.91" cy="-563.106" rx="4" ry="4"/>
<polygon fill="#60085b" stroke="#60085b" points="818.42,-316.132 823.965,-306.672 818.956,-311.161 819.491,-306.189 819.491,-306.189 819.491,-306.189 818.956,-311.161 815.017,-305.707 818.42,-316.132 818.42,-316.132"/>
</g>
<!-- Dsei&#45;&gt;SpecificAbsoluteDatum -->
<g id="edge83" class="edge"><title>Dsei&#45;&gt;SpecificAbsoluteDatum</title>
<path fill="none" stroke="#30c3d1" d="M1469.87,-547.489C1565.75,-486.281 1900.98,-272.297 2009.68,-202.906"/>
<ellipse fill="none" stroke="#30c3d1" cx="1466.32" cy="-549.753" rx="4.00002" ry="4.00002"/>
<polygon fill="#30c3d1" stroke="#30c3d1" points="2009.87,-202.783 2020.73,-201.196 2014.09,-200.093 2018.3,-197.403 2018.3,-197.403 2018.3,-197.403 2014.09,-200.093 2015.88,-193.61 2009.87,-202.783 2009.87,-202.783"/>
</g>
<!-- Dsei&#45;&gt;SpecificResult -->
<g id="edge84" class="edge"><title>Dsei&#45;&gt;SpecificResult</title>
<path fill="none" stroke="#022222" d="M1441.74,-538.87C1438.81,-488.941 1440.31,-377.466 1505,-324 1556.82,-281.168 1751.05,-343.282 1807,-306 1844.05,-281.31 1831.04,-255.8 1851,-216 1852.47,-213.068 1854.02,-210.005 1855.57,-206.964"/>
<ellipse fill="none" stroke="#022222" cx="1442.02" cy="-542.904" rx="4" ry="4"/>
<polygon fill="#022222" stroke="#022222" points="1855.58,-206.953 1864.15,-200.108 1857.86,-202.504 1860.14,-198.055 1860.14,-198.055 1860.14,-198.055 1857.86,-202.504 1856.14,-196.001 1855.58,-206.953 1855.58,-206.953"/>
</g>
<!-- Dsei&#45;&gt;Espinita::Audit -->
<g id="edge78" class="edge"><title>Dsei&#45;&gt;Espinita::Audit</title>
<path fill="none" stroke="#709680" d="M1409.22,-561.952C1286.49,-554.268 881,-524.808 881,-471 881,-471 881,-471 881,-341 881,-261.4 837.673,-224.474 887,-162 922.412,-117.15 954.484,-136.454 1011,-128 1228.03,-95.535 1903.02,-92.8372 2128.67,-92.8691"/>
<ellipse fill="none" stroke="#709680" cx="1413.23" cy="-562.2" rx="4" ry="4"/>
<polygon fill="#709680" stroke="#709680" points="2128.76,-92.8691 2138.76,-97.3724 2133.76,-92.8707 2138.76,-92.8724 2138.76,-92.8724 2138.76,-92.8724 2133.76,-92.8707 2138.76,-88.3724 2128.76,-92.8691 2128.76,-92.8691"/>
<text text-anchor="middle" x="897.5" y="-338.3" font-family="Times,serif" font-size="14.00">audits</text>
</g>
<!-- Cost&#45;&gt;CostUser -->
<g id="edge87" class="edge"><title>Cost&#45;&gt;CostUser</title>
<path fill="none" stroke="#ed7817" d="M380.571,-370.057C377.556,-356.426 373.68,-339.258 370,-324 369.36,-321.347 368.678,-318.585 367.986,-315.827"/>
<ellipse fill="none" stroke="#ed7817" cx="381.468" cy="-374.132" rx="4.00001" ry="4.00001"/>
<polygon fill="#ed7817" stroke="#ed7817" points="367.967,-315.754 369.858,-304.953 366.732,-310.909 365.497,-306.064 365.497,-306.064 365.497,-306.064 366.732,-310.909 361.137,-307.176 367.967,-315.754 367.967,-315.754"/>
</g>
<!-- Cost&#45;&gt;Espinita::Audit -->
<g id="edge86" class="edge"><title>Cost&#45;&gt;Espinita::Audit</title>
<path fill="none" stroke="#6565a0" d="M362.06,-376.282C343.346,-360.011 318.76,-334.602 308,-306 276.572,-222.458 319.7,-164.841 401,-128 480.716,-91.8766 1797.75,-92.1618 2128.24,-92.8067"/>
<ellipse fill="none" stroke="#6565a0" cx="365.598" cy="-379.271" rx="4.00002" ry="4.00002"/>
<polygon fill="#6565a0" stroke="#6565a0" points="2128.66,-92.8074 2138.65,-97.3278 2133.66,-92.8176 2138.66,-92.8278 2138.66,-92.8278 2138.66,-92.8278 2133.66,-92.8176 2138.66,-88.3278 2128.66,-92.8074 2128.66,-92.8074"/>
<text text-anchor="middle" x="321.5" y="-230.3" font-family="Times,serif" font-size="14.00">audits</text>
</g>
<!-- ProjectionBudget&#45;&gt;ProjectionBudgetYear -->
<g id="edge89" class="edge"><title>ProjectionBudget&#45;&gt;ProjectionBudgetYear</title>
<path fill="none" stroke="#6af4a4" d="M3842.68,-166.255C3850.84,-164.73 3859.11,-163.268 3867,-162 3899.06,-156.848 3987.44,-165.243 4012,-144 4018.89,-138.042 4022.54,-129.044 4024.43,-120.258"/>
<ellipse fill="none" stroke="#6af4a4" cx="3838.5" cy="-167.049" rx="4.00001" ry="4.00001"/>
<polygon fill="#6af4a4" stroke="#6af4a4" points="4024.45,-120.124 4030.38,-110.899 4025.19,-115.179 4025.93,-110.234 4025.93,-110.234 4025.93,-110.234 4025.19,-115.179 4021.48,-109.569 4024.45,-120.124 4024.45,-120.124"/>
</g>
<!-- ProjectionBudget&#45;&gt;Espinita::Audit -->
<g id="edge88" class="edge"><title>ProjectionBudget&#45;&gt;Espinita::Audit</title>
<path fill="none" stroke="#cc9e16" d="M3747.71,-159.003C3726.77,-147.567 3698.74,-134.283 3672,-128 3536,-96.0531 2557.26,-93.1521 2277.5,-92.9803"/>
<ellipse fill="none" stroke="#cc9e16" cx="3751.31" cy="-161.009" rx="4.00002" ry="4.00002"/>
<polygon fill="#cc9e16" stroke="#cc9e16" points="2277.45,-92.9804 2267.46,-88.4751 2272.45,-92.9777 2267.45,-92.9751 2267.45,-92.9751 2267.45,-92.9751 2272.45,-92.9777 2267.45,-97.4751 2277.45,-92.9804 2277.45,-92.9804"/>
<text text-anchor="middle" x="3731.5" y="-132.3" font-family="Times,serif" font-size="14.00">audits</text>
</g>
<!-- HealthSpecialized&#45;&gt;Espinita::Audit -->
<g id="edge90" class="edge"><title>HealthSpecialized&#45;&gt;Espinita::Audit</title>
<path fill="none" stroke="#688dab" d="M4144.61,-164.156C4095.26,-151.913 4021.43,-135.399 3956,-128 3623.42,-90.3931 2568.68,-91.5692 2277.88,-92.6484"/>
<ellipse fill="none" stroke="#688dab" cx="4148.74" cy="-165.188" rx="4.00001" ry="4.00001"/>
<polygon fill="#688dab" stroke="#688dab" points="2277.45,-92.6499 2267.43,-88.1883 2272.45,-92.6691 2267.45,-92.6883 2267.45,-92.6883 2267.45,-92.6883 2272.45,-92.6691 2267.47,-97.1882 2277.45,-92.6499 2277.45,-92.6499"/>
<text text-anchor="middle" x="4066.5" y="-132.3" font-family="Times,serif" font-size="14.00">audits</text>
</g>
<!-- AbsoluteDataDsei&#45;&gt;Espinita::Audit -->
<g id="edge91" class="edge"><title>AbsoluteDataDsei&#45;&gt;Espinita::Audit</title>
<path fill="none" stroke="#11fa2f" d="M1437.4,-156.111C1447.31,-145.544 1460.48,-134.025 1475,-128 1534.19,-103.435 1955.61,-95.8309 2128.89,-93.727"/>
<ellipse fill="none" stroke="#11fa2f" cx="1434.62" cy="-159.199" rx="4.00002" ry="4.00002"/>
<polygon fill="#11fa2f" stroke="#11fa2f" points="2128.94,-93.7264 2138.99,-98.1074 2133.94,-93.6671 2138.94,-93.6077 2138.94,-93.6077 2138.94,-93.6077 2133.94,-93.6671 2138.89,-89.108 2128.94,-93.7264 2128.94,-93.7264"/>
<text text-anchor="middle" x="1491.5" y="-132.3" font-family="Times,serif" font-size="14.00">audits</text>
</g>
<!-- Emsi&#45;&gt;Espinita::Audit -->
<g id="edge92" class="edge"><title>Emsi&#45;&gt;Espinita::Audit</title>
<path fill="none" stroke="#4f436d" d="M2640.41,-261.931C2637.42,-234.377 2628.81,-190.277 2604,-162 2562.07,-114.207 2380.84,-99.5104 2276.95,-94.9964"/>
<ellipse fill="none" stroke="#4f436d" cx="2640.79" cy="-265.933" rx="4" ry="4"/>
<polygon fill="#4f436d" stroke="#4f436d" points="2276.82,-94.9915 2267.02,-90.0824 2271.83,-94.785 2266.83,-94.5785 2266.83,-94.5785 2266.83,-94.5785 2271.83,-94.785 2266.65,-99.0747 2276.82,-94.9915 2276.82,-94.9915"/>
<text text-anchor="middle" x="2640.5" y="-176.3" font-family="Times,serif" font-size="14.00">audits</text>
</g>
<!-- DemographicData&#45;&gt;Etnia -->
<g id="edge94" class="edge"><title>DemographicData&#45;&gt;Etnia</title>
<path fill="none" stroke="#12784d" d="M2205.37,-266.928C2212.45,-262.356 2219.65,-257.278 2226,-252 2242.69,-238.122 2239.98,-226.456 2259,-216 2298.96,-194.036 2316.36,-211.201 2360,-198 2362.41,-197.27 2364.87,-196.433 2367.33,-195.53"/>
<ellipse fill="none" stroke="#12784d" cx="2201.75" cy="-269.195" rx="4.00002" ry="4.00002"/>
<polygon fill="#12784d" stroke="#12784d" points="2367.37,-195.516 2378.32,-195.987 2372.01,-193.662 2376.65,-191.808 2376.65,-191.808 2376.65,-191.808 2372.01,-193.662 2374.98,-187.629 2367.37,-195.516 2367.37,-195.516"/>
</g>
<!-- DemographicData&#45;&gt;Transportation -->
<g id="edge95" class="edge"><title>DemographicData&#45;&gt;Transportation</title>
<path fill="none" stroke="#27a1c7" d="M2186.07,-263.129C2196.79,-248.378 2211.83,-229.713 2228,-216 2234.56,-210.437 2242.13,-205.286 2249.65,-200.741"/>
<ellipse fill="none" stroke="#27a1c7" cx="2183.49" cy="-266.757" rx="4.00002" ry="4.00002"/>
<polygon fill="#27a1c7" stroke="#27a1c7" points="2249.74,-200.691 2260.65,-199.594 2254.07,-198.193 2258.4,-195.696 2258.4,-195.696 2258.4,-195.696 2254.07,-198.193 2256.15,-191.797 2249.74,-200.691 2249.74,-200.691"/>
</g>
<!-- DemographicData&#45;&gt;Espinita::Audit -->
<g id="edge93" class="edge"><title>DemographicData&#45;&gt;Espinita::Audit</title>
<path fill="none" stroke="#66b5ec" d="M2172,-261.908C2174.26,-236.559 2178.49,-196.343 2185,-162 2187.65,-148.031 2191.54,-132.709 2195.03,-120.059"/>
<ellipse fill="none" stroke="#66b5ec" cx="2171.66" cy="-265.919" rx="4" ry="4"/>
<polygon fill="#66b5ec" stroke="#66b5ec" points="2195.11,-119.773 2202.16,-111.374 2196.47,-114.962 2197.83,-110.15 2197.83,-110.15 2197.83,-110.15 2196.47,-114.962 2193.5,-108.926 2195.11,-119.773 2195.11,-119.773"/>
<text text-anchor="middle" x="2201.5" y="-176.3" font-family="Times,serif" font-size="14.00">audits</text>
</g>
<!-- AbsoluteDataBasePolo&#45;&gt;Espinita::Audit -->
<g id="edge96" class="edge"><title>AbsoluteDataBasePolo&#45;&gt;Espinita::Audit</title>
<path fill="none" stroke="#1f90f8" d="M1283.44,-161.409C1319.36,-149.717 1369.05,-135.23 1414,-128 1550.23,-106.087 1959.93,-96.9962 2128.9,-94.1106"/>
<ellipse fill="none" stroke="#1f90f8" cx="1279.33" cy="-162.76" rx="4.00001" ry="4.00001"/>
<polygon fill="#1f90f8" stroke="#1f90f8" points="2128.95,-94.1099 2139.02,-98.4408 2133.95,-94.0257 2138.95,-93.9415 2138.95,-93.9415 2138.95,-93.9415 2133.95,-94.0257 2138.87,-89.4421 2128.95,-94.1099 2128.95,-94.1099"/>
<text text-anchor="middle" x="1430.5" y="-132.3" font-family="Times,serif" font-size="14.00">audits</text>
</g>
<!-- CostUser&#45;&gt;Espinita::Audit -->
<g id="edge97" class="edge"><title>CostUser&#45;&gt;Espinita::Audit</title>
<path fill="none" stroke="#24a1e0" d="M361.753,-261.595C364.524,-222.532 376.543,-149.931 427,-128 506.042,-93.6447 1801.59,-92.6017 2128.53,-92.8888"/>
<ellipse fill="none" stroke="#24a1e0" cx="361.504" cy="-265.853" rx="4" ry="4"/>
<polygon fill="#24a1e0" stroke="#24a1e0" points="2128.84,-92.889 2138.83,-97.3985 2133.84,-92.8937 2138.84,-92.8985 2138.84,-92.8985 2138.84,-92.8985 2133.84,-92.8937 2138.84,-88.3985 2128.84,-92.889 2128.84,-92.889"/>
<text text-anchor="middle" x="406.5" y="-176.3" font-family="Times,serif" font-size="14.00">audits</text>
</g>
<!-- TextTemplate -->
<g id="node42" class="node"><title>TextTemplate</title>
<ellipse fill="none" stroke="black" cx="3493" cy="-180" rx="60.1672" ry="18"/>
<text text-anchor="middle" x="3493" y="-176.3" font-family="Times,serif" font-size="14.00">TextTemplate</text>
</g>
<!-- TextTemplate&#45;&gt;Espinita::Audit -->
<g id="edge98" class="edge"><title>TextTemplate&#45;&gt;Espinita::Audit</title>
<path fill="none" stroke="#4f5015" d="M3440.64,-165.806C3434.7,-164.453 3428.73,-163.154 3423,-162 3329.45,-143.17 3305.98,-137.229 3211,-128 2862.96,-94.1814 2444.55,-91.8265 2277.33,-92.4267"/>
<ellipse fill="none" stroke="#4f5015" cx="3444.79" cy="-166.77" rx="4.00001" ry="4.00001"/>
<polygon fill="#4f5015" stroke="#4f5015" points="2277.16,-92.4272 2267.14,-87.968 2272.16,-92.4476 2267.16,-92.468 2267.16,-92.468 2267.16,-92.468 2272.16,-92.4476 2267.18,-96.9679 2277.16,-92.4272 2277.16,-92.4272"/>
<text text-anchor="middle" x="3347.5" y="-132.3" font-family="Times,serif" font-size="14.00">audits</text>
</g>
<!-- HumanResourceFunction -->
<g id="node43" class="node"><title>HumanResourceFunction</title>
<ellipse fill="none" stroke="black" cx="1698" cy="-288" rx="100.611" ry="18"/>
<text text-anchor="middle" x="1698" y="-284.3" font-family="Times,serif" font-size="14.00">HumanResourceFunction</text>
</g>
<!-- HumanResourceFunction&#45;&gt;PdsiHumanResource -->
<g id="edge100" class="edge"><title>HumanResourceFunction&#45;&gt;PdsiHumanResource</title>
<path fill="none" stroke="#73e012" d="M1683.77,-263.058C1673.83,-246.34 1660.58,-224.04 1650.4,-206.907"/>
<ellipse fill="none" stroke="#73e012" cx="1685.83" cy="-266.531" rx="4.00002" ry="4.00002"/>
<polygon fill="#73e012" stroke="#73e012" points="1650.21,-206.585 1648.97,-195.689 1647.65,-202.287 1645.1,-197.988 1645.1,-197.988 1645.1,-197.988 1647.65,-202.287 1641.23,-200.288 1650.21,-206.585 1650.21,-206.585"/>
</g>
<!-- HumanResourceFunction&#45;&gt;Espinita::Audit -->
<g id="edge99" class="edge"><title>HumanResourceFunction&#45;&gt;Espinita::Audit</title>
<path fill="none" stroke="#971125" d="M1704.29,-261.53C1712.88,-232.508 1731.2,-186.005 1765,-162 1822.38,-121.25 2021.25,-103.511 2130.21,-96.7001"/>
<ellipse fill="none" stroke="#971125" cx="1703.11" cy="-265.724" rx="4.00001" ry="4.00001"/>
<polygon fill="#971125" stroke="#971125" points="2130.48,-96.6834 2140.74,-100.566 2135.47,-96.3791 2140.47,-96.0747 2140.47,-96.0747 2140.47,-96.0747 2135.47,-96.3791 2140.19,-91.583 2130.48,-96.6834 2130.48,-96.6834"/>
<text text-anchor="middle" x="1781.5" y="-176.3" font-family="Times,serif" font-size="14.00">audits</text>
</g>
<!-- DestinationType -->
<g id="node44" class="node"><title>DestinationType</title>
<ellipse fill="none" stroke="black" cx="2525" cy="-288" rx="69.3156" ry="18"/>
<text text-anchor="middle" x="2525" y="-284.3" font-family="Times,serif" font-size="14.00">DestinationType</text>
</g>
<!-- DestinationType&#45;&gt;Destination -->
<g id="edge102" class="edge"><title>DestinationType&#45;&gt;Destination</title>
<path fill="none" stroke="#4ab4bd" d="M2518.63,-262.008C2514.51,-245.823 2509.14,-224.748 2504.92,-208.152"/>
<ellipse fill="none" stroke="#4ab4bd" cx="2519.67" cy="-266.093" rx="4.00001" ry="4.00001"/>
<polygon fill="#4ab4bd" stroke="#4ab4bd" points="2504.8,-207.679 2506.69,-196.878 2503.56,-202.834 2502.33,-197.988 2502.33,-197.988 2502.33,-197.988 2503.56,-202.834 2497.97,-199.099 2504.8,-207.679 2504.8,-207.679"/>
</g>
<!-- DestinationType&#45;&gt;Espinita::Audit -->
<g id="edge101" class="edge"><title>DestinationType&#45;&gt;Espinita::Audit</title>
<path fill="none" stroke="#dc2856" d="M2542.31,-263.102C2559.54,-236.11 2580.44,-192.04 2558,-162 2525.01,-117.839 2370.24,-101.796 2276.29,-96.0749"/>
<ellipse fill="none" stroke="#dc2856" cx="2540.01" cy="-266.571" rx="4.00002" ry="4.00002"/>
<polygon fill="#dc2856" stroke="#dc2856" points="2276.25,-96.0729 2266.53,-90.9975 2271.26,-95.7814 2266.27,-95.4898 2266.27,-95.4898 2266.27,-95.4898 2271.26,-95.7814 2266,-99.9822 2276.25,-96.0729 2276.25,-96.0729"/>
<text text-anchor="middle" x="2583.5" y="-176.3" font-family="Times,serif" font-size="14.00">audits</text>
</g>
<!-- InfrastructureBuildingType -->
<g id="node45" class="node"><title>InfrastructureBuildingType</title>
<ellipse fill="none" stroke="black" cx="2896" cy="-396" rx="107.361" ry="18"/>
<text text-anchor="middle" x="2896" y="-392.3" font-family="Times,serif" font-size="14.00">InfrastructureBuildingType</text>
</g>
<!-- InfrastructureBuildingType&#45;&gt;InfrastructureBuilding -->
<g id="edge104" class="edge"><title>InfrastructureBuildingType&#45;&gt;InfrastructureBuilding</title>
<path fill="none" stroke="#e9a008" d="M2935.34,-374.759C2971.69,-356.055 3025.44,-328.395 3062,-309.583"/>
<ellipse fill="none" stroke="#e9a008" cx="2931.29" cy="-376.84" rx="4.00002" ry="4.00002"/>
<polygon fill="#e9a008" stroke="#e9a008" points="3062.01,-309.577 3072.96,-309.003 3066.46,-307.289 3070.9,-305.002 3070.9,-305.002 3070.9,-305.002 3066.46,-307.289 3068.84,-301 3062.01,-309.577 3062.01,-309.577"/>
</g>
<!-- InfrastructureBuildingType&#45;&gt;Espinita::Audit -->
<g id="edge103" class="edge"><title>InfrastructureBuildingType&#45;&gt;Espinita::Audit</title>
<path fill="none" stroke="#a58db4" d="M2835.73,-377.304C2797.56,-363.376 2749.61,-340.475 2718,-306 2671.48,-255.264 2709.96,-210.378 2661,-162 2608.11,-109.744 2392.66,-96.979 2277.09,-93.9187"/>
<ellipse fill="none" stroke="#a58db4" cx="2839.95" cy="-378.802" rx="4.00001" ry="4.00001"/>
<polygon fill="#a58db4" stroke="#a58db4" points="2276.9,-93.9142 2267.02,-89.1687 2271.9,-93.7907 2266.91,-93.6673 2266.91,-93.6673 2266.91,-93.6673 2271.9,-93.7907 2266.79,-98.1659 2276.9,-93.9142 2276.9,-93.9142"/>
<text text-anchor="middle" x="2708.5" y="-230.3" font-family="Times,serif" font-size="14.00">audits</text>
</g>
<!-- Casai&#45;&gt;AbsoluteDataCasai -->
<g id="edge106" class="edge"><title>Casai&#45;&gt;AbsoluteDataCasai</title>
<path fill="none" stroke="#56fddc" d="M847.673,-269.214C873.92,-251.029 914.746,-222.745 943.064,-203.126"/>
<ellipse fill="none" stroke="#56fddc" cx="844.356" cy="-271.511" rx="4.00002" ry="4.00002"/>
<polygon fill="#56fddc" stroke="#56fddc" points="943.201,-203.031 953.983,-201.035 947.311,-200.184 951.421,-197.336 951.421,-197.336 951.421,-197.336 947.311,-200.184 948.858,-193.637 943.201,-203.031 943.201,-203.031"/>
</g>
<!-- Casai&#45;&gt;Espinita::Audit -->
<g id="edge105" class="edge"><title>Casai&#45;&gt;Espinita::Audit</title>
<path fill="none" stroke="#563315" d="M816.387,-262.198C811.719,-236.199 807.754,-194.666 821,-162 828.913,-142.485 834.713,-136.455 854,-128 912.622,-102.303 1854.46,-94.9723 2128.66,-93.3779"/>
<ellipse fill="none" stroke="#563315" cx="817.148" cy="-266.135" rx="4.00001" ry="4.00001"/>
<polygon fill="#563315" stroke="#563315" points="2128.9,-93.3766 2138.93,-97.8191 2133.9,-93.3479 2138.9,-93.3192 2138.9,-93.3192 2138.9,-93.3192 2133.9,-93.3479 2138.87,-88.8193 2128.9,-93.3766 2128.9,-93.3766"/>
<text text-anchor="middle" x="837.5" y="-176.3" font-family="Times,serif" font-size="14.00">audits</text>
</g>
<!-- PhysiographicDataLanguage&#45;&gt;Espinita::Audit -->
<g id="edge107" class="edge"><title>PhysiographicDataLanguage&#45;&gt;Espinita::Audit</title>
<path fill="none" stroke="#7df1ad" d="M3244.31,-161.54C3202.9,-149.824 3145.54,-135.255 3094,-128 2937.15,-105.92 2461.75,-96.7759 2277.28,-93.9951"/>
<ellipse fill="none" stroke="#7df1ad" cx="3248.27" cy="-162.669" rx="4.00001" ry="4.00001"/>
<polygon fill="#7df1ad" stroke="#7df1ad" points="2277.13,-93.993 2267.2,-89.3447 2272.14,-93.9186 2267.14,-93.8442 2267.14,-93.8442 2267.14,-93.8442 2272.14,-93.9186 2267.07,-98.3437 2277.13,-93.993 2277.13,-93.993"/>
<text text-anchor="middle" x="3190.5" y="-132.3" font-family="Times,serif" font-size="14.00">audits</text>
</g>
<!-- ProjectionBudgetItem&#45;&gt;ProjectionBudget -->
<g id="edge109" class="edge"><title>ProjectionBudgetItem&#45;&gt;ProjectionBudget</title>
<path fill="none" stroke="#6a07c8" d="M3741.77,-262.534C3749.72,-246.004 3760.22,-224.198 3768.35,-207.296"/>
<ellipse fill="none" stroke="#6a07c8" cx="3739.93" cy="-266.365" rx="4.00002" ry="4.00002"/>
<polygon fill="#6a07c8" stroke="#6a07c8" points="3768.49,-207 3776.88,-199.94 3770.66,-202.494 3772.83,-197.988 3772.83,-197.988 3772.83,-197.988 3770.66,-202.494 3768.77,-196.037 3768.49,-207 3768.49,-207"/>
</g>
<!-- ProjectionBudgetItem&#45;&gt;Espinita::Audit -->
<g id="edge108" class="edge"><title>ProjectionBudgetItem&#45;&gt;Espinita::Audit</title>
<path fill="none" stroke="#da12a8" d="M3713.69,-263.054C3692.96,-234.533 3654.49,-187.546 3610,-162 3554.1,-129.902 3532.9,-136.493 3469,-128 3236.52,-97.1022 2512.37,-93.3951 2277.42,-93.0177"/>
<ellipse fill="none" stroke="#da12a8" cx="3716.24" cy="-266.629" rx="4.00002" ry="4.00002"/>
<polygon fill="#da12a8" stroke="#da12a8" points="2277.27,-93.0176 2267.27,-88.503 2272.27,-93.0103 2267.27,-93.003 2267.27,-93.003 2267.27,-93.003 2272.27,-93.0103 2267.26,-97.503 2277.27,-93.0176 2277.27,-93.0176"/>
<text text-anchor="middle" x="3671.5" y="-176.3" font-family="Times,serif" font-size="14.00">audits</text>
</g>
<!-- SpecificAbsoluteDatum&#45;&gt;Espinita::Audit -->
<g id="edge110" class="edge"><title>SpecificAbsoluteDatum&#45;&gt;Espinita::Audit</title>
<path fill="none" stroke="#48fde8" d="M2076.93,-158.206C2092.51,-148.639 2111.5,-137.361 2129,-128 2139.27,-122.505 2150.56,-116.94 2161.15,-111.913"/>
<ellipse fill="none" stroke="#48fde8" cx="2073.44" cy="-160.367" rx="4.00002" ry="4.00002"/>
<polygon fill="#48fde8" stroke="#48fde8" points="2161.18,-111.897 2172.15,-111.724 2165.71,-109.774 2170.24,-107.65 2170.24,-107.65 2170.24,-107.65 2165.71,-109.774 2168.33,-103.576 2161.18,-111.897 2161.18,-111.897"/>
<text text-anchor="middle" x="2145.5" y="-132.3" font-family="Times,serif" font-size="14.00">audits</text>
</g>
<!-- SpecificResult&#45;&gt;Espinita::Audit -->
<g id="edge111" class="edge"><title>SpecificResult&#45;&gt;Espinita::Audit</title>
<path fill="none" stroke="#20eb54" d="M1921.8,-165.282C1961.46,-154.99 2017.13,-140.569 2066,-128 2092.64,-121.148 2122.21,-113.588 2147.04,-107.254"/>
<ellipse fill="none" stroke="#20eb54" cx="1917.46" cy="-166.409" rx="4.00001" ry="4.00001"/>
<polygon fill="#20eb54" stroke="#20eb54" points="2147.32,-107.182 2158.12,-109.07 2152.17,-105.946 2157.01,-104.71 2157.01,-104.71 2157.01,-104.71 2152.17,-105.946 2155.9,-100.349 2147.32,-107.182 2147.32,-107.182"/>
<text text-anchor="middle" x="2082.5" y="-132.3" font-family="Times,serif" font-size="14.00">audits</text>
</g>
</g>
</svg>
