<?xml version="1.0" encoding="UTF-8" standalone="no"?>
<!DOCTYPE svg PUBLIC "-//W3C//DTD SVG 1.1//EN"
 "http://www.w3.org/Graphics/SVG/1.1/DTD/svg11.dtd">
<!-- Generated by graphviz version 2.36.0 (20140111.2315)
 -->
<!-- Title: models_diagram Pages: 1 -->
<svg width="848pt" height="446pt"
 viewBox="0.00 0.00 848.00 446.00" xmlns="http://www.w3.org/2000/svg" xmlns:xlink="http://www.w3.org/1999/xlink">
<g id="graph0" class="graph" transform="scale(1 1) rotate(0) translate(4 442)">
<title>models_diagram</title>
<polygon fill="none" stroke="none" points="-4,4 -4,-442 844,-442 844,4 -4,4"/>
<!-- _diagram_info -->
<g id="node1" class="node"><title>_diagram_info</title>
<text text-anchor="start" x="242" y="-423.6" font-family="Times,serif" font-size="13.00">Models diagram</text>
<text text-anchor="start" x="242" y="-409.6" font-family="Times,serif" font-size="13.00">Date: Sep 16 2015 &#45; 13:35</text>
<text text-anchor="start" x="242" y="-395.6" font-family="Times,serif" font-size="13.00">Migration version: 20150915200748</text>
<text text-anchor="start" x="242" y="-381.6" font-family="Times,serif" font-size="13.00">Generated by RailRoady 1.3.1</text>
<text text-anchor="start" x="242" y="-367.6" font-family="Times,serif" font-size="13.00">http://railroady.prestonlee.com</text>
</g>
<!-- Village -->
<g id="node2" class="node"><title>Village</title>
<ellipse fill="none" stroke="black" cx="78" cy="-162" rx="36.096" ry="18"/>
<text text-anchor="middle" x="78" y="-158.3" font-family="Times,serif" font-size="14.00">Village</text>
</g>
<!-- PhysiographicData -->
<g id="node3" class="node"><title>PhysiographicData</title>
<ellipse fill="none" stroke="black" cx="181" cy="-90" rx="77.0154" ry="18"/>
<text text-anchor="middle" x="181" y="-86.3" font-family="Times,serif" font-size="14.00">PhysiographicData</text>
</g>
<!-- Village&#45;&gt;PhysiographicData -->
<g id="edge2" class="edge"><title>Village&#45;&gt;PhysiographicData</title>
<path fill="none" stroke="#a21ef1" d="M105.875,-142.056C119.59,-132.735 136.161,-121.473 150.245,-111.901"/>
<ellipse fill="none" stroke="#a21ef1" cx="102.152" cy="-144.586" rx="4.00002" ry="4.00002"/>
<ellipse fill="#a21ef1" stroke="#a21ef1" cx="153.628" cy="-109.602" rx="4.00002" ry="4.00002"/>
</g>
<!-- Ethnicity -->
<g id="node8" class="node"><title>Ethnicity</title>
<ellipse fill="none" stroke="black" cx="43" cy="-90" rx="42.3456" ry="18"/>
<text text-anchor="middle" x="43" y="-86.3" font-family="Times,serif" font-size="14.00">Ethnicity</text>
</g>
<!-- Village&#45;&gt;Ethnicity -->
<g id="edge1" class="edge"><title>Village&#45;&gt;Ethnicity</title>
<path fill="none" stroke="#f7830b" d="M65.1723,-135.345C62.1771,-129.354 58.9849,-122.97 55.983,-116.966"/>
<polygon fill="#f7830b" stroke="#f7830b" points="65.2333,-135.467 65.6806,-146.423 67.4694,-139.939 69.7055,-144.411 69.7055,-144.411 69.7055,-144.411 67.4694,-139.939 73.7304,-142.398 65.2333,-135.467 65.2333,-135.467"/>
<polygon fill="#f7830b" stroke="#f7830b" points="55.9503,-116.9 55.503,-105.944 53.7142,-112.428 51.4781,-107.956 51.4781,-107.956 51.4781,-107.956 53.7142,-112.428 47.4532,-109.969 55.9503,-116.9 55.9503,-116.9"/>
</g>
<!-- PhysiographicDataLanguage -->
<g id="node22" class="node"><title>PhysiographicDataLanguage</title>
<ellipse fill="none" stroke="black" cx="181" cy="-18" rx="112.16" ry="18"/>
<text text-anchor="middle" x="181" y="-14.3" font-family="Times,serif" font-size="14.00">PhysiographicDataLanguage</text>
</g>
<!-- PhysiographicData&#45;&gt;PhysiographicDataLanguage -->
<g id="edge3" class="edge"><title>PhysiographicData&#45;&gt;PhysiographicDataLanguage</title>
<path fill="none" stroke="#dc094c" d="M181,-63.6398C181,-58.0629 181,-52.1319 181,-46.4761"/>
<ellipse fill="none" stroke="#dc094c" cx="181" cy="-67.6966" rx="4" ry="4"/>
<polygon fill="#dc094c" stroke="#dc094c" points="181,-46.1043 185.5,-36.1043 181,-41.1043 181,-36.1043 181,-36.1043 181,-36.1043 181,-41.1043 176.5,-36.1044 181,-46.1043 181,-46.1043"/>
</g>
<!-- Etnia -->
<g id="node4" class="node"><title>Etnia</title>
<ellipse fill="none" stroke="black" cx="660" cy="-90" rx="29.3722" ry="18"/>
<text text-anchor="middle" x="660" y="-86.3" font-family="Times,serif" font-size="14.00">Etnia</text>
</g>
<!-- PdsiBasePoloDatum -->
<g id="node5" class="node"><title>PdsiBasePoloDatum</title>
<ellipse fill="none" stroke="black" cx="216" cy="-162" rx="83.2892" ry="18"/>
<text text-anchor="middle" x="216" y="-158.3" font-family="Times,serif" font-size="14.00">PdsiBasePoloDatum</text>
</g>
<!-- Profile -->
<g id="node6" class="node"><title>Profile</title>
<ellipse fill="none" stroke="black" cx="766" cy="-234" rx="34.1708" ry="18"/>
<text text-anchor="middle" x="766" y="-230.3" font-family="Times,serif" font-size="14.00">Profile</text>
</g>
<!-- ServiceNetwork -->
<g id="node7" class="node"><title>ServiceNetwork</title>
<ellipse fill="none" stroke="black" cx="499" cy="-162" rx="67.3907" ry="18"/>
<text text-anchor="middle" x="499" y="-158.3" font-family="Times,serif" font-size="14.00">ServiceNetwork</text>
</g>
<!-- HealthEstablishment -->
<g id="node10" class="node"><title>HealthEstablishment</title>
<ellipse fill="none" stroke="black" cx="528" cy="-90" rx="84.2388" ry="18"/>
<text text-anchor="middle" x="528" y="-86.3" font-family="Times,serif" font-size="14.00">HealthEstablishment</text>
</g>
<!-- ServiceNetwork&#45;&gt;HealthEstablishment -->
<g id="edge4" class="edge"><title>ServiceNetwork&#45;&gt;HealthEstablishment</title>
<path fill="none" stroke="#a58503" d="M509.13,-136.548C511.665,-130.428 514.397,-123.835 516.973,-117.616"/>
<ellipse fill="none" stroke="#a58503" cx="507.551" cy="-140.36" rx="4.00002" ry="4.00002"/>
<polygon fill="#a58503" stroke="#a58503" points="517.016,-117.514 525,-109.998 518.929,-112.895 520.843,-108.275 520.843,-108.275 520.843,-108.275 518.929,-112.895 516.686,-106.553 517.016,-117.514 517.016,-117.514"/>
</g>
<!-- HealthSpecialized -->
<g id="node17" class="node"><title>HealthSpecialized</title>
<ellipse fill="none" stroke="black" cx="351" cy="-90" rx="74.6146" ry="18"/>
<text text-anchor="middle" x="351" y="-86.3" font-family="Times,serif" font-size="14.00">HealthSpecialized</text>
</g>
<!-- ServiceNetwork&#45;&gt;HealthSpecialized -->
<g id="edge5" class="edge"><title>ServiceNetwork&#45;&gt;HealthSpecialized</title>
<path fill="none" stroke="#a87fce" d="M459.729,-142.426C438.915,-132.581 413.359,-120.494 392.255,-110.512"/>
<ellipse fill="none" stroke="#a87fce" cx="463.634" cy="-144.273" rx="4.00002" ry="4.00002"/>
<polygon fill="#a87fce" stroke="#a87fce" points="392.248,-110.509 385.132,-102.166 387.728,-108.371 383.208,-106.233 383.208,-106.233 383.208,-106.233 387.728,-108.371 381.284,-110.301 392.248,-110.509 392.248,-110.509"/>
</g>
<!-- UserType -->
<g id="node9" class="node"><title>UserType</title>
<ellipse fill="none" stroke="black" cx="632" cy="-399" rx="45.244" ry="18"/>
<text text-anchor="middle" x="632" y="-395.3" font-family="Times,serif" font-size="14.00">UserType</text>
</g>
<!-- User -->
<g id="node12" class="node"><title>User</title>
<ellipse fill="none" stroke="black" cx="632" cy="-306" rx="26.949" ry="18"/>
<text text-anchor="middle" x="632" y="-302.3" font-family="Times,serif" font-size="14.00">User</text>
</g>
<!-- UserType&#45;&gt;User -->
<g id="edge6" class="edge"><title>UserType&#45;&gt;User</title>
<path fill="none" stroke="#1696cf" d="M632,-372.729C632,-360.725 632,-346.362 632,-334.129"/>
<ellipse fill="none" stroke="#1696cf" cx="632" cy="-376.884" rx="4" ry="4"/>
<polygon fill="#1696cf" stroke="#1696cf" points="632,-334.04 636.5,-324.04 632,-329.04 632,-324.04 632,-324.04 632,-324.04 632,-329.04 627.5,-324.04 632,-334.04 632,-334.04"/>
</g>
<!-- BasePolo -->
<g id="node11" class="node"><title>BasePolo</title>
<ellipse fill="none" stroke="black" cx="346" cy="-234" rx="44.2946" ry="18"/>
<text text-anchor="middle" x="346" y="-230.3" font-family="Times,serif" font-size="14.00">BasePolo</text>
</g>
<!-- BasePolo&#45;&gt;Village -->
<g id="edge7" class="edge"><title>BasePolo&#45;&gt;Village</title>
<path fill="none" stroke="#efb29d" d="M299.256,-223.543C254.029,-213.995 183.744,-198.1 124,-180 121.079,-179.115 118.075,-178.145 115.067,-177.13"/>
<ellipse fill="none" stroke="#efb29d" cx="303.209" cy="-224.372" rx="4.00001" ry="4.00001"/>
<polygon fill="#efb29d" stroke="#efb29d" points="114.984,-177.101 107.039,-169.544 110.266,-175.446 105.548,-173.79 105.548,-173.79 105.548,-173.79 110.266,-175.446 104.058,-178.036 114.984,-177.101 114.984,-177.101"/>
</g>
<!-- BasePolo&#45;&gt;PdsiBasePoloDatum -->
<g id="edge8" class="edge"><title>BasePolo&#45;&gt;PdsiBasePoloDatum</title>
<path fill="none" stroke="#070db0" d="M313.241,-215.361C294.84,-205.452 271.823,-193.058 252.802,-182.816"/>
<ellipse fill="none" stroke="#070db0" cx="316.794" cy="-217.274" rx="4.00002" ry="4.00002"/>
<ellipse fill="#070db0" stroke="#070db0" cx="249.247" cy="-180.902" rx="4.00002" ry="4.00002"/>
</g>
<!-- BasePolo&#45;&gt;ServiceNetwork -->
<g id="edge10" class="edge"><title>BasePolo&#45;&gt;ServiceNetwork</title>
<path fill="none" stroke="#67f43e" d="M381.741,-216.648C404.368,-206.295 433.716,-192.868 457.391,-182.037"/>
<ellipse fill="none" stroke="#67f43e" cx="378.057" cy="-218.333" rx="4.00002" ry="4.00002"/>
<polygon fill="#67f43e" stroke="#67f43e" points="457.396,-182.034 468.362,-181.966 461.943,-179.954 466.49,-177.874 466.49,-177.874 466.49,-177.874 461.943,-179.954 464.618,-173.782 457.396,-182.034 457.396,-182.034"/>
</g>
<!-- Emsi -->
<g id="node18" class="node"><title>Emsi</title>
<ellipse fill="none" stroke="black" cx="346" cy="-162" rx="29.3722" ry="18"/>
<text text-anchor="middle" x="346" y="-158.3" font-family="Times,serif" font-size="14.00">Emsi</text>
</g>
<!-- BasePolo&#45;&gt;Emsi -->
<g id="edge9" class="edge"><title>BasePolo&#45;&gt;Emsi</title>
<path fill="none" stroke="#331331" d="M346,-207.64C346,-202.063 346,-196.132 346,-190.476"/>
<ellipse fill="none" stroke="#331331" cx="346" cy="-211.697" rx="4" ry="4"/>
<polygon fill="#331331" stroke="#331331" points="346,-190.104 350.5,-180.104 346,-185.104 346,-180.104 346,-180.104 346,-180.104 346,-185.104 341.5,-180.104 346,-190.104 346,-190.104"/>
</g>
<!-- User&#45;&gt;Profile -->
<g id="edge11" class="edge"><title>User&#45;&gt;Profile</title>
<path fill="none" stroke="#1261d5" d="M659.851,-290.451C681.779,-278.996 712.326,-263.038 735.024,-251.182"/>
<ellipse fill="none" stroke="#1261d5" cx="656.189" cy="-292.364" rx="4.00002" ry="4.00002"/>
<ellipse fill="#1261d5" stroke="#1261d5" cx="738.851" cy="-249.182" rx="4.00002" ry="4.00002"/>
</g>
<!-- Pdsi -->
<g id="node14" class="node"><title>Pdsi</title>
<ellipse fill="none" stroke="black" cx="467" cy="-234" rx="27" ry="18"/>
<text text-anchor="middle" x="467" y="-230.3" font-family="Times,serif" font-size="14.00">Pdsi</text>
</g>
<!-- User&#45;&gt;Pdsi -->
<g id="edge14" class="edge"><title>User&#45;&gt;Pdsi</title>
<path fill="none" stroke="#64a4f4" d="M602.309,-292.404C572.448,-279.736 526.663,-260.312 496.773,-247.631"/>
<ellipse fill="none" stroke="#64a4f4" cx="606.065" cy="-293.997" rx="4.00002" ry="4.00002"/>
<ellipse fill="#64a4f4" stroke="#64a4f4" cx="492.845" cy="-245.965" rx="4.00002" ry="4.00002"/>
</g>
<!-- Cost -->
<g id="node16" class="node"><title>Cost</title>
<ellipse fill="none" stroke="black" cx="687" cy="-234" rx="27" ry="18"/>
<text text-anchor="middle" x="687" y="-230.3" font-family="Times,serif" font-size="14.00">Cost</text>
</g>
<!-- User&#45;&gt;Cost -->
<g id="edge12" class="edge"><title>User&#45;&gt;Cost</title>
<path fill="none" stroke="#263ee9" d="M650.172,-281.872C656.19,-274.213 662.884,-265.694 668.896,-258.041"/>
<polygon fill="#263ee9" stroke="#263ee9" points="650.112,-281.948 640.396,-287.031 647.023,-285.879 643.934,-289.811 643.934,-289.811 643.934,-289.811 647.023,-285.879 647.473,-292.591 650.112,-281.948 650.112,-281.948"/>
<polygon fill="#263ee9" stroke="#263ee9" points="668.911,-258.023 678.628,-252.94 672,-254.091 675.089,-250.159 675.089,-250.159 675.089,-250.159 672,-254.091 671.551,-247.379 668.911,-258.023 668.911,-258.023"/>
</g>
<!-- CostUser -->
<g id="node20" class="node"><title>CostUser</title>
<ellipse fill="none" stroke="black" cx="797" cy="-162" rx="43.319" ry="18"/>
<text text-anchor="middle" x="797" y="-158.3" font-family="Times,serif" font-size="14.00">CostUser</text>
</g>
<!-- User&#45;&gt;CostUser -->
<g id="edge13" class="edge"><title>User&#45;&gt;CostUser</title>
<path fill="none" stroke="#ecae28" d="M631.114,-279.598C631.783,-260.022 635.816,-233.437 651,-216 654.607,-211.858 712.767,-191.518 754.576,-177.278"/>
<ellipse fill="none" stroke="#ecae28" cx="631.062" cy="-283.777" rx="4" ry="4"/>
<polygon fill="#ecae28" stroke="#ecae28" points="754.81,-177.198 765.726,-178.243 759.545,-175.59 764.279,-173.982 764.279,-173.982 764.279,-173.982 759.545,-175.59 762.832,-169.721 754.81,-177.198 754.81,-177.198"/>
</g>
<!-- Transportation -->
<g id="node13" class="node"><title>Transportation</title>
<ellipse fill="none" stroke="black" cx="770" cy="-90" rx="62.0922" ry="18"/>
<text text-anchor="middle" x="770" y="-86.3" font-family="Times,serif" font-size="14.00">Transportation</text>
</g>
<!-- Pdsi&#45;&gt;PhysiographicData -->
<g id="edge16" class="edge"><title>Pdsi&#45;&gt;PhysiographicData</title>
<path fill="none" stroke="#8b3879" d="M448.445,-211.898C426.45,-187.078 391.787,-148.645 384,-144 361.099,-130.34 297.992,-114.969 248.16,-104.312"/>
<ellipse fill="none" stroke="#8b3879" cx="451.36" cy="-215.195" rx="4.00002" ry="4.00002"/>
<polygon fill="#8b3879" stroke="#8b3879" points="247.851,-104.247 238.998,-97.7759 242.959,-103.213 238.067,-102.179 238.067,-102.179 238.067,-102.179 242.959,-103.213 237.137,-106.581 247.851,-104.247 247.851,-104.247"/>
</g>
<!-- Pdsi&#45;&gt;PdsiBasePoloDatum -->
<g id="edge17" class="edge"><title>Pdsi&#45;&gt;PdsiBasePoloDatum</title>
<path fill="none" stroke="#da5f91" d="M434.59,-223.961C394.26,-212.714 324.637,-193.297 274.797,-179.398"/>
<ellipse fill="none" stroke="#da5f91" cx="438.623" cy="-225.086" rx="4.00001" ry="4.00001"/>
<polygon fill="#da5f91" stroke="#da5f91" points="274.74,-179.382 266.317,-172.361 269.924,-178.039 265.108,-176.695 265.108,-176.695 265.108,-176.695 269.924,-178.039 263.899,-181.03 274.74,-179.382 274.74,-179.382"/>
</g>
<!-- Pdsi&#45;&gt;ServiceNetwork -->
<g id="edge19" class="edge"><title>Pdsi&#45;&gt;ServiceNetwork</title>
<path fill="none" stroke="#3ce26f" d="M477.943,-209.062C480.882,-202.632 484.076,-195.647 487.066,-189.106"/>
<ellipse fill="none" stroke="#3ce26f" cx="476.247" cy="-212.773" rx="4.00002" ry="4.00002"/>
<polygon fill="#3ce26f" stroke="#3ce26f" points="487.091,-189.051 495.341,-181.827 489.17,-184.504 491.249,-179.956 491.249,-179.956 491.249,-179.956 489.17,-184.504 487.156,-178.085 487.091,-189.051 487.091,-189.051"/>
</g>
<!-- Pdsi&#45;&gt;Emsi -->
<g id="edge18" class="edge"><title>Pdsi&#45;&gt;Emsi</title>
<path fill="none" stroke="#0ed550" d="M440.119,-217.449C420.925,-206.345 395.117,-191.415 375.381,-179.997"/>
<ellipse fill="none" stroke="#0ed550" cx="443.828" cy="-219.594" rx="4.00002" ry="4.00002"/>
<polygon fill="#0ed550" stroke="#0ed550" points="375.167,-179.873 368.764,-170.971 370.839,-177.37 366.511,-174.866 366.511,-174.866 366.511,-174.866 370.839,-177.37 364.258,-178.761 375.167,-179.873 375.167,-179.873"/>
</g>
<!-- DemographicData -->
<g id="node19" class="node"><title>DemographicData</title>
<ellipse fill="none" stroke="black" cx="660" cy="-162" rx="75.0904" ry="18"/>
<text text-anchor="middle" x="660" y="-158.3" font-family="Times,serif" font-size="14.00">DemographicData</text>
</g>
<!-- Pdsi&#45;&gt;DemographicData -->
<g id="edge15" class="edge"><title>Pdsi&#45;&gt;DemographicData</title>
<path fill="none" stroke="#5a9ff6" d="M497.863,-221.806C528.713,-210.617 576.576,-193.258 612.313,-180.296"/>
<ellipse fill="none" stroke="#5a9ff6" cx="494.041" cy="-223.192" rx="4.00001" ry="4.00001"/>
<ellipse fill="#5a9ff6" stroke="#5a9ff6" cx="616.441" cy="-178.799" rx="4.00001" ry="4.00001"/>
</g>
<!-- Dsei -->
<g id="node15" class="node"><title>Dsei</title>
<ellipse fill="none" stroke="black" cx="493" cy="-399" rx="27" ry="18"/>
<text text-anchor="middle" x="493" y="-395.3" font-family="Times,serif" font-size="14.00">Dsei</text>
</g>
<!-- Dsei&#45;&gt;BasePolo -->
<g id="edge20" class="edge"><title>Dsei&#45;&gt;BasePolo</title>
<path fill="none" stroke="#8aedd1" d="M474.128,-377.073C446.699,-346.659 395.97,-290.409 367.258,-258.572"/>
<ellipse fill="none" stroke="#8aedd1" cx="477.017" cy="-380.277" rx="4.00002" ry="4.00002"/>
<polygon fill="#8aedd1" stroke="#8aedd1" points="367.158,-258.46 363.802,-248.021 363.809,-254.747 360.46,-251.034 360.46,-251.034 360.46,-251.034 363.809,-254.747 357.119,-254.048 367.158,-258.46 367.158,-258.46"/>
</g>
<!-- Dsei&#45;&gt;User -->
<g id="edge21" class="edge"><title>Dsei&#45;&gt;User</title>
<path fill="none" stroke="#c38a94" d="M518.689,-381.182C543.05,-365.234 579.536,-341.347 604.482,-325.015"/>
<ellipse fill="none" stroke="#c38a94" cx="515.093" cy="-383.536" rx="4.00002" ry="4.00002"/>
<polygon fill="#c38a94" stroke="#c38a94" points="604.74,-324.846 615.572,-323.134 608.924,-322.108 613.107,-319.369 613.107,-319.369 613.107,-319.369 608.924,-322.108 610.642,-315.604 604.74,-324.846 604.74,-324.846"/>
</g>
<!-- Cost&#45;&gt;CostUser -->
<g id="edge22" class="edge"><title>Cost&#45;&gt;CostUser</title>
<path fill="none" stroke="#a3bd02" d="M713.21,-216.321C728.894,-206.34 748.929,-193.591 765.475,-183.062"/>
<ellipse fill="none" stroke="#a3bd02" cx="709.535" cy="-218.659" rx="4.00002" ry="4.00002"/>
<polygon fill="#a3bd02" stroke="#a3bd02" points="765.821,-182.841 776.674,-181.269 770.04,-180.157 774.258,-177.472 774.258,-177.472 774.258,-177.472 770.04,-180.157 771.842,-173.676 765.821,-182.841 765.821,-182.841"/>
</g>
<!-- DemographicData&#45;&gt;Etnia -->
<g id="edge23" class="edge"><title>DemographicData&#45;&gt;Etnia</title>
<path fill="none" stroke="#d72c85" d="M660,-135.64C660,-130.063 660,-124.132 660,-118.476"/>
<ellipse fill="none" stroke="#d72c85" cx="660" cy="-139.697" rx="4" ry="4"/>
<polygon fill="#d72c85" stroke="#d72c85" points="660,-118.104 664.5,-108.104 660,-113.104 660,-108.104 660,-108.104 660,-108.104 660,-113.104 655.5,-108.104 660,-118.104 660,-118.104"/>
</g>
<!-- DemographicData&#45;&gt;Transportation -->
<g id="edge24" class="edge"><title>DemographicData&#45;&gt;Transportation</title>
<path fill="none" stroke="#361f56" d="M692.253,-140.475C706.271,-131.555 722.682,-121.111 736.805,-112.124"/>
<ellipse fill="none" stroke="#361f56" cx="688.611" cy="-142.793" rx="4.00002" ry="4.00002"/>
<polygon fill="#361f56" stroke="#361f56" points="736.824,-112.112 747.676,-110.54 741.042,-109.428 745.26,-106.743 745.26,-106.743 745.26,-106.743 741.042,-109.428 742.844,-102.947 736.824,-112.112 736.824,-112.112"/>
</g>
<!-- TextTemplate -->
<g id="node21" class="node"><title>TextTemplate</title>
<ellipse fill="none" stroke="black" cx="756" cy="-399" rx="60.1672" ry="18"/>
<text text-anchor="middle" x="756" y="-395.3" font-family="Times,serif" font-size="14.00">TextTemplate</text>
</g>
</g>
</svg>
