<?xml version="1.0" encoding="UTF-8" standalone="no"?>
<!DOCTYPE svg PUBLIC "-//W3C//DTD SVG 1.1//EN"
 "http://www.w3.org/Graphics/SVG/1.1/DTD/svg11.dtd">
<!-- Generated by graphviz version 2.36.0 (20140111.2315)
 -->
<!-- Title: models_diagram Pages: 1 -->
<svg width="1681pt" height="374pt"
 viewBox="0.00 0.00 1681.00 374.00" xmlns="http://www.w3.org/2000/svg" xmlns:xlink="http://www.w3.org/1999/xlink">
<g id="graph0" class="graph" transform="scale(1 1) rotate(0) translate(4 370)">
<title>models_diagram</title>
<polygon fill="none" stroke="none" points="-4,4 -4,-370 1677,-370 1677,4 -4,4"/>
<!-- _diagram_info -->
<g id="node1" class="node"><title>_diagram_info</title>
<text text-anchor="start" x="973" y="-351.6" font-family="Times,serif" font-size="13.00">Models diagram</text>
<text text-anchor="start" x="973" y="-337.6" font-family="Times,serif" font-size="13.00">Date: Sep 21 2015 &#45; 15:12</text>
<text text-anchor="start" x="973" y="-323.6" font-family="Times,serif" font-size="13.00">Migration version: 20150921132335</text>
<text text-anchor="start" x="973" y="-309.6" font-family="Times,serif" font-size="13.00">Generated by RailRoady 1.3.1</text>
<text text-anchor="start" x="973" y="-295.6" font-family="Times,serif" font-size="13.00">http://railroady.prestonlee.com</text>
</g>
<!-- Village -->
<g id="node2" class="node"><title>Village</title>
<ellipse fill="none" stroke="black" cx="230" cy="-162" rx="36.096" ry="18"/>
<text text-anchor="middle" x="230" y="-158.3" font-family="Times,serif" font-size="14.00">Village</text>
</g>
<!-- PhysiographicData -->
<g id="node3" class="node"><title>PhysiographicData</title>
<ellipse fill="none" stroke="black" cx="414" cy="-90" rx="77.0154" ry="18"/>
<text text-anchor="middle" x="414" y="-86.3" font-family="Times,serif" font-size="14.00">PhysiographicData</text>
</g>
<!-- Village&#45;&gt;PhysiographicData -->
<g id="edge2" class="edge"><title>Village&#45;&gt;PhysiographicData</title>
<path fill="none" stroke="#04a578" d="M265.641,-147.441C294.732,-136.374 336.053,-120.654 367.701,-108.614"/>
<ellipse fill="none" stroke="#04a578" cx="261.684" cy="-148.946" rx="4.00001" ry="4.00001"/>
<ellipse fill="#04a578" stroke="#04a578" cx="371.787" cy="-107.059" rx="4.00001" ry="4.00001"/>
</g>
<!-- InfrastructureSanitation -->
<g id="node8" class="node"><title>InfrastructureSanitation</title>
<ellipse fill="none" stroke="black" cx="604" cy="-90" rx="94.3628" ry="18"/>
<text text-anchor="middle" x="604" y="-86.3" font-family="Times,serif" font-size="14.00">InfrastructureSanitation</text>
</g>
<!-- Village&#45;&gt;InfrastructureSanitation -->
<g id="edge4" class="edge"><title>Village&#45;&gt;InfrastructureSanitation</title>
<path fill="none" stroke="#f66729" d="M265.244,-147.19C268.847,-146.015 272.477,-144.925 276,-144 373.53,-118.402 400.466,-124.133 500,-108 508.113,-106.685 516.581,-105.308 525.029,-103.931"/>
<ellipse fill="none" stroke="#f66729" cx="261.234" cy="-148.566" rx="4.00001" ry="4.00001"/>
<polygon fill="#f66729" stroke="#f66729" points="525.046,-103.929 535.64,-106.761 529.981,-103.124 534.916,-102.319 534.916,-102.319 534.916,-102.319 529.981,-103.124 534.191,-97.8779 525.046,-103.929 525.046,-103.929"/>
</g>
<!-- CapaiVillage -->
<g id="node9" class="node"><title>CapaiVillage</title>
<ellipse fill="none" stroke="black" cx="656" cy="-18" rx="57.2927" ry="18"/>
<text text-anchor="middle" x="656" y="-14.3" font-family="Times,serif" font-size="14.00">CapaiVillage</text>
</g>
<!-- Village&#45;&gt;CapaiVillage -->
<g id="edge5" class="edge"><title>Village&#45;&gt;CapaiVillage</title>
<path fill="none" stroke="#d464ed" d="M190.632,-150.497C169.272,-142.569 144.701,-129.309 132,-108 123.808,-94.2563 121.201,-83.8063 132,-72 162.342,-38.8272 490.337,-41.129 535,-36 554.831,-33.7227 576.431,-30.8226 595.821,-28.0654"/>
<ellipse fill="none" stroke="#d464ed" cx="194.552" cy="-151.864" rx="4.00001" ry="4.00001"/>
<polygon fill="#d464ed" stroke="#d464ed" points="595.84,-28.0628 606.378,-31.0949 600.789,-27.3517 605.738,-26.6406 605.738,-26.6406 605.738,-26.6406 600.789,-27.3517 605.098,-22.1864 595.84,-28.0628 595.84,-28.0628"/>
</g>
<!-- Ethnicity -->
<g id="node11" class="node"><title>Ethnicity</title>
<ellipse fill="none" stroke="black" cx="42" cy="-90" rx="42.3456" ry="18"/>
<text text-anchor="middle" x="42" y="-86.3" font-family="Times,serif" font-size="14.00">Ethnicity</text>
</g>
<!-- Village&#45;&gt;Ethnicity -->
<g id="edge1" class="edge"><title>Village&#45;&gt;Ethnicity</title>
<path fill="none" stroke="#bdefd8" d="M192.427,-147.01C160.623,-135.168 115.136,-118.232 82.5213,-106.088"/>
<polygon fill="#bdefd8" stroke="#bdefd8" points="192.483,-147.031 200.284,-154.737 197.169,-148.776 201.855,-150.52 201.855,-150.52 201.855,-150.52 197.169,-148.776 203.425,-146.303 192.483,-147.031 192.483,-147.031"/>
<polygon fill="#bdefd8" stroke="#bdefd8" points="82.2135,-105.973 74.4123,-98.2666 77.5278,-104.228 72.8421,-102.484 72.8421,-102.484 72.8421,-102.484 77.5278,-104.228 71.2718,-106.701 82.2135,-105.973 82.2135,-105.973"/>
</g>
<!-- InfrastructureBuilding -->
<g id="node17" class="node"><title>InfrastructureBuilding</title>
<ellipse fill="none" stroke="black" cx="230" cy="-90" rx="89.0632" ry="18"/>
<text text-anchor="middle" x="230" y="-86.3" font-family="Times,serif" font-size="14.00">InfrastructureBuilding</text>
</g>
<!-- Village&#45;&gt;InfrastructureBuilding -->
<g id="edge3" class="edge"><title>Village&#45;&gt;InfrastructureBuilding</title>
<path fill="none" stroke="#5992d6" d="M230,-135.64C230,-130.063 230,-124.132 230,-118.476"/>
<ellipse fill="none" stroke="#5992d6" cx="230" cy="-139.697" rx="4" ry="4"/>
<polygon fill="#5992d6" stroke="#5992d6" points="230,-118.104 234.5,-108.104 230,-113.104 230,-108.104 230,-108.104 230,-108.104 230,-113.104 225.5,-108.104 230,-118.104 230,-118.104"/>
</g>
<!-- PhysiographicDataLanguage -->
<g id="node29" class="node"><title>PhysiographicDataLanguage</title>
<ellipse fill="none" stroke="black" cx="414" cy="-18" rx="112.16" ry="18"/>
<text text-anchor="middle" x="414" y="-14.3" font-family="Times,serif" font-size="14.00">PhysiographicDataLanguage</text>
</g>
<!-- PhysiographicData&#45;&gt;PhysiographicDataLanguage -->
<g id="edge6" class="edge"><title>PhysiographicData&#45;&gt;PhysiographicDataLanguage</title>
<path fill="none" stroke="#a549ea" d="M414,-63.6398C414,-58.0629 414,-52.1319 414,-46.4761"/>
<ellipse fill="none" stroke="#a549ea" cx="414" cy="-67.6966" rx="4" ry="4"/>
<polygon fill="#a549ea" stroke="#a549ea" points="414,-46.1043 418.5,-36.1043 414,-41.1043 414,-36.1043 414,-36.1043 414,-36.1043 414,-41.1043 409.5,-36.1044 414,-46.1043 414,-46.1043"/>
</g>
<!-- Etnia -->
<g id="node4" class="node"><title>Etnia</title>
<ellipse fill="none" stroke="black" cx="1199" cy="-18" rx="29.3722" ry="18"/>
<text text-anchor="middle" x="1199" y="-14.3" font-family="Times,serif" font-size="14.00">Etnia</text>
</g>
<!-- PdsiBasePoloDatum -->
<g id="node5" class="node"><title>PdsiBasePoloDatum</title>
<ellipse fill="none" stroke="black" cx="799" cy="-90" rx="83.2892" ry="18"/>
<text text-anchor="middle" x="799" y="-86.3" font-family="Times,serif" font-size="14.00">PdsiBasePoloDatum</text>
</g>
<!-- Capai -->
<g id="node6" class="node"><title>Capai</title>
<ellipse fill="none" stroke="black" cx="931" cy="-90" rx="31.2965" ry="18"/>
<text text-anchor="middle" x="931" y="-86.3" font-family="Times,serif" font-size="14.00">Capai</text>
</g>
<!-- Capai&#45;&gt;CapaiVillage -->
<g id="edge7" class="edge"><title>Capai&#45;&gt;CapaiVillage</title>
<path fill="none" stroke="#7dda26" d="M899.608,-75.0357C896.723,-73.9416 893.823,-72.9101 891,-72 832.097,-53.0118 762.772,-38.2669 714.754,-29.2041"/>
<ellipse fill="none" stroke="#7dda26" cx="903.436" cy="-76.5589" rx="4.00001" ry="4.00001"/>
<polygon fill="#7dda26" stroke="#7dda26" points="714.673,-29.189 705.667,-22.9331 709.758,-28.273 704.842,-27.3569 704.842,-27.3569 704.842,-27.3569 709.758,-28.273 704.018,-31.7807 714.673,-29.189 714.673,-29.189"/>
</g>
<!-- Profile -->
<g id="node7" class="node"><title>Profile</title>
<ellipse fill="none" stroke="black" cx="1606" cy="-162" rx="34.1708" ry="18"/>
<text text-anchor="middle" x="1606" y="-158.3" font-family="Times,serif" font-size="14.00">Profile</text>
</g>
<!-- ServiceNetwork -->
<g id="node10" class="node"><title>ServiceNetwork</title>
<ellipse fill="none" stroke="black" cx="1048" cy="-90" rx="67.3907" ry="18"/>
<text text-anchor="middle" x="1048" y="-86.3" font-family="Times,serif" font-size="14.00">ServiceNetwork</text>
</g>
<!-- HealthEstablishment -->
<g id="node13" class="node"><title>HealthEstablishment</title>
<ellipse fill="none" stroke="black" cx="881" cy="-18" rx="84.2388" ry="18"/>
<text text-anchor="middle" x="881" y="-14.3" font-family="Times,serif" font-size="14.00">HealthEstablishment</text>
</g>
<!-- ServiceNetwork&#45;&gt;HealthEstablishment -->
<g id="edge8" class="edge"><title>ServiceNetwork&#45;&gt;HealthEstablishment</title>
<path fill="none" stroke="#187b8f" d="M1005.94,-71.3717C981.917,-61.3006 951.757,-48.6587 927.089,-38.3187"/>
<ellipse fill="none" stroke="#187b8f" cx="1009.71" cy="-72.9496" rx="4.00002" ry="4.00002"/>
<polygon fill="#187b8f" stroke="#187b8f" points="926.805,-38.1999 919.322,-30.1839 922.194,-36.267 917.583,-34.3341 917.583,-34.3341 917.583,-34.3341 922.194,-36.267 915.843,-38.4842 926.805,-38.1999 926.805,-38.1999"/>
</g>
<!-- HealthSpecialized -->
<g id="node22" class="node"><title>HealthSpecialized</title>
<ellipse fill="none" stroke="black" cx="1058" cy="-18" rx="74.6146" ry="18"/>
<text text-anchor="middle" x="1058" y="-14.3" font-family="Times,serif" font-size="14.00">HealthSpecialized</text>
</g>
<!-- ServiceNetwork&#45;&gt;HealthSpecialized -->
<g id="edge9" class="edge"><title>ServiceNetwork&#45;&gt;HealthSpecialized</title>
<path fill="none" stroke="#94a6f6" d="M1051.62,-63.6398C1052.44,-57.92 1053.31,-51.8276 1054.14,-46.0416"/>
<ellipse fill="none" stroke="#94a6f6" cx="1051.04" cy="-67.7368" rx="4.00001" ry="4.00001"/>
<polygon fill="#94a6f6" stroke="#94a6f6" points="1054.14,-46.0038 1060.01,-36.7408 1054.85,-41.0541 1055.56,-36.1043 1055.56,-36.1043 1055.56,-36.1043 1054.85,-41.0541 1051.1,-35.4679 1054.14,-46.0038 1054.14,-46.0038"/>
</g>
<!-- UserType -->
<g id="node12" class="node"><title>UserType</title>
<ellipse fill="none" stroke="black" cx="1489" cy="-327" rx="45.244" ry="18"/>
<text text-anchor="middle" x="1489" y="-323.3" font-family="Times,serif" font-size="14.00">UserType</text>
</g>
<!-- User -->
<g id="node15" class="node"><title>User</title>
<ellipse fill="none" stroke="black" cx="1489" cy="-234" rx="26.949" ry="18"/>
<text text-anchor="middle" x="1489" y="-230.3" font-family="Times,serif" font-size="14.00">User</text>
</g>
<!-- UserType&#45;&gt;User -->
<g id="edge10" class="edge"><title>UserType&#45;&gt;User</title>
<path fill="none" stroke="#334c2f" d="M1489,-300.729C1489,-288.725 1489,-274.362 1489,-262.129"/>
<ellipse fill="none" stroke="#334c2f" cx="1489" cy="-304.884" rx="4" ry="4"/>
<polygon fill="#334c2f" stroke="#334c2f" points="1489,-262.04 1493.5,-252.04 1489,-257.04 1489,-252.04 1489,-252.04 1489,-252.04 1489,-257.04 1484.5,-252.04 1489,-262.04 1489,-262.04"/>
</g>
<!-- BasePolo -->
<g id="node14" class="node"><title>BasePolo</title>
<ellipse fill="none" stroke="black" cx="1048" cy="-234" rx="44.2946" ry="18"/>
<text text-anchor="middle" x="1048" y="-230.3" font-family="Times,serif" font-size="14.00">BasePolo</text>
</g>
<!-- BasePolo&#45;&gt;Village -->
<g id="edge11" class="edge"><title>BasePolo&#45;&gt;Village</title>
<path fill="none" stroke="#9d567a" d="M995.602,-231.349C845.175,-226.3 413.943,-209.585 276,-180 272.837,-179.322 269.599,-178.47 266.378,-177.512"/>
<ellipse fill="none" stroke="#9d567a" cx="999.831" cy="-231.489" rx="4" ry="4"/>
<polygon fill="#9d567a" stroke="#9d567a" points="266.361,-177.506 258.267,-170.107 261.611,-175.944 256.861,-174.382 256.861,-174.382 256.861,-174.382 261.611,-175.944 255.455,-178.657 266.361,-177.506 266.361,-177.506"/>
</g>
<!-- BasePolo&#45;&gt;PdsiBasePoloDatum -->
<g id="edge12" class="edge"><title>BasePolo&#45;&gt;PdsiBasePoloDatum</title>
<path fill="none" stroke="#977e3a" d="M1008.68,-218.269C984.293,-208.561 952.634,-194.917 926,-180 889.773,-159.711 851.105,-131.568 826.083,-112.397"/>
<ellipse fill="none" stroke="#977e3a" cx="1012.61" cy="-219.814" rx="4.00001" ry="4.00001"/>
<ellipse fill="#977e3a" stroke="#977e3a" cx="822.881" cy="-109.927" rx="4.00002" ry="4.00002"/>
</g>
<!-- BasePolo&#45;&gt;ServiceNetwork -->
<g id="edge14" class="edge"><title>BasePolo&#45;&gt;ServiceNetwork</title>
<path fill="none" stroke="#23b896" d="M1048,-207.558C1048,-182.444 1048,-144.164 1048,-118.393"/>
<ellipse fill="none" stroke="#23b896" cx="1048" cy="-211.871" rx="4" ry="4"/>
<polygon fill="#23b896" stroke="#23b896" points="1048,-118.189 1052.5,-108.189 1048,-113.189 1048,-108.189 1048,-108.189 1048,-108.189 1048,-113.189 1043.5,-108.189 1048,-118.189 1048,-118.189"/>
</g>
<!-- Emsi -->
<g id="node23" class="node"><title>Emsi</title>
<ellipse fill="none" stroke="black" cx="1332" cy="-90" rx="29.3722" ry="18"/>
<text text-anchor="middle" x="1332" y="-86.3" font-family="Times,serif" font-size="14.00">Emsi</text>
</g>
<!-- BasePolo&#45;&gt;Emsi -->
<g id="edge13" class="edge"><title>BasePolo&#45;&gt;Emsi</title>
<path fill="none" stroke="#0b815c" d="M1081.94,-216.032C1137.53,-188.234 1247.19,-133.405 1300.89,-106.555"/>
<ellipse fill="none" stroke="#0b815c" cx="1078.3" cy="-217.852" rx="4.00002" ry="4.00002"/>
<polygon fill="#0b815c" stroke="#0b815c" points="1300.99,-106.506 1311.95,-106.058 1305.46,-104.27 1309.93,-102.034 1309.93,-102.034 1309.93,-102.034 1305.46,-104.27 1307.92,-98.0086 1300.99,-106.506 1300.99,-106.506"/>
</g>
<!-- User&#45;&gt;Profile -->
<g id="edge15" class="edge"><title>User&#45;&gt;Profile</title>
<path fill="none" stroke="#a11d73" d="M1515.54,-217.119C1533.78,-206.206 1558,-191.716 1576.79,-180.475"/>
<ellipse fill="none" stroke="#a11d73" cx="1512.02" cy="-219.23" rx="4.00002" ry="4.00002"/>
<ellipse fill="#a11d73" stroke="#a11d73" cx="1580.53" cy="-178.241" rx="4.00002" ry="4.00002"/>
</g>
<!-- Pdsi -->
<g id="node19" class="node"><title>Pdsi</title>
<ellipse fill="none" stroke="black" cx="962" cy="-162" rx="27" ry="18"/>
<text text-anchor="middle" x="962" y="-158.3" font-family="Times,serif" font-size="14.00">Pdsi</text>
</g>
<!-- User&#45;&gt;Pdsi -->
<g id="edge18" class="edge"><title>User&#45;&gt;Pdsi</title>
<path fill="none" stroke="#83cfd7" d="M1454.36,-228.399C1358.72,-215.695 1091.74,-180.233 996.39,-167.568"/>
<ellipse fill="none" stroke="#83cfd7" cx="1458.54" cy="-228.954" rx="4.00001" ry="4.00001"/>
<ellipse fill="#83cfd7" stroke="#83cfd7" cx="992.201" cy="-167.011" rx="4.00001" ry="4.00001"/>
</g>
<!-- Cost -->
<g id="node21" class="node"><title>Cost</title>
<ellipse fill="none" stroke="black" cx="1489" cy="-162" rx="27" ry="18"/>
<text text-anchor="middle" x="1489" y="-158.3" font-family="Times,serif" font-size="14.00">Cost</text>
</g>
<!-- User&#45;&gt;Cost -->
<g id="edge16" class="edge"><title>User&#45;&gt;Cost</title>
<path fill="none" stroke="#cd0a1a" d="M1489,-205.665C1489,-200.687 1489,-195.491 1489,-190.507"/>
<polygon fill="#cd0a1a" stroke="#cd0a1a" points="1489,-205.697 1484.5,-215.697 1489,-210.697 1489,-215.697 1489,-215.697 1489,-215.697 1489,-210.697 1493.5,-215.697 1489,-205.697 1489,-205.697"/>
<polygon fill="#cd0a1a" stroke="#cd0a1a" points="1489,-190.104 1493.5,-180.104 1489,-185.104 1489,-180.104 1489,-180.104 1489,-180.104 1489,-185.104 1484.5,-180.104 1489,-190.104 1489,-190.104"/>
</g>
<!-- CostUser -->
<g id="node25" class="node"><title>CostUser</title>
<ellipse fill="none" stroke="black" cx="1544" cy="-90" rx="43.319" ry="18"/>
<text text-anchor="middle" x="1544" y="-86.3" font-family="Times,serif" font-size="14.00">CostUser</text>
</g>
<!-- User&#45;&gt;CostUser -->
<g id="edge17" class="edge"><title>User&#45;&gt;CostUser</title>
<path fill="none" stroke="#5bf909" d="M1506.68,-211.105C1513.3,-201.956 1520.34,-190.924 1525,-180 1533.46,-160.172 1538.3,-136.196 1540.98,-118.127"/>
<ellipse fill="none" stroke="#5bf909" cx="1504.14" cy="-214.499" rx="4.00002" ry="4.00002"/>
<polygon fill="#5bf909" stroke="#5bf909" points="1541.01,-117.899 1546.8,-108.59 1541.68,-112.944 1542.34,-107.988 1542.34,-107.988 1542.34,-107.988 1541.68,-112.944 1537.88,-107.387 1541.01,-117.899 1541.01,-117.899"/>
</g>
<!-- Transportation -->
<g id="node16" class="node"><title>Transportation</title>
<ellipse fill="none" stroke="black" cx="1309" cy="-18" rx="62.0922" ry="18"/>
<text text-anchor="middle" x="1309" y="-14.3" font-family="Times,serif" font-size="14.00">Transportation</text>
</g>
<!-- Destination -->
<g id="node18" class="node"><title>Destination</title>
<ellipse fill="none" stroke="black" cx="1431" cy="-90" rx="51.0191" ry="18"/>
<text text-anchor="middle" x="1431" y="-86.3" font-family="Times,serif" font-size="14.00">Destination</text>
</g>
<!-- Pdsi&#45;&gt;PhysiographicData -->
<g id="edge20" class="edge"><title>Pdsi&#45;&gt;PhysiographicData</title>
<path fill="none" stroke="#0be26f" d="M926.987,-157.921C849.803,-150.927 659.298,-132.527 501,-108 493.995,-106.915 486.694,-105.669 479.43,-104.357"/>
<ellipse fill="none" stroke="#0be26f" cx="931.414" cy="-158.32" rx="4" ry="4"/>
<polygon fill="#0be26f" stroke="#0be26f" points="479.413,-104.354 470.399,-98.1097 474.496,-103.444 469.58,-102.535 469.58,-102.535 469.58,-102.535 474.496,-103.444 468.761,-106.96 479.413,-104.354 479.413,-104.354"/>
</g>
<!-- Pdsi&#45;&gt;PdsiBasePoloDatum -->
<g id="edge21" class="edge"><title>Pdsi&#45;&gt;PdsiBasePoloDatum</title>
<path fill="none" stroke="#38e4eb" d="M932.312,-148.251C907.654,-137.661 872.187,-122.43 844.033,-110.339"/>
<ellipse fill="none" stroke="#38e4eb" cx="936.002" cy="-149.835" rx="4.00002" ry="4.00002"/>
<polygon fill="#38e4eb" stroke="#38e4eb" points="843.98,-110.317 836.567,-102.236 839.386,-108.344 834.792,-106.371 834.792,-106.371 834.792,-106.371 839.386,-108.344 833.016,-110.505 843.98,-110.317 843.98,-110.317"/>
</g>
<!-- Pdsi&#45;&gt;Capai -->
<g id="edge26" class="edge"><title>Pdsi&#45;&gt;Capai</title>
<path fill="none" stroke="#cbb551" d="M951.399,-137.062C948.552,-130.632 945.458,-123.647 942.561,-117.106"/>
<ellipse fill="none" stroke="#cbb551" cx="953.034" cy="-140.754" rx="4.00002" ry="4.00002"/>
<polygon fill="#cbb551" stroke="#cbb551" points="942.558,-117.1 942.624,-106.134 940.534,-112.528 938.509,-107.956 938.509,-107.956 938.509,-107.956 940.534,-112.528 934.395,-109.778 942.558,-117.1 942.558,-117.1"/>
</g>
<!-- Pdsi&#45;&gt;InfrastructureSanitation -->
<g id="edge25" class="edge"><title>Pdsi&#45;&gt;InfrastructureSanitation</title>
<path fill="none" stroke="#a528c1" d="M928.276,-154.406C871.145,-143.235 754.069,-120.343 677.338,-105.34"/>
<ellipse fill="none" stroke="#a528c1" cx="932.328" cy="-155.198" rx="4.00001" ry="4.00001"/>
<polygon fill="#a528c1" stroke="#a528c1" points="677.07,-105.288 668.12,-98.9522 672.163,-104.328 667.256,-103.369 667.256,-103.369 667.256,-103.369 672.163,-104.328 666.393,-107.785 677.07,-105.288 677.07,-105.288"/>
</g>
<!-- Pdsi&#45;&gt;ServiceNetwork -->
<g id="edge23" class="edge"><title>Pdsi&#45;&gt;ServiceNetwork</title>
<path fill="none" stroke="#eb52bd" d="M984.845,-142.405C995.607,-133.646 1008.55,-123.114 1019.9,-113.871"/>
<ellipse fill="none" stroke="#eb52bd" cx="981.684" cy="-144.978" rx="4.00002" ry="4.00002"/>
<polygon fill="#eb52bd" stroke="#eb52bd" points="1020.08,-113.725 1030.68,-110.902 1023.96,-110.568 1027.84,-107.412 1027.84,-107.412 1027.84,-107.412 1023.96,-110.568 1025,-103.922 1020.08,-113.725 1020.08,-113.725"/>
</g>
<!-- Pdsi&#45;&gt;InfrastructureBuilding -->
<g id="edge24" class="edge"><title>Pdsi&#45;&gt;InfrastructureBuilding</title>
<path fill="none" stroke="#f7e6a0" d="M926.816,-159.153C830.633,-153.868 555.315,-137.159 328,-108 319.814,-106.95 311.268,-105.699 302.782,-104.36"/>
<ellipse fill="none" stroke="#f7e6a0" cx="931.035" cy="-159.383" rx="4" ry="4"/>
<polygon fill="#f7e6a0" stroke="#f7e6a0" points="302.745,-104.354 293.594,-98.3108 297.809,-103.553 292.874,-102.753 292.874,-102.753 292.874,-102.753 297.809,-103.553 292.153,-107.195 302.745,-104.354 302.745,-104.354"/>
</g>
<!-- Pdsi&#45;&gt;Destination -->
<g id="edge27" class="edge"><title>Pdsi&#45;&gt;Destination</title>
<path fill="none" stroke="#c09eeb" d="M997.13,-158.138C1068.1,-151.982 1233.46,-135.748 1370,-108 1374.42,-107.101 1378.99,-106.054 1383.56,-104.928"/>
<ellipse fill="none" stroke="#c09eeb" cx="992.936" cy="-158.497" rx="4" ry="4"/>
<polygon fill="#c09eeb" stroke="#c09eeb" points="1383.78,-104.871 1394.58,-106.724 1388.62,-103.619 1393.46,-102.367 1393.46,-102.367 1393.46,-102.367 1388.62,-103.619 1392.33,-98.0104 1383.78,-104.871 1383.78,-104.871"/>
</g>
<!-- Pdsi&#45;&gt;Emsi -->
<g id="edge22" class="edge"><title>Pdsi&#45;&gt;Emsi</title>
<path fill="none" stroke="#6ab387" d="M996.819,-158.331C1057.84,-153.015 1187.65,-138.856 1293,-108 1295.42,-107.292 1297.89,-106.47 1300.35,-105.578"/>
<ellipse fill="none" stroke="#6ab387" cx="992.66" cy="-158.684" rx="4" ry="4"/>
<polygon fill="#6ab387" stroke="#6ab387" points="1300.38,-105.565 1311.33,-106.062 1305.03,-103.722 1309.67,-101.878 1309.67,-101.878 1309.67,-101.878 1305.03,-103.722 1308.02,-97.6953 1300.38,-105.565 1300.38,-105.565"/>
</g>
<!-- DemographicData -->
<g id="node24" class="node"><title>DemographicData</title>
<ellipse fill="none" stroke="black" cx="1209" cy="-90" rx="75.0904" ry="18"/>
<text text-anchor="middle" x="1209" y="-86.3" font-family="Times,serif" font-size="14.00">DemographicData</text>
</g>
<!-- Pdsi&#45;&gt;DemographicData -->
<g id="edge19" class="edge"><title>Pdsi&#45;&gt;DemographicData</title>
<path fill="none" stroke="#36cf0a" d="M994.454,-151.802C1035.09,-140.285 1105.32,-120.384 1154.31,-106.498"/>
<ellipse fill="none" stroke="#36cf0a" cx="990.435" cy="-152.942" rx="4.00001" ry="4.00001"/>
<ellipse fill="#36cf0a" stroke="#36cf0a" cx="1158.44" cy="-105.328" rx="4.00001" ry="4.00001"/>
</g>
<!-- Dsei -->
<g id="node20" class="node"><title>Dsei</title>
<ellipse fill="none" stroke="black" cx="1224" cy="-327" rx="27" ry="18"/>
<text text-anchor="middle" x="1224" y="-323.3" font-family="Times,serif" font-size="14.00">Dsei</text>
</g>
<!-- Dsei&#45;&gt;BasePolo -->
<g id="edge28" class="edge"><title>Dsei&#45;&gt;BasePolo</title>
<path fill="none" stroke="#d8a0ad" d="M1206.52,-304.826C1200.77,-298.802 1194.04,-292.628 1187,-288 1158.52,-269.282 1122.48,-255.78 1094.23,-247.089"/>
<ellipse fill="none" stroke="#d8a0ad" cx="1209.22" cy="-307.782" rx="4.00002" ry="4.00002"/>
<polygon fill="#d8a0ad" stroke="#d8a0ad" points="1094.17,-247.072 1085.87,-239.903 1089.38,-245.644 1084.59,-244.215 1084.59,-244.215 1084.59,-244.215 1089.38,-245.644 1083.3,-248.528 1094.17,-247.072 1094.17,-247.072"/>
</g>
<!-- Dsei&#45;&gt;User -->
<g id="edge29" class="edge"><title>Dsei&#45;&gt;User</title>
<path fill="none" stroke="#a821d8" d="M1255.35,-315.235C1305.76,-297.925 1404.38,-264.057 1455.89,-246.37"/>
<ellipse fill="none" stroke="#a821d8" cx="1251.3" cy="-316.625" rx="4.00001" ry="4.00001"/>
<polygon fill="#a821d8" stroke="#a821d8" points="1456.08,-246.305 1467,-247.314 1460.81,-244.681 1465.54,-243.058 1465.54,-243.058 1465.54,-243.058 1460.81,-244.681 1464.07,-238.801 1456.08,-246.305 1456.08,-246.305"/>
</g>
<!-- Cost&#45;&gt;CostUser -->
<g id="edge30" class="edge"><title>Cost&#45;&gt;CostUser</title>
<path fill="none" stroke="#940228" d="M1505.98,-139.392C1511.88,-131.879 1518.55,-123.396 1524.63,-115.655"/>
<ellipse fill="none" stroke="#940228" cx="1503.41" cy="-142.666" rx="4.00002" ry="4.00002"/>
<polygon fill="#940228" stroke="#940228" points="1524.76,-115.491 1534.47,-110.408 1527.85,-111.559 1530.94,-107.628 1530.94,-107.628 1530.94,-107.628 1527.85,-111.559 1527.4,-104.848 1524.76,-115.491 1524.76,-115.491"/>
</g>
<!-- DemographicData&#45;&gt;Etnia -->
<g id="edge31" class="edge"><title>DemographicData&#45;&gt;Etnia</title>
<path fill="none" stroke="#d6d6d6" d="M1205.38,-63.6398C1204.56,-57.92 1203.69,-51.8276 1202.86,-46.0416"/>
<ellipse fill="none" stroke="#d6d6d6" cx="1205.96" cy="-67.7368" rx="4.00001" ry="4.00001"/>
<polygon fill="#d6d6d6" stroke="#d6d6d6" points="1202.86,-46.0038 1205.9,-35.4679 1202.15,-41.0541 1201.44,-36.1043 1201.44,-36.1043 1201.44,-36.1043 1202.15,-41.0541 1196.99,-36.7408 1202.86,-46.0038 1202.86,-46.0038"/>
</g>
<!-- DemographicData&#45;&gt;Transportation -->
<g id="edge32" class="edge"><title>DemographicData&#45;&gt;Transportation</title>
<path fill="none" stroke="#8995d6" d="M1238.94,-68.0453C1251.27,-59.4105 1265.56,-49.4082 1278,-40.6975"/>
<ellipse fill="none" stroke="#8995d6" cx="1235.47" cy="-70.4708" rx="4.00002" ry="4.00002"/>
<polygon fill="#8995d6" stroke="#8995d6" points="1278.08,-40.6406 1288.86,-38.5925 1282.18,-37.7733 1286.28,-34.906 1286.28,-34.906 1286.28,-34.906 1282.18,-37.7733 1283.7,-31.2194 1278.08,-40.6406 1278.08,-40.6406"/>
</g>
<!-- TextTemplate -->
<g id="node26" class="node"><title>TextTemplate</title>
<ellipse fill="none" stroke="black" cx="1613" cy="-327" rx="60.1672" ry="18"/>
<text text-anchor="middle" x="1613" y="-323.3" font-family="Times,serif" font-size="14.00">TextTemplate</text>
</g>
<!-- DestinationType -->
<g id="node27" class="node"><title>DestinationType</title>
<ellipse fill="none" stroke="black" cx="1374" cy="-162" rx="69.3156" ry="18"/>
<text text-anchor="middle" x="1374" y="-158.3" font-family="Times,serif" font-size="14.00">DestinationType</text>
</g>
<!-- DestinationType&#45;&gt;Destination -->
<g id="edge33" class="edge"><title>DestinationType&#45;&gt;Destination</title>
<path fill="none" stroke="#72167c" d="M1392.86,-137.843C1398.6,-130.784 1404.95,-122.997 1410.78,-115.833"/>
<ellipse fill="none" stroke="#72167c" cx="1390.32" cy="-140.953" rx="4.00002" ry="4.00002"/>
<polygon fill="#72167c" stroke="#72167c" points="1411.01,-115.543 1420.82,-110.63 1414.17,-111.666 1417.33,-107.789 1417.33,-107.789 1417.33,-107.789 1414.17,-111.666 1413.84,-104.948 1411.01,-115.543 1411.01,-115.543"/>
</g>
<!-- InfrastructureBuildingType -->
<g id="node28" class="node"><title>InfrastructureBuildingType</title>
<ellipse fill="none" stroke="black" cx="392" cy="-162" rx="107.361" ry="18"/>
<text text-anchor="middle" x="392" y="-158.3" font-family="Times,serif" font-size="14.00">InfrastructureBuildingType</text>
</g>
<!-- InfrastructureBuildingType&#45;&gt;InfrastructureBuilding -->
<g id="edge34" class="edge"><title>InfrastructureBuildingType&#45;&gt;InfrastructureBuilding</title>
<path fill="none" stroke="#408e4c" d="M347.426,-141.74C324.966,-132.034 297.785,-120.29 275.234,-110.545"/>
<ellipse fill="none" stroke="#408e4c" cx="351.162" cy="-143.354" rx="4.00002" ry="4.00002"/>
<polygon fill="#408e4c" stroke="#408e4c" points="275.059,-110.47 267.664,-102.373 270.469,-108.487 265.879,-106.503 265.879,-106.503 265.879,-106.503 270.469,-108.487 264.094,-110.634 275.059,-110.47 275.059,-110.47"/>
</g>
</g>
</svg>
