<?xml version="1.0" encoding="UTF-8" standalone="no"?>
<!DOCTYPE svg PUBLIC "-//W3C//DTD SVG 1.1//EN"
 "http://www.w3.org/Graphics/SVG/1.1/DTD/svg11.dtd">
<!-- Generated by graphviz version 2.36.0 (20140111.2315)
 -->
<!-- Title: models_diagram Pages: 1 -->
<svg width="927pt" height="1080pt"
 viewBox="0.00 0.00 927.00 1080.00" xmlns="http://www.w3.org/2000/svg" xmlns:xlink="http://www.w3.org/1999/xlink">
<g id="graph0" class="graph" transform="scale(1 1) rotate(0) translate(4 1076)">
<title>models_diagram</title>
<polygon fill="none" stroke="none" points="-4,4 -4,-1076 923,-1076 923,4 -4,4"/>
<!-- _diagram_info -->
<g id="node1" class="node"><title>_diagram_info</title>
<text text-anchor="start" x="109" y="-1042.6" font-family="Times,serif" font-size="13.00">Models diagram</text>
<text text-anchor="start" x="109" y="-1028.6" font-family="Times,serif" font-size="13.00">Date: Sep 15 2015 &#45; 13:39</text>
<text text-anchor="start" x="109" y="-1014.6" font-family="Times,serif" font-size="13.00">Migration version: 20150914190850</text>
<text text-anchor="start" x="109" y="-1000.6" font-family="Times,serif" font-size="13.00">Generated by RailRoady 1.3.1</text>
<text text-anchor="start" x="109" y="-986.6" font-family="Times,serif" font-size="13.00">http://railroady.prestonlee.com</text>
</g>
<!-- Village -->
<g id="node2" class="node"><title>Village</title>
<path fill="none" stroke="black" d="M159,-497.5C159,-497.5 269,-497.5 269,-497.5 275,-497.5 281,-503.5 281,-509.5 281,-509.5 281,-636.5 281,-636.5 281,-642.5 275,-648.5 269,-648.5 269,-648.5 159,-648.5 159,-648.5 153,-648.5 147,-642.5 147,-636.5 147,-636.5 147,-509.5 147,-509.5 147,-503.5 153,-497.5 159,-497.5"/>
<text text-anchor="middle" x="214" y="-633.3" font-family="Times,serif" font-size="14.00">Village</text>
<polyline fill="none" stroke="black" points="147,-625.5 281,-625.5 "/>
<text text-anchor="start" x="155" y="-610.3" font-family="Times,serif" font-size="14.00">id :integer</text>
<text text-anchor="start" x="155" y="-595.3" font-family="Times,serif" font-size="14.00">base_polo_id :integer</text>
<text text-anchor="start" x="155" y="-580.3" font-family="Times,serif" font-size="14.00">name :string</text>
<text text-anchor="start" x="155" y="-565.3" font-family="Times,serif" font-size="14.00">sesai_id :integer</text>
<text text-anchor="start" x="155" y="-550.3" font-family="Times,serif" font-size="14.00">city_name :string</text>
<text text-anchor="start" x="155" y="-535.3" font-family="Times,serif" font-size="14.00">city_sesai_id :integer</text>
<text text-anchor="start" x="155" y="-520.3" font-family="Times,serif" font-size="14.00">created_at :datetime</text>
<text text-anchor="start" x="155" y="-505.3" font-family="Times,serif" font-size="14.00">updated_at :datetime</text>
</g>
<!-- PhysiographicData -->
<g id="node3" class="node"><title>PhysiographicData</title>
<path fill="none" stroke="black" d="M160.5,-144.5C160.5,-144.5 267.5,-144.5 267.5,-144.5 273.5,-144.5 279.5,-150.5 279.5,-156.5 279.5,-156.5 279.5,-433.5 279.5,-433.5 279.5,-439.5 273.5,-445.5 267.5,-445.5 267.5,-445.5 160.5,-445.5 160.5,-445.5 154.5,-445.5 148.5,-439.5 148.5,-433.5 148.5,-433.5 148.5,-156.5 148.5,-156.5 148.5,-150.5 154.5,-144.5 160.5,-144.5"/>
<text text-anchor="middle" x="214" y="-430.3" font-family="Times,serif" font-size="14.00">PhysiographicData</text>
<polyline fill="none" stroke="black" points="148.5,-422.5 279.5,-422.5 "/>
<text text-anchor="start" x="156.5" y="-407.3" font-family="Times,serif" font-size="14.00">id :integer</text>
<text text-anchor="start" x="156.5" y="-392.3" font-family="Times,serif" font-size="14.00">pdsi_id :integer</text>
<text text-anchor="start" x="156.5" y="-377.3" font-family="Times,serif" font-size="14.00">village_id :integer</text>
<text text-anchor="start" x="156.5" y="-362.3" font-family="Times,serif" font-size="14.00">pt_fluency :string</text>
<text text-anchor="start" x="156.5" y="-347.3" font-family="Times,serif" font-size="14.00">m_1 :integer</text>
<text text-anchor="start" x="156.5" y="-332.3" font-family="Times,serif" font-size="14.00">m_1_4 :integer</text>
<text text-anchor="start" x="156.5" y="-317.3" font-family="Times,serif" font-size="14.00">m_5_9 :integer</text>
<text text-anchor="start" x="156.5" y="-302.3" font-family="Times,serif" font-size="14.00">m_10_49 :integer</text>
<text text-anchor="start" x="156.5" y="-287.3" font-family="Times,serif" font-size="14.00">m_50_59 :integer</text>
<text text-anchor="start" x="156.5" y="-272.3" font-family="Times,serif" font-size="14.00">m_60 :integer</text>
<text text-anchor="start" x="156.5" y="-257.3" font-family="Times,serif" font-size="14.00">w_1 :integer</text>
<text text-anchor="start" x="156.5" y="-242.3" font-family="Times,serif" font-size="14.00">w_1_4 :integer</text>
<text text-anchor="start" x="156.5" y="-227.3" font-family="Times,serif" font-size="14.00">w_5_9 :integer</text>
<text text-anchor="start" x="156.5" y="-212.3" font-family="Times,serif" font-size="14.00">w_10_49 :integer</text>
<text text-anchor="start" x="156.5" y="-197.3" font-family="Times,serif" font-size="14.00">w_50_59 :integer</text>
<text text-anchor="start" x="156.5" y="-182.3" font-family="Times,serif" font-size="14.00">w_60 :integer</text>
<text text-anchor="start" x="156.5" y="-167.3" font-family="Times,serif" font-size="14.00">created_at :datetime</text>
<text text-anchor="start" x="156.5" y="-152.3" font-family="Times,serif" font-size="14.00">updated_at :datetime</text>
</g>
<!-- Village&#45;&gt;PhysiographicData -->
<g id="edge2" class="edge"><title>Village&#45;&gt;PhysiographicData</title>
<path fill="none" stroke="#462eea" d="M214,-489.261C214,-477.895 214,-465.93 214,-453.756"/>
<ellipse fill="none" stroke="#462eea" cx="214" cy="-493.31" rx="4" ry="4"/>
<ellipse fill="#462eea" stroke="#462eea" cx="214" cy="-449.729" rx="4" ry="4"/>
</g>
<!-- Ethnicity -->
<g id="node7" class="node"><title>Ethnicity</title>
<path fill="none" stroke="black" d="M11.5,-242C11.5,-242 118.5,-242 118.5,-242 124.5,-242 130.5,-248 130.5,-254 130.5,-254 130.5,-336 130.5,-336 130.5,-342 124.5,-348 118.5,-348 118.5,-348 11.5,-348 11.5,-348 5.5,-348 -0.5,-342 -0.5,-336 -0.5,-336 -0.5,-254 -0.5,-254 -0.5,-248 5.5,-242 11.5,-242"/>
<text text-anchor="middle" x="65" y="-332.8" font-family="Times,serif" font-size="14.00">Ethnicity</text>
<polyline fill="none" stroke="black" points="-0.5,-325 130.5,-325 "/>
<text text-anchor="start" x="7.5" y="-309.8" font-family="Times,serif" font-size="14.00">id :integer</text>
<text text-anchor="start" x="7.5" y="-294.8" font-family="Times,serif" font-size="14.00">name :string</text>
<text text-anchor="start" x="7.5" y="-279.8" font-family="Times,serif" font-size="14.00">sesai_id :integer</text>
<text text-anchor="start" x="7.5" y="-264.8" font-family="Times,serif" font-size="14.00">created_at :datetime</text>
<text text-anchor="start" x="7.5" y="-249.8" font-family="Times,serif" font-size="14.00">updated_at :datetime</text>
</g>
<!-- Village&#45;&gt;Ethnicity -->
<g id="edge1" class="edge"><title>Village&#45;&gt;Ethnicity</title>
<path fill="none" stroke="#c341b1" d="M163.89,-488.481C155.743,-474.392 147.517,-459.847 140,-446 124.338,-417.148 107.923,-384.613 94.4566,-357.236"/>
<polygon fill="#c341b1" stroke="#c341b1" points="163.923,-488.537 165.055,-499.445 166.434,-492.861 168.946,-497.184 168.946,-497.184 168.946,-497.184 166.434,-492.861 172.837,-494.924 163.923,-488.537 163.923,-488.537"/>
<polygon fill="#c341b1" stroke="#c341b1" points="94.4102,-357.141 94.0488,-346.181 92.2092,-352.652 90.0082,-348.162 90.0082,-348.162 90.0082,-348.162 92.2092,-352.652 85.9676,-350.143 94.4102,-357.141 94.4102,-357.141"/>
</g>
<!-- PhysiographicDataLanguage -->
<g id="node18" class="node"><title>PhysiographicDataLanguage</title>
<path fill="none" stroke="black" d="M133.5,-1C133.5,-1 294.5,-1 294.5,-1 300.5,-1 306.5,-7 306.5,-13 306.5,-13 306.5,-95 306.5,-95 306.5,-101 300.5,-107 294.5,-107 294.5,-107 133.5,-107 133.5,-107 127.5,-107 121.5,-101 121.5,-95 121.5,-95 121.5,-13 121.5,-13 121.5,-7 127.5,-1 133.5,-1"/>
<text text-anchor="middle" x="214" y="-91.8" font-family="Times,serif" font-size="14.00">PhysiographicDataLanguage</text>
<polyline fill="none" stroke="black" points="121.5,-84 306.5,-84 "/>
<text text-anchor="start" x="129.5" y="-68.8" font-family="Times,serif" font-size="14.00">id :integer</text>
<text text-anchor="start" x="129.5" y="-53.8" font-family="Times,serif" font-size="14.00">physiographic_data_id :integer</text>
<text text-anchor="start" x="129.5" y="-38.8" font-family="Times,serif" font-size="14.00">language :string</text>
<text text-anchor="start" x="129.5" y="-23.8" font-family="Times,serif" font-size="14.00">created_at :datetime</text>
<text text-anchor="start" x="129.5" y="-8.8" font-family="Times,serif" font-size="14.00">updated_at :datetime</text>
</g>
<!-- PhysiographicData&#45;&gt;PhysiographicDataLanguage -->
<g id="edge3" class="edge"><title>PhysiographicData&#45;&gt;PhysiographicDataLanguage</title>
<path fill="none" stroke="#e5b259" d="M214,-136.077C214,-129.706 214,-123.498 214,-117.537"/>
<ellipse fill="none" stroke="#e5b259" cx="214" cy="-140.335" rx="4" ry="4"/>
<polygon fill="#e5b259" stroke="#e5b259" points="214,-117.092 218.5,-107.092 214,-112.092 214,-107.092 214,-107.092 214,-107.092 214,-112.092 209.5,-107.092 214,-117.092 214,-117.092"/>
</g>
<!-- Etnia -->
<g id="node4" class="node"><title>Etnia</title>
<path fill="none" stroke="black" d="M602.5,-1C602.5,-1 757.5,-1 757.5,-1 763.5,-1 769.5,-7 769.5,-13 769.5,-13 769.5,-95 769.5,-95 769.5,-101 763.5,-107 757.5,-107 757.5,-107 602.5,-107 602.5,-107 596.5,-107 590.5,-101 590.5,-95 590.5,-95 590.5,-13 590.5,-13 590.5,-7 596.5,-1 602.5,-1"/>
<text text-anchor="middle" x="680" y="-91.8" font-family="Times,serif" font-size="14.00">Etnia</text>
<polyline fill="none" stroke="black" points="590.5,-84 769.5,-84 "/>
<text text-anchor="start" x="598.5" y="-68.8" font-family="Times,serif" font-size="14.00">id :integer</text>
<text text-anchor="start" x="598.5" y="-53.8" font-family="Times,serif" font-size="14.00">demographic_data_id :integer</text>
<text text-anchor="start" x="598.5" y="-38.8" font-family="Times,serif" font-size="14.00">name :string</text>
<text text-anchor="start" x="598.5" y="-23.8" font-family="Times,serif" font-size="14.00">created_at :datetime</text>
<text text-anchor="start" x="598.5" y="-8.8" font-family="Times,serif" font-size="14.00">updated_at :datetime</text>
</g>
<!-- PdsiBasePoloDatum -->
<g id="node5" class="node"><title>PdsiBasePoloDatum</title>
<path fill="none" stroke="black" d="M310,-234.5C310,-234.5 420,-234.5 420,-234.5 426,-234.5 432,-240.5 432,-246.5 432,-246.5 432,-343.5 432,-343.5 432,-349.5 426,-355.5 420,-355.5 420,-355.5 310,-355.5 310,-355.5 304,-355.5 298,-349.5 298,-343.5 298,-343.5 298,-246.5 298,-246.5 298,-240.5 304,-234.5 310,-234.5"/>
<text text-anchor="middle" x="365" y="-340.3" font-family="Times,serif" font-size="14.00">PdsiBasePoloDatum</text>
<polyline fill="none" stroke="black" points="298,-332.5 432,-332.5 "/>
<text text-anchor="start" x="306" y="-317.3" font-family="Times,serif" font-size="14.00">id :integer</text>
<text text-anchor="start" x="306" y="-302.3" font-family="Times,serif" font-size="14.00">pdsi_id :integer</text>
<text text-anchor="start" x="306" y="-287.3" font-family="Times,serif" font-size="14.00">base_polo_id :integer</text>
<text text-anchor="start" x="306" y="-272.3" font-family="Times,serif" font-size="14.00">city_name :string</text>
<text text-anchor="start" x="306" y="-257.3" font-family="Times,serif" font-size="14.00">created_at :datetime</text>
<text text-anchor="start" x="306" y="-242.3" font-family="Times,serif" font-size="14.00">updated_at :datetime</text>
</g>
<!-- Profile -->
<g id="node6" class="node"><title>Profile</title>
<path fill="none" stroke="black" d="M780.5,-520C780.5,-520 887.5,-520 887.5,-520 893.5,-520 899.5,-526 899.5,-532 899.5,-532 899.5,-614 899.5,-614 899.5,-620 893.5,-626 887.5,-626 887.5,-626 780.5,-626 780.5,-626 774.5,-626 768.5,-620 768.5,-614 768.5,-614 768.5,-532 768.5,-532 768.5,-526 774.5,-520 780.5,-520"/>
<text text-anchor="middle" x="834" y="-610.8" font-family="Times,serif" font-size="14.00">Profile</text>
<polyline fill="none" stroke="black" points="768.5,-603 899.5,-603 "/>
<text text-anchor="start" x="776.5" y="-587.8" font-family="Times,serif" font-size="14.00">id :integer</text>
<text text-anchor="start" x="776.5" y="-572.8" font-family="Times,serif" font-size="14.00">user_id :integer</text>
<text text-anchor="start" x="776.5" y="-557.8" font-family="Times,serif" font-size="14.00">name :string</text>
<text text-anchor="start" x="776.5" y="-542.8" font-family="Times,serif" font-size="14.00">created_at :datetime</text>
<text text-anchor="start" x="776.5" y="-527.8" font-family="Times,serif" font-size="14.00">updated_at :datetime</text>
</g>
<!-- UserType -->
<g id="node8" class="node"><title>UserType</title>
<path fill="none" stroke="black" d="M581.5,-972.5C581.5,-972.5 688.5,-972.5 688.5,-972.5 694.5,-972.5 700.5,-978.5 700.5,-984.5 700.5,-984.5 700.5,-1051.5 700.5,-1051.5 700.5,-1057.5 694.5,-1063.5 688.5,-1063.5 688.5,-1063.5 581.5,-1063.5 581.5,-1063.5 575.5,-1063.5 569.5,-1057.5 569.5,-1051.5 569.5,-1051.5 569.5,-984.5 569.5,-984.5 569.5,-978.5 575.5,-972.5 581.5,-972.5"/>
<text text-anchor="middle" x="635" y="-1048.3" font-family="Times,serif" font-size="14.00">UserType</text>
<polyline fill="none" stroke="black" points="569.5,-1040.5 700.5,-1040.5 "/>
<text text-anchor="start" x="577.5" y="-1025.3" font-family="Times,serif" font-size="14.00">id :integer</text>
<text text-anchor="start" x="577.5" y="-1010.3" font-family="Times,serif" font-size="14.00">name :string</text>
<text text-anchor="start" x="577.5" y="-995.3" font-family="Times,serif" font-size="14.00">created_at :datetime</text>
<text text-anchor="start" x="577.5" y="-980.3" font-family="Times,serif" font-size="14.00">updated_at :datetime</text>
</g>
<!-- User -->
<g id="node10" class="node"><title>User</title>
<path fill="none" stroke="black" d="M560.5,-701C560.5,-701 709.5,-701 709.5,-701 715.5,-701 721.5,-707 721.5,-713 721.5,-713 721.5,-915 721.5,-915 721.5,-921 715.5,-927 709.5,-927 709.5,-927 560.5,-927 560.5,-927 554.5,-927 548.5,-921 548.5,-915 548.5,-915 548.5,-713 548.5,-713 548.5,-707 554.5,-701 560.5,-701"/>
<text text-anchor="middle" x="635" y="-911.8" font-family="Times,serif" font-size="14.00">User</text>
<polyline fill="none" stroke="black" points="548.5,-904 721.5,-904 "/>
<text text-anchor="start" x="556.5" y="-888.8" font-family="Times,serif" font-size="14.00">id :integer</text>
<text text-anchor="start" x="556.5" y="-873.8" font-family="Times,serif" font-size="14.00">username :string</text>
<text text-anchor="start" x="556.5" y="-858.8" font-family="Times,serif" font-size="14.00">encrypted_password :string</text>
<text text-anchor="start" x="556.5" y="-843.8" font-family="Times,serif" font-size="14.00">sign_in_count :integer</text>
<text text-anchor="start" x="556.5" y="-828.8" font-family="Times,serif" font-size="14.00">current_sign_in_at :datetime</text>
<text text-anchor="start" x="556.5" y="-813.8" font-family="Times,serif" font-size="14.00">last_sign_in_at :datetime</text>
<text text-anchor="start" x="556.5" y="-798.8" font-family="Times,serif" font-size="14.00">current_sign_in_ip :string</text>
<text text-anchor="start" x="556.5" y="-783.8" font-family="Times,serif" font-size="14.00">last_sign_in_ip :string</text>
<text text-anchor="start" x="556.5" y="-768.8" font-family="Times,serif" font-size="14.00">created_at :datetime</text>
<text text-anchor="start" x="556.5" y="-753.8" font-family="Times,serif" font-size="14.00">updated_at :datetime</text>
<text text-anchor="start" x="556.5" y="-738.8" font-family="Times,serif" font-size="14.00">user_type_id :integer</text>
<text text-anchor="start" x="556.5" y="-723.8" font-family="Times,serif" font-size="14.00">active :boolean</text>
<text text-anchor="start" x="556.5" y="-708.8" font-family="Times,serif" font-size="14.00">dsei_id :integer</text>
</g>
<!-- UserType&#45;&gt;User -->
<g id="edge4" class="edge"><title>UserType&#45;&gt;User</title>
<path fill="none" stroke="#44f14b" d="M635,-963.985C635,-955.526 635,-946.481 635,-937.186"/>
<ellipse fill="none" stroke="#44f14b" cx="635" cy="-968.17" rx="4" ry="4"/>
<polygon fill="#44f14b" stroke="#44f14b" points="635,-937.017 639.5,-927.017 635,-932.017 635,-927.017 635,-927.017 635,-927.017 635,-932.017 630.5,-927.017 635,-937.017 635,-937.017"/>
</g>
<!-- BasePolo -->
<g id="node9" class="node"><title>BasePolo</title>
<path fill="none" stroke="black" d="M258.5,-753.5C258.5,-753.5 365.5,-753.5 365.5,-753.5 371.5,-753.5 377.5,-759.5 377.5,-765.5 377.5,-765.5 377.5,-862.5 377.5,-862.5 377.5,-868.5 371.5,-874.5 365.5,-874.5 365.5,-874.5 258.5,-874.5 258.5,-874.5 252.5,-874.5 246.5,-868.5 246.5,-862.5 246.5,-862.5 246.5,-765.5 246.5,-765.5 246.5,-759.5 252.5,-753.5 258.5,-753.5"/>
<text text-anchor="middle" x="312" y="-859.3" font-family="Times,serif" font-size="14.00">BasePolo</text>
<polyline fill="none" stroke="black" points="246.5,-851.5 377.5,-851.5 "/>
<text text-anchor="start" x="254.5" y="-836.3" font-family="Times,serif" font-size="14.00">id :integer</text>
<text text-anchor="start" x="254.5" y="-821.3" font-family="Times,serif" font-size="14.00">dsei_id :integer</text>
<text text-anchor="start" x="254.5" y="-806.3" font-family="Times,serif" font-size="14.00">name :string</text>
<text text-anchor="start" x="254.5" y="-791.3" font-family="Times,serif" font-size="14.00">sesai_id :integer</text>
<text text-anchor="start" x="254.5" y="-776.3" font-family="Times,serif" font-size="14.00">created_at :datetime</text>
<text text-anchor="start" x="254.5" y="-761.3" font-family="Times,serif" font-size="14.00">updated_at :datetime</text>
</g>
<!-- BasePolo&#45;&gt;Village -->
<g id="edge5" class="edge"><title>BasePolo&#45;&gt;Village</title>
<path fill="none" stroke="#986ae4" d="M284.426,-745.754C273.3,-718.619 260.338,-687.009 248.59,-658.357"/>
<ellipse fill="none" stroke="#986ae4" cx="286.006" cy="-749.606" rx="4.00001" ry="4.00001"/>
<polygon fill="#986ae4" stroke="#986ae4" points="248.451,-658.017 248.82,-647.057 246.554,-653.391 244.657,-648.765 244.657,-648.765 244.657,-648.765 246.554,-653.391 240.493,-650.472 248.451,-658.017 248.451,-658.017"/>
</g>
<!-- BasePolo&#45;&gt;PdsiBasePoloDatum -->
<g id="edge6" class="edge"><title>BasePolo&#45;&gt;PdsiBasePoloDatum</title>
<path fill="none" stroke="#d7c5b6" d="M313.454,-744.918C315.463,-677.848 320.165,-572.571 331,-482 335.711,-442.621 343.548,-398.985 350.511,-363.88"/>
<ellipse fill="none" stroke="#d7c5b6" cx="313.326" cy="-749.312" rx="4" ry="4"/>
<ellipse fill="#d7c5b6" stroke="#d7c5b6" cx="351.382" cy="-359.53" rx="4.00001" ry="4.00001"/>
</g>
<!-- User&#45;&gt;Profile -->
<g id="edge7" class="edge"><title>User&#45;&gt;Profile</title>
<path fill="none" stroke="#a2e452" d="M727.013,-702.492C747.145,-678.313 767.688,-653.641 785.32,-632.465"/>
<ellipse fill="none" stroke="#a2e452" cx="724.265" cy="-705.792" rx="4.00002" ry="4.00002"/>
<ellipse fill="#a2e452" stroke="#a2e452" cx="787.894" cy="-629.373" rx="4.00002" ry="4.00002"/>
</g>
<!-- Pdsi -->
<g id="node12" class="node"><title>Pdsi</title>
<path fill="none" stroke="black" d="M352,-482.5C352,-482.5 528,-482.5 528,-482.5 534,-482.5 540,-488.5 540,-494.5 540,-494.5 540,-651.5 540,-651.5 540,-657.5 534,-663.5 528,-663.5 528,-663.5 352,-663.5 352,-663.5 346,-663.5 340,-657.5 340,-651.5 340,-651.5 340,-494.5 340,-494.5 340,-488.5 346,-482.5 352,-482.5"/>
<text text-anchor="middle" x="440" y="-648.3" font-family="Times,serif" font-size="14.00">Pdsi</text>
<polyline fill="none" stroke="black" points="340,-640.5 540,-640.5 "/>
<text text-anchor="start" x="348" y="-625.3" font-family="Times,serif" font-size="14.00">id :integer</text>
<text text-anchor="start" x="348" y="-610.3" font-family="Times,serif" font-size="14.00">user_id :integer</text>
<text text-anchor="start" x="348" y="-595.3" font-family="Times,serif" font-size="14.00">processo_construcao_pdsi_2 :text</text>
<text text-anchor="start" x="348" y="-580.3" font-family="Times,serif" font-size="14.00">created_at :datetime</text>
<text text-anchor="start" x="348" y="-565.3" font-family="Times,serif" font-size="14.00">updated_at :datetime</text>
<text text-anchor="start" x="348" y="-550.3" font-family="Times,serif" font-size="14.00">caracterizacao_do_dsei_3 :text</text>
<text text-anchor="start" x="348" y="-535.3" font-family="Times,serif" font-size="14.00">map_file_name :string</text>
<text text-anchor="start" x="348" y="-520.3" font-family="Times,serif" font-size="14.00">map_content_type :string</text>
<text text-anchor="start" x="348" y="-505.3" font-family="Times,serif" font-size="14.00">map_file_size :integer</text>
<text text-anchor="start" x="348" y="-490.3" font-family="Times,serif" font-size="14.00">map_updated_at :datetime</text>
</g>
<!-- User&#45;&gt;Pdsi -->
<g id="edge10" class="edge"><title>User&#45;&gt;Pdsi</title>
<path fill="none" stroke="#737dde" d="M543.114,-700.38C534.909,-690.325 526.652,-680.204 518.574,-670.304"/>
<ellipse fill="none" stroke="#737dde" cx="545.806" cy="-703.68" rx="4.00002" ry="4.00002"/>
<ellipse fill="#737dde" stroke="#737dde" cx="515.823" cy="-666.932" rx="4.00002" ry="4.00002"/>
</g>
<!-- Cost -->
<g id="node14" class="node"><title>Cost</title>
<path fill="none" stroke="black" d="M570,-512.5C570,-512.5 700,-512.5 700,-512.5 706,-512.5 712,-518.5 712,-524.5 712,-524.5 712,-621.5 712,-621.5 712,-627.5 706,-633.5 700,-633.5 700,-633.5 570,-633.5 570,-633.5 564,-633.5 558,-627.5 558,-621.5 558,-621.5 558,-524.5 558,-524.5 558,-518.5 564,-512.5 570,-512.5"/>
<text text-anchor="middle" x="635" y="-618.3" font-family="Times,serif" font-size="14.00">Cost</text>
<polyline fill="none" stroke="black" points="558,-610.5 712,-610.5 "/>
<text text-anchor="start" x="566" y="-595.3" font-family="Times,serif" font-size="14.00">id :integer</text>
<text text-anchor="start" x="566" y="-580.3" font-family="Times,serif" font-size="14.00">name :string</text>
<text text-anchor="start" x="566" y="-565.3" font-family="Times,serif" font-size="14.00">ask_distribution :boolean</text>
<text text-anchor="start" x="566" y="-550.3" font-family="Times,serif" font-size="14.00">data_type :string</text>
<text text-anchor="start" x="566" y="-535.3" font-family="Times,serif" font-size="14.00">created_at :datetime</text>
<text text-anchor="start" x="566" y="-520.3" font-family="Times,serif" font-size="14.00">updated_at :datetime</text>
</g>
<!-- User&#45;&gt;Cost -->
<g id="edge8" class="edge"><title>User&#45;&gt;Cost</title>
<path fill="none" stroke="#a315cb" d="M635,-690.791C635,-674.667 635,-658.608 635,-643.79"/>
<polygon fill="#a315cb" stroke="#a315cb" points="635,-690.848 630.5,-700.848 635,-695.848 635,-700.848 635,-700.848 635,-700.848 635,-695.848 639.5,-700.848 635,-690.848 635,-690.848"/>
<polygon fill="#a315cb" stroke="#a315cb" points="635,-643.744 639.5,-633.744 635,-638.744 635,-633.744 635,-633.744 635,-633.744 635,-638.744 630.5,-633.744 635,-643.744 635,-643.744"/>
</g>
<!-- CostUser -->
<g id="node16" class="node"><title>CostUser</title>
<path fill="none" stroke="black" d="M686.5,-204.5C686.5,-204.5 793.5,-204.5 793.5,-204.5 799.5,-204.5 805.5,-210.5 805.5,-216.5 805.5,-216.5 805.5,-373.5 805.5,-373.5 805.5,-379.5 799.5,-385.5 793.5,-385.5 793.5,-385.5 686.5,-385.5 686.5,-385.5 680.5,-385.5 674.5,-379.5 674.5,-373.5 674.5,-373.5 674.5,-216.5 674.5,-216.5 674.5,-210.5 680.5,-204.5 686.5,-204.5"/>
<text text-anchor="middle" x="740" y="-370.3" font-family="Times,serif" font-size="14.00">CostUser</text>
<polyline fill="none" stroke="black" points="674.5,-362.5 805.5,-362.5 "/>
<text text-anchor="start" x="682.5" y="-347.3" font-family="Times,serif" font-size="14.00">id :integer</text>
<text text-anchor="start" x="682.5" y="-332.3" font-family="Times,serif" font-size="14.00">cost_id :integer</text>
<text text-anchor="start" x="682.5" y="-317.3" font-family="Times,serif" font-size="14.00">user_id :integer</text>
<text text-anchor="start" x="682.5" y="-302.3" font-family="Times,serif" font-size="14.00">value_2015 :decimal</text>
<text text-anchor="start" x="682.5" y="-287.3" font-family="Times,serif" font-size="14.00">value_2016 :decimal</text>
<text text-anchor="start" x="682.5" y="-272.3" font-family="Times,serif" font-size="14.00">reason :text</text>
<text text-anchor="start" x="682.5" y="-257.3" font-family="Times,serif" font-size="14.00">criteria :text</text>
<text text-anchor="start" x="682.5" y="-242.3" font-family="Times,serif" font-size="14.00">distribution :text</text>
<text text-anchor="start" x="682.5" y="-227.3" font-family="Times,serif" font-size="14.00">created_at :datetime</text>
<text text-anchor="start" x="682.5" y="-212.3" font-family="Times,serif" font-size="14.00">updated_at :datetime</text>
</g>
<!-- User&#45;&gt;CostUser -->
<g id="edge9" class="edge"><title>User&#45;&gt;CostUser</title>
<path fill="none" stroke="#5da2a2" d="M710.258,-693.382C714.432,-683.671 718.098,-673.814 721,-664 746.99,-576.112 749.842,-471.345 747.313,-396.114"/>
<ellipse fill="none" stroke="#5da2a2" cx="708.596" cy="-697.122" rx="4.00002" ry="4.00002"/>
<polygon fill="#5da2a2" stroke="#5da2a2" points="747.297,-395.692 751.419,-385.53 747.109,-390.695 746.922,-385.699 746.922,-385.699 746.922,-385.699 747.109,-390.695 742.425,-385.868 747.297,-395.692 747.297,-395.692"/>
</g>
<!-- Transportation -->
<g id="node11" class="node"><title>Transportation</title>
<path fill="none" stroke="black" d="M405.5,-1C405.5,-1 560.5,-1 560.5,-1 566.5,-1 572.5,-7 572.5,-13 572.5,-13 572.5,-95 572.5,-95 572.5,-101 566.5,-107 560.5,-107 560.5,-107 405.5,-107 405.5,-107 399.5,-107 393.5,-101 393.5,-95 393.5,-95 393.5,-13 393.5,-13 393.5,-7 399.5,-1 405.5,-1"/>
<text text-anchor="middle" x="483" y="-91.8" font-family="Times,serif" font-size="14.00">Transportation</text>
<polyline fill="none" stroke="black" points="393.5,-84 572.5,-84 "/>
<text text-anchor="start" x="401.5" y="-68.8" font-family="Times,serif" font-size="14.00">id :integer</text>
<text text-anchor="start" x="401.5" y="-53.8" font-family="Times,serif" font-size="14.00">demographic_data_id :integer</text>
<text text-anchor="start" x="401.5" y="-38.8" font-family="Times,serif" font-size="14.00">name :string</text>
<text text-anchor="start" x="401.5" y="-23.8" font-family="Times,serif" font-size="14.00">created_at :datetime</text>
<text text-anchor="start" x="401.5" y="-8.8" font-family="Times,serif" font-size="14.00">updated_at :datetime</text>
</g>
<!-- Pdsi&#45;&gt;PhysiographicData -->
<g id="edge12" class="edge"><title>Pdsi&#45;&gt;PhysiographicData</title>
<path fill="none" stroke="#4bdf35" d="M333.411,-492.732C317.444,-478.216 302.001,-462.426 289,-446 287.882,-444.587 286.774,-443.155 285.677,-441.706"/>
<ellipse fill="none" stroke="#4bdf35" cx="336.813" cy="-495.776" rx="4.00002" ry="4.00002"/>
<polygon fill="#4bdf35" stroke="#4bdf35" points="285.389,-441.311 283.145,-430.577 282.448,-437.267 279.506,-433.224 279.506,-433.224 279.506,-433.224 282.448,-437.267 275.867,-435.871 285.389,-441.311 285.389,-441.311"/>
</g>
<!-- Pdsi&#45;&gt;PdsiBasePoloDatum -->
<g id="edge13" class="edge"><title>Pdsi&#45;&gt;PdsiBasePoloDatum</title>
<path fill="none" stroke="#1da023" d="M413.512,-474.525C403.741,-438.568 392.876,-398.583 383.909,-365.584"/>
<ellipse fill="none" stroke="#1da023" cx="414.601" cy="-478.531" rx="4.00001" ry="4.00001"/>
<polygon fill="#1da023" stroke="#1da023" points="383.813,-365.23 385.533,-354.4 382.501,-360.405 381.19,-355.58 381.19,-355.58 381.19,-355.58 382.501,-360.405 376.848,-356.76 383.813,-365.23 383.813,-365.23"/>
</g>
<!-- DemographicData -->
<g id="node15" class="node"><title>DemographicData</title>
<path fill="none" stroke="black" d="M462,-144.5C462,-144.5 644,-144.5 644,-144.5 650,-144.5 656,-150.5 656,-156.5 656,-156.5 656,-433.5 656,-433.5 656,-439.5 650,-445.5 644,-445.5 644,-445.5 462,-445.5 462,-445.5 456,-445.5 450,-439.5 450,-433.5 450,-433.5 450,-156.5 450,-156.5 450,-150.5 456,-144.5 462,-144.5"/>
<text text-anchor="middle" x="553" y="-430.3" font-family="Times,serif" font-size="14.00">DemographicData</text>
<polyline fill="none" stroke="black" points="450,-422.5 656,-422.5 "/>
<text text-anchor="start" x="458" y="-407.3" font-family="Times,serif" font-size="14.00">id :integer</text>
<text text-anchor="start" x="458" y="-392.3" font-family="Times,serif" font-size="14.00">pdsi_id :integer</text>
<text text-anchor="start" x="458" y="-377.3" font-family="Times,serif" font-size="14.00">extensao_territorial :string</text>
<text text-anchor="start" x="458" y="-362.3" font-family="Times,serif" font-size="14.00">municipio_sede :string</text>
<text text-anchor="start" x="458" y="-347.3" font-family="Times,serif" font-size="14.00">endereco :string</text>
<text text-anchor="start" x="458" y="-332.3" font-family="Times,serif" font-size="14.00">email :string</text>
<text text-anchor="start" x="458" y="-317.3" font-family="Times,serif" font-size="14.00">numero_municipios :integer</text>
<text text-anchor="start" x="458" y="-302.3" font-family="Times,serif" font-size="14.00">populacao_indigena :integer</text>
<text text-anchor="start" x="458" y="-287.3" font-family="Times,serif" font-size="14.00">etnias :text</text>
<text text-anchor="start" x="458" y="-272.3" font-family="Times,serif" font-size="14.00">numero_polos_base :integer</text>
<text text-anchor="start" x="458" y="-257.3" font-family="Times,serif" font-size="14.00">numero_ubsi :integer</text>
<text text-anchor="start" x="458" y="-242.3" font-family="Times,serif" font-size="14.00">numero_regioes_de_saude :integer</text>
<text text-anchor="start" x="458" y="-227.3" font-family="Times,serif" font-size="14.00">numero_casais :integer</text>
<text text-anchor="start" x="458" y="-212.3" font-family="Times,serif" font-size="14.00">numero_aldeias :integer</text>
<text text-anchor="start" x="458" y="-197.3" font-family="Times,serif" font-size="14.00">numero_familias :integer</text>
<text text-anchor="start" x="458" y="-182.3" font-family="Times,serif" font-size="14.00">meios_de_transporte :text</text>
<text text-anchor="start" x="458" y="-167.3" font-family="Times,serif" font-size="14.00">created_at :datetime</text>
<text text-anchor="start" x="458" y="-152.3" font-family="Times,serif" font-size="14.00">updated_at :datetime</text>
</g>
<!-- Pdsi&#45;&gt;DemographicData -->
<g id="edge11" class="edge"><title>Pdsi&#45;&gt;DemographicData</title>
<path fill="none" stroke="#9392dd" d="M479.774,-474.852C482.625,-467.89 485.538,-460.775 488.48,-453.587"/>
<ellipse fill="none" stroke="#9392dd" cx="478.203" cy="-478.689" rx="4.00001" ry="4.00001"/>
<ellipse fill="#9392dd" stroke="#9392dd" cx="490.168" cy="-449.466" rx="4.00001" ry="4.00001"/>
</g>
<!-- Dsei -->
<g id="node13" class="node"><title>Dsei</title>
<path fill="none" stroke="black" d="M345.5,-965C345.5,-965 452.5,-965 452.5,-965 458.5,-965 464.5,-971 464.5,-977 464.5,-977 464.5,-1059 464.5,-1059 464.5,-1065 458.5,-1071 452.5,-1071 452.5,-1071 345.5,-1071 345.5,-1071 339.5,-1071 333.5,-1065 333.5,-1059 333.5,-1059 333.5,-977 333.5,-977 333.5,-971 339.5,-965 345.5,-965"/>
<text text-anchor="middle" x="399" y="-1055.8" font-family="Times,serif" font-size="14.00">Dsei</text>
<polyline fill="none" stroke="black" points="333.5,-1048 464.5,-1048 "/>
<text text-anchor="start" x="341.5" y="-1032.8" font-family="Times,serif" font-size="14.00">id :integer</text>
<text text-anchor="start" x="341.5" y="-1017.8" font-family="Times,serif" font-size="14.00">name :string</text>
<text text-anchor="start" x="341.5" y="-1002.8" font-family="Times,serif" font-size="14.00">sesai_id :integer</text>
<text text-anchor="start" x="341.5" y="-987.8" font-family="Times,serif" font-size="14.00">created_at :datetime</text>
<text text-anchor="start" x="341.5" y="-972.8" font-family="Times,serif" font-size="14.00">updated_at :datetime</text>
</g>
<!-- Dsei&#45;&gt;BasePolo -->
<g id="edge14" class="edge"><title>Dsei&#45;&gt;BasePolo</title>
<path fill="none" stroke="#998669" d="M373.329,-957.397C363.415,-934.378 352.007,-907.89 341.739,-884.05"/>
<ellipse fill="none" stroke="#998669" cx="375.013" cy="-961.306" rx="4.00002" ry="4.00002"/>
<polygon fill="#998669" stroke="#998669" points="341.672,-883.894 341.85,-872.93 339.695,-879.302 337.717,-874.71 337.717,-874.71 337.717,-874.71 339.695,-879.302 333.584,-876.49 341.672,-883.894 341.672,-883.894"/>
</g>
<!-- Dsei&#45;&gt;User -->
<g id="edge15" class="edge"><title>Dsei&#45;&gt;User</title>
<path fill="none" stroke="#8a3e12" d="M466.174,-959.504C489.294,-939.714 515.633,-917.17 540.517,-895.871"/>
<ellipse fill="none" stroke="#8a3e12" cx="462.815" cy="-962.379" rx="4.00002" ry="4.00002"/>
<polygon fill="#8a3e12" stroke="#8a3e12" points="540.591,-895.808 551.114,-892.724 544.389,-892.557 548.188,-889.305 548.188,-889.305 548.188,-889.305 544.389,-892.557 545.262,-885.887 540.591,-895.808 540.591,-895.808"/>
</g>
<!-- Cost&#45;&gt;CostUser -->
<g id="edge16" class="edge"><title>Cost&#45;&gt;CostUser</title>
<path fill="none" stroke="#4e072d" d="M660.513,-504.936C673.04,-472.01 688.381,-431.684 702.233,-395.272"/>
<ellipse fill="none" stroke="#4e072d" cx="659.076" cy="-508.713" rx="4.00001" ry="4.00001"/>
<polygon fill="#4e072d" stroke="#4e072d" points="702.352,-394.959 710.114,-387.213 704.13,-390.286 705.908,-385.613 705.908,-385.613 705.908,-385.613 704.13,-390.286 701.702,-384.013 702.352,-394.959 702.352,-394.959"/>
</g>
<!-- DemographicData&#45;&gt;Etnia -->
<g id="edge17" class="edge"><title>DemographicData&#45;&gt;Etnia</title>
<path fill="none" stroke="#0378f8" d="M636.434,-136.986C640.278,-129.753 644.013,-122.723 647.575,-116.02"/>
<ellipse fill="none" stroke="#0378f8" cx="634.406" cy="-140.802" rx="4.00002" ry="4.00002"/>
<polygon fill="#0378f8" stroke="#0378f8" points="647.627,-115.923 656.293,-109.204 649.973,-111.507 652.319,-107.092 652.319,-107.092 652.319,-107.092 649.973,-111.507 648.346,-104.98 647.627,-115.923 647.627,-115.923"/>
</g>
<!-- DemographicData&#45;&gt;Transportation -->
<g id="edge18" class="edge"><title>DemographicData&#45;&gt;Transportation</title>
<path fill="none" stroke="#77a84d" d="M506.835,-136.38C504.855,-129.619 502.928,-123.039 501.083,-116.742"/>
<ellipse fill="none" stroke="#77a84d" cx="508.041" cy="-140.496" rx="4.00001" ry="4.00001"/>
<polygon fill="#77a84d" stroke="#77a84d" points="501.068,-116.689 502.576,-105.827 499.663,-111.89 498.257,-107.092 498.257,-107.092 498.257,-107.092 499.663,-111.89 493.938,-108.357 501.068,-116.689 501.068,-116.689"/>
</g>
<!-- TextTemplate -->
<g id="node17" class="node"><title>TextTemplate</title>
<path fill="none" stroke="black" d="M731,-965C731,-965 907,-965 907,-965 913,-965 919,-971 919,-977 919,-977 919,-1059 919,-1059 919,-1065 913,-1071 907,-1071 907,-1071 731,-1071 731,-1071 725,-1071 719,-1065 719,-1059 719,-1059 719,-977 719,-977 719,-971 725,-965 731,-965"/>
<text text-anchor="middle" x="819" y="-1055.8" font-family="Times,serif" font-size="14.00">TextTemplate</text>
<polyline fill="none" stroke="black" points="719,-1048 919,-1048 "/>
<text text-anchor="start" x="727" y="-1032.8" font-family="Times,serif" font-size="14.00">id :integer</text>
<text text-anchor="start" x="727" y="-1017.8" font-family="Times,serif" font-size="14.00">introducao_1 :text</text>
<text text-anchor="start" x="727" y="-1002.8" font-family="Times,serif" font-size="14.00">created_at :datetime</text>
<text text-anchor="start" x="727" y="-987.8" font-family="Times,serif" font-size="14.00">updated_at :datetime</text>
<text text-anchor="start" x="727" y="-972.8" font-family="Times,serif" font-size="14.00">processo_construcao_pdsi_2 :text</text>
</g>
</g>
</svg>
