<?xml version="1.0" encoding="UTF-8" standalone="no"?>
<!DOCTYPE svg PUBLIC "-//W3C//DTD SVG 1.1//EN"
 "http://www.w3.org/Graphics/SVG/1.1/DTD/svg11.dtd">
<!-- Generated by graphviz version 2.36.0 (20140111.2315)
 -->
<!-- Title: models_diagram Pages: 1 -->
<svg width="1206pt" height="1418pt"
 viewBox="0.00 0.00 1206.00 1418.00" xmlns="http://www.w3.org/2000/svg" xmlns:xlink="http://www.w3.org/1999/xlink">
<g id="graph0" class="graph" transform="scale(1 1) rotate(0) translate(4 1414)">
<title>models_diagram</title>
<polygon fill="none" stroke="none" points="-4,4 -4,-1414 1202,-1414 1202,4 -4,4"/>
<!-- _diagram_info -->
<g id="node1" class="node"><title>_diagram_info</title>
<text text-anchor="start" x="357" y="-1380.6" font-family="Times,serif" font-size="13.00">Models diagram</text>
<text text-anchor="start" x="357" y="-1366.6" font-family="Times,serif" font-size="13.00">Date: Sep 16 2015 &#45; 13:35</text>
<text text-anchor="start" x="357" y="-1352.6" font-family="Times,serif" font-size="13.00">Migration version: 20150915200748</text>
<text text-anchor="start" x="357" y="-1338.6" font-family="Times,serif" font-size="13.00">Generated by RailRoady 1.3.1</text>
<text text-anchor="start" x="357" y="-1324.6" font-family="Times,serif" font-size="13.00">http://railroady.prestonlee.com</text>
</g>
<!-- Village -->
<g id="node2" class="node"><title>Village</title>
<path fill="none" stroke="black" d="M12,-557.5C12,-557.5 122,-557.5 122,-557.5 128,-557.5 134,-563.5 134,-569.5 134,-569.5 134,-696.5 134,-696.5 134,-702.5 128,-708.5 122,-708.5 122,-708.5 12,-708.5 12,-708.5 6,-708.5 0,-702.5 0,-696.5 0,-696.5 0,-569.5 0,-569.5 0,-563.5 6,-557.5 12,-557.5"/>
<text text-anchor="middle" x="67" y="-693.3" font-family="Times,serif" font-size="14.00">Village</text>
<polyline fill="none" stroke="black" points="0,-685.5 134,-685.5 "/>
<text text-anchor="start" x="8" y="-670.3" font-family="Times,serif" font-size="14.00">id :integer</text>
<text text-anchor="start" x="8" y="-655.3" font-family="Times,serif" font-size="14.00">base_polo_id :integer</text>
<text text-anchor="start" x="8" y="-640.3" font-family="Times,serif" font-size="14.00">name :string</text>
<text text-anchor="start" x="8" y="-625.3" font-family="Times,serif" font-size="14.00">sesai_id :integer</text>
<text text-anchor="start" x="8" y="-610.3" font-family="Times,serif" font-size="14.00">city_name :string</text>
<text text-anchor="start" x="8" y="-595.3" font-family="Times,serif" font-size="14.00">city_sesai_id :integer</text>
<text text-anchor="start" x="8" y="-580.3" font-family="Times,serif" font-size="14.00">created_at :datetime</text>
<text text-anchor="start" x="8" y="-565.3" font-family="Times,serif" font-size="14.00">updated_at :datetime</text>
</g>
<!-- PhysiographicData -->
<g id="node3" class="node"><title>PhysiographicData</title>
<path fill="none" stroke="black" d="M220.5,-144.5C220.5,-144.5 327.5,-144.5 327.5,-144.5 333.5,-144.5 339.5,-150.5 339.5,-156.5 339.5,-156.5 339.5,-433.5 339.5,-433.5 339.5,-439.5 333.5,-445.5 327.5,-445.5 327.5,-445.5 220.5,-445.5 220.5,-445.5 214.5,-445.5 208.5,-439.5 208.5,-433.5 208.5,-433.5 208.5,-156.5 208.5,-156.5 208.5,-150.5 214.5,-144.5 220.5,-144.5"/>
<text text-anchor="middle" x="274" y="-430.3" font-family="Times,serif" font-size="14.00">PhysiographicData</text>
<polyline fill="none" stroke="black" points="208.5,-422.5 339.5,-422.5 "/>
<text text-anchor="start" x="216.5" y="-407.3" font-family="Times,serif" font-size="14.00">id :integer</text>
<text text-anchor="start" x="216.5" y="-392.3" font-family="Times,serif" font-size="14.00">pdsi_id :integer</text>
<text text-anchor="start" x="216.5" y="-377.3" font-family="Times,serif" font-size="14.00">village_id :integer</text>
<text text-anchor="start" x="216.5" y="-362.3" font-family="Times,serif" font-size="14.00">pt_fluency :string</text>
<text text-anchor="start" x="216.5" y="-347.3" font-family="Times,serif" font-size="14.00">m_1 :integer</text>
<text text-anchor="start" x="216.5" y="-332.3" font-family="Times,serif" font-size="14.00">m_1_4 :integer</text>
<text text-anchor="start" x="216.5" y="-317.3" font-family="Times,serif" font-size="14.00">m_5_9 :integer</text>
<text text-anchor="start" x="216.5" y="-302.3" font-family="Times,serif" font-size="14.00">m_10_49 :integer</text>
<text text-anchor="start" x="216.5" y="-287.3" font-family="Times,serif" font-size="14.00">m_50_59 :integer</text>
<text text-anchor="start" x="216.5" y="-272.3" font-family="Times,serif" font-size="14.00">m_60 :integer</text>
<text text-anchor="start" x="216.5" y="-257.3" font-family="Times,serif" font-size="14.00">w_1 :integer</text>
<text text-anchor="start" x="216.5" y="-242.3" font-family="Times,serif" font-size="14.00">w_1_4 :integer</text>
<text text-anchor="start" x="216.5" y="-227.3" font-family="Times,serif" font-size="14.00">w_5_9 :integer</text>
<text text-anchor="start" x="216.5" y="-212.3" font-family="Times,serif" font-size="14.00">w_10_49 :integer</text>
<text text-anchor="start" x="216.5" y="-197.3" font-family="Times,serif" font-size="14.00">w_50_59 :integer</text>
<text text-anchor="start" x="216.5" y="-182.3" font-family="Times,serif" font-size="14.00">w_60 :integer</text>
<text text-anchor="start" x="216.5" y="-167.3" font-family="Times,serif" font-size="14.00">created_at :datetime</text>
<text text-anchor="start" x="216.5" y="-152.3" font-family="Times,serif" font-size="14.00">updated_at :datetime</text>
</g>
<!-- Village&#45;&gt;PhysiographicData -->
<g id="edge2" class="edge"><title>Village&#45;&gt;PhysiographicData</title>
<path fill="none" stroke="#bc1ebd" d="M105.85,-550.012C117.191,-527.603 130.038,-503.561 143,-482 161.369,-451.445 183.07,-419.313 203.471,-390.515"/>
<ellipse fill="none" stroke="#bc1ebd" cx="104.02" cy="-553.652" rx="4.00002" ry="4.00002"/>
<ellipse fill="#bc1ebd" stroke="#bc1ebd" cx="206.031" cy="-386.916" rx="4.00002" ry="4.00002"/>
</g>
<!-- Ethnicity -->
<g id="node8" class="node"><title>Ethnicity</title>
<path fill="none" stroke="black" d="M13.5,-242C13.5,-242 120.5,-242 120.5,-242 126.5,-242 132.5,-248 132.5,-254 132.5,-254 132.5,-336 132.5,-336 132.5,-342 126.5,-348 120.5,-348 120.5,-348 13.5,-348 13.5,-348 7.5,-348 1.5,-342 1.5,-336 1.5,-336 1.5,-254 1.5,-254 1.5,-248 7.5,-242 13.5,-242"/>
<text text-anchor="middle" x="67" y="-332.8" font-family="Times,serif" font-size="14.00">Ethnicity</text>
<polyline fill="none" stroke="black" points="1.5,-325 132.5,-325 "/>
<text text-anchor="start" x="9.5" y="-309.8" font-family="Times,serif" font-size="14.00">id :integer</text>
<text text-anchor="start" x="9.5" y="-294.8" font-family="Times,serif" font-size="14.00">name :string</text>
<text text-anchor="start" x="9.5" y="-279.8" font-family="Times,serif" font-size="14.00">sesai_id :integer</text>
<text text-anchor="start" x="9.5" y="-264.8" font-family="Times,serif" font-size="14.00">created_at :datetime</text>
<text text-anchor="start" x="9.5" y="-249.8" font-family="Times,serif" font-size="14.00">updated_at :datetime</text>
</g>
<!-- Village&#45;&gt;Ethnicity -->
<g id="edge1" class="edge"><title>Village&#45;&gt;Ethnicity</title>
<path fill="none" stroke="#f326af" d="M67,-547.174C67,-488.473 67,-411.653 67,-358.5"/>
<polygon fill="#f326af" stroke="#f326af" points="67.0001,-547.431 62.5,-557.431 67,-552.431 67,-557.431 67,-557.431 67,-557.431 67,-552.431 71.5,-557.431 67.0001,-547.431 67.0001,-547.431"/>
<polygon fill="#f326af" stroke="#f326af" points="67.0001,-358.198 71.5,-348.197 67,-353.198 67,-348.198 67,-348.198 67,-348.198 67,-353.198 62.5,-348.198 67.0001,-358.198 67.0001,-358.198"/>
</g>
<!-- PhysiographicDataLanguage -->
<g id="node22" class="node"><title>PhysiographicDataLanguage</title>
<path fill="none" stroke="black" d="M193.5,-1C193.5,-1 354.5,-1 354.5,-1 360.5,-1 366.5,-7 366.5,-13 366.5,-13 366.5,-95 366.5,-95 366.5,-101 360.5,-107 354.5,-107 354.5,-107 193.5,-107 193.5,-107 187.5,-107 181.5,-101 181.5,-95 181.5,-95 181.5,-13 181.5,-13 181.5,-7 187.5,-1 193.5,-1"/>
<text text-anchor="middle" x="274" y="-91.8" font-family="Times,serif" font-size="14.00">PhysiographicDataLanguage</text>
<polyline fill="none" stroke="black" points="181.5,-84 366.5,-84 "/>
<text text-anchor="start" x="189.5" y="-68.8" font-family="Times,serif" font-size="14.00">id :integer</text>
<text text-anchor="start" x="189.5" y="-53.8" font-family="Times,serif" font-size="14.00">physiographic_data_id :integer</text>
<text text-anchor="start" x="189.5" y="-38.8" font-family="Times,serif" font-size="14.00">language :string</text>
<text text-anchor="start" x="189.5" y="-23.8" font-family="Times,serif" font-size="14.00">created_at :datetime</text>
<text text-anchor="start" x="189.5" y="-8.8" font-family="Times,serif" font-size="14.00">updated_at :datetime</text>
</g>
<!-- PhysiographicData&#45;&gt;PhysiographicDataLanguage -->
<g id="edge3" class="edge"><title>PhysiographicData&#45;&gt;PhysiographicDataLanguage</title>
<path fill="none" stroke="#9619cb" d="M274,-136.077C274,-129.706 274,-123.498 274,-117.537"/>
<ellipse fill="none" stroke="#9619cb" cx="274" cy="-140.335" rx="4" ry="4"/>
<polygon fill="#9619cb" stroke="#9619cb" points="274,-117.092 278.5,-107.092 274,-112.092 274,-107.092 274,-107.092 274,-107.092 274,-112.092 269.5,-107.092 274,-117.092 274,-117.092"/>
</g>
<!-- Etnia -->
<g id="node4" class="node"><title>Etnia</title>
<path fill="none" stroke="black" d="M797.5,-242C797.5,-242 952.5,-242 952.5,-242 958.5,-242 964.5,-248 964.5,-254 964.5,-254 964.5,-336 964.5,-336 964.5,-342 958.5,-348 952.5,-348 952.5,-348 797.5,-348 797.5,-348 791.5,-348 785.5,-342 785.5,-336 785.5,-336 785.5,-254 785.5,-254 785.5,-248 791.5,-242 797.5,-242"/>
<text text-anchor="middle" x="875" y="-332.8" font-family="Times,serif" font-size="14.00">Etnia</text>
<polyline fill="none" stroke="black" points="785.5,-325 964.5,-325 "/>
<text text-anchor="start" x="793.5" y="-309.8" font-family="Times,serif" font-size="14.00">id :integer</text>
<text text-anchor="start" x="793.5" y="-294.8" font-family="Times,serif" font-size="14.00">demographic_data_id :integer</text>
<text text-anchor="start" x="793.5" y="-279.8" font-family="Times,serif" font-size="14.00">name :string</text>
<text text-anchor="start" x="793.5" y="-264.8" font-family="Times,serif" font-size="14.00">created_at :datetime</text>
<text text-anchor="start" x="793.5" y="-249.8" font-family="Times,serif" font-size="14.00">updated_at :datetime</text>
</g>
<!-- PdsiBasePoloDatum -->
<g id="node5" class="node"><title>PdsiBasePoloDatum</title>
<path fill="none" stroke="black" d="M164,-572.5C164,-572.5 274,-572.5 274,-572.5 280,-572.5 286,-578.5 286,-584.5 286,-584.5 286,-681.5 286,-681.5 286,-687.5 280,-693.5 274,-693.5 274,-693.5 164,-693.5 164,-693.5 158,-693.5 152,-687.5 152,-681.5 152,-681.5 152,-584.5 152,-584.5 152,-578.5 158,-572.5 164,-572.5"/>
<text text-anchor="middle" x="219" y="-678.3" font-family="Times,serif" font-size="14.00">PdsiBasePoloDatum</text>
<polyline fill="none" stroke="black" points="152,-670.5 286,-670.5 "/>
<text text-anchor="start" x="160" y="-655.3" font-family="Times,serif" font-size="14.00">id :integer</text>
<text text-anchor="start" x="160" y="-640.3" font-family="Times,serif" font-size="14.00">pdsi_id :integer</text>
<text text-anchor="start" x="160" y="-625.3" font-family="Times,serif" font-size="14.00">base_polo_id :integer</text>
<text text-anchor="start" x="160" y="-610.3" font-family="Times,serif" font-size="14.00">city_name :string</text>
<text text-anchor="start" x="160" y="-595.3" font-family="Times,serif" font-size="14.00">created_at :datetime</text>
<text text-anchor="start" x="160" y="-580.3" font-family="Times,serif" font-size="14.00">updated_at :datetime</text>
</g>
<!-- Profile -->
<g id="node6" class="node"><title>Profile</title>
<path fill="none" stroke="black" d="M1079.5,-858C1079.5,-858 1186.5,-858 1186.5,-858 1192.5,-858 1198.5,-864 1198.5,-870 1198.5,-870 1198.5,-952 1198.5,-952 1198.5,-958 1192.5,-964 1186.5,-964 1186.5,-964 1079.5,-964 1079.5,-964 1073.5,-964 1067.5,-958 1067.5,-952 1067.5,-952 1067.5,-870 1067.5,-870 1067.5,-864 1073.5,-858 1079.5,-858"/>
<text text-anchor="middle" x="1133" y="-948.8" font-family="Times,serif" font-size="14.00">Profile</text>
<polyline fill="none" stroke="black" points="1067.5,-941 1198.5,-941 "/>
<text text-anchor="start" x="1075.5" y="-925.8" font-family="Times,serif" font-size="14.00">id :integer</text>
<text text-anchor="start" x="1075.5" y="-910.8" font-family="Times,serif" font-size="14.00">user_id :integer</text>
<text text-anchor="start" x="1075.5" y="-895.8" font-family="Times,serif" font-size="14.00">name :string</text>
<text text-anchor="start" x="1075.5" y="-880.8" font-family="Times,serif" font-size="14.00">created_at :datetime</text>
<text text-anchor="start" x="1075.5" y="-865.8" font-family="Times,serif" font-size="14.00">updated_at :datetime</text>
</g>
<!-- ServiceNetwork -->
<g id="node7" class="node"><title>ServiceNetwork</title>
<path fill="none" stroke="black" d="M630,-572.5C630,-572.5 740,-572.5 740,-572.5 746,-572.5 752,-578.5 752,-584.5 752,-584.5 752,-681.5 752,-681.5 752,-687.5 746,-693.5 740,-693.5 740,-693.5 630,-693.5 630,-693.5 624,-693.5 618,-687.5 618,-681.5 618,-681.5 618,-584.5 618,-584.5 618,-578.5 624,-572.5 630,-572.5"/>
<text text-anchor="middle" x="685" y="-678.3" font-family="Times,serif" font-size="14.00">ServiceNetwork</text>
<polyline fill="none" stroke="black" points="618,-670.5 752,-670.5 "/>
<text text-anchor="start" x="626" y="-655.3" font-family="Times,serif" font-size="14.00">id :integer</text>
<text text-anchor="start" x="626" y="-640.3" font-family="Times,serif" font-size="14.00">base_polo_id :integer</text>
<text text-anchor="start" x="626" y="-625.3" font-family="Times,serif" font-size="14.00">pdsi_id :integer</text>
<text text-anchor="start" x="626" y="-610.3" font-family="Times,serif" font-size="14.00">city_name :string</text>
<text text-anchor="start" x="626" y="-595.3" font-family="Times,serif" font-size="14.00">created_at :datetime</text>
<text text-anchor="start" x="626" y="-580.3" font-family="Times,serif" font-size="14.00">updated_at :datetime</text>
</g>
<!-- HealthEstablishment -->
<g id="node10" class="node"><title>HealthEstablishment</title>
<path fill="none" stroke="black" d="M611,-242C611,-242 755,-242 755,-242 761,-242 767,-248 767,-254 767,-254 767,-336 767,-336 767,-342 761,-348 755,-348 755,-348 611,-348 611,-348 605,-348 599,-342 599,-336 599,-336 599,-254 599,-254 599,-248 605,-242 611,-242"/>
<text text-anchor="middle" x="683" y="-332.8" font-family="Times,serif" font-size="14.00">HealthEstablishment</text>
<polyline fill="none" stroke="black" points="599,-325 767,-325 "/>
<text text-anchor="start" x="607" y="-309.8" font-family="Times,serif" font-size="14.00">id :integer</text>
<text text-anchor="start" x="607" y="-294.8" font-family="Times,serif" font-size="14.00">service_network_id :integer</text>
<text text-anchor="start" x="607" y="-279.8" font-family="Times,serif" font-size="14.00">name :string</text>
<text text-anchor="start" x="607" y="-264.8" font-family="Times,serif" font-size="14.00">created_at :datetime</text>
<text text-anchor="start" x="607" y="-249.8" font-family="Times,serif" font-size="14.00">updated_at :datetime</text>
</g>
<!-- ServiceNetwork&#45;&gt;HealthEstablishment -->
<g id="edge4" class="edge"><title>ServiceNetwork&#45;&gt;HealthEstablishment</title>
<path fill="none" stroke="#70e8cf" d="M684.597,-564.308C684.239,-504.162 683.72,-416.952 683.372,-358.448"/>
<ellipse fill="none" stroke="#70e8cf" cx="684.621" cy="-568.317" rx="4" ry="4"/>
<polygon fill="#70e8cf" stroke="#70e8cf" points="683.371,-358.232 687.811,-348.206 683.341,-353.232 683.311,-348.232 683.311,-348.232 683.311,-348.232 683.341,-353.232 678.811,-348.259 683.371,-358.232 683.371,-358.232"/>
</g>
<!-- HealthSpecialized -->
<g id="node17" class="node"><title>HealthSpecialized</title>
<path fill="none" stroke="black" d="M425,-242C425,-242 569,-242 569,-242 575,-242 581,-248 581,-254 581,-254 581,-336 581,-336 581,-342 575,-348 569,-348 569,-348 425,-348 425,-348 419,-348 413,-342 413,-336 413,-336 413,-254 413,-254 413,-248 419,-242 425,-242"/>
<text text-anchor="middle" x="497" y="-332.8" font-family="Times,serif" font-size="14.00">HealthSpecialized</text>
<polyline fill="none" stroke="black" points="413,-325 581,-325 "/>
<text text-anchor="start" x="421" y="-309.8" font-family="Times,serif" font-size="14.00">id :integer</text>
<text text-anchor="start" x="421" y="-294.8" font-family="Times,serif" font-size="14.00">service_network_id :integer</text>
<text text-anchor="start" x="421" y="-279.8" font-family="Times,serif" font-size="14.00">name :string</text>
<text text-anchor="start" x="421" y="-264.8" font-family="Times,serif" font-size="14.00">created_at :datetime</text>
<text text-anchor="start" x="421" y="-249.8" font-family="Times,serif" font-size="14.00">updated_at :datetime</text>
</g>
<!-- ServiceNetwork&#45;&gt;HealthSpecialized -->
<g id="edge5" class="edge"><title>ServiceNetwork&#45;&gt;HealthSpecialized</title>
<path fill="none" stroke="#7a3834" d="M649.359,-565.079C635.372,-539.059 619.083,-509.055 604,-482 580.671,-440.155 553.779,-393.413 532.79,-357.255"/>
<ellipse fill="none" stroke="#7a3834" cx="651.348" cy="-568.783" rx="4.00002" ry="4.00002"/>
<polygon fill="#7a3834" stroke="#7a3834" points="532.611,-356.946 531.478,-346.039 530.099,-352.623 527.587,-348.299 527.587,-348.299 527.587,-348.299 530.099,-352.623 523.696,-350.56 532.611,-356.946 532.611,-356.946"/>
</g>
<!-- UserType -->
<g id="node9" class="node"><title>UserType</title>
<path fill="none" stroke="black" d="M813.5,-1310.5C813.5,-1310.5 920.5,-1310.5 920.5,-1310.5 926.5,-1310.5 932.5,-1316.5 932.5,-1322.5 932.5,-1322.5 932.5,-1389.5 932.5,-1389.5 932.5,-1395.5 926.5,-1401.5 920.5,-1401.5 920.5,-1401.5 813.5,-1401.5 813.5,-1401.5 807.5,-1401.5 801.5,-1395.5 801.5,-1389.5 801.5,-1389.5 801.5,-1322.5 801.5,-1322.5 801.5,-1316.5 807.5,-1310.5 813.5,-1310.5"/>
<text text-anchor="middle" x="867" y="-1386.3" font-family="Times,serif" font-size="14.00">UserType</text>
<polyline fill="none" stroke="black" points="801.5,-1378.5 932.5,-1378.5 "/>
<text text-anchor="start" x="809.5" y="-1363.3" font-family="Times,serif" font-size="14.00">id :integer</text>
<text text-anchor="start" x="809.5" y="-1348.3" font-family="Times,serif" font-size="14.00">name :string</text>
<text text-anchor="start" x="809.5" y="-1333.3" font-family="Times,serif" font-size="14.00">created_at :datetime</text>
<text text-anchor="start" x="809.5" y="-1318.3" font-family="Times,serif" font-size="14.00">updated_at :datetime</text>
</g>
<!-- User -->
<g id="node12" class="node"><title>User</title>
<path fill="none" stroke="black" d="M792.5,-1039C792.5,-1039 941.5,-1039 941.5,-1039 947.5,-1039 953.5,-1045 953.5,-1051 953.5,-1051 953.5,-1253 953.5,-1253 953.5,-1259 947.5,-1265 941.5,-1265 941.5,-1265 792.5,-1265 792.5,-1265 786.5,-1265 780.5,-1259 780.5,-1253 780.5,-1253 780.5,-1051 780.5,-1051 780.5,-1045 786.5,-1039 792.5,-1039"/>
<text text-anchor="middle" x="867" y="-1249.8" font-family="Times,serif" font-size="14.00">User</text>
<polyline fill="none" stroke="black" points="780.5,-1242 953.5,-1242 "/>
<text text-anchor="start" x="788.5" y="-1226.8" font-family="Times,serif" font-size="14.00">id :integer</text>
<text text-anchor="start" x="788.5" y="-1211.8" font-family="Times,serif" font-size="14.00">username :string</text>
<text text-anchor="start" x="788.5" y="-1196.8" font-family="Times,serif" font-size="14.00">encrypted_password :string</text>
<text text-anchor="start" x="788.5" y="-1181.8" font-family="Times,serif" font-size="14.00">sign_in_count :integer</text>
<text text-anchor="start" x="788.5" y="-1166.8" font-family="Times,serif" font-size="14.00">current_sign_in_at :datetime</text>
<text text-anchor="start" x="788.5" y="-1151.8" font-family="Times,serif" font-size="14.00">last_sign_in_at :datetime</text>
<text text-anchor="start" x="788.5" y="-1136.8" font-family="Times,serif" font-size="14.00">current_sign_in_ip :string</text>
<text text-anchor="start" x="788.5" y="-1121.8" font-family="Times,serif" font-size="14.00">last_sign_in_ip :string</text>
<text text-anchor="start" x="788.5" y="-1106.8" font-family="Times,serif" font-size="14.00">created_at :datetime</text>
<text text-anchor="start" x="788.5" y="-1091.8" font-family="Times,serif" font-size="14.00">updated_at :datetime</text>
<text text-anchor="start" x="788.5" y="-1076.8" font-family="Times,serif" font-size="14.00">user_type_id :integer</text>
<text text-anchor="start" x="788.5" y="-1061.8" font-family="Times,serif" font-size="14.00">active :boolean</text>
<text text-anchor="start" x="788.5" y="-1046.8" font-family="Times,serif" font-size="14.00">dsei_id :integer</text>
</g>
<!-- UserType&#45;&gt;User -->
<g id="edge6" class="edge"><title>UserType&#45;&gt;User</title>
<path fill="none" stroke="#47e98a" d="M867,-1301.99C867,-1293.53 867,-1284.48 867,-1275.19"/>
<ellipse fill="none" stroke="#47e98a" cx="867" cy="-1306.17" rx="4" ry="4"/>
<polygon fill="#47e98a" stroke="#47e98a" points="867,-1275.02 871.5,-1265.02 867,-1270.02 867,-1265.02 867,-1265.02 867,-1265.02 867,-1270.02 862.5,-1265.02 867,-1275.02 867,-1275.02"/>
</g>
<!-- BasePolo -->
<g id="node11" class="node"><title>BasePolo</title>
<path fill="none" stroke="black" d="M379.5,-850.5C379.5,-850.5 486.5,-850.5 486.5,-850.5 492.5,-850.5 498.5,-856.5 498.5,-862.5 498.5,-862.5 498.5,-959.5 498.5,-959.5 498.5,-965.5 492.5,-971.5 486.5,-971.5 486.5,-971.5 379.5,-971.5 379.5,-971.5 373.5,-971.5 367.5,-965.5 367.5,-959.5 367.5,-959.5 367.5,-862.5 367.5,-862.5 367.5,-856.5 373.5,-850.5 379.5,-850.5"/>
<text text-anchor="middle" x="433" y="-956.3" font-family="Times,serif" font-size="14.00">BasePolo</text>
<polyline fill="none" stroke="black" points="367.5,-948.5 498.5,-948.5 "/>
<text text-anchor="start" x="375.5" y="-933.3" font-family="Times,serif" font-size="14.00">id :integer</text>
<text text-anchor="start" x="375.5" y="-918.3" font-family="Times,serif" font-size="14.00">dsei_id :integer</text>
<text text-anchor="start" x="375.5" y="-903.3" font-family="Times,serif" font-size="14.00">name :string</text>
<text text-anchor="start" x="375.5" y="-888.3" font-family="Times,serif" font-size="14.00">sesai_id :integer</text>
<text text-anchor="start" x="375.5" y="-873.3" font-family="Times,serif" font-size="14.00">created_at :datetime</text>
<text text-anchor="start" x="375.5" y="-858.3" font-family="Times,serif" font-size="14.00">updated_at :datetime</text>
</g>
<!-- BasePolo&#45;&gt;Village -->
<g id="edge7" class="edge"><title>BasePolo&#45;&gt;Village</title>
<path fill="none" stroke="#f3f8dd" d="M359.268,-893.101C295.429,-875.238 204.004,-841.502 143,-784 123.598,-765.712 108.366,-741.38 96.7989,-717.646"/>
<ellipse fill="none" stroke="#f3f8dd" cx="363.446" cy="-894.247" rx="4.00001" ry="4.00001"/>
<polygon fill="#f3f8dd" stroke="#f3f8dd" points="96.7974,-717.642 96.6166,-706.678 94.6707,-713.117 92.544,-708.592 92.544,-708.592 92.544,-708.592 94.6707,-713.117 88.4713,-710.506 96.7974,-717.642 96.7974,-717.642"/>
</g>
<!-- BasePolo&#45;&gt;PdsiBasePoloDatum -->
<g id="edge8" class="edge"><title>BasePolo&#45;&gt;PdsiBasePoloDatum</title>
<path fill="none" stroke="#a15d94" d="M361.351,-853.458C338.389,-833.135 314.012,-809.014 295,-784 275.947,-758.931 259.457,-728.359 246.754,-701.371"/>
<ellipse fill="none" stroke="#a15d94" cx="364.458" cy="-856.179" rx="4.00002" ry="4.00002"/>
<ellipse fill="#a15d94" stroke="#a15d94" cx="244.955" cy="-697.491" rx="4.00002" ry="4.00002"/>
</g>
<!-- BasePolo&#45;&gt;ServiceNetwork -->
<g id="edge10" class="edge"><title>BasePolo&#45;&gt;ServiceNetwork</title>
<path fill="none" stroke="#16b8ca" d="M504.676,-849.045C526.751,-829.107 550.597,-806.33 571,-784 594.394,-758.397 617.966,-728.27 637.555,-701.759"/>
<ellipse fill="none" stroke="#16b8ca" cx="501.477" cy="-851.917" rx="4.00002" ry="4.00002"/>
<polygon fill="#16b8ca" stroke="#16b8ca" points="637.585,-701.719 647.13,-696.32 640.543,-697.688 643.502,-693.657 643.502,-693.657 643.502,-693.657 640.543,-697.688 639.874,-690.994 637.585,-701.719 637.585,-701.719"/>
</g>
<!-- Emsi -->
<g id="node18" class="node"><title>Emsi</title>
<path fill="none" stroke="black" d="M316,-482.5C316,-482.5 550,-482.5 550,-482.5 556,-482.5 562,-488.5 562,-494.5 562,-494.5 562,-771.5 562,-771.5 562,-777.5 556,-783.5 550,-783.5 550,-783.5 316,-783.5 316,-783.5 310,-783.5 304,-777.5 304,-771.5 304,-771.5 304,-494.5 304,-494.5 304,-488.5 310,-482.5 316,-482.5"/>
<text text-anchor="middle" x="433" y="-768.3" font-family="Times,serif" font-size="14.00">Emsi</text>
<polyline fill="none" stroke="black" points="304,-760.5 562,-760.5 "/>
<text text-anchor="start" x="312" y="-745.3" font-family="Times,serif" font-size="14.00">id :integer</text>
<text text-anchor="start" x="312" y="-730.3" font-family="Times,serif" font-size="14.00">pdsi_id :integer</text>
<text text-anchor="start" x="312" y="-715.3" font-family="Times,serif" font-size="14.00">base_polo_id :integer</text>
<text text-anchor="start" x="312" y="-700.3" font-family="Times,serif" font-size="14.00">name :string</text>
<text text-anchor="start" x="312" y="-685.3" font-family="Times,serif" font-size="14.00">numero_medicos :integer</text>
<text text-anchor="start" x="312" y="-670.3" font-family="Times,serif" font-size="14.00">numero_enfermeiros :integer</text>
<text text-anchor="start" x="312" y="-655.3" font-family="Times,serif" font-size="14.00">numero_odontologistas :integer</text>
<text text-anchor="start" x="312" y="-640.3" font-family="Times,serif" font-size="14.00">numero_tecnicos_enfermagem :integer</text>
<text text-anchor="start" x="312" y="-625.3" font-family="Times,serif" font-size="14.00">asb :integer</text>
<text text-anchor="start" x="312" y="-610.3" font-family="Times,serif" font-size="14.00">ais :integer</text>
<text text-anchor="start" x="312" y="-595.3" font-family="Times,serif" font-size="14.00">aisan :integer</text>
<text text-anchor="start" x="312" y="-580.3" font-family="Times,serif" font-size="14.00">aldeias_atendidas :integer</text>
<text text-anchor="start" x="312" y="-565.3" font-family="Times,serif" font-size="14.00">permanencia_medicos :integer</text>
<text text-anchor="start" x="312" y="-550.3" font-family="Times,serif" font-size="14.00">permanencia_enfermeiros :integer</text>
<text text-anchor="start" x="312" y="-535.3" font-family="Times,serif" font-size="14.00">permanencia_odontologistas :integer</text>
<text text-anchor="start" x="312" y="-520.3" font-family="Times,serif" font-size="14.00">permanencia_tecnicos_enfermagem :integer</text>
<text text-anchor="start" x="312" y="-505.3" font-family="Times,serif" font-size="14.00">created_at :datetime</text>
<text text-anchor="start" x="312" y="-490.3" font-family="Times,serif" font-size="14.00">updated_at :datetime</text>
</g>
<!-- BasePolo&#45;&gt;Emsi -->
<g id="edge9" class="edge"><title>BasePolo&#45;&gt;Emsi</title>
<path fill="none" stroke="#b12ea1" d="M433,-842.329C433,-827.259 433,-810.662 433,-793.613"/>
<ellipse fill="none" stroke="#b12ea1" cx="433" cy="-846.452" rx="4" ry="4"/>
<polygon fill="#b12ea1" stroke="#b12ea1" points="433,-793.531 437.5,-783.531 433,-788.531 433,-783.531 433,-783.531 433,-783.531 433,-788.531 428.5,-783.531 433,-793.531 433,-793.531"/>
</g>
<!-- User&#45;&gt;Profile -->
<g id="edge11" class="edge"><title>User&#45;&gt;Profile</title>
<path fill="none" stroke="#6205fe" d="M960.285,-1084.57C992.479,-1060.03 1027.98,-1031.07 1058,-1002 1068.02,-992.302 1078.05,-981.345 1087.36,-970.498"/>
<ellipse fill="none" stroke="#6205fe" cx="957.079" cy="-1087" rx="4.00002" ry="4.00002"/>
<ellipse fill="#6205fe" stroke="#6205fe" cx="1090.17" cy="-967.185" rx="4.00002" ry="4.00002"/>
</g>
<!-- Pdsi -->
<g id="node14" class="node"><title>Pdsi</title>
<path fill="none" stroke="black" d="M563,-820.5C563,-820.5 739,-820.5 739,-820.5 745,-820.5 751,-826.5 751,-832.5 751,-832.5 751,-989.5 751,-989.5 751,-995.5 745,-1001.5 739,-1001.5 739,-1001.5 563,-1001.5 563,-1001.5 557,-1001.5 551,-995.5 551,-989.5 551,-989.5 551,-832.5 551,-832.5 551,-826.5 557,-820.5 563,-820.5"/>
<text text-anchor="middle" x="651" y="-986.3" font-family="Times,serif" font-size="14.00">Pdsi</text>
<polyline fill="none" stroke="black" points="551,-978.5 751,-978.5 "/>
<text text-anchor="start" x="559" y="-963.3" font-family="Times,serif" font-size="14.00">id :integer</text>
<text text-anchor="start" x="559" y="-948.3" font-family="Times,serif" font-size="14.00">user_id :integer</text>
<text text-anchor="start" x="559" y="-933.3" font-family="Times,serif" font-size="14.00">processo_construcao_pdsi_2 :text</text>
<text text-anchor="start" x="559" y="-918.3" font-family="Times,serif" font-size="14.00">created_at :datetime</text>
<text text-anchor="start" x="559" y="-903.3" font-family="Times,serif" font-size="14.00">updated_at :datetime</text>
<text text-anchor="start" x="559" y="-888.3" font-family="Times,serif" font-size="14.00">caracterizacao_do_dsei_3 :text</text>
<text text-anchor="start" x="559" y="-873.3" font-family="Times,serif" font-size="14.00">map_file_name :string</text>
<text text-anchor="start" x="559" y="-858.3" font-family="Times,serif" font-size="14.00">map_content_type :string</text>
<text text-anchor="start" x="559" y="-843.3" font-family="Times,serif" font-size="14.00">map_file_size :integer</text>
<text text-anchor="start" x="559" y="-828.3" font-family="Times,serif" font-size="14.00">map_updated_at :datetime</text>
</g>
<!-- User&#45;&gt;Pdsi -->
<g id="edge14" class="edge"><title>User&#45;&gt;Pdsi</title>
<path fill="none" stroke="#85df6b" d="M774.753,-1048.93C762.432,-1035.3 749.831,-1021.35 737.611,-1007.83"/>
<ellipse fill="none" stroke="#85df6b" cx="777.707" cy="-1052.2" rx="4.00002" ry="4.00002"/>
<ellipse fill="#85df6b" stroke="#85df6b" cx="734.708" cy="-1004.62" rx="4.00002" ry="4.00002"/>
</g>
<!-- Cost -->
<g id="node16" class="node"><title>Cost</title>
<path fill="none" stroke="black" d="M907,-850.5C907,-850.5 1037,-850.5 1037,-850.5 1043,-850.5 1049,-856.5 1049,-862.5 1049,-862.5 1049,-959.5 1049,-959.5 1049,-965.5 1043,-971.5 1037,-971.5 1037,-971.5 907,-971.5 907,-971.5 901,-971.5 895,-965.5 895,-959.5 895,-959.5 895,-862.5 895,-862.5 895,-856.5 901,-850.5 907,-850.5"/>
<text text-anchor="middle" x="972" y="-956.3" font-family="Times,serif" font-size="14.00">Cost</text>
<polyline fill="none" stroke="black" points="895,-948.5 1049,-948.5 "/>
<text text-anchor="start" x="903" y="-933.3" font-family="Times,serif" font-size="14.00">id :integer</text>
<text text-anchor="start" x="903" y="-918.3" font-family="Times,serif" font-size="14.00">name :string</text>
<text text-anchor="start" x="903" y="-903.3" font-family="Times,serif" font-size="14.00">ask_distribution :boolean</text>
<text text-anchor="start" x="903" y="-888.3" font-family="Times,serif" font-size="14.00">data_type :string</text>
<text text-anchor="start" x="903" y="-873.3" font-family="Times,serif" font-size="14.00">created_at :datetime</text>
<text text-anchor="start" x="903" y="-858.3" font-family="Times,serif" font-size="14.00">updated_at :datetime</text>
</g>
<!-- User&#45;&gt;Cost -->
<g id="edge12" class="edge"><title>User&#45;&gt;Cost</title>
<path fill="none" stroke="#655716" d="M920.332,-1029.61C927.652,-1012.95 934.95,-996.333 941.658,-981.065"/>
<polygon fill="#655716" stroke="#655716" points="920.294,-1029.69 912.152,-1037.04 918.283,-1034.27 916.272,-1038.85 916.272,-1038.85 916.272,-1038.85 918.283,-1034.27 920.392,-1040.66 920.294,-1029.69 920.294,-1029.69"/>
<polygon fill="#655716" stroke="#655716" points="941.73,-980.9 949.872,-973.554 943.741,-976.322 945.752,-971.744 945.752,-971.744 945.752,-971.744 943.741,-976.322 941.633,-969.934 941.73,-980.9 941.73,-980.9"/>
</g>
<!-- CostUser -->
<g id="node20" class="node"><title>CostUser</title>
<path fill="none" stroke="black" d="M1006.5,-542.5C1006.5,-542.5 1113.5,-542.5 1113.5,-542.5 1119.5,-542.5 1125.5,-548.5 1125.5,-554.5 1125.5,-554.5 1125.5,-711.5 1125.5,-711.5 1125.5,-717.5 1119.5,-723.5 1113.5,-723.5 1113.5,-723.5 1006.5,-723.5 1006.5,-723.5 1000.5,-723.5 994.5,-717.5 994.5,-711.5 994.5,-711.5 994.5,-554.5 994.5,-554.5 994.5,-548.5 1000.5,-542.5 1006.5,-542.5"/>
<text text-anchor="middle" x="1060" y="-708.3" font-family="Times,serif" font-size="14.00">CostUser</text>
<polyline fill="none" stroke="black" points="994.5,-700.5 1125.5,-700.5 "/>
<text text-anchor="start" x="1002.5" y="-685.3" font-family="Times,serif" font-size="14.00">id :integer</text>
<text text-anchor="start" x="1002.5" y="-670.3" font-family="Times,serif" font-size="14.00">cost_id :integer</text>
<text text-anchor="start" x="1002.5" y="-655.3" font-family="Times,serif" font-size="14.00">user_id :integer</text>
<text text-anchor="start" x="1002.5" y="-640.3" font-family="Times,serif" font-size="14.00">value_2015 :decimal</text>
<text text-anchor="start" x="1002.5" y="-625.3" font-family="Times,serif" font-size="14.00">value_2016 :decimal</text>
<text text-anchor="start" x="1002.5" y="-610.3" font-family="Times,serif" font-size="14.00">reason :text</text>
<text text-anchor="start" x="1002.5" y="-595.3" font-family="Times,serif" font-size="14.00">criteria :text</text>
<text text-anchor="start" x="1002.5" y="-580.3" font-family="Times,serif" font-size="14.00">distribution :text</text>
<text text-anchor="start" x="1002.5" y="-565.3" font-family="Times,serif" font-size="14.00">created_at :datetime</text>
<text text-anchor="start" x="1002.5" y="-550.3" font-family="Times,serif" font-size="14.00">updated_at :datetime</text>
</g>
<!-- User&#45;&gt;CostUser -->
<g id="edge13" class="edge"><title>User&#45;&gt;CostUser</title>
<path fill="none" stroke="#30a8da" d="M843.592,-1030.67C837.231,-962.539 841.839,-879.352 886,-820 913.948,-782.438 950.048,-815.151 985,-784 1000.86,-769.869 1013.76,-751.611 1024.12,-732.727"/>
<ellipse fill="none" stroke="#30a8da" cx="844.02" cy="-1034.92" rx="4" ry="4"/>
<polygon fill="#30a8da" stroke="#30a8da" points="1024.2,-732.575 1032.83,-725.813 1026.52,-728.148 1028.85,-723.721 1028.85,-723.721 1028.85,-723.721 1026.52,-728.148 1024.86,-721.629 1024.2,-732.575 1024.2,-732.575"/>
</g>
<!-- Transportation -->
<g id="node13" class="node"><title>Transportation</title>
<path fill="none" stroke="black" d="M994.5,-242C994.5,-242 1149.5,-242 1149.5,-242 1155.5,-242 1161.5,-248 1161.5,-254 1161.5,-254 1161.5,-336 1161.5,-336 1161.5,-342 1155.5,-348 1149.5,-348 1149.5,-348 994.5,-348 994.5,-348 988.5,-348 982.5,-342 982.5,-336 982.5,-336 982.5,-254 982.5,-254 982.5,-248 988.5,-242 994.5,-242"/>
<text text-anchor="middle" x="1072" y="-332.8" font-family="Times,serif" font-size="14.00">Transportation</text>
<polyline fill="none" stroke="black" points="982.5,-325 1161.5,-325 "/>
<text text-anchor="start" x="990.5" y="-309.8" font-family="Times,serif" font-size="14.00">id :integer</text>
<text text-anchor="start" x="990.5" y="-294.8" font-family="Times,serif" font-size="14.00">demographic_data_id :integer</text>
<text text-anchor="start" x="990.5" y="-279.8" font-family="Times,serif" font-size="14.00">name :string</text>
<text text-anchor="start" x="990.5" y="-264.8" font-family="Times,serif" font-size="14.00">created_at :datetime</text>
<text text-anchor="start" x="990.5" y="-249.8" font-family="Times,serif" font-size="14.00">updated_at :datetime</text>
</g>
<!-- Pdsi&#45;&gt;PhysiographicData -->
<g id="edge16" class="edge"><title>Pdsi&#45;&gt;PhysiographicData</title>
<path fill="none" stroke="#4b6efc" d="M616.484,-812.735C613.697,-803.097 611.137,-793.403 609,-784 594.011,-718.041 616.7,-531.867 571,-482 519.701,-426.024 469.337,-484.679 404,-446 382.983,-433.558 363.638,-416.508 346.652,-398.355"/>
<ellipse fill="none" stroke="#4b6efc" cx="617.63" cy="-816.61" rx="4.00001" ry="4.00001"/>
<polygon fill="#4b6efc" stroke="#4b6efc" points="346.25,-397.913 342.846,-387.488 342.884,-394.215 339.518,-390.518 339.518,-390.518 339.518,-390.518 342.884,-394.215 336.191,-393.547 346.25,-397.913 346.25,-397.913"/>
</g>
<!-- Pdsi&#45;&gt;PdsiBasePoloDatum -->
<g id="edge17" class="edge"><title>Pdsi&#45;&gt;PdsiBasePoloDatum</title>
<path fill="none" stroke="#2f0aa5" d="M543.831,-836.857C531.736,-830.482 519.324,-824.687 507,-820 417.67,-786.029 371.941,-840.692 295,-784 268.173,-764.233 250.159,-732.271 238.434,-702.92"/>
<ellipse fill="none" stroke="#2f0aa5" cx="547.391" cy="-838.775" rx="4.00002" ry="4.00002"/>
<polygon fill="#2f0aa5" stroke="#2f0aa5" points="238.405,-702.846 239.049,-691.899 236.625,-698.173 234.844,-693.501 234.844,-693.501 234.844,-693.501 236.625,-698.173 230.639,-695.104 238.405,-702.846 238.405,-702.846"/>
</g>
<!-- Pdsi&#45;&gt;ServiceNetwork -->
<g id="edge19" class="edge"><title>Pdsi&#45;&gt;ServiceNetwork</title>
<path fill="none" stroke="#7867fe" d="M663.069,-812.029C667.484,-776.185 672.386,-736.397 676.433,-703.542"/>
<ellipse fill="none" stroke="#7867fe" cx="662.528" cy="-816.421" rx="4.00001" ry="4.00001"/>
<polygon fill="#7867fe" stroke="#7867fe" points="676.438,-703.505 682.127,-694.13 677.049,-698.542 677.66,-693.58 677.66,-693.58 677.66,-693.58 677.049,-698.542 673.194,-693.03 676.438,-703.505 676.438,-703.505"/>
</g>
<!-- Pdsi&#45;&gt;Emsi -->
<g id="edge18" class="edge"><title>Pdsi&#45;&gt;Emsi</title>
<path fill="none" stroke="#34d4eb" d="M575.156,-813.977C569.452,-806.756 563.615,-799.366 557.715,-791.896"/>
<ellipse fill="none" stroke="#34d4eb" cx="577.742" cy="-817.252" rx="4.00002" ry="4.00002"/>
<polygon fill="#34d4eb" stroke="#34d4eb" points="557.49,-791.611 554.823,-780.975 554.391,-787.688 551.292,-783.764 551.292,-783.764 551.292,-783.764 554.391,-787.688 547.761,-786.553 557.49,-791.611 557.49,-791.611"/>
</g>
<!-- DemographicData -->
<g id="node19" class="node"><title>DemographicData</title>
<path fill="none" stroke="black" d="M782,-482.5C782,-482.5 964,-482.5 964,-482.5 970,-482.5 976,-488.5 976,-494.5 976,-494.5 976,-771.5 976,-771.5 976,-777.5 970,-783.5 964,-783.5 964,-783.5 782,-783.5 782,-783.5 776,-783.5 770,-777.5 770,-771.5 770,-771.5 770,-494.5 770,-494.5 770,-488.5 776,-482.5 782,-482.5"/>
<text text-anchor="middle" x="873" y="-768.3" font-family="Times,serif" font-size="14.00">DemographicData</text>
<polyline fill="none" stroke="black" points="770,-760.5 976,-760.5 "/>
<text text-anchor="start" x="778" y="-745.3" font-family="Times,serif" font-size="14.00">id :integer</text>
<text text-anchor="start" x="778" y="-730.3" font-family="Times,serif" font-size="14.00">pdsi_id :integer</text>
<text text-anchor="start" x="778" y="-715.3" font-family="Times,serif" font-size="14.00">extensao_territorial :string</text>
<text text-anchor="start" x="778" y="-700.3" font-family="Times,serif" font-size="14.00">municipio_sede :string</text>
<text text-anchor="start" x="778" y="-685.3" font-family="Times,serif" font-size="14.00">endereco :string</text>
<text text-anchor="start" x="778" y="-670.3" font-family="Times,serif" font-size="14.00">email :string</text>
<text text-anchor="start" x="778" y="-655.3" font-family="Times,serif" font-size="14.00">numero_municipios :integer</text>
<text text-anchor="start" x="778" y="-640.3" font-family="Times,serif" font-size="14.00">populacao_indigena :integer</text>
<text text-anchor="start" x="778" y="-625.3" font-family="Times,serif" font-size="14.00">etnias :text</text>
<text text-anchor="start" x="778" y="-610.3" font-family="Times,serif" font-size="14.00">numero_polos_base :integer</text>
<text text-anchor="start" x="778" y="-595.3" font-family="Times,serif" font-size="14.00">numero_ubsi :integer</text>
<text text-anchor="start" x="778" y="-580.3" font-family="Times,serif" font-size="14.00">numero_regioes_de_saude :integer</text>
<text text-anchor="start" x="778" y="-565.3" font-family="Times,serif" font-size="14.00">numero_casais :integer</text>
<text text-anchor="start" x="778" y="-550.3" font-family="Times,serif" font-size="14.00">numero_aldeias :integer</text>
<text text-anchor="start" x="778" y="-535.3" font-family="Times,serif" font-size="14.00">numero_familias :integer</text>
<text text-anchor="start" x="778" y="-520.3" font-family="Times,serif" font-size="14.00">meios_de_transporte :text</text>
<text text-anchor="start" x="778" y="-505.3" font-family="Times,serif" font-size="14.00">created_at :datetime</text>
<text text-anchor="start" x="778" y="-490.3" font-family="Times,serif" font-size="14.00">updated_at :datetime</text>
</g>
<!-- Pdsi&#45;&gt;DemographicData -->
<g id="edge15" class="edge"><title>Pdsi&#45;&gt;DemographicData</title>
<path fill="none" stroke="#52fabf" d="M736.156,-813.972C744.654,-803.939 753.066,-793.82 761,-784 762.296,-782.396 763.596,-780.78 764.9,-779.153"/>
<ellipse fill="none" stroke="#52fabf" cx="733.448" cy="-817.157" rx="4.00002" ry="4.00002"/>
<ellipse fill="#52fabf" stroke="#52fabf" cx="767.451" cy="-775.952" rx="4.00002" ry="4.00002"/>
</g>
<!-- Dsei -->
<g id="node15" class="node"><title>Dsei</title>
<path fill="none" stroke="black" d="M593.5,-1303C593.5,-1303 700.5,-1303 700.5,-1303 706.5,-1303 712.5,-1309 712.5,-1315 712.5,-1315 712.5,-1397 712.5,-1397 712.5,-1403 706.5,-1409 700.5,-1409 700.5,-1409 593.5,-1409 593.5,-1409 587.5,-1409 581.5,-1403 581.5,-1397 581.5,-1397 581.5,-1315 581.5,-1315 581.5,-1309 587.5,-1303 593.5,-1303"/>
<text text-anchor="middle" x="647" y="-1393.8" font-family="Times,serif" font-size="14.00">Dsei</text>
<polyline fill="none" stroke="black" points="581.5,-1386 712.5,-1386 "/>
<text text-anchor="start" x="589.5" y="-1370.8" font-family="Times,serif" font-size="14.00">id :integer</text>
<text text-anchor="start" x="589.5" y="-1355.8" font-family="Times,serif" font-size="14.00">name :string</text>
<text text-anchor="start" x="589.5" y="-1340.8" font-family="Times,serif" font-size="14.00">sesai_id :integer</text>
<text text-anchor="start" x="589.5" y="-1325.8" font-family="Times,serif" font-size="14.00">created_at :datetime</text>
<text text-anchor="start" x="589.5" y="-1310.8" font-family="Times,serif" font-size="14.00">updated_at :datetime</text>
</g>
<!-- Dsei&#45;&gt;BasePolo -->
<g id="edge20" class="edge"><title>Dsei&#45;&gt;BasePolo</title>
<path fill="none" stroke="#448e04" d="M618.335,-1295.66C578.884,-1213.99 508.008,-1067.27 466.269,-980.87"/>
<ellipse fill="none" stroke="#448e04" cx="620.082" cy="-1299.28" rx="4.00002" ry="4.00002"/>
<polygon fill="#448e04" stroke="#448e04" points="466.175,-980.676 465.877,-969.714 464,-976.173 461.825,-971.671 461.825,-971.671 461.825,-971.671 464,-976.173 457.773,-973.629 466.175,-980.676 466.175,-980.676"/>
</g>
<!-- Dsei&#45;&gt;User -->
<g id="edge21" class="edge"><title>Dsei&#45;&gt;User</title>
<path fill="none" stroke="#8c590c" d="M709.752,-1297.38C729.358,-1279.38 751.436,-1259.11 772.713,-1239.57"/>
<ellipse fill="none" stroke="#8c590c" cx="706.602" cy="-1300.27" rx="4.00002" ry="4.00002"/>
<polygon fill="#8c590c" stroke="#8c590c" points="772.835,-1239.46 783.244,-1236.01 776.518,-1236.08 780.201,-1232.7 780.201,-1232.7 780.201,-1232.7 776.518,-1236.08 777.157,-1229.38 772.835,-1239.46 772.835,-1239.46"/>
</g>
<!-- Cost&#45;&gt;CostUser -->
<g id="edge22" class="edge"><title>Cost&#45;&gt;CostUser</title>
<path fill="none" stroke="#64a690" d="M993.526,-842.486C1004,-809.63 1016.8,-769.488 1028.36,-733.231"/>
<ellipse fill="none" stroke="#64a690" cx="992.201" cy="-846.641" rx="4.00001" ry="4.00001"/>
<polygon fill="#64a690" stroke="#64a690" points="1028.39,-733.14 1035.72,-724.98 1029.91,-728.376 1031.43,-723.613 1031.43,-723.613 1031.43,-723.613 1029.91,-728.376 1027.14,-722.246 1028.39,-733.14 1028.39,-733.14"/>
</g>
<!-- DemographicData&#45;&gt;Etnia -->
<g id="edge23" class="edge"><title>DemographicData&#45;&gt;Etnia</title>
<path fill="none" stroke="#60175c" d="M873.94,-474.015C874.184,-433.049 874.433,-391.286 874.628,-358.516"/>
<ellipse fill="none" stroke="#60175c" cx="873.916" cy="-478.179" rx="4" ry="4"/>
<polygon fill="#60175c" stroke="#60175c" points="874.63,-358.205 879.189,-348.232 874.659,-353.205 874.689,-348.205 874.689,-348.205 874.689,-348.205 874.659,-353.205 870.189,-348.178 874.63,-358.205 874.63,-358.205"/>
</g>
<!-- DemographicData&#45;&gt;Transportation -->
<g id="edge24" class="edge"><title>DemographicData&#45;&gt;Transportation</title>
<path fill="none" stroke="#ba7220" d="M965.901,-475.143C990.778,-433.138 1016.21,-390.2 1035.93,-356.895"/>
<ellipse fill="none" stroke="#ba7220" cx="963.772" cy="-478.738" rx="4.00002" ry="4.00002"/>
<polygon fill="#ba7220" stroke="#ba7220" points="1035.99,-356.809 1044.95,-350.498 1038.53,-352.507 1041.08,-348.205 1041.08,-348.205 1041.08,-348.205 1038.53,-352.507 1037.21,-345.912 1035.99,-356.809 1035.99,-356.809"/>
</g>
<!-- TextTemplate -->
<g id="node21" class="node"><title>TextTemplate</title>
<path fill="none" stroke="black" d="M963,-1303C963,-1303 1139,-1303 1139,-1303 1145,-1303 1151,-1309 1151,-1315 1151,-1315 1151,-1397 1151,-1397 1151,-1403 1145,-1409 1139,-1409 1139,-1409 963,-1409 963,-1409 957,-1409 951,-1403 951,-1397 951,-1397 951,-1315 951,-1315 951,-1309 957,-1303 963,-1303"/>
<text text-anchor="middle" x="1051" y="-1393.8" font-family="Times,serif" font-size="14.00">TextTemplate</text>
<polyline fill="none" stroke="black" points="951,-1386 1151,-1386 "/>
<text text-anchor="start" x="959" y="-1370.8" font-family="Times,serif" font-size="14.00">id :integer</text>
<text text-anchor="start" x="959" y="-1355.8" font-family="Times,serif" font-size="14.00">introducao_1 :text</text>
<text text-anchor="start" x="959" y="-1340.8" font-family="Times,serif" font-size="14.00">created_at :datetime</text>
<text text-anchor="start" x="959" y="-1325.8" font-family="Times,serif" font-size="14.00">updated_at :datetime</text>
<text text-anchor="start" x="959" y="-1310.8" font-family="Times,serif" font-size="14.00">processo_construcao_pdsi_2 :text</text>
</g>
</g>
</svg>
